<svg xmlns="http://www.w3.org/2000/svg" width="171" height="194" xmlns:xlink="http://www.w3.org/1999/xlink"><title>Group</title><defs><path id="b" d="M144.82 0h-43.28c-8.92 0-16.18 7.25-16.18 16.17v12.28H73.1c-8.93 0-16.2 7.25-16.2 16.17V56.9H44.64c-8.92 0-16.18 7.25-16.18 16.17v12.27H16.18C7.26 85.34 0 92.6 0 101.5v66.33C0 176.75 7.26 184 16.18 184h43.28c8.92 0 16.18-7.25 16.18-16.17v-12.28H87.9c8.93 0 16.2-7.25 16.2-16.17V127.1h12.27c8.92 0 16.18-7.25 16.18-16.17V98.66h12.27c8.92 0 16.18-7.25 16.18-16.17V16.16C161 7.25 153.74 0 144.82 0zM64.85 167.83c0 2.97-2.42 5.4-5.4 5.4H16.2c-2.98 0-5.4-2.43-5.4-5.4V101.5c0-2.96 2.42-5.38 5.4-5.38h43.28c2.97 0 5.4 2.42 5.4 5.4v66.3zm28.46-28.45c0 2.97-2.4 5.4-5.4 5.4H75.65V101.5c0-8.9-7.26-16.16-16.18-16.16H39.24V73.07c0-2.98 2.42-5.4 5.4-5.4H87.9c3 0 5.4 2.42 5.4 5.4v66.3zm28.46-28.45c0 2.98-2.42 5.4-5.4 5.4H104.1V73.07c0-8.92-7.27-16.18-16.2-16.18H67.7V44.6c0-2.97 2.4-5.4 5.4-5.4h43.27c2.97 0 5.4 2.43 5.4 5.4v66.3zm28.46-28.44c0 2.96-2.42 5.38-5.4 5.38h-12.27V44.62c0-8.92-7.26-16.17-16.18-16.17H96.15V16.17c0-2.97 2.42-5.4 5.4-5.4h43.27c2.98 0 5.4 2.43 5.4 5.4V82.5z"/><filter id="a" width="109.3%" height="108.2%" x="-4.7%" y="-3%" filterUnits="objectBoundingBox"><feMorphology radius=".5" operator="dilate" in="SourceAlpha" result="shadowSpreadOuter1"/><feOffset dy="2" in="shadowSpreadOuter1" result="shadowOffsetOuter1"/><feGaussianBlur stdDeviation="2" in="shadowOffsetOuter1" result="shadowBlurOuter1"/><feComposite in="shadowBlurOuter1" in2="SourceAlpha" operator="out" result="shadowBlurOuter1"/><feColorMatrix values="0 0 0 0 0 0 0 0 0 0 0 0 0 0 0 0 0 0 0.5 0" in="shadowBlurOuter1"/></filter></defs><g fill="none"><g fill-rule="nonzero"><g transform="translate(-112 -220) translate(117 223)"><use fill="#000" filter="url(#a)" xlink:href="#b"/><use fill="#4E4E50" stroke="#1A1A1D" xlink:href="#b"/></g></g></g></svg>