<svg xmlns="http://www.w3.org/2000/svg" width="159" height="224"><defs><filter id="a" width="145.4%" height="129.3%" x="-22.7%" y="-14.7%" filterUnits="objectBoundingBox"><feOffset dy="4" in="SourceAlpha" result="shadowOffsetOuter1"/><feGaussianBlur in="shadowOffsetOuter1" result="shadowBlurOuter1" stdDeviation="5"/><feColorMatrix in="shadowBlurOuter1" result="shadowMatrixOuter1" values="0 0 0 0 0 0 0 0 0 0 0 0 0 0 0 0 0 0 1 0"/><feMerge><feMergeNode in="shadowMatrixOuter1"/><feMergeNode in="SourceGraphic"/></feMerge></filter></defs><g fill="none" fill-rule="nonzero" filter="url(#a)" transform="translate(20 20)"><path fill="#FFB3B3" d="M86.55 130h-54.1A32.46 32.46 0 000 162.4a32.1 32.1 0 006.5 19.44 5.41 5.41 0 004.32 2.16h97.36c1.7 0 3.3-.8 4.33-2.16A32.1 32.1 0 00119 162.4 32.46 32.46 0 0086.55 130z"/><path fill="#F99" d="M112.45 181.84A31.93 31.93 0 00119 162.4c0-17.87-14.68-32.4-32.73-32.4H59v54h49.1c1.7 0 3.32-.8 4.35-2.16z"/><path fill="#FCC" d="M92.57 151.2c-3 0-5.43-2.4-5.43-5.39V87H32.86v58.81c0 2.98-2.44 5.4-5.43 5.4a5.4 5.4 0 00-5.43 5.4 5.4 5.4 0 005.43 5.39h65.14a5.4 5.4 0 100-10.8z"/><path fill="#FFB3B3" d="M97 156.6a5.4 5.4 0 00-5.43-5.4c-3 0-5.43-2.4-5.43-5.39V87H59v75h32.57c3 0 5.43-2.41 5.43-5.4z"/><path fill="#FFB3B3" d="M91.8 62.45C83.56 48.2 70.36 40.58 60 43.7c-10.35-3.11-23.56 4.5-31.8 18.76-4.11 7.12-6.31 15.22-6.2 22.17.14 7.84 3.31 14.12 8.71 17.24 9.76 5.62 21.69-.68 29.29-9.24 0 0 0 0 .01 0 9.05 10.16 20.8 14.14 29.28 9.24 5.4-3.12 8.57-9.4 8.7-17.24.12-6.95-2.08-15.05-6.19-22.17z"/><path fill="#F99" d="M88.29 101.91c5.4-3.12 8.57-9.41 8.7-17.25.12-6.96-2.08-15.07-6.19-22.19C82.56 48.2 69.36 40.57 59 43.7v48.97s0 0 .01 0c9.05 10.17 20.8 14.15 29.28 9.25z"/><path fill="#EDF5FF" d="M23.61 41.39l-11-11a5.5 5.5 0 117.78-7.78l11 11a5.5 5.5 0 11-7.78 7.78z"/><path fill="#D5E8FE" d="M87.61 41.39a5.5 5.5 0 010-7.78l11-11a5.5 5.5 0 117.78 7.78l-11 11a5.5 5.5 0 01-7.78 0z"/><path fill="#EDF5FF" d="M60 0c-8.82 0-16 7.29-16 16.25 0 2.84.73 5.64 2.14 8.12l3.52 6.2c3.37 5.93 5 12.7 5 18.42v10.6c0 2.99 2.4 5.41 5.34 5.41a5.37 5.37 0 005.33-5.42V48.85a38.46 38.46 0 015-18.28l3.52-6.19A16.12 16.12 0 0076 16.25C76 7.29 68.82 0 60 0z"/><path fill="#D5E8FE" d="M65.33 59.58V48.85a38.46 38.46 0 015-18.28l3.52-6.19A16.12 16.12 0 0076 16.25C76 7.29 68.82 0 60 0v65a5.37 5.37 0 005.33-5.42z"/></g></svg>