<svg xmlns="http://www.w3.org/2000/svg" width="59" height="59" xmlns:xlink="http://www.w3.org/1999/xlink"><title>close</title><defs><filter id="a"><feColorMatrix in="SourceGraphic" values="0 0 0 0 0.101961 0 0 0 0 0.101961 0 0 0 0 0.113725 0 0 0 1.000000 0"/></filter><linearGradient id="d" x1="50%" x2="50%" y1="0%" y2="100%"><stop offset="0%"/><stop offset="100%"/></linearGradient><path id="c" d="M25.5 0C11.43 0 0 11.43 0 25.5S11.43 51 25.5 51 51 39.57 51 25.5 39.57 0 25.5 0zm0 48.43c-12.63 0-22.93-10.3-22.93-22.93 0-12.63 10.3-22.93 22.93-22.93 12.63 0 22.93 10.3 22.93 22.93 0 12.63-10.3 22.93-22.93 22.93z"/><filter id="b" width="127.5%" height="127.5%" x="-13.7%" y="-9.8%" filterUnits="objectBoundingBox"><feOffset dy="2" in="SourceAlpha" result="shadowOffsetOuter1"/><feGaussianBlur stdDeviation="2" in="shadowOffsetOuter1" result="shadowBlurOuter1"/><feColorMatrix values="0 0 0 0 0 0 0 0 0 0 0 0 0 0 0 0 0 0 0.5 0" in="shadowBlurOuter1"/></filter><path id="f" d="M27.86 26.03l7.77-7.8c.5-.5.5-1.36 0-1.86s-1.37-.5-1.87 0L26 24.17l-7.76-7.8c-.5-.5-1.37-.5-1.87 0s-.5 1.37 0 1.87l7.77 7.8-7.77 7.72c-.5.5-.5 1.37 0 1.87.25.25.62.37.93.37.3 0 .7-.12.94-.37l7.76-7.8 7.76 7.8c.25.25.63.37.94.37.3 0 .68-.12.93-.37.5-.5.5-1.37 0-1.87l-7.77-7.73z"/><filter id="e" width="180%" height="180%" x="-40%" y="-30%" filterUnits="objectBoundingBox"><feMorphology radius="1" operator="dilate" in="SourceAlpha" result="shadowSpreadOuter1"/><feOffset dy="2" in="shadowSpreadOuter1" result="shadowOffsetOuter1"/><feGaussianBlur stdDeviation="2" in="shadowOffsetOuter1" result="shadowBlurOuter1"/><feComposite in="shadowBlurOuter1" in2="SourceAlpha" operator="out" result="shadowBlurOuter1"/><feColorMatrix values="0 0 0 0 0 0 0 0 0 0 0 0 0 0 0 0 0 0 0.5 0" in="shadowBlurOuter1"/></filter></defs><g fill="none"><g fill-rule="nonzero" transform="translate(-133 -611)" filter="url(#a)"><g transform="translate(137 613)"><use fill="#000" filter="url(#b)" xlink:href="#c"/><use fill="url(#d)" xlink:href="#c"/></g><g transform="translate(137 613)"><use fill="#000" filter="url(#e)" xlink:href="#f"/><use fill="url(#d)" stroke="#1A1A1D" stroke-width="2" xlink:href="#f"/></g></g></g></svg>