<?xml version="1.0" encoding="UTF-8"?>
<svg width="20px" height="20px" viewBox="0 0 20 20" version="1.1" xmlns="http://www.w3.org/2000/svg" xmlns:xlink="http://www.w3.org/1999/xlink">
    <title>Path</title>
    <defs>
        <filter id="filter-1">
            <feColorMatrix in="SourceGraphic" type="matrix" values="0 0 0 0 0.101961 0 0 0 0 0.101961 0 0 0 0 0.113725 0 0 0 1.000000 0"></feColorMatrix>
        </filter>
        <linearGradient x1="50%" y1="0%" x2="50%" y2="100%" id="linearGradient-2">
            <stop stop-color="#000000" offset="0%"></stop>
            <stop stop-color="#000000" offset="100%"></stop>
        </linearGradient>
    </defs>
    <g id="Page-1" stroke="none" stroke-width="1" fill="#000" fill-rule="evenodd">
        <g id="close" transform="translate(-153.000000, -629.000000)" filter="url(#filter-1)">
            <g transform="translate(137.000000, 613.000000)">
                <path d="M27.863354,26.0311526 L35.6273292,18.2429907 C36.1242236,17.7445483 36.1242236,16.8722741 35.6273292,16.3738318 C35.1304348,15.8753894 34.2608696,15.8753894 33.7639752,16.3738318 L26,24.1619938 L18.2360248,16.3738318 C17.7391304,15.8753894 16.8695652,15.8753894 16.3726708,16.3738318 C15.8757764,16.8722741 15.8757764,17.7445483 16.3726708,18.2429907 L24.136646,26.0311526 L16.3726708,33.7570093 C15.8757764,34.2554517 15.8757764,35.1277259 16.3726708,35.6261682 C16.621118,35.8753894 16.9937888,36 17.3043478,36 C17.6149068,36 17.9875776,35.8753894 18.2360248,35.6261682 L26,27.8380062 L33.7639752,35.6261682 C34.0124224,35.8753894 34.3850932,36 34.6956522,36 C35.0062112,36 35.378882,35.8753894 35.6273292,35.6261682 C36.1242236,35.1277259 36.1242236,34.2554517 35.6273292,33.7570093 L27.863354,26.0311526 Z" id="Path" fill="#000" fill-rule="nonzero"></path>
            </g>
        </g>
    </g>
</svg>