<svg xmlns="http://www.w3.org/2000/svg" width="206" height="206" xmlns:xlink="http://www.w3.org/1999/xlink"><title>local_fire_department-24px</title><defs><path id="b" d="M167.58 106.16c-13.45-35.02-61.32-36.9-49.76-87.8.85-3.78-3.17-6.7-6.42-4.72C80.3 32 57.95 68.84 76.7 117.06c1.55 3.95-3.07 7.64-6.4 5.07-15.52-11.76-17.14-28.67-15.77-40.77.5-4.47-5.3-6.6-7.8-2.92C40.9 87.37 35 101.8 35 123.5c3.25 48.07 43.76 62.83 58.32 64.72 20.82 2.66 43.34-1.2 59.53-16.05 17.8-16.57 24.32-43 14.73-66zM88.1 149.34c12.33-3 18.67-11.93 20.38-19.83 2.83-12.26-8.22-24.28-.77-43.68 2.84 16.05 28.02 26.1 28.02 43.6.68 21.72-22.78 40.35-47.62 19.92z"/><filter id="a" width="113.9%" height="110.8%" x="-6.9%" y="-4.3%" filterUnits="objectBoundingBox"><feMorphology radius="2.5" operator="dilate" in="SourceAlpha" result="shadowSpreadOuter1"/><feOffset dy="2" in="shadowSpreadOuter1" result="shadowOffsetOuter1"/><feGaussianBlur stdDeviation="2" in="shadowOffsetOuter1" result="shadowBlurOuter1"/><feComposite in="shadowBlurOuter1" in2="SourceAlpha" operator="out" result="shadowBlurOuter1"/><feColorMatrix values="0 0 0 0 0 0 0 0 0 0 0 0 0 0 0 0 0 0 0.5 0" in="shadowBlurOuter1"/></filter><filter id="c" width="112.4%" height="109.7%" x="-6.2%" y="-3.7%" filterUnits="objectBoundingBox"><feGaussianBlur stdDeviation="1.5" in="SourceAlpha" result="shadowBlurInner1"/><feOffset dy="1" in="shadowBlurInner1" result="shadowOffsetInner1"/><feComposite in="shadowOffsetInner1" in2="SourceAlpha" operator="arithmetic" k2="-1" k3="1" result="shadowInnerInner1"/><feColorMatrix values="0 0 0 0 0 0 0 0 0 0 0 0 0 0 0 0 0 0 0.5 0" in="shadowInnerInner1"/></filter></defs><g fill="none"><g><g><path id="Rectangle" fill="#4E4E50" stroke="#979797" d="M84.5 78.5h57v93h-57z"/><path d="M0 0h206v206H0z"/><g fill-rule="nonzero" transform="translate(-94 -206) translate(94 206)"><use fill="#000" filter="url(#a)" xlink:href="#b"/><use fill="#6F2232" xlink:href="#b"/><use fill="#000" filter="url(#c)" xlink:href="#b"/><use stroke="#1A1A1D" stroke-width="5" xlink:href="#b"/></g></g></g></g></svg>