<svg xmlns="http://www.w3.org/2000/svg" xmlns:xlink="http://www.w3.org/1999/xlink" width="206" height="206"><defs><filter id="a" width="109.6%" height="117.5%" x="-4.8%" y="-6.8%" filterUnits="objectBoundingBox"><feMorphology in="SourceAlpha" operator="dilate" radius="2" result="shadowSpreadOuter1"/><feOffset dy="2" in="shadowSpreadOuter1" result="shadowOffsetOuter1"/><feGaussianBlur in="shadowOffsetOuter1" result="shadowBlurOuter1" stdDeviation="2"/><feComposite in="shadowBlurOuter1" in2="SourceAlpha" operator="out" result="shadowBlurOuter1"/><feColorMatrix in="shadowBlurOuter1" values="0 0 0 0 0 0 0 0 0 0 0 0 0 0 0 0 0 0 0.5 0"/></filter><filter id="c" width="141.5%" height="141.4%" x="-20.8%" y="-16.8%" filterUnits="objectBoundingBox"><feMorphology in="SourceAlpha" operator="dilate" radius="1.5" result="shadowSpreadOuter1"/><feOffset dy="2" in="shadowSpreadOuter1" result="shadowOffsetOuter1"/><feGaussianBlur in="shadowOffsetOuter1" result="shadowBlurOuter1" stdDeviation="2"/><feComposite in="shadowBlurOuter1" in2="SourceAlpha" operator="out" result="shadowBlurOuter1"/><feColorMatrix in="shadowBlurOuter1" values="0 0 0 0 0 0 0 0 0 0 0 0 0 0 0 0 0 0 0.5 0"/></filter><filter id="e" width="142.4%" height="142.2%" x="-21.2%" y="-16.5%" filterUnits="objectBoundingBox"><feMorphology in="SourceAlpha" operator="dilate" radius=".5" result="shadowSpreadOuter1"/><feOffset dy="2" in="shadowSpreadOuter1" result="shadowOffsetOuter1"/><feGaussianBlur in="shadowOffsetOuter1" result="shadowBlurOuter1" stdDeviation="2"/><feComposite in="shadowBlurOuter1" in2="SourceAlpha" operator="out" result="shadowBlurOuter1"/><feColorMatrix in="shadowBlurOuter1" values="0 0 0 0 0 0 0 0 0 0 0 0 0 0 0 0 0 0 0.5 0"/></filter><path id="b" d="M170.9 42.94c-12.38 0-19.3 12.37-16.48 21.56l-30.34 30.57a17.32 17.32 0 00-8.89 0L93.4 73.17c2.9-9.19-4.01-21.64-16.5-21.64-12.38 0-19.39 12.37-16.48 21.64l-38.97 39.08C12.3 109.4 0 116.37 0 128.82 0 138.27 7.7 146 17.1 146c12.38 0 19.3-12.37 16.48-21.56l38.89-39.16c2.56.77 6.32.77 8.88 0l21.8 21.9c-2.91 9.2 4.01 21.64 16.49 21.64 12.39 0 19.4-12.36 16.49-21.64l30.42-30.49C175.7 79.53 188 72.57 188 60.12c0-9.45-7.7-17.18-17.1-17.18z"/><path id="d" d="M119.64 51.53l8.03-17.78 17.6-7.99-17.6-7.98L119.64 0l-7.87 17.78L94 25.76l17.77 8z"/><path id="f" d="M21.36 68.7l4.28-17.17 17.09-4.3-17.1-4.29-4.27-17.18-4.27 17.18L0 47.24l17.1 4.29z"/></defs><g fill="none" fill-rule="evenodd"><path d="M0 0h206v206H0z"/><g fill-rule="nonzero"><g transform="translate(10 26)"><use fill="#000" filter="url(#a)" xlink:href="#b"/><use fill="#4E4E50" stroke="#1A1A1D" stroke-width="4" xlink:href="#b"/></g><g transform="translate(10 26)"><use fill="#000" filter="url(#c)" xlink:href="#d"/><use fill="#6F2232" stroke="#1A1A1D" stroke-width="3" xlink:href="#d"/></g><g transform="translate(10 26)"><use fill="#000" filter="url(#e)" xlink:href="#f"/><use fill="#6F2232" stroke="#1A1A1D" xlink:href="#f"/></g></g></g></svg>