<svg xmlns="http://www.w3.org/2000/svg" width="46" height="58" xmlns:xlink="http://www.w3.org/1999/xlink"><title>joystick (1)</title><defs><path id="b" d="M30 33.75c0-2.07-1.86-3.75-4.14-3.75H11.14C8.86 30 7 31.68 7 33.75V35h23v-1.25z"/><filter id="a" width="169.6%" height="420%" x="-34.8%" y="-120%" filterUnits="objectBoundingBox"><feMorphology radius="1" operator="dilate" in="SourceAlpha" result="shadowSpreadOuter1"/><feOffset dy="2" in="shadowSpreadOuter1" result="shadowOffsetOuter1"/><feGaussianBlur stdDeviation="2" in="shadowOffsetOuter1" result="shadowBlurOuter1"/><feComposite in="shadowBlurOuter1" in2="SourceAlpha" operator="out" result="shadowBlurOuter1"/><feColorMatrix values="0 0 0 0 0 0 0 0 0 0 0 0 0 0 0 0 0 0 0.5 0" in="shadowBlurOuter1"/></filter><path id="d" d="M30.92 39H5.08C2.28 39 0 41.22 0 43.95v2.7C0 47.4.62 48 1.38 48h33.24c.76 0 1.38-.6 1.38-1.35v-2.7c0-2.73-2.28-4.95-5.08-4.95zM6 44.85c-.76 0-1.38-.6-1.38-1.35 0-.75.62-1.35 1.38-1.35.76 0 1.38.6 1.38 1.35 0 .75-.62 1.35-1.38 1.35zm17.54 0H12.46c-.76 0-1.38-.6-1.38-1.35 0-.75.62-1.35 1.38-1.35h11.08c.76 0 1.38.6 1.38 1.35 0 .75-.62 1.35-1.38 1.35zm6.46 0c-.76 0-1.38-.6-1.38-1.35 0-.75.62-1.35 1.38-1.35.76 0 1.38.6 1.38 1.35 0 .75-.62 1.35-1.38 1.35z"/><filter id="c" width="144.4%" height="277.8%" x="-22.2%" y="-66.7%" filterUnits="objectBoundingBox"><feMorphology radius="1" operator="dilate" in="SourceAlpha" result="shadowSpreadOuter1"/><feOffset dy="2" in="shadowSpreadOuter1" result="shadowOffsetOuter1"/><feGaussianBlur stdDeviation="2" in="shadowOffsetOuter1" result="shadowBlurOuter1"/><feComposite in="shadowBlurOuter1" in2="SourceAlpha" operator="out" result="shadowBlurOuter1"/><feColorMatrix values="0 0 0 0 0 0 0 0 0 0 0 0 0 0 0 0 0 0 0.5 0" in="shadowBlurOuter1"/></filter><path id="f" d="M22.08 16.75c2.98-1.42 4.92-4.5 4.92-7.97C27 3.94 23.2 0 18.5 0S10 3.94 10 8.78c0 3.46 1.94 6.55 4.92 7.97V27h7.16V16.75z"/><filter id="e" width="194.1%" height="159.3%" x="-47.1%" y="-22.2%" filterUnits="objectBoundingBox"><feMorphology radius="1" operator="dilate" in="SourceAlpha" result="shadowSpreadOuter1"/><feOffset dy="2" in="shadowSpreadOuter1" result="shadowOffsetOuter1"/><feGaussianBlur stdDeviation="2" in="shadowOffsetOuter1" result="shadowBlurOuter1"/><feComposite in="shadowBlurOuter1" in2="SourceAlpha" operator="out" result="shadowBlurOuter1"/><feColorMatrix values="0 0 0 0 0 0 0 0 0 0 0 0 0 0 0 0 0 0 0.5 0" in="shadowBlurOuter1"/></filter></defs><g fill="none"><g fill-rule="nonzero"><g><g id="Path" transform="translate(-174 -581) translate(179 584)"><use fill="#000" filter="url(#a)" xlink:href="#b"/><use fill="#6F2232" stroke="#1A1A1D" stroke-width="2" xlink:href="#b"/></g><g transform="translate(-174 -581) translate(179 584)"><use fill="#000" filter="url(#c)" xlink:href="#d"/><use fill="#6F2232" stroke="#1A1A1D" stroke-width="2" xlink:href="#d"/></g><g transform="translate(-174 -581) translate(179 584)"><use fill="#000" filter="url(#e)" xlink:href="#f"/><use fill="#6F2232" stroke="#1A1A1D" stroke-width="2" xlink:href="#f"/></g></g></g></g></svg>