<svg xmlns="http://www.w3.org/2000/svg" width="22" height="37" xmlns:xlink="http://www.w3.org/1999/xlink"><title>Path</title><defs><path id="a" d="M207.5 524.2l-13.62-14.67c-.32-.34-.74-.53-1.2-.53-.44 0-.86.2-1.17.53l-1 1.08c-.65.7-.65 1.86 0 2.56l11.45 12.33-11.46 12.34c-.33.34-.5.8-.5 1.27 0 .5.17.95.5 1.3l1 1.07c.3.34.73.53 1.18.53.45 0 .87-.2 1.18-.53l13.65-14.7c.33-.34.5-.8.5-1.28 0-.5-.17-.95-.5-1.3z"/><filter id="b" width="138.9%" height="121.2%" x="-19.4%" y="-10.6%" filterUnits="objectBoundingBox"><feGaussianBlur stdDeviation="1.5" in="SourceAlpha" result="shadowBlurInner1"/><feOffset dy="1" in="shadowBlurInner1" result="shadowOffsetInner1"/><feComposite in="shadowOffsetInner1" in2="SourceAlpha" operator="arithmetic" k2="-1" k3="1" result="shadowInnerInner1"/><feColorMatrix values="0 0 0 0 0 0 0 0 0 0 0 0 0 0 0 0 0 0 0.5 0" in="shadowInnerInner1"/></filter></defs><g fill="none"><g fill-rule="nonzero"><g transform="translate(-188 -507)"><use fill="#1A1A1D" xlink:href="#a"/><use fill="#000" filter="url(#b)" xlink:href="#a"/><use stroke="#1A1A1D" stroke-width="3" xlink:href="#a"/></g></g></g></svg>