<?xml version="1.0" encoding="utf-8"?>
<!-- Generator: Adobe Illustrator 24.1.1, SVG Export Plug-In . SVG Version: 6.00 Build 0)  -->
<svg version="1.1" id="Layer_1" xmlns="http://www.w3.org/2000/svg" xmlns:xlink="http://www.w3.org/1999/xlink" x="0px" y="0px"
	 viewBox="0 0 273.642 217.5678" enable-background="new 0 0 273.642 217.5678" xml:space="preserve">
<g>
	<path d="M77.7139,65.9577l1.3671-1.1504l-0.6721-3.2664c-0.1175-0.5694-0.0031-1.155,0.3217-1.6487
		c0.3257-0.4938,0.8184-0.8298,1.3878-0.9473c0.0877-0.018,0.1749-0.0306,0.2615-0.0377c1.0891-0.0898,2.1146,0.6781,2.3341,1.7477
		l0.6291,3.0538l1.8384,0.4535c10.5174,2.5952,29.2457,14.9294,35.7853,23.5677l1.1416,1.5094l3.0554-0.6287
		c0.0876-0.018,0.1748-0.0306,0.2614-0.0377c1.0891-0.0898,2.1146,0.6781,2.3342,1.7477c0.2448,1.1865-0.5224,2.3517-1.7095,2.596
		l-3.2664,0.6721l-0.5175,1.7104c-3.346,11.0668-16.2531,30.4944-16.8017,31.3162l-0.174,0.2667
		c-1.4791,2.2522-13.5898,20.5128-21.9884,27.5819l-1.3671,1.1504l0.6721,3.2664c0.2449,1.187-0.5224,2.3516-1.7094,2.5965
		c-0.0417,0.0085-0.083,0.0118-0.1245,0.0179l0.9072,2.8642c2.6948-0.6576,4.4291-3.3456,3.8655-6.0835l-0.3121-1.5165
		c9.3912-7.9042,22.7206-28.4702,22.722-28.4723c0.0014-0.0021,13.6306-20.3705,17.1827-32.1201l1.5164-0.3122
		c2.8002-0.5765,4.6196-3.3392,4.0433-6.1394c-0.5765-2.8-3.3391-4.6194-6.1393-4.0432l-1.2,0.247
		c-6.9687-9.2061-26.249-21.9036-37.4589-24.6696l-0.247-1.1999c-0.5766-2.8001-3.3392-4.6195-6.1394-4.0433
		c-2.8002,0.5765-4.6196,3.3392-4.0433,6.1394l0.3122,1.5165c-8.3533,7.0303-19.8139,24.0662-22.248,27.7502l2.8224,1.1716
		C59.3198,88.1283,69.9909,72.4579,77.7139,65.9577z" fill="#1a1a1a"/>
	<path fill="#1a1a1a" d="M42.8302,115.4378c0.8423-1.6813,1.7433-3.3828,2.6652-5.0577l-2.782-1.1548c-0.7756,1.4164-1.5358,2.8516-2.2607,4.2799
		L42.8302,115.4378z"/>
	<path fill="#1a1a1a" d="M241.1409,64.831c-2.5815,0.0609-5.5032-0.816-7.4088-4.6581c0.2128,0.8175,0.411,1.6432,0.6113,2.4774
		c0.3856,1.6074,0.7927,3.2961,1.3404,5.0925C240.8286,67.8324,243.8976,64.7661,241.1409,64.831z"/>
	<path fill="#1a1a1a" d="M231.7448,45.4017c0.7568-17.0488-7.6501-22.1912-15.1555-23.9854c0.1754,1.163,0.2676,2.3528,0.2676,3.5639
		c0,1.464-0.1398,2.8951-0.3942,4.2867c2.6584,2.5627,2.7841,7.9164,2.9447,13.7951c2.9207,1.1178,6.148,3.1795,9.3284,6.8417
		c1.6613,1.9119,2.7604,3.8622,3.5747,5.858C231.7856,53.1091,231.553,49.7233,231.7448,45.4017z"/>
	<path fill="#1a1a1a" d="M214.5573,24.9803c0-11.8741-9.6259-21.5-21.5-21.5c-11.8741,0-21.5,9.6259-21.5,21.5c0,11.8741,9.6259,21.5,21.5,21.5
		C204.9314,46.4803,214.5573,36.8544,214.5573,24.9803z M180.5844,36.4938c0,0,14.0615-1.1717,20.9304-8.7781
		C201.5148,27.7157,197.8733,47.9394,180.5844,36.4938z"/>
	<path fill="#1a1a1a" d="M5.1927,197.7567c-3.8115,5.7559-2.2358,13.5117,3.52,17.3237c2.124,1.4067,4.52,2.0796,6.8901,2.0796
		c4.0527,0,8.0283-1.9678,10.4336-5.5996c13.8587-20.9269,18.5627-40.2085,19.0221-56.1663l-28.1477-22.8795
		C21.6474,147.2481,23.3336,170.3639,5.1927,197.7567z"/>
	<path fill="#1a1a1a" d="M5.5108,120.284l45.2129,36.7515l16.3955,51.7676c1.6875,5.3257,6.6094,8.729,11.9141,8.729
		c1.25,0,2.5215-0.1895,3.7773-0.5869c6.5811-2.0845,10.2266-9.1094,8.1426-15.6909l-17.5254-55.3335
		c-0.7373-2.3262-2.1387-4.3862-4.0322-5.9253l-35.0977-28.5295c0.5043-1.9297,1.097-3.8593,1.7576-5.7811
		c-1.9089-1.8256-3.1064-4.3383-3.2039-7.0649L31.416,58.3855c-0.2021-5.6758,4.251-10.458,9.9268-10.6606
		c0.123-0.0044,0.2451-0.0068,0.3662-0.0068c5.5732,0,10.0947,4.3633,10.2949,9.9326l0.5294,14.8419
		c0.771-1.3297,1.5201-2.6234,2.2245-3.8576c5.8984-8.5114,6.1489-20.9984-1.2583-25.7435
		c-7.4092-4.744-20.6167-4.3074-30.0674,7.9579C10.5367,67.7892,4.9532,79.7656,0.3037,101.6419
		c-0.6514,4.855-0.2168,8.7083,0.9375,11.8088C1.8516,116.047,3.2813,118.4716,5.5108,120.284z"/>
	<path fill="#1a1a1a" d="M49.7051,57.7332c-0.1582-4.415-3.8848-7.8647-8.2803-7.71c-4.416,0.1577-7.8672,3.8647-7.71,8.2803l1.4355,40.2344
		c0.1113,3.1279,2.0371,5.9038,4.9277,7.1035l39.75,16.5c1.0029,0.4165,2.042,0.6133,3.0645,0.6133
		c3.1367,0,6.1143-1.8574,7.3916-4.9351c1.6943-4.0806-0.2412-8.7617-4.3213-10.4556L50.9571,92.8333L49.7051,57.7332z"/>
	<path fill="#1a1a1a" d="M72.4322,44.8395c12.3351-1.4963,21.1238-12.7088,19.6294-25.0461C90.5654,7.4583,79.3509-1.3303,67.0157,0.1659
		c-12.3371,1.4964-21.124,12.7069-19.6276,25.044C48.8825,37.5472,60.0949,46.334,72.4322,44.8395z M87.1634,24.5206
		c0,0-5.0583,19.9166-21.4972,7.2805C65.6662,31.8011,79.7754,31.6237,87.1634,24.5206z"/>
	<path fill="#1a1a1a" d="M209.6028,114.1813c1.9474,2.5168,6.2031,8.1315,10.239,14.2093l2.0288-2.3544
		c-4.0789-6.088-8.2504-11.5705-10.0593-13.9024L209.6028,114.1813z"/>
	<path fill="#1a1a1a" d="M137.8374,120.6956l1.5369,0.1866c4.5056,11.4178,19.7626,30.5974,19.7642,30.5994
		c0.0015,0.002,14.9759,19.403,24.9849,26.5087l-0.1864,1.537c-0.3444,2.838,1.696,5.4419,4.5341,5.7864
		c2.838,0.3442,5.4417-1.696,5.7863-4.5341l0.1476-1.2162c1.3908-0.4673,2.8992-1.1068,4.4839-1.8844l0.5416-3.6558
		c-2.1506,1.1619-4.1806,2.0914-5.9809,2.6964l-1.7949,0.603l-0.376,3.0952c-0.1309,1.0845-1.0898,1.9341-2.1826,1.9341
		c-0.0869,0-0.1748-0.0054-0.2637-0.0161c-1.2031-0.1465-2.0635-1.2441-1.917-2.4473l0.4014-3.3105l-1.457-1.0342
		c-8.9512-6.355-22.5215-23.5586-24.1807-25.6816l-0.1953-0.2515c-0.6143-0.7739-15.0742-19.0752-19.3184-29.8296l-0.6563-1.6621
		l-3.3105-0.4014c-1.2031-0.146-2.0635-1.2441-1.917-2.4468c0.1309-1.084,1.0898-1.9336,2.1826-1.9336
		c0.0869,0,0.1748,0.0054,0.2637,0.0161l3.0967,0.3755l1.0137-1.5981c5.8076-9.1465,23.459-22.978,33.7275-26.4287l1.7949-0.603
		l0.376-3.0952c0.1309-1.084,1.0898-1.9336,2.1826-1.9336c0.0869,0,0.1748,0.0054,0.2637,0.0161
		c0.5771,0.0703,1.0957,0.3647,1.4609,0.8301c0.3643,0.4653,0.5264,1.0396,0.4561,1.6167l-0.4014,3.3105l1.457,1.0342
		c4.1053,2.9144,9.1282,8.0432,13.5461,12.9738l2.1959-2.0359c-4.5375-5.0577-9.7245-10.3452-14.0054-13.3843l0.1865-1.537
		c0.3442-2.8381-1.696-5.442-4.5341-5.7864c-2.8381-0.3442-5.4418,1.6961-5.7864,4.5341l-0.1476,1.2161
		c-10.9447,3.6779-29.1163,17.9169-35.3049,27.6645l-1.2162-0.1476c-2.838-0.3442-5.4418,1.6961-5.7863,4.534
		C132.959,117.7474,134.9992,120.3512,137.8374,120.6956z"/>
	<path fill="#1a1a1a" d="M231.2689,154.3461c1.3961,18.8428,7.4204,40.5194,23.9358,59.5933c2.0762,2.3984,5.001,3.6274,7.9424,3.627
		c2.4355,0,4.8828-0.8428,6.8682-2.562c4.3838-3.7959,4.8604-10.4272,1.0645-14.811
		c-20.433-23.5988-20.3726-53.4802-17.9054-71.2701L231.2689,154.3461z"/>
	<path fill="#1a1a1a" d="M205.6421,61.2365c0.2383-4.9648,4.3213-8.854,9.2949-8.854c0.1436,0,0.2891,0.0034,0.4395,0.0103
		c5.1211,0.2461,9.0889,4.6133,8.8438,9.7354l-1.75,36.5c-0.0598,1.2471-0.3658,2.4454-0.8868,3.5425
		c4.1035,6.9191,6.7051,13.0093,8.4977,17.8597l-22.5601,26.182c-1.2979,1.5059-2.1416,3.3491-2.4326,5.3154l-8,54
		c-0.8496,5.7363,3.1113,11.0752,8.8477,11.9253c0.5225,0.0771,1.04,0.1147,1.5518,0.1147c5.1191,0,9.6016-3.748,10.374-8.9629
		l7.5537-50.9897l33.3857-38.7456c1.312-1.5225,2.0981-3.3152,2.3984-5.1636c1.6118-4.7595,0.3882-10.198-6.0444-15.7769
		c-28.5615-24.7717-19.1357-36.1355-28.1553-46.5168c-9.1733-10.5618-20.5454-8.5359-26.5952-0.5972
		c2.7924,8.5341,0.6944,12.9341-0.8316,16.3264c-1.2169,1.3369-2.4201,2.6997-3.5031,3.9935
		c-1.4227,1.6996-2.6352,3.2768-3.3735,4.4991c-0.186-0.0673-0.3839-0.1102-0.5931-0.1102c-0.9665,0-1.75,0.7835-1.75,1.75
		c0,0.9006,0.6829,1.6337,1.5576,1.7306c0.3136,5.7579,4.7255,13.2609,12.3866,10.2698L205.6421,61.2365z"/>
	<path fill="#1a1a1a" d="M184.0474,125.1916c1.3799,1.4878,3.2549,2.2407,5.1357,2.2407c1.7021,0,3.4102-0.6177,4.7568-1.8667l24-22.25
		c1.3438-1.2456,2.1455-2.9683,2.2334-4.7979l1.75-36.5c0.1846-3.8618-2.7949-7.1421-6.6572-7.3276
		c-3.875-0.1772-7.1416,2.7949-7.3271,6.6567l-1.6133,33.6455l-21.9033,20.3066
		C181.5874,117.9274,181.4195,122.3561,184.0474,125.1916z"/>
</g>
</svg>
