<svg xmlns="http://www.w3.org/2000/svg" xmlns:xlink="http://www.w3.org/1999/xlink" width="58" height="58"><defs><filter id="a" width="137.2%" height="157.1%" x="-18.6%" y="-21.4%" filterUnits="objectBoundingBox"><feMorphology in="SourceAlpha" operator="dilate" radius="1" result="shadowSpreadOuter1"/><feOffset dy="2" in="shadowSpreadOuter1" result="shadowOffsetOuter1"/><feGaussianBlur in="shadowOffsetOuter1" result="shadowBlurOuter1" stdDeviation="2"/><feComposite in="shadowBlurOuter1" in2="SourceAlpha" operator="out" result="shadowBlurOuter1"/><feColorMatrix in="shadowBlurOuter1" values="0 0 0 0 0 0 0 0 0 0 0 0 0 0 0 0 0 0 0.5 0"/></filter><filter id="c" width="133.3%" height="147.1%" x="-16.7%" y="-17.6%" filterUnits="objectBoundingBox"><feMorphology in="SourceAlpha" operator="dilate" radius="1" result="shadowSpreadOuter1"/><feOffset dy="2" in="shadowSpreadOuter1" result="shadowOffsetOuter1"/><feGaussianBlur in="shadowOffsetOuter1" result="shadowBlurOuter1" stdDeviation="2"/><feComposite in="shadowBlurOuter1" in2="SourceAlpha" operator="out" result="shadowBlurOuter1"/><feColorMatrix in="shadowBlurOuter1" values="0 0 0 0 0 0 0 0 0 0 0 0 0 0 0 0 0 0 0.5 0"/></filter><path id="b" d="M7.3 22.4c1.16 0 2.2-.45 2.98-1.18l4.24 2.07c-.02.17-.05.34-.05.51 0 2.32 1.93 4.2 4.3 4.2s4.3-1.88 4.3-4.2c0-.65-.17-1.25-.43-1.8l5.75-5.62a4.26 4.26 0 006.14-3.78c0-.44-.08-.85-.21-1.24l5-3.67c.68.45 1.5.71 2.38.71 2.37 0 4.3-1.88 4.3-4.2C46 1.88 44.07 0 41.7 0a4.26 4.26 0 00-4.3 4.2c0 .44.09.85.21 1.24l-5 3.67c-.68-.45-1.5-.71-2.38-.71a4.26 4.26 0 00-4.3 4.2c0 .65.17 1.25.43 1.8l-5.75 5.62a4.33 4.33 0 00-4.82.76l-4.24-2.07c.02-.17.05-.34.05-.51 0-2.32-1.93-4.2-4.3-4.2A4.26 4.26 0 003 18.2c0 2.32 1.93 4.2 4.3 4.2z"/><path id="d" d="M46.6 45.18h-1.5V15.41c0-.78-.64-1.41-1.41-1.41h-5.63c-.77 0-1.4.63-1.4 1.4v29.78h-2.82V23.86c0-.78-.63-1.4-1.4-1.4H26.8c-.77 0-1.4.62-1.4 1.4v21.32h-2.82V35.13c0-.78-.63-1.4-1.4-1.4h-5.63c-.77 0-1.4.62-1.4 1.4v10.05h-2.82V29.5c0-.78-.63-1.41-1.4-1.41H4.3c-.77 0-1.4.63-1.4 1.4v15.7H1.4a1.4 1.4 0 000 2.81h45.18a1.4 1.4 0 000-2.82z"/></defs><g fill="none" fill-rule="nonzero"><g transform="translate(5 3)"><use fill="#000" filter="url(#a)" xlink:href="#b"/><use fill="#6F2232" stroke="#1A1A1D" stroke-width="2" xlink:href="#b"/></g><g transform="translate(5 3)"><use fill="#000" filter="url(#c)" xlink:href="#d"/><use fill="#6F2232" stroke="#1A1A1D" stroke-width="2" xlink:href="#d"/></g></g></svg>