<svg xmlns="http://www.w3.org/2000/svg" width="183" height="251" xmlns:xlink="http://www.w3.org/1999/xlink"><title>sex-etsy-35</title><defs><path id="b" d="M73.65 162.22c.92.7 1.73 1.4 2.45 2.1l.18-1.03c.76-4.5 4.6-7.75 9.15-7.75.53 0 1.06.05 1.58.14 2.46.4 4.6 1.75 6.03 3.78 1.44 2.03 2 4.5 1.58 6.94l-4.9 28.8c4.4 1.15 9.2-.7 11.32-9.47 11.46 3.18 20.34 7.27 27.15 11.2L96.8 224.86c-3.27 2.9-4.4 7.5-2.84 11.58 1.55 4.07 5.45 6.76 9.8 6.76h58.5c5.8 0 10.5-4.7 10.5-10.5s-4.7-10.5-10.5-10.5h-30.9l18.72-16.64c.6-.53 1.1-1.1 1.55-1.73 8.17-9.38 15.76-30.94-6.2-33.5-37.56-4.4-36.17-19.1-49.47-22.6-13.52-3.56-21.78 4.52-22.3 14.5z"/><filter id="a" width="117.2%" height="117.6%" x="-8.6%" y="-6.7%" filterUnits="objectBoundingBox"><feMorphology radius="1.5" operator="dilate" in="SourceAlpha" result="shadowSpreadOuter1"/><feOffset dy="2" in="shadowSpreadOuter1" result="shadowOffsetOuter1"/><feGaussianBlur stdDeviation="2" in="shadowOffsetOuter1" result="shadowBlurOuter1"/><feComposite in="shadowBlurOuter1" in2="SourceAlpha" operator="out" result="shadowBlurOuter1"/><feColorMatrix values="0 0 0 0 0 0 0 0 0 0 0 0 0 0 0 0 0 0 0.5 0" in="shadowBlurOuter1"/></filter><path id="d" d="M92.34 166.03c.66-3.8-1.9-7.42-5.72-8.08-3.8-.65-7.42 1.9-8.07 5.72l-12.18 71.2c-.65 3.8 1.9 7.42 5.72 8.07.4.07.8.1 1.18.1 3.35 0 6.3-2.4 6.9-5.82l12.16-71.2z"/><filter id="c" width="164.9%" x="-32.5%" y="-7.6%" filterUnits="objectBoundingBox"><feMorphology radius="1.5" operator="dilate" in="SourceAlpha" result="shadowSpreadOuter1"/><feOffset dy="2" in="shadowSpreadOuter1" result="shadowOffsetOuter1"/><feGaussianBlur stdDeviation="2" in="shadowOffsetOuter1" result="shadowBlurOuter1"/><feComposite in="shadowBlurOuter1" in2="SourceAlpha" operator="out" result="shadowBlurOuter1"/><feColorMatrix values="0 0 0 0 0 0 0 0 0 0 0 0 0 0 0 0 0 0 0.5 0" in="shadowBlurOuter1"/></filter><path id="f" d="M101.5 122.02c6.7 4.26 4.4 23.57 13.93 30.5 12.34 8.97 21.72-1.5 17.28-.5-4.42 1-10.45-.62-13.04-17.2-2.62-16.85-11.88-20.23-19.6-20.5.4 1.1.74 2.25.97 3.43.3 1.43.44 2.86.46 4.27z"/><filter id="e" width="152%" height="140.7%" x="-27.4%" y="-15.6%" filterUnits="objectBoundingBox"><feMorphology radius="1.5" operator="dilate" in="SourceAlpha" result="shadowSpreadOuter1"/><feOffset dy="2" in="shadowSpreadOuter1" result="shadowOffsetOuter1"/><feGaussianBlur stdDeviation="2" in="shadowOffsetOuter1" result="shadowBlurOuter1"/><feComposite in="shadowBlurOuter1" in2="SourceAlpha" operator="out" result="shadowBlurOuter1"/><feColorMatrix values="0 0 0 0 0 0 0 0 0 0 0 0 0 0 0 0 0 0 0.5 0" in="shadowBlurOuter1"/></filter><path id="h" d="M95 114.42c.88 2.6.7 5.4-.53 7.86-1.75 3.54-5.3 5.73-9.24 5.73-1.6 0-3.13-.35-4.56-1.06L57.4 115.42c-1.23 3.5-1.56 7.38-.77 11.3 2.34 11.63 13.68 19.16 25.32 16.8 11.64-2.33 19.18-13.67 16.83-25.3-2.24-11.14-12.7-18.5-23.8-17.08l14.83 7.34c2.47 1.22 4.32 3.33 5.2 5.94z"/><filter id="g" width="139.5%" height="139.5%" x="-19.8%" y="-15.1%" filterUnits="objectBoundingBox"><feMorphology radius="1.5" operator="dilate" in="SourceAlpha" result="shadowSpreadOuter1"/><feOffset dy="2" in="shadowSpreadOuter1" result="shadowOffsetOuter1"/><feGaussianBlur stdDeviation="2" in="shadowOffsetOuter1" result="shadowBlurOuter1"/><feComposite in="shadowBlurOuter1" in2="SourceAlpha" operator="out" result="shadowBlurOuter1"/><feColorMatrix values="0 0 0 0 0 0 0 0 0 0 0 0 0 0 0 0 0 0 0.5 0" in="shadowBlurOuter1"/></filter><path id="j" d="M1.93 129.5c.46 1.9 1.36 3.72 2.73 5.3l32.86 37.6-10.3 55.7c-1.24 6.78 3.24 13.3 10.03 14.56.77.14 1.53.2 2.3.2 5.9 0 11.15-4.2 12.26-10.22L63.2 171c.7-3.75-.37-7.62-2.88-10.5l-24.56-28.1c.13-1.4.2-2.95.18-4.72-.68-8.65.47-17.92 2.22-26.76l-16.62-24.5c-3.18-4.7-1.95-11.13 2.75-14.32 1.7-1.16 3.7-1.77 5.76-1.77 3.43 0 6.6 1.7 8.53 4.52L44.8 74c2-9.17-1.24-19.34-8.86-21.7-8.4-2.58-21.02 1.37-26.85 15.7C1.2 87.8-1 100.83.37 123.15c.33 2.42.87 4.52 1.55 6.36z"/><filter id="i" width="126.8%" height="108.9%" x="-13.4%" y="-3.4%" filterUnits="objectBoundingBox"><feMorphology radius="1.5" operator="dilate" in="SourceAlpha" result="shadowSpreadOuter1"/><feOffset dy="2" in="shadowSpreadOuter1" result="shadowOffsetOuter1"/><feGaussianBlur stdDeviation="2" in="shadowOffsetOuter1" result="shadowBlurOuter1"/><feComposite in="shadowBlurOuter1" in2="SourceAlpha" operator="out" result="shadowBlurOuter1"/><feColorMatrix values="0 0 0 0 0 0 0 0 0 0 0 0 0 0 0 0 0 0 1 0" in="shadowBlurOuter1"/></filter><ellipse id="l" cx="44.981" cy="26.502" rx="22.5" ry="22.5"/><filter id="k" width="137.8%" height="137.8%" x="-18.9%" y="-14.4%" filterUnits="objectBoundingBox"><feMorphology radius="1.5" operator="dilate" in="SourceAlpha" result="shadowSpreadOuter1"/><feOffset dy="2" in="shadowSpreadOuter1" result="shadowOffsetOuter1"/><feGaussianBlur stdDeviation="2" in="shadowOffsetOuter1" result="shadowBlurOuter1"/><feComposite in="shadowBlurOuter1" in2="SourceAlpha" operator="out" result="shadowBlurOuter1"/><feColorMatrix values="0 0 0 0 0 0 0 0 0 0 0 0 0 0 0 0 0 0 1 0" in="shadowBlurOuter1"/></filter><path id="n" d="M36.7 66.14c-2.5-3.66-7.46-4.6-11.12-2.13-3.66 2.5-4.6 7.46-2.13 11.12l20.16 29.75c.8 1.14 1.85 2.06 3.1 2.68l35 17.33c1.13.57 2.34.83 3.53.83 2.95 0 5.78-1.62 7.18-4.44 1.97-3.96.35-8.76-3.6-10.72l-33.12-16.4-19-28z"/><filter id="m" width="123.9%" height="126.9%" x="-11.9%" y="-10.3%" filterUnits="objectBoundingBox"><feMorphology radius="1.5" operator="dilate" in="SourceAlpha" result="shadowSpreadOuter1"/><feOffset dy="2" in="shadowSpreadOuter1" result="shadowOffsetOuter1"/><feGaussianBlur stdDeviation="2" in="shadowOffsetOuter1" result="shadowBlurOuter1"/><feComposite in="shadowBlurOuter1" in2="SourceAlpha" operator="out" result="shadowBlurOuter1"/><feColorMatrix values="0 0 0 0 0 0 0 0 0 0 0 0 0 0 0 0 0 0 1 0" in="shadowBlurOuter1"/></filter></defs><g fill="none"><g fill-rule="nonzero"><g id="Path" transform="translate(5)"><use fill="#000" filter="url(#a)" xlink:href="#b"/><use fill="#6F2232" stroke="#1A1A1D" stroke-width="3" xlink:href="#b"/></g><g id="Path" transform="translate(5)"><use fill="#000" filter="url(#c)" xlink:href="#d"/><use fill="#6F2232" stroke="#1A1A1D" stroke-width="3" xlink:href="#d"/></g><g id="Path" transform="translate(5)"><use fill="#000" filter="url(#e)" xlink:href="#f"/><use fill="#6F2232" stroke="#1A1A1D" stroke-width="3" xlink:href="#f"/></g><g id="Path" transform="translate(5)"><use fill="#000" filter="url(#g)" xlink:href="#h"/><use fill="#6F2232" stroke="#1A1A1D" stroke-width="3" xlink:href="#h"/></g><g id="Path" transform="translate(5)"><use fill="#000" filter="url(#i)" xlink:href="#j"/><use fill="#4E4E50" stroke="#1A1A1D" stroke-width="3" xlink:href="#j"/></g><g transform="translate(5) rotate(-10.644 44.981 26.502)"><use fill="#000" filter="url(#k)" xlink:href="#l"/><use fill="#4E4E50" stroke="#1A1A1D" stroke-width="3" xlink:href="#l"/></g><g transform="translate(5)"><use fill="#000" filter="url(#m)" xlink:href="#n"/><use fill="#4E4E50" stroke="#1A1A1D" stroke-width="3" xlink:href="#n"/></g></g></g></svg>