<svg xmlns="http://www.w3.org/2000/svg" width="218" height="250" xmlns:xlink="http://www.w3.org/1999/xlink"><title>sex-etsy-27</title><defs><path id="b" d="M96.75 108.83l-8.24-5-21.94-13.3c-2.55-1.56-5.64-1.94-8.5-1.08l-50.6 15.33c-5.55 1.68-8.7 7.54-7 13.1 1.67 5.54 7.54 8.67 13.1 7l46.1-13.97 29.64 17.98 10.87 6.6c1.03.62 2.13 1.02 3.25 1.26 7.8 3.18 16.2 2.08 20.2-10.25.64-2.03 1.3-3.92 1.97-5.7l-27.35-13.53c-.5.54-1 1.06-1.5 1.56z"/><filter id="a" width="113.8%" height="134.5%" x="-6.8%" y="-13.2%" filterUnits="objectBoundingBox"><feMorphology radius="1.5" operator="dilate" in="SourceAlpha" result="shadowSpreadOuter1"/><feOffset dy="2" in="shadowSpreadOuter1" result="shadowOffsetOuter1"/><feGaussianBlur stdDeviation="2" in="shadowOffsetOuter1" result="shadowBlurOuter1"/><feComposite in="shadowBlurOuter1" in2="SourceAlpha" operator="out" result="shadowBlurOuter1"/><feColorMatrix values="0 0 0 0 0 0 0 0 0 0 0 0 0 0 0 0 0 0 1 0" in="shadowBlurOuter1"/></filter><path id="d" d="M150.93 73.6c-1.3 3.38-4.6 5.65-8.22 5.65-1.07 0-2.13-.2-3.14-.58L109.88 67.3c-1.77 4.04-.72 8.94 7.24 12.63-1.98 3.92-4 7.48-6.05 10.7l24.04 11.9c8.3-11 16.2-11.73 20.3-20.16 6.12-12.58-.2-22.25-9.87-24.7-1.4 1.22-2.7 2.17-3.96 2.92l4.3 1.63c4.52 1.74 6.8 6.83 5.06 11.37z"/><filter id="c" width="134.9%" height="139.1%" x="-17.5%" y="-14.8%" filterUnits="objectBoundingBox"><feMorphology radius="1.5" operator="dilate" in="SourceAlpha" result="shadowSpreadOuter1"/><feOffset dy="2" in="shadowSpreadOuter1" result="shadowOffsetOuter1"/><feGaussianBlur stdDeviation="2" in="shadowOffsetOuter1" result="shadowBlurOuter1"/><feComposite in="shadowBlurOuter1" in2="SourceAlpha" operator="out" result="shadowBlurOuter1"/><feColorMatrix values="0 0 0 0 0 0 0 0 0 0 0 0 0 0 0 0 0 0 1 0" in="shadowBlurOuter1"/></filter><path id="f" d="M168.7 123.82c-.37 15.26 13.57 17.04 10.23 13.96-3.34-3.08-5.44-8.97 6.74-20.5 11.2-10.6 10.26-19.4 6.9-25.8-2.22.88-4.6 1.45-7.1 1.63 3.67 8.4-16.44 18-16.76 30.72z"/><filter id="e" width="165.1%" height="136.4%" x="-32.5%" y="-14.5%" filterUnits="objectBoundingBox"><feMorphology radius="1.5" operator="dilate" in="SourceAlpha" result="shadowSpreadOuter1"/><feOffset dy="2" in="shadowSpreadOuter1" result="shadowOffsetOuter1"/><feGaussianBlur stdDeviation="2" in="shadowOffsetOuter1" result="shadowBlurOuter1"/><feComposite in="shadowBlurOuter1" in2="SourceAlpha" operator="out" result="shadowBlurOuter1"/><feColorMatrix values="0 0 0 0 0 0 0 0 0 0 0 0 0 0 0 0 0 0 1 0" in="shadowBlurOuter1"/></filter><circle id="h" cx="183.741" cy="69.378" r="21.5"/><filter id="g" width="139.5%" height="139.5%" x="-19.8%" y="-15.1%" filterUnits="objectBoundingBox"><feMorphology radius="1.5" operator="dilate" in="SourceAlpha" result="shadowSpreadOuter1"/><feOffset dy="2" in="shadowSpreadOuter1" result="shadowOffsetOuter1"/><feGaussianBlur stdDeviation="2" in="shadowOffsetOuter1" result="shadowBlurOuter1"/><feComposite in="shadowBlurOuter1" in2="SourceAlpha" operator="out" result="shadowBlurOuter1"/><feColorMatrix values="0 0 0 0 0 0 0 0 0 0 0 0 0 0 0 0 0 0 1 0" in="shadowBlurOuter1"/></filter><path id="j" d="M61.1 86.7c2.35 0 4.65.64 6.65 1.85L86.8 100.1c.18-1.06.38-2.12.6-3.18l-16.63-24.5c-3.18-4.7-1.95-11.13 2.75-14.32 1.7-1.16 3.7-1.77 5.77-1.77 3.4 0 6.6 1.7 8.52 4.52l6.2 9.15c.63-2.87.76-5.83.4-8.62L68.16 51.33C64.25 54 60.7 58.13 58.32 64c-3.74 9.37-6.18 17.23-7.6 25.27l6.68-2.02c1.2-.37 2.45-.55 3.7-.55z"/><filter id="i" width="139.6%" height="137.1%" x="-20.2%" y="-13.7%" filterUnits="objectBoundingBox"><feMorphology radius="1.5" operator="dilate" in="SourceAlpha" result="shadowSpreadOuter1"/><feOffset dy="2" in="shadowSpreadOuter1" result="shadowOffsetOuter1"/><feGaussianBlur stdDeviation="2" in="shadowOffsetOuter1" result="shadowBlurOuter1"/><feComposite in="shadowBlurOuter1" in2="SourceAlpha" operator="out" result="shadowBlurOuter1"/><feColorMatrix values="0 0 0 0 0 0 0 0 0 0 0 0 0 0 0 0 0 0 1 0" in="shadowBlurOuter1"/></filter><path id="l" d="M59.36 113.4l-9.9 3c.05.9.1 1.8.15 2.74.34 2.42.87 4.52 1.56 6.36.46 1.9 1.36 3.72 2.73 5.3l32.85 37.6-10.3 55.7c-1.25 6.78 3.24 13.3 10.03 14.56.77.14 1.53.2 2.28.2 5.92 0 11.17-4.2 12.28-10.22l11.4-61.64c.68-3.75-.38-7.62-2.9-10.5l-23.5-26.9-26.68-16.2z"/><filter id="k" width="127%" height="113.7%" x="-13.5%" y="-5.3%" filterUnits="objectBoundingBox"><feMorphology radius="1.5" operator="dilate" in="SourceAlpha" result="shadowSpreadOuter1"/><feOffset dy="2" in="shadowSpreadOuter1" result="shadowOffsetOuter1"/><feGaussianBlur stdDeviation="2" in="shadowOffsetOuter1" result="shadowBlurOuter1"/><feComposite in="shadowBlurOuter1" in2="SourceAlpha" operator="out" result="shadowBlurOuter1"/><feColorMatrix values="0 0 0 0 0 0 0 0 0 0 0 0 0 0 0 0 0 0 1 0" in="shadowBlurOuter1"/></filter><path id="n" d="M116.68 23.73c.68-12.4-8.83-23.02-21.24-23.7-12.4-.68-23.02 8.83-23.7 21.24-.28 5.24 1.25 10.15 4.04 14.13l23.54 9c9.5-2.2 16.8-10.44 17.36-20.67z"/><filter id="m" width="137.8%" height="138.4%" x="-18.9%" y="-14.6%" filterUnits="objectBoundingBox"><feMorphology radius="1.5" operator="dilate" in="SourceAlpha" result="shadowSpreadOuter1"/><feOffset dy="2" in="shadowSpreadOuter1" result="shadowOffsetOuter1"/><feGaussianBlur stdDeviation="2" in="shadowOffsetOuter1" result="shadowBlurOuter1"/><feComposite in="shadowBlurOuter1" in2="SourceAlpha" operator="out" result="shadowBlurOuter1"/><feColorMatrix values="0 0 0 0 0 0 0 0 0 0 0 0 0 0 0 0 0 0 1 0" in="shadowBlurOuter1"/></filter><path id="p" d="M104.9 90.14l-18.98-28c-2.48-3.66-7.45-4.6-11.1-2.13-3.67 2.5-4.62 7.46-2.14 11.12l20.16 29.75c.78 1.14 1.84 2.06 3.07 2.68l35 17.33c1.16.57 2.37.83 3.56.83 2.95 0 5.78-1.62 7.17-4.44 1.97-3.96.35-8.76-3.6-10.72l-33.13-16.4z"/><filter id="o" width="123.9%" height="126.9%" x="-11.9%" y="-10.3%" filterUnits="objectBoundingBox"><feMorphology radius="1.5" operator="dilate" in="SourceAlpha" result="shadowSpreadOuter1"/><feOffset dy="2" in="shadowSpreadOuter1" result="shadowOffsetOuter1"/><feGaussianBlur stdDeviation="2" in="shadowOffsetOuter1" result="shadowBlurOuter1"/><feComposite in="shadowBlurOuter1" in2="SourceAlpha" operator="out" result="shadowBlurOuter1"/><feColorMatrix values="0 0 0 0 0 0 0 0 0 0 0 0 0 0 0 0 0 0 1 0" in="shadowBlurOuter1"/></filter><path id="r" d="M140.4 76.52c.75.3 1.54.43 2.3.43 2.62 0 5.1-1.6 6.08-4.18 1.28-3.35-.4-7.1-3.75-8.4l-74-28.32c-3.34-1.3-7.1.4-8.4 3.74-1.27 3.34.4 7.1 3.76 8.4l74 28.32z"/><filter id="q" width="119.5%" height="141.1%" x="-9.8%" y="-15.7%" filterUnits="objectBoundingBox"><feMorphology radius="1.5" operator="dilate" in="SourceAlpha" result="shadowSpreadOuter1"/><feOffset dy="2" in="shadowSpreadOuter1" result="shadowOffsetOuter1"/><feGaussianBlur stdDeviation="2" in="shadowOffsetOuter1" result="shadowBlurOuter1"/><feComposite in="shadowBlurOuter1" in2="SourceAlpha" operator="out" result="shadowBlurOuter1"/><feColorMatrix values="0 0 0 0 0 0 0 0 0 0 0 0 0 0 0 0 0 0 1 0" in="shadowBlurOuter1"/></filter></defs><g fill="none"><g fill-rule="nonzero"><g id="Path" transform="translate(5 4)"><use fill="#000" filter="url(#a)" xlink:href="#b"/><use fill="#6F2232" stroke="#1A1A1D" stroke-width="3" xlink:href="#b"/></g><g id="Path" transform="translate(5 4)"><use fill="#000" filter="url(#c)" xlink:href="#d"/><use fill="#6F2232" stroke="#1A1A1D" stroke-width="3" xlink:href="#d"/></g><g id="Path" transform="translate(5 4)"><use fill="#000" filter="url(#e)" xlink:href="#f"/><use fill="#6F2232" stroke="#1A1A1D" stroke-width="3" xlink:href="#f"/></g><g transform="translate(5 4) rotate(-38.492 183.741 69.378)"><use fill="#000" filter="url(#g)" xlink:href="#h"/><use fill="#6F2232" stroke="#1A1A1D" stroke-width="3" xlink:href="#h"/></g><g id="Path" transform="translate(5 4)"><use fill="#000" filter="url(#i)" xlink:href="#j"/><use fill="#4E4E50" stroke="#1A1A1D" stroke-width="3" xlink:href="#j"/></g><g id="Path" transform="translate(5 4)"><use fill="#000" filter="url(#k)" xlink:href="#l"/><use fill="#4E4E50" stroke="#1A1A1D" stroke-width="3" xlink:href="#l"/></g><g id="Path" transform="translate(5 4)"><use fill="#000" filter="url(#m)" xlink:href="#n"/><use fill="#4E4E50" stroke="#1A1A1D" stroke-width="3" xlink:href="#n"/></g><g id="Path" transform="translate(5 4)"><use fill="#000" filter="url(#o)" xlink:href="#p"/><use fill="#4E4E50" stroke="#1A1A1D" stroke-width="3" xlink:href="#p"/></g><g transform="translate(5 4)"><use fill="#000" filter="url(#q)" xlink:href="#r"/><use fill="#6F2232" stroke="#1A1A1D" stroke-width="3" xlink:href="#r"/></g></g></g></svg>