<?xml version="1.0" encoding="UTF-8"?>
<svg width="274px" height="200px" viewBox="0 0 274 200" version="1.1" xmlns="http://www.w3.org/2000/svg" xmlns:xlink="http://www.w3.org/1999/xlink">
    <title>sex-etsy-12</title>
    <defs>
        <circle id="path-1" cx="32.4993405" cy="153.536592" r="22.4997842"></circle>
        <filter x="-18.9%" y="-14.4%" width="137.8%" height="137.8%" filterUnits="objectBoundingBox" id="filter-2">
            <feMorphology radius="1.5" operator="dilate" in="SourceAlpha" result="shadowSpreadOuter1"></feMorphology>
            <feOffset dx="0" dy="2" in="shadowSpreadOuter1" result="shadowOffsetOuter1"></feOffset>
            <feGaussianBlur stdDeviation="2" in="shadowOffsetOuter1" result="shadowBlurOuter1"></feGaussianBlur>
            <feComposite in="shadowBlurOuter1" in2="SourceAlpha" operator="out" result="shadowBlurOuter1"></feComposite>
            <feColorMatrix values="0 0 0 0 0   0 0 0 0 0   0 0 0 0 0  0 0 0 1 0" type="matrix" in="shadowBlurOuter1"></feColorMatrix>
        </filter>
        <path d="M153.0731,147.4986 C151.7049,147.4986 150.3504,147.2701 149.0467,146.8189 C147.0764,146.1349 145.3533,144.9404 143.9824,143.4212 L142.987,143.5105 C141.629,144.9861 139.9378,146.1483 138.0067,146.8179 C136.702,147.27 135.3475,147.4986 133.9794,147.4986 C130.7685,147.4986 127.7738,146.2438 125.5395,144.135 C125.3914,144.1264 125.2424,144.1105 125.0942,144.1011 L118.166,170.0067 L146.9761,170.0067 C147.2996,169.409 147.5916,168.7986 147.8472,168.1752 L167.9164,166.3753 L161.8728,143.7775 C159.6056,146.1006 156.4606,147.4986 153.0731,147.4986 Z" id="path-3"></path>
        <filter x="-18.0%" y="-30.1%" width="135.9%" height="169.6%" filterUnits="objectBoundingBox" id="filter-4">
            <feMorphology radius="1.5" operator="dilate" in="SourceAlpha" result="shadowSpreadOuter1"></feMorphology>
            <feOffset dx="0" dy="2" in="shadowSpreadOuter1" result="shadowOffsetOuter1"></feOffset>
            <feGaussianBlur stdDeviation="2" in="shadowOffsetOuter1" result="shadowBlurOuter1"></feGaussianBlur>
            <feComposite in="shadowBlurOuter1" in2="SourceAlpha" operator="out" result="shadowBlurOuter1"></feComposite>
            <feColorMatrix values="0 0 0 0 0   0 0 0 0 0   0 0 0 0 0  0 0 0 1 0" type="matrix" in="shadowBlurOuter1"></feColorMatrix>
        </filter>
        <path d="M193.5931,164.0724 L260.1136,175.945 C260.8568,176.0773 261.595,176.1413 262.3245,176.1413 C268.2659,176.1413 273.5355,171.8889 274.6155,165.8356 C275.8284,159.0392 271.302,152.5465 264.5061,151.3336 L196.3391,139.1671 C195.2473,138.9728 194.133,138.9249 193.0266,139.0226 L186.2275,139.6324 L192.783,164.145 L193.5931,164.0724 Z" id="path-5"></path>
        <filter x="-10.1%" y="-17.5%" width="119.7%" height="145.7%" filterUnits="objectBoundingBox" id="filter-6">
            <feMorphology radius="1.5" operator="dilate" in="SourceAlpha" result="shadowSpreadOuter1"></feMorphology>
            <feOffset dx="0" dy="2" in="shadowSpreadOuter1" result="shadowOffsetOuter1"></feOffset>
            <feGaussianBlur stdDeviation="2" in="shadowOffsetOuter1" result="shadowBlurOuter1"></feGaussianBlur>
            <feComposite in="shadowBlurOuter1" in2="SourceAlpha" operator="out" result="shadowBlurOuter1"></feComposite>
            <feColorMatrix values="0 0 0 0 0   0 0 0 0 0   0 0 0 0 0  0 0 0 1 0" type="matrix" in="shadowBlurOuter1"></feColorMatrix>
        </filter>
        <path d="M70.2611,145.1239 C72.2006,143.2206 74.7631,142.1727 77.4789,142.1727 C80.265,142.1727 82.8744,143.2674 84.8266,145.2557 L96.2193,156.8571 L100.7056,140.0821 C94.867,138.6923 89.3811,137.196 84.6122,135.9883 C74.8339,132.5792 62.7343,135.676 60.1415,144.0819 C57.5512,152.4899 61.5019,165.0998 75.8471,170.9283 C78.7787,172.0994 81.5507,173.1301 84.2383,174.0568 L70.1293,159.6892 C66.1498,155.6375 66.2084,149.1034 70.2611,145.1239 Z" id="path-7"></path>
        <filter x="-20.6%" y="-16.5%" width="142.0%" height="147.7%" filterUnits="objectBoundingBox" id="filter-8">
            <feMorphology radius="1.5" operator="dilate" in="SourceAlpha" result="shadowSpreadOuter1"></feMorphology>
            <feOffset dx="0" dy="2" in="shadowSpreadOuter1" result="shadowOffsetOuter1"></feOffset>
            <feGaussianBlur stdDeviation="2" in="shadowOffsetOuter1" result="shadowBlurOuter1"></feGaussianBlur>
            <feComposite in="shadowBlurOuter1" in2="SourceAlpha" operator="out" result="shadowBlurOuter1"></feComposite>
            <feColorMatrix values="0 0 0 0 0   0 0 0 0 0   0 0 0 0 0  0 0 0 1 0" type="matrix" in="shadowBlurOuter1"></feColorMatrix>
        </filter>
        <path d="M117.516,172.3065 C115.8375,177.2649 111.1661,180.6656 105.8798,180.6656 C104.8124,180.6656 103.7411,180.524 102.6962,180.2447 C96.1444,178.4927 92.2401,171.7369 93.9921,165.1851 L95.5295,159.4368 L83.1859,146.867 C80.0892,143.7147 75.0257,143.6707 71.8724,146.7645 C68.7201,149.8602 68.6742,154.9256 71.7699,158.078 L99.1029,185.912 C100.6068,187.4433 102.6644,188.3065 104.8109,188.3065 L153.5609,188.3065 C157.9789,188.3065 161.5609,184.7245 161.5609,180.3065 C161.5609,175.8885 157.9789,172.3065 153.5609,172.3065 L117.516,172.3065 Z" id="path-9"></path>
        <filter x="-9.2%" y="-14.8%" width="118.5%" height="138.8%" filterUnits="objectBoundingBox" id="filter-10">
            <feMorphology radius="1.5" operator="dilate" in="SourceAlpha" result="shadowSpreadOuter1"></feMorphology>
            <feOffset dx="0" dy="2" in="shadowSpreadOuter1" result="shadowOffsetOuter1"></feOffset>
            <feGaussianBlur stdDeviation="2" in="shadowOffsetOuter1" result="shadowBlurOuter1"></feGaussianBlur>
            <feComposite in="shadowBlurOuter1" in2="SourceAlpha" operator="out" result="shadowBlurOuter1"></feComposite>
            <feColorMatrix values="0 0 0 0 0   0 0 0 0 0   0 0 0 0 0  0 0 0 1 0" type="matrix" in="shadowBlurOuter1"></feColorMatrix>
        </filter>
        <path d="M117.0816,74.5045 C117.0816,72.2941 117.6769,70.2265 118.7032,68.4375 C118.3392,69.5956 118.1414,70.8274 118.1414,72.1057 C118.1414,78.8556 123.6133,84.3276 130.3633,84.3276 C134.903,84.3276 138.856,81.8468 140.9636,78.1724 C139.4056,83.1299 134.7751,86.7265 129.3034,86.7265 C127.6934,86.7265 126.1601,86.4073 124.7525,85.8416 C125.1456,87.9701 125.3483,89.9797 125.2902,91.7797 C125.6283,91.8407 125.9679,91.8918 126.3014,91.981 C132.8532,93.733 136.7575,100.4888 135.0055,107.0406 L125.9008,141.084 C127.7812,143.6653 130.798,145.1987 133.9792,145.1987 C135.0642,145.1987 136.1696,145.02 137.2526,144.645 C140.382,143.5605 142.6183,141.0752 143.526,138.1365 C144.4342,141.075 146.6705,143.5606 149.7994,144.645 C150.8824,145.02 151.9869,145.1987 153.0728,145.1987 C156.2535,145.1987 159.2712,143.6648 161.1517,141.0829 L152.0475,107.0405 C150.2955,100.4887 154.1998,93.7329 160.7516,91.9809 C161.0853,91.8915 161.4256,91.8402 161.7642,91.7792 C161.706,89.9791 161.9086,87.9694 162.3017,85.841 C160.8937,86.407 159.3598,86.7264 157.7493,86.7264 C152.2775,86.7264 147.6474,83.13 146.0893,78.1726 C148.197,81.8468 152.1498,84.3275 156.6894,84.3275 C157.9887,84.3275 159.2388,84.1208 160.4135,83.7452 C157.686,82.0558 154.7515,79.0899 152.7572,73.8413 C150.1921,67.0917 152.9868,59.4943 155.4532,52.7911 C155.9781,51.364 156.4921,49.9618 156.9327,48.6265 C153.0709,47.8719 148.5996,47.3627 143.5274,47.3627 C127.7681,47.3627 117.7227,52.2438 114.1802,54.3065 C112.4756,54.9686 111.0572,56.3378 110.3999,58.1966 L88.7808,119.3636 C87.5845,122.7484 89.3589,126.4622 92.7437,127.6585 C93.4605,127.9114 94.191,128.0315 94.9097,128.0315 C97.5874,128.0315 100.0952,126.3635 101.0386,123.6956 L117.4241,77.3354 C117.2082,76.4255 117.0816,75.4808 117.0816,74.5045 Z M127.2342,79.0265 C125.8721,79.0265 124.7678,77.9222 124.7678,76.56 C124.7678,75.1978 125.8722,74.0935 127.2342,74.0935 C128.5965,74.0935 129.7008,75.1978 129.7008,76.56 C129.7008,77.9222 128.5965,79.0265 127.2342,79.0265 Z" id="path-11"></path>
        <filter x="-11.5%" y="-6.6%" width="124.0%" height="117.4%" filterUnits="objectBoundingBox" id="filter-12">
            <feMorphology radius="1.5" operator="dilate" in="SourceAlpha" result="shadowSpreadOuter1"></feMorphology>
            <feOffset dx="0" dy="2" in="shadowSpreadOuter1" result="shadowOffsetOuter1"></feOffset>
            <feGaussianBlur stdDeviation="2" in="shadowOffsetOuter1" result="shadowBlurOuter1"></feGaussianBlur>
            <feComposite in="shadowBlurOuter1" in2="SourceAlpha" operator="out" result="shadowBlurOuter1"></feComposite>
            <feColorMatrix values="0 0 0 0 0   0 0 0 0 0   0 0 0 0 0  0 0 0 0.5 0" type="matrix" in="shadowBlurOuter1"></feColorMatrix>
        </filter>
        <path d="M167.2882,77.0614 C167.3719,77.262 167.4858,77.4332 167.589,77.6146 C168.4284,75.9577 168.9115,74.0899 168.9115,72.1056 C168.9115,70.8273 168.7137,69.5956 168.3497,68.4374 C169.3761,70.2264 169.9715,72.294 169.9715,74.5044 C169.9715,75.4806 169.8448,76.4252 169.6286,77.3352 L170.5604,79.9714 C172.547,80.7657 172.9544,82.3028 172.6821,83.3991 C172.5799,83.8114 172.3934,84.162 172.1483,84.464 L186.0145,123.6957 C186.9579,126.3646 189.4657,128.0316 192.1434,128.0316 C192.8622,128.0316 193.5936,127.9115 194.3094,127.6586 C197.6942,126.4623 199.4686,122.7484 198.2723,119.3637 L176.6532,58.1967 C175.996,56.3361 174.5761,54.967 172.8705,54.3053 C172.8402,54.2877 172.8004,54.2662 172.7692,54.2482 C172.2194,56.4847 171.3975,58.8886 170.2209,61.4938 C166.1703,70.4606 166.39,74.9087 167.2882,77.0614 Z" id="path-13"></path>
        <filter x="-26.4%" y="-9.3%" width="153.0%" height="123.6%" filterUnits="objectBoundingBox" id="filter-14">
            <feMorphology radius="1.5" operator="dilate" in="SourceAlpha" result="shadowSpreadOuter1"></feMorphology>
            <feOffset dx="0" dy="2" in="shadowSpreadOuter1" result="shadowOffsetOuter1"></feOffset>
            <feGaussianBlur stdDeviation="2" in="shadowOffsetOuter1" result="shadowBlurOuter1"></feGaussianBlur>
            <feComposite in="shadowBlurOuter1" in2="SourceAlpha" operator="out" result="shadowBlurOuter1"></feComposite>
            <feColorMatrix values="0 0 0 0 0   0 0 0 0 0   0 0 0 0 0  0 0 0 0.5 0" type="matrix" in="shadowBlurOuter1"></feColorMatrix>
        </filter>
        <path d="M96.2137,165.7788 C94.7869,171.1147 97.9549,176.5962 103.2899,178.0229 C104.1561,178.2543 105.0253,178.3657 105.8797,178.3657 C110.2967,178.3657 114.3387,175.4165 115.534,170.9468 L132.784,106.4468 C134.2108,101.1109 131.0428,95.6294 125.7078,94.2027 C120.364,92.775 114.8904,95.9449 113.4637,101.2789 L96.2137,165.7788 Z" id="path-15"></path>
        <filter x="-22.8%" y="-7.7%" width="145.6%" height="120.1%" filterUnits="objectBoundingBox" id="filter-16">
            <feMorphology radius="1.5" operator="dilate" in="SourceAlpha" result="shadowSpreadOuter1"></feMorphology>
            <feOffset dx="0" dy="2" in="shadowSpreadOuter1" result="shadowOffsetOuter1"></feOffset>
            <feGaussianBlur stdDeviation="2" in="shadowOffsetOuter1" result="shadowBlurOuter1"></feGaussianBlur>
            <feComposite in="shadowBlurOuter1" in2="SourceAlpha" operator="out" result="shadowBlurOuter1"></feComposite>
            <feColorMatrix values="0 0 0 0 0   0 0 0 0 0   0 0 0 0 0  0 0 0 0.5 0" type="matrix" in="shadowBlurOuter1"></feColorMatrix>
        </filter>
        <path d="M173.5897,101.2788 C172.1629,95.9448 166.6844,92.7739 161.3456,94.2026 C156.0106,95.6294 152.8427,101.1108 154.2694,106.4467 L171.5194,170.9467 C172.7147,175.4164 176.7557,178.3656 181.1737,178.3656 C182.0282,178.3656 182.8983,178.2543 183.7635,178.0228 C189.0985,176.596 192.2664,171.1146 190.8397,165.7787 L173.5897,101.2788 Z" id="path-17"></path>
        <filter x="-22.8%" y="-7.7%" width="145.6%" height="120.1%" filterUnits="objectBoundingBox" id="filter-18">
            <feMorphology radius="1.5" operator="dilate" in="SourceAlpha" result="shadowSpreadOuter1"></feMorphology>
            <feOffset dx="0" dy="2" in="shadowSpreadOuter1" result="shadowOffsetOuter1"></feOffset>
            <feGaussianBlur stdDeviation="2" in="shadowOffsetOuter1" result="shadowBlurOuter1"></feGaussianBlur>
            <feComposite in="shadowBlurOuter1" in2="SourceAlpha" operator="out" result="shadowBlurOuter1"></feComposite>
            <feColorMatrix values="0 0 0 0 0   0 0 0 0 0   0 0 0 0 0  0 0 0 0.5 0" type="matrix" in="shadowBlurOuter1"></feColorMatrix>
        </filter>
        <path d="M154.907,73.0238 C160.3303,87.2935 173.9033,83.66 169.6461,82.0754 C165.3888,80.4907 161.2208,75.8315 168.1246,60.547 C174.9532,45.4282 169.5667,37.5522 163.4691,33.0369 C162.244,35.0798 160.7257,36.9005 158.9725,38.4547 C165.068,44.9671 150.4293,61.2423 154.907,73.0238 Z" id="path-19"></path>
        <filter x="-49.1%" y="-14.2%" width="198.3%" height="134.9%" filterUnits="objectBoundingBox" id="filter-20">
            <feMorphology radius="1.5" operator="dilate" in="SourceAlpha" result="shadowSpreadOuter1"></feMorphology>
            <feOffset dx="0" dy="2" in="shadowSpreadOuter1" result="shadowOffsetOuter1"></feOffset>
            <feGaussianBlur stdDeviation="2" in="shadowOffsetOuter1" result="shadowBlurOuter1"></feGaussianBlur>
            <feComposite in="shadowBlurOuter1" in2="SourceAlpha" operator="out" result="shadowBlurOuter1"></feComposite>
            <feColorMatrix values="0 0 0 0 0   0 0 0 0 0   0 0 0 0 0  0 0 0 0.5 0" type="matrix" in="shadowBlurOuter1"></feColorMatrix>
        </filter>
        <path d="M163.9747,25.76 C166.6036,14.4675 159.5802,3.1804 148.2892,0.5515 C136.9962,-2.0774 125.7091,4.944 123.0783,16.237 C120.4474,27.5319 127.4709,38.8171 138.7658,41.4479 C150.0587,44.0769 161.3439,37.053 163.9747,25.76 Z" id="path-21"></path>
        <filter x="-20.2%" y="-15.5%" width="140.5%" height="140.5%" filterUnits="objectBoundingBox" id="filter-22">
            <feMorphology radius="1.5" operator="dilate" in="SourceAlpha" result="shadowSpreadOuter1"></feMorphology>
            <feOffset dx="0" dy="2" in="shadowSpreadOuter1" result="shadowOffsetOuter1"></feOffset>
            <feGaussianBlur stdDeviation="2" in="shadowOffsetOuter1" result="shadowBlurOuter1"></feGaussianBlur>
            <feComposite in="shadowBlurOuter1" in2="SourceAlpha" operator="out" result="shadowBlurOuter1"></feComposite>
            <feColorMatrix values="0 0 0 0 0   0 0 0 0 0   0 0 0 0 0  0 0 0 0.5 0" type="matrix" in="shadowBlurOuter1"></feColorMatrix>
        </filter>
    </defs>
    <g id="Page-2" stroke="none" stroke-width="1" fill="none" fill-rule="evenodd">
        <g id="sex-etsy-12" transform="translate(-6.000000, 4.000000)" fill-rule="nonzero">
            <g id="Oval" transform="translate(32.499341, 153.536592) rotate(-45.000000) translate(-32.499341, -153.536592) ">
                <use fill="black" fill-opacity="1" filter="url(#filter-2)" xlink:href="#path-1"></use>
                <use stroke="#1A1A1D" stroke-width="3" fill="#4E4E50" xlink:href="#path-1"></use>
            </g>
            <g id="Path">
                <use fill="black" fill-opacity="1" filter="url(#filter-4)" xlink:href="#path-3"></use>
                <use stroke="#1A1A1D" stroke-width="3" fill="#4E4E50" xlink:href="#path-3"></use>
            </g>
            <g id="Path">
                <use fill="black" fill-opacity="1" filter="url(#filter-6)" xlink:href="#path-5"></use>
                <use stroke="#1A1A1D" stroke-width="3" fill="#4E4E50" xlink:href="#path-5"></use>
            </g>
            <g id="Path">
                <use fill="black" fill-opacity="1" filter="url(#filter-8)" xlink:href="#path-7"></use>
                <use stroke="#1A1A1D" stroke-width="3" fill="#4E4E50" xlink:href="#path-7"></use>
            </g>
            <g id="Path">
                <use fill="black" fill-opacity="1" filter="url(#filter-10)" xlink:href="#path-9"></use>
                <use stroke="#1A1A1D" stroke-width="3" fill="#4E4E50" xlink:href="#path-9"></use>
            </g>
            <g id="Shape">
                <use fill="black" fill-opacity="1" filter="url(#filter-12)" xlink:href="#path-11"></use>
                <use stroke="#1A1A1D" stroke-width="3" fill="#6F2232" xlink:href="#path-11"></use>
            </g>
            <g id="Path">
                <use fill="black" fill-opacity="1" filter="url(#filter-14)" xlink:href="#path-13"></use>
                <use stroke="#1A1A1D" stroke-width="3" fill="#6F2232" xlink:href="#path-13"></use>
            </g>
            <g id="Path">
                <use fill="black" fill-opacity="1" filter="url(#filter-16)" xlink:href="#path-15"></use>
                <use stroke="#1A1A1D" stroke-width="3" fill="#6F2232" xlink:href="#path-15"></use>
            </g>
            <g id="Path">
                <use fill="black" fill-opacity="1" filter="url(#filter-18)" xlink:href="#path-17"></use>
                <use stroke="#1A1A1D" stroke-width="3" fill="#6F2232" xlink:href="#path-17"></use>
            </g>
            <g id="Path">
                <use fill="black" fill-opacity="1" filter="url(#filter-20)" xlink:href="#path-19"></use>
                <use stroke="#1A1A1D" stroke-width="3" fill="#6F2232" xlink:href="#path-19"></use>
            </g>
            <g id="Path">
                <use fill="black" fill-opacity="1" filter="url(#filter-22)" xlink:href="#path-21"></use>
                <use stroke="#1A1A1D" stroke-width="3" fill="#6F2232" xlink:href="#path-21"></use>
            </g>
        </g>
    </g>
</svg>