<?xml version="1.0" encoding="UTF-8"?>
<svg width="275px" height="167px" viewBox="0 0 275 167" version="1.1" xmlns="http://www.w3.org/2000/svg" xmlns:xlink="http://www.w3.org/1999/xlink">
    <title>sex-etsy-14</title>
    <defs>
        <path d="M111.7378,36.4244 C113.1685,32.2442 110.939,27.6954 106.7583,26.2652 C104.9397,25.6419 103.0522,25.7131 101.3816,26.3349 L110.6182,39.696 L111.7378,36.4244 Z" id="path-1"></path>
        <filter x="-85.5%" y="-46.9%" width="264.2%" height="235.6%" filterUnits="objectBoundingBox" id="filter-2">
            <feMorphology radius="1.5" operator="dilate" in="SourceAlpha" result="shadowSpreadOuter1"></feMorphology>
            <feOffset dx="0" dy="2" in="shadowSpreadOuter1" result="shadowOffsetOuter1"></feOffset>
            <feGaussianBlur stdDeviation="2" in="shadowOffsetOuter1" result="shadowBlurOuter1"></feGaussianBlur>
            <feComposite in="shadowBlurOuter1" in2="SourceAlpha" operator="out" result="shadowBlurOuter1"></feComposite>
            <feColorMatrix values="0 0 0 0 0   0 0 0 0 0   0 0 0 0 0  0 0 0 1 0" type="matrix" in="shadowBlurOuter1"></feColorMatrix>
        </filter>
        <path d="M109.2995,85.813 L110.492,82.7734 L107.9173,79.0489 C107.9151,79.0549 107.9119,79.0604 107.9097,79.0665 C107.0139,81.4734 107.6413,84.0692 109.2995,85.813 Z" id="path-3"></path>
        <filter x="-284.2%" y="-115.1%" width="674.7%" height="383.9%" filterUnits="objectBoundingBox" id="filter-4">
            <feMorphology radius="1.5" operator="dilate" in="SourceAlpha" result="shadowSpreadOuter1"></feMorphology>
            <feOffset dx="0" dy="2" in="shadowSpreadOuter1" result="shadowOffsetOuter1"></feOffset>
            <feGaussianBlur stdDeviation="2" in="shadowOffsetOuter1" result="shadowBlurOuter1"></feGaussianBlur>
            <feComposite in="shadowBlurOuter1" in2="SourceAlpha" operator="out" result="shadowBlurOuter1"></feComposite>
            <feColorMatrix values="0 0 0 0 0   0 0 0 0 0   0 0 0 0 0  0 0 0 0.5 0" type="matrix" in="shadowBlurOuter1"></feColorMatrix>
        </filter>
        <path d="M132.1165,95.013 L158.1639,104.7088 C158.9664,104.543 159.7973,104.4549 160.649,104.4549 C162.8592,104.4549 164.9268,105.0503 166.7158,106.0765 C165.5577,105.7125 164.326,105.5148 163.048,105.5148 C156.298,105.5148 150.826,110.9868 150.826,117.7368 C150.826,122.2764 153.3067,126.2293 156.9809,128.337 C152.0234,126.7789 148.4272,122.1486 148.4272,116.6769 C148.4272,115.0683 148.7459,113.5363 149.3107,112.1297 C146.8295,112.5878 144.506,112.7908 142.4926,112.6197 C134.8622,111.971 130.601,108.9014 125.0126,106.8231 L133.6444,84.8194 C134.8602,81.7198 134.454,78.2188 132.5604,75.4805 L96.7274,23.6475 C93.5878,19.1045 87.3592,17.9659 82.8153,21.1084 C78.2723,24.249 77.1356,30.4775 80.2762,35.0205 L113.0809,82.4726 L98.0252,120.8486 C97.9603,121.0143 97.9078,121.1817 97.8521,121.3486 L137.81,139.1682 C141.4213,140.7786 144.1879,143.6975 145.603,147.3889 C145.8152,147.9428 145.9818,148.5057 146.1255,149.0719 C147.0564,149.0792 148.0592,149.1071 149.1215,149.153 C148.6796,147.8895 148.4272,146.5371 148.4272,145.1227 C148.4272,139.651 152.0234,135.0207 156.9809,133.4626 C153.3067,135.5703 150.826,139.5232 150.826,144.0628 C150.826,150.8128 156.298,156.2848 163.048,156.2848 C164.3261,156.2848 165.5578,156.087 166.7158,155.7231 C167.036,155.6225 167.3482,155.5045 167.6564,155.3789 C168.7771,157.2773 170.8296,158.5628 173.194,158.584 L200.3496,158.8229 C198.5474,157.1826 197.1435,155.2871 196.0277,153.3684 C184.015,150.097 176.6199,137.8411 179.4657,125.6171 C180.5026,121.1668 182.7557,117.2915 185.8121,114.278 C184.1793,107.7675 181.9488,103.4211 180.7623,101.4101 C180.087,99.8302 178.7955,98.5171 177.0582,97.8701 L136.5269,82.783 C136.3975,83.7564 136.1534,84.7223 135.7859,85.6592 L132.1165,95.013 Z M156.127,114.6076 C156.127,113.2454 157.2312,112.1412 158.5934,112.1412 C159.9556,112.1412 161.0598,113.2454 161.0598,114.6076 C161.0598,115.9698 159.9556,117.0741 158.5934,117.0741 C157.2312,117.0741 156.127,115.9698 156.127,114.6076 Z M158.5934,144.7256 C159.9556,144.7256 161.0598,145.8298 161.0598,147.1921 C161.0598,148.5543 159.9556,149.6585 158.5934,149.6585 C157.2312,149.6585 156.127,148.5543 156.127,147.1921 C156.127,145.8298 157.2312,144.7256 158.5934,144.7256 Z" id="path-5"></path>
        <filter x="-7.0%" y="-4.7%" width="116.7%" height="112.2%" filterUnits="objectBoundingBox" id="filter-6">
            <feMorphology radius="1.5" operator="dilate" in="SourceAlpha" result="shadowSpreadOuter1"></feMorphology>
            <feOffset dx="0" dy="2" in="shadowSpreadOuter1" result="shadowOffsetOuter1"></feOffset>
            <feGaussianBlur stdDeviation="2" in="shadowOffsetOuter1" result="shadowBlurOuter1"></feGaussianBlur>
            <feComposite in="shadowBlurOuter1" in2="SourceAlpha" operator="out" result="shadowBlurOuter1"></feComposite>
            <feColorMatrix values="0 0 0 0 0   0 0 0 0 0   0 0 0 0 0  0 0 0 0.5 0" type="matrix" in="shadowBlurOuter1"></feColorMatrix>
        </filter>
        <path d="M46.7826,137.885 L56.7004,137.885 C56.5288,137.4245 56.3603,136.9608 56.1966,136.4934 L56.1458,136.3303 C55.8085,135.0741 55.412,133.8196 54.9911,132.5668 L31.7256,132.5668 L22.0114,152.5668 L31.9888,152.5668 C32.0531,144.4604 38.6613,137.885 46.7826,137.885 Z" id="path-7"></path>
        <filter x="-27.1%" y="-32.5%" width="153.5%" height="185.0%" filterUnits="objectBoundingBox" id="filter-8">
            <feMorphology radius="1.5" operator="dilate" in="SourceAlpha" result="shadowSpreadOuter1"></feMorphology>
            <feOffset dx="0" dy="2" in="shadowSpreadOuter1" result="shadowOffsetOuter1"></feOffset>
            <feGaussianBlur stdDeviation="2" in="shadowOffsetOuter1" result="shadowBlurOuter1"></feGaussianBlur>
            <feComposite in="shadowBlurOuter1" in2="SourceAlpha" operator="out" result="shadowBlurOuter1"></feComposite>
            <feColorMatrix values="0 0 0 0 0   0 0 0 0 0   0 0 0 0 0  0 0 0 0.5 0" type="matrix" in="shadowBlurOuter1"></feColorMatrix>
        </filter>
        <path d="M249.1673,159.2525 L258.4439,159.3341 C258.4634,159.3341 258.483,159.3341 258.5025,159.3341 C262.066,159.3341 264.9703,156.4611 265.001752,152.8917 C265.0328,149.3019 262.148,146.3663 258.5591,146.3341 L238.2006,146.155 C238.6298,146.3446 239.0535,146.5523 239.4693,146.7856 C246.4265,150.6883 248.5659,155.7898 249.1673,159.2525 Z" id="path-9"></path>
        <filter x="-53.2%" y="-49.8%" width="184.9%" height="229.5%" filterUnits="objectBoundingBox" id="filter-10">
            <feMorphology radius="1.5" operator="dilate" in="SourceAlpha" result="shadowSpreadOuter1"></feMorphology>
            <feOffset dx="0" dy="2" in="shadowSpreadOuter1" result="shadowOffsetOuter1"></feOffset>
            <feGaussianBlur stdDeviation="2" in="shadowOffsetOuter1" result="shadowBlurOuter1"></feGaussianBlur>
            <feComposite in="shadowBlurOuter1" in2="SourceAlpha" operator="out" result="shadowBlurOuter1"></feComposite>
            <feColorMatrix values="0 0 0 0 0   0 0 0 0 0   0 0 0 0 0  0 0 0 0.5 0" type="matrix" in="shadowBlurOuter1"></feColorMatrix>
        </filter>
        <path d="M131.7758,165.1878 C132.1661,165.1878 132.554,165.1628 132.9402,165.1265 C133.0322,165.118 133.1235,165.1073 133.2151,165.0968 C133.5117,165.0623 133.8064,165.0173 134.0989,164.9619 C134.1911,164.9446 134.2844,164.9312 134.3758,164.9119 C134.7114,164.8404 135.043,164.7545 135.3709,164.656 C135.5071,164.6152 135.6397,164.5677 135.774,164.5225 C135.9844,164.4515 136.1927,164.3757 136.3992,164.2937 C136.5362,164.2391 136.6729,164.1851 136.8074,164.1259 C137.0817,164.0055 137.3518,163.8757 137.6171,163.7358 C137.6919,163.6962 137.7664,163.6568 137.8404,163.6157 C138.123,163.4593 138.3987,163.2904 138.6693,163.1122 C138.7495,163.0591 138.8277,163.0039 138.9067,162.9489 C139.1546,162.7772 139.3963,162.5965 139.6319,162.4065 C139.6811,162.3668 139.7315,162.3287 139.7801,162.2883 C140.3536,161.8114 140.8864,161.2796 141.3726,160.6971 C141.418,160.6429 141.4612,160.5874 141.5057,160.5324 C141.692,160.3011 141.8704,160.0624 142.0415,159.8158 C142.0961,159.7374 142.1517,159.66 142.2045,159.5803 C142.373,159.3251 142.5326,159.0619 142.6837,158.7914 C142.7366,158.6973 142.7887,158.6033 142.8391,158.5078 C142.9648,158.2685 143.087,158.0261 143.1987,157.7757 C143.2094,157.7516 143.2164,157.7269 143.2269,157.7028 C143.349,157.425 143.4543,157.1391 143.5562,156.8511 C143.5953,156.7409 143.6412,156.6319 143.6769,156.5213 C143.7551,156.2784 143.817,156.0288 143.8806,155.7797 C143.9226,155.6164 143.9714,155.454 144.0065,155.2902 C144.044,155.1137 144.0675,154.9327 144.0974,154.7536 C144.1379,154.5131 144.1814,154.2728 144.2075,154.032 C144.2212,153.9045 144.2243,153.7743 144.2341,153.6457 C144.2566,153.353 144.2765,153.0607 144.2783,152.7691 C144.2785,152.7408 144.2826,152.7134 144.2826,152.685 C144.2826,152.5774 144.2692,152.4732 144.2665,152.3662 C144.2593,152.0906 144.2503,151.8155 144.2249,151.5421 C144.2084,151.36 144.1805,151.1816 144.1563,151.0018 C144.1268,150.7863 144.0986,150.5711 144.0579,150.3579 C144.0164,150.1377 143.9634,149.9224 143.9106,149.7065 C143.869,149.5371 143.8292,149.3678 143.7804,149.2004 C143.7125,148.9664 143.6339,148.7379 143.5531,148.5098 C143.4999,148.3601 143.4482,148.2105 143.3895,148.063 C143.3003,147.8394 143.2018,147.6214 143.1003,147.4043 C143.0296,147.2524 142.9593,147.101 142.8824,146.952 C142.7811,146.7563 142.6722,146.566 142.5611,146.3765 C142.4641,146.2104 142.3663,146.0453 142.2615,145.8835 C142.1573,145.723 142.0469,145.5676 141.9355,145.4123 C141.8071,145.2327 141.677,145.0548 141.5386,144.8817 C141.4344,144.7514 141.325,144.6261 141.2156,144.5001 C141.0586,144.3187 140.8994,144.1397 140.7312,143.967 C140.6201,143.853 140.5043,143.7446 140.389,143.635 C140.2141,143.4686 140.0379,143.3041 139.8524,143.1473 C139.7181,143.0336 139.5781,142.9273 139.4392,142.8192 C139.2652,142.6843 139.0919,142.5495 138.9097,142.4231 C138.7276,142.2963 138.5384,142.1804 138.3494,142.0633 C138.1997,141.971 138.053,141.8759 137.8982,141.7893 C137.6513,141.6504 137.396,141.5259 137.1389,141.4037 C137.0488,141.3609 136.9651,141.3098 136.8734,141.2689 L136.6797,141.1825 C136.6643,141.1759 136.6494,141.1686 136.6339,141.1621 L90.558,120.6145 C90.4965,120.2686 90.4369,119.9238 90.3637,119.5681 C87.4808,109.5343 84.5457,101.6673 80.8067,94.5033 C78.6827,90.4334 76.2952,86.5895 73.5135,82.7056 L87.606,85.5128 C88.1304,85.6178 88.6558,85.6681 89.1734,85.6681 C92.5328,85.6681 95.6129,83.5426 96.7379,80.2575 L100.7162,68.6321 L89.4043,52.2688 L83.8657,68.4537 L48.898,61.4884 C48.417,61.3921 47.9382,61.3483 47.4643,61.3401 C41.9063,60.6042 36.7468,62.0397 33.1684,64.7032 C27.1796,69.1632 27.1037,78.7926 31.1774,86.5432 L36.9861,74.584 C38.699,71.0596 42.3386,68.7822 46.2576,68.7822 C47.823,68.7822 49.3357,69.1308 50.7517,69.8193 C55.8601,72.2998 57.9978,78.4746 55.5173,83.584 L44.3887,106.4959 C45.7681,108.6742 47.1336,110.9138 48.4561,113.2029 C52.6097,120.392 56.304,128.049 58.3681,135.7332 C58.6358,136.498 58.9018,137.2113 59.1673,137.8851 L87.0018,137.8851 L87.0018,140.1849 L46.7826,140.1849 C39.8793,140.1849 34.2826,145.7816 34.2826,152.6849 C34.2826,159.5882 39.8793,165.1849 46.7826,165.1849 L87.0017,165.1849 L123.4746,165.1849 L131.719,165.1849 C131.7378,165.1849 131.7569,165.1878 131.7758,165.1878 Z" id="path-11"></path>
        <filter x="-7.3%" y="-7.3%" width="114.7%" height="116.6%" filterUnits="objectBoundingBox" id="filter-12">
            <feMorphology radius="1.5" operator="dilate" in="SourceAlpha" result="shadowSpreadOuter1"></feMorphology>
            <feOffset dx="0" dy="2" in="shadowSpreadOuter1" result="shadowOffsetOuter1"></feOffset>
            <feGaussianBlur stdDeviation="2" in="shadowOffsetOuter1" result="shadowBlurOuter1"></feGaussianBlur>
            <feComposite in="shadowBlurOuter1" in2="SourceAlpha" operator="out" result="shadowBlurOuter1"></feComposite>
            <feColorMatrix values="0 0 0 0 0   0 0 0 0 0   0 0 0 0 0  0 0 0 1 0" type="matrix" in="shadowBlurOuter1"></feColorMatrix>
        </filter>
        <ellipse id="path-13" cx="35.0014664" cy="32.4992622" rx="22.5001096" ry="22.5000096"></ellipse>
        <filter x="-18.9%" y="-14.4%" width="137.8%" height="137.8%" filterUnits="objectBoundingBox" id="filter-14">
            <feMorphology radius="1.5" operator="dilate" in="SourceAlpha" result="shadowSpreadOuter1"></feMorphology>
            <feOffset dx="0" dy="2" in="shadowSpreadOuter1" result="shadowOffsetOuter1"></feOffset>
            <feGaussianBlur stdDeviation="2" in="shadowOffsetOuter1" result="shadowBlurOuter1"></feGaussianBlur>
            <feComposite in="shadowBlurOuter1" in2="SourceAlpha" operator="out" result="shadowBlurOuter1"></feComposite>
            <feColorMatrix values="0 0 0 0 0   0 0 0 0 0   0 0 0 0 0  0 0 0 1 0" type="matrix" in="shadowBlurOuter1"></feColorMatrix>
        </filter>
        <path d="M53.448,82.5791 C55.3777,78.6045 53.7214,73.8184 49.7468,71.8877 C45.7722,69.957 40.9861,71.6152 39.0554,75.5889 L0.8054,154.3389 C-1.1243,158.3135 0.532,163.0996 4.5066,165.0303 C5.6326,165.5772 6.823,165.836 7.9959,165.836 C10.9637,165.836 13.8143,164.1778 15.198,161.3292 L53.448,82.5791 Z" id="path-15"></path>
        <filter x="-15.7%" y="-6.9%" width="131.3%" height="117.9%" filterUnits="objectBoundingBox" id="filter-16">
            <feMorphology radius="1.5" operator="dilate" in="SourceAlpha" result="shadowSpreadOuter1"></feMorphology>
            <feOffset dx="0" dy="2" in="shadowSpreadOuter1" result="shadowOffsetOuter1"></feOffset>
            <feGaussianBlur stdDeviation="2" in="shadowOffsetOuter1" result="shadowBlurOuter1"></feGaussianBlur>
            <feComposite in="shadowBlurOuter1" in2="SourceAlpha" operator="out" result="shadowBlurOuter1"></feComposite>
            <feColorMatrix values="0 0 0 0 0   0 0 0 0 0   0 0 0 0 0  0 0 0 1 0" type="matrix" in="shadowBlurOuter1"></feColorMatrix>
        </filter>
        <path d="M216.8832,148.9767 C212.8487,152.2675 207.7156,154.1992 202.1717,154.1992 C201.1643,154.1992 200.1547,154.1253 199.1507,153.9937 C203.1196,159.5861 210.2156,163.9446 224.053,160.0231 C240.1889,155.4502 244.1822,160.2599 245.1214,164.7044 C246.0605,169.1489 251.6568,156.2605 238.3436,148.7911 C232.2825,145.3906 224.0127,147.5376 216.8832,148.9767 Z" id="path-17"></path>
        <filter x="-21.3%" y="-34.7%" width="139.0%" height="191.0%" filterUnits="objectBoundingBox" id="filter-18">
            <feMorphology radius="1.5" operator="dilate" in="SourceAlpha" result="shadowSpreadOuter1"></feMorphology>
            <feOffset dx="0" dy="2" in="shadowSpreadOuter1" result="shadowOffsetOuter1"></feOffset>
            <feGaussianBlur stdDeviation="2" in="shadowOffsetOuter1" result="shadowBlurOuter1"></feGaussianBlur>
            <feComposite in="shadowBlurOuter1" in2="SourceAlpha" operator="out" result="shadowBlurOuter1"></feComposite>
            <feColorMatrix values="0 0 0 0 0   0 0 0 0 0   0 0 0 0 0  0 0 0 0.5 0" type="matrix" in="shadowBlurOuter1"></feColorMatrix>
        </filter>
        <path d="M181.7054,126.1391 C179.0765,137.432 186.1004,148.7172 197.3934,151.348 C208.6859,153.977 219.973,146.9535 222.6019,135.6625 C225.2308,124.3695 218.2093,113.0824 206.9164,110.4516 C195.6214,107.8207 184.3362,114.8441 181.7054,126.1391 Z" id="path-19"></path>
        <filter x="-20.2%" y="-15.5%" width="140.5%" height="140.5%" filterUnits="objectBoundingBox" id="filter-20">
            <feMorphology radius="1.5" operator="dilate" in="SourceAlpha" result="shadowSpreadOuter1"></feMorphology>
            <feOffset dx="0" dy="2" in="shadowSpreadOuter1" result="shadowOffsetOuter1"></feOffset>
            <feGaussianBlur stdDeviation="2" in="shadowOffsetOuter1" result="shadowBlurOuter1"></feGaussianBlur>
            <feComposite in="shadowBlurOuter1" in2="SourceAlpha" operator="out" result="shadowBlurOuter1"></feComposite>
            <feColorMatrix values="0 0 0 0 0   0 0 0 0 0   0 0 0 0 0  0 0 0 0.5 0" type="matrix" in="shadowBlurOuter1"></feColorMatrix>
        </filter>
    </defs>
    <g id="Page-2" stroke="none" stroke-width="1" fill="none" fill-rule="evenodd">
        <g id="sex-etsy-14" transform="translate(5.000000, -6.000000)" fill-rule="nonzero">
            <g id="Path">
                <use fill="black" fill-opacity="1" filter="url(#filter-2)" xlink:href="#path-1"></use>
                <use stroke="#1A1A1D" stroke-width="3" fill="#4E4E50" xlink:href="#path-1"></use>
            </g>
            <g id="Path">
                <use fill="black" fill-opacity="1" filter="url(#filter-4)" xlink:href="#path-3"></use>
                <use stroke="#1A1A1D" stroke-width="3" fill="#6F2232" xlink:href="#path-3"></use>
            </g>
            <g id="Shape">
                <use fill="black" fill-opacity="1" filter="url(#filter-6)" xlink:href="#path-5"></use>
                <use stroke="#1A1A1D" stroke-width="3" fill="#6F2232" xlink:href="#path-5"></use>
            </g>
            <g id="Path">
                <use fill="black" fill-opacity="1" filter="url(#filter-8)" xlink:href="#path-7"></use>
                <use stroke="#1A1A1D" stroke-width="3" fill="#6F2232" xlink:href="#path-7"></use>
            </g>
            <g id="Path">
                <use fill="black" fill-opacity="1" filter="url(#filter-10)" xlink:href="#path-9"></use>
                <use stroke="#1A1A1D" stroke-width="3" fill="#6F2232" xlink:href="#path-9"></use>
            </g>
            <path d="M219.9649,145.9945 L219.9092,145.994 C219.9053,145.9986 219.9014,146.0034 219.8975,146.008 C219.92,146.0036 219.9425,145.9991 219.9649,145.9945 Z" id="Path" fill="#000000"></path>
            <g id="Path">
                <use fill="black" fill-opacity="1" filter="url(#filter-12)" xlink:href="#path-11"></use>
                <use stroke="#1A1A1D" stroke-width="3" fill="#4E4E50" xlink:href="#path-11"></use>
            </g>
            <g id="Oval" transform="translate(35.001466, 32.499262) rotate(-41.866690) translate(-35.001466, -32.499262) ">
                <use fill="black" fill-opacity="1" filter="url(#filter-14)" xlink:href="#path-13"></use>
                <use stroke="#1A1A1D" stroke-width="3" fill="#4E4E50" xlink:href="#path-13"></use>
            </g>
            <g id="Path">
                <use fill="black" fill-opacity="1" filter="url(#filter-16)" xlink:href="#path-15"></use>
                <use stroke="#1A1A1D" stroke-width="3" fill="#4E4E50" xlink:href="#path-15"></use>
            </g>
            <g id="Path">
                <use fill="black" fill-opacity="1" filter="url(#filter-18)" xlink:href="#path-17"></use>
                <use stroke="#1A1A1D" stroke-width="3" fill="#6F2232" xlink:href="#path-17"></use>
            </g>
            <g id="Path">
                <use fill="black" fill-opacity="1" filter="url(#filter-20)" xlink:href="#path-19"></use>
                <use stroke="#1A1A1D" stroke-width="3" fill="#6F2232" xlink:href="#path-19"></use>
            </g>
        </g>
    </g>
</svg>