<svg xmlns="http://www.w3.org/2000/svg" width="266" height="125" xmlns:xlink="http://www.w3.org/1999/xlink"><title>sex-etsy-30</title><defs><ellipse id="b" cx="213.093" cy="31.508" rx="22.5" ry="22.5"/><filter id="a" width="137.8%" height="137.8%" x="-18.9%" y="-14.4%" filterUnits="objectBoundingBox"><feMorphology radius="1.5" operator="dilate" in="SourceAlpha" result="shadowSpreadOuter1"/><feOffset dy="2" in="shadowSpreadOuter1" result="shadowOffsetOuter1"/><feGaussianBlur stdDeviation="2" in="shadowOffsetOuter1" result="shadowBlurOuter1"/><feComposite in="shadowBlurOuter1" in2="SourceAlpha" operator="out" result="shadowBlurOuter1"/><feColorMatrix values="0 0 0 0 0 0 0 0 0 0 0 0 0 0 0 0 0 0 1 0" in="shadowBlurOuter1"/></filter><path id="d" d="M179.9 89.16l16.8 4.65c.28-.74.56-1.53.84-2.38 1.38-4.14 3.03-7.4 4.86-9.98-2.17-4.84-7.05-8.67-14.9-9.68-2-.26-3.8-.17-5.52.13l-2.08 17.26z"/><filter id="c" width="177.1%" height="177.9%" x="-38.4%" y="-29.3%" filterUnits="objectBoundingBox"><feMorphology radius="1.5" operator="dilate" in="SourceAlpha" result="shadowSpreadOuter1"/><feOffset dy="2" in="shadowSpreadOuter1" result="shadowOffsetOuter1"/><feGaussianBlur stdDeviation="2" in="shadowOffsetOuter1" result="shadowBlurOuter1"/><feComposite in="shadowBlurOuter1" in2="SourceAlpha" operator="out" result="shadowBlurOuter1"/><feColorMatrix values="0 0 0 0 0 0 0 0 0 0 0 0 0 0 0 0 0 0 1 0" in="shadowBlurOuter1"/></filter><path id="f" d="M23.2 59.04c-4.5-3.63-11.1-2.93-14.75 1.6-3.64 4.5-2.93 11.1 1.58 14.75l19.1 15.4 25.74-6.23L23.2 59.04z"/><filter id="e" width="138.6%" height="150.3%" x="-17.4%" y="-19.1%" filterUnits="objectBoundingBox"><feMorphology radius="1.5" operator="dilate" in="SourceAlpha" result="shadowSpreadOuter1"/><feOffset dy="2" in="shadowSpreadOuter1" result="shadowOffsetOuter1"/><feGaussianBlur stdDeviation="2" in="shadowOffsetOuter1" result="shadowBlurOuter1"/><feComposite in="shadowBlurOuter1" in2="SourceAlpha" operator="out" result="shadowBlurOuter1"/><feColorMatrix values="0 0 0 0 0 0 0 0 0 0 0 0 0 0 0 0 0 0 1 0" in="shadowBlurOuter1"/></filter><path id="h" d="M183.16 111.44l-17.3-4.8c-4.93-1.37-8.08-6.06-7.46-11.15l2.16-17.98c-6.55.55-15.15-.1-27.37-3.48-16.06-4.45-20.65 7.4-20.2 18.55h-9.82l-5.38 8.02c-2.07 3.1-5.2 5.28-8.82 6.15l-28.14 6.8c.1.02.2.02.28.02h119.5c1.54 0 3-.34 4.3-.93-.38-.23-.7-.44-.98-.63-.26-.2-.52-.4-.78-.6z"/><filter id="g" width="123.7%" height="142%" x="-15.4%" y="-16.1%" filterUnits="objectBoundingBox"><feMorphology radius="1.5" operator="dilate" in="SourceAlpha" result="shadowSpreadOuter1"/><feOffset dy="2" in="shadowSpreadOuter1" result="shadowOffsetOuter1"/><feGaussianBlur stdDeviation="2" in="shadowOffsetOuter1" result="shadowBlurOuter1"/><feComposite in="shadowBlurOuter1" in2="SourceAlpha" operator="out" result="shadowBlurOuter1"/><feColorMatrix values="0 0 0 0 0 0 0 0 0 0 0 0 0 0 0 0 0 0 1 0" in="shadowBlurOuter1"/></filter><path id="j" d="M104.54 41.5l-.2.33c-.45.58-.85 1.16-1.2 1.77l-25.3 37.78L9.55 97.9c-6.7 1.63-10.83 8.38-9.2 15.1 1.38 5.72 6.5 9.56 12.13 9.56.97 0 1.96-.12 2.94-.36l73-17.66c3.05-.74 5.7-2.6 7.45-5.2l19.3-28.82c.62-.08 1.26-.17 1.95-.27 14.2-3.34 30.93-1.83 44.33-.45l1.58-13.14c.62-5.18 5.02-9.08 10.22-9.08.4 0 .83.03 1.24.08 2.73.33 5.17 1.7 6.87 3.86 1.7 2.17 2.44 4.86 2.1 7.6l-1.2 10.05c4.9-2 8.64-5.6 9.34-10.35 1.3-8.7-4.53-20.57-19.6-24.16-20.73-4.8-33.94-5-55.8-.25-2.32.7-4.3 1.54-6 2.48-2.25.9-4.25 2.47-5.7 4.63z"/><filter id="i" width="108.9%" height="118.6%" x="-4.4%" y="-7.1%" filterUnits="objectBoundingBox"><feMorphology radius="1.5" operator="dilate" in="SourceAlpha" result="shadowSpreadOuter1"/><feOffset dy="2" in="shadowSpreadOuter1" result="shadowOffsetOuter1"/><feGaussianBlur stdDeviation="2" in="shadowOffsetOuter1" result="shadowBlurOuter1"/><feComposite in="shadowBlurOuter1" in2="SourceAlpha" operator="out" result="shadowBlurOuter1"/><feColorMatrix values="0 0 0 0 0 0 0 0 0 0 0 0 0 0 0 0 0 0 1 0" in="shadowBlurOuter1"/></filter><path id="l" d="M210.68 97.7c.15-.35.3-.7.44-1.03-1.8-7.84.56-15.97 5.92-21.65-6.4.65-13.15 4.56-17.3 17.12-.28.8-.55 1.56-.82 2.3l11.76 3.25z"/><filter id="k" width="209.8%" height="176.7%" x="-49.6%" y="-29.1%" filterUnits="objectBoundingBox"><feMorphology radius="1.5" operator="dilate" in="SourceAlpha" result="shadowSpreadOuter1"/><feOffset dy="2" in="shadowSpreadOuter1" result="shadowOffsetOuter1"/><feGaussianBlur stdDeviation="2" in="shadowOffsetOuter1" result="shadowBlurOuter1"/><feComposite in="shadowBlurOuter1" in2="SourceAlpha" operator="out" result="shadowBlurOuter1"/><feColorMatrix values="0 0 0 0 0 0 0 0 0 0 0 0 0 0 0 0 0 0 1 0" in="shadowBlurOuter1"/></filter><path id="n" d="M214.08 98.63l1.8.5c2.64.73 4.85 2.45 6.2 4.85 1.04 1.82 1.48 3.87 1.3 5.9 5.66 3.34 12.77 4.05 19.28 1.3 10.95-4.6 16.08-17.2 11.48-28.15-4.6-10.94-17.22-16.08-28.16-11.47-10.58 4.46-15.73 16.4-11.9 27.07z"/><filter id="m" width="139.5%" height="139.5%" x="-19.8%" y="-15.1%" filterUnits="objectBoundingBox"><feMorphology radius="1.5" operator="dilate" in="SourceAlpha" result="shadowSpreadOuter1"/><feOffset dy="2" in="shadowSpreadOuter1" result="shadowOffsetOuter1"/><feGaussianBlur stdDeviation="2" in="shadowOffsetOuter1" result="shadowBlurOuter1"/><feComposite in="shadowBlurOuter1" in2="SourceAlpha" operator="out" result="shadowBlurOuter1"/><feColorMatrix values="0 0 0 0 0 0 0 0 0 0 0 0 0 0 0 0 0 0 1 0" in="shadowBlurOuter1"/></filter><path id="p" d="M181.23 58.84c.53-4.4-2.6-8.37-7-8.9-4.38-.52-8.36 2.6-8.88 7l-4.67 38.82c-.47 3.93 2 7.6 5.8 8.67l44.5 12.33c.72.2 1.44.3 2.15.3 3.5 0 6.72-2.33 7.7-5.87 1.18-4.27-1.3-8.68-5.57-9.86l-37.87-10.5 3.83-32z"/><filter id="o" width="128.1%" height="125.3%" x="-14%" y="-9.7%" filterUnits="objectBoundingBox"><feMorphology radius="1.5" operator="dilate" in="SourceAlpha" result="shadowSpreadOuter1"/><feOffset dy="2" in="shadowSpreadOuter1" result="shadowOffsetOuter1"/><feGaussianBlur stdDeviation="2" in="shadowOffsetOuter1" result="shadowBlurOuter1"/><feComposite in="shadowBlurOuter1" in2="SourceAlpha" operator="out" result="shadowBlurOuter1"/><feColorMatrix values="0 0 0 0 0 0 0 0 0 0 0 0 0 0 0 0 0 0 1 0" in="shadowBlurOuter1"/></filter></defs><g fill="none"><g fill-rule="nonzero"><g transform="translate(5 -5) rotate(-29.274 213.093 31.508)"><use fill="#000" filter="url(#a)" xlink:href="#b"/><use fill="#4E4E50" stroke="#1A1A1D" stroke-width="3" xlink:href="#b"/></g><g id="Path" transform="translate(5 -5)"><use fill="#000" filter="url(#c)" xlink:href="#d"/><use fill="#4E4E50" stroke="#1A1A1D" stroke-width="3" xlink:href="#d"/></g><g id="Path" transform="translate(5 -5)"><use fill="#000" filter="url(#e)" xlink:href="#f"/><use fill="#6F2232" stroke="#1A1A1D" stroke-width="3" xlink:href="#f"/></g><g id="Path" transform="translate(5 -5)"><use fill="#000" filter="url(#g)" xlink:href="#h"/><use fill="#6F2232" stroke="#1A1A1D" stroke-width="3" xlink:href="#h"/></g><g id="Path" transform="translate(5 -5)"><use fill="#000" filter="url(#i)" xlink:href="#j"/><use fill="#4E4E50" stroke="#1A1A1D" stroke-width="3" xlink:href="#j"/></g><g id="Path" transform="translate(5 -5)"><use fill="#000" filter="url(#k)" xlink:href="#l"/><use fill="#6F2232" stroke="#1A1A1D" stroke-width="3" xlink:href="#l"/></g><g id="Path" transform="translate(5 -5)"><use fill="#000" filter="url(#m)" xlink:href="#n"/><use fill="#6F2232" stroke="#1A1A1D" stroke-width="3" xlink:href="#n"/></g><g transform="translate(5 -5)"><use fill="#000" filter="url(#o)" xlink:href="#p"/><use fill="#4E4E50" stroke="#1A1A1D" stroke-width="3" xlink:href="#p"/></g></g></g></svg>