<svg xmlns="http://www.w3.org/2000/svg" width="167" height="235" xmlns:xlink="http://www.w3.org/1999/xlink"><title>sex-etsy-31</title><defs><path id="b" d="M72.88 222.9h9.97c5.57 0 10.47-3.7 12.02-9.04 1.54-5.36-.65-11.08-5.36-14.05l-6.04-3.8-4.78 18.5c-.9 3.5-3 6.42-5.8 8.4z"/><filter id="a" width="190%" height="166.4%" x="-52.2%" y="-27.4%" filterUnits="objectBoundingBox"><feMorphology radius="1.5" operator="dilate" in="SourceAlpha" result="shadowSpreadOuter1"/><feOffset dy="2" in="shadowSpreadOuter1" result="shadowOffsetOuter1"/><feGaussianBlur stdDeviation="2" in="shadowOffsetOuter1" result="shadowBlurOuter1"/><feComposite in="shadowBlurOuter1" in2="SourceAlpha" operator="out" result="shadowBlurOuter1"/><feColorMatrix values="0 0 0 0 0 0 0 0 0 0 0 0 0 0 0 0 0 0 1 0" in="shadowBlurOuter1"/></filter><path id="d" d="M12.5 222.9h43.35c-4.9-3.45-7.4-9.68-5.82-15.8l5.9-22.8-10.06 6.6c-2.42 1.6-5.23 2.45-8.13 2.45h-.1c-1.6.2-3.37.26-4.93.28l6.8 4.26h-27c-6.9 0-12.5 5.6-12.5 12.5s5.6 12.5 12.5 12.5z"/><filter id="c" width="136.1%" height="148.9%" x="-15.2%" y="-21.7%" filterUnits="objectBoundingBox"><feMorphology radius="1.5" operator="dilate" in="SourceAlpha" result="shadowSpreadOuter1"/><feOffset dy="2" in="shadowSpreadOuter1" result="shadowOffsetOuter1"/><feGaussianBlur stdDeviation="2" in="shadowOffsetOuter1" result="shadowBlurOuter1"/><feComposite in="shadowBlurOuter1" in2="SourceAlpha" operator="out" result="shadowBlurOuter1"/><feColorMatrix values="0 0 0 0 0 0 0 0 0 0 0 0 0 0 0 0 0 0 1 0" in="shadowBlurOuter1"/></filter><circle id="f" cx="25.345" cy="76.044" r="22.5"/><filter id="e" width="137.8%" height="137.8%" x="-18.9%" y="-14.4%" filterUnits="objectBoundingBox"><feMorphology radius="1.5" operator="dilate" in="SourceAlpha" result="shadowSpreadOuter1"/><feOffset dy="2" in="shadowSpreadOuter1" result="shadowOffsetOuter1"/><feGaussianBlur stdDeviation="2" in="shadowOffsetOuter1" result="shadowBlurOuter1"/><feComposite in="shadowBlurOuter1" in2="SourceAlpha" operator="out" result="shadowBlurOuter1"/><feColorMatrix values="0 0 0 0 0 0 0 0 0 0 0 0 0 0 0 0 0 0 1 0" in="shadowBlurOuter1"/></filter><path id="h" d="M59.64 179.1l-7.4 28.58c-1.7 6.68 2.3 13.5 9 15.23 1.04.28 2.1.4 3.12.4 5.57 0 10.64-3.73 12.1-9.37l15.5-60c.9-3.52.22-7.17-1.72-10.08l-6.46 2.36c-1.13.42-2.32.64-3.53.64-1.36 0-2.7-.27-3.95-.8L68.97 143l-24.32 16.03c.64-8.5 2.2-17.02 3.7-24.6l-12.97-5.38c-2.54-1.06-4.52-3.04-5.57-5.58-1.04-2.55-1.03-5.35.02-7.9 1.6-3.84 5.34-6.34 9.52-6.34 1.35 0 2.68.27 3.94.8l7.38 3.06c-1.24-5.9-4.66-10.78-9.84-12.07-8.53-2.13-20.9 2.5-25.94 17.15-6.8 20.17-8.27 33.3-5.7 55.52 3.14 16.1 14.18 17.75 23.34 17.63 1.87-.02 3.52-.08 4.97-.28 2.43.05 4.9-.6 7.1-2.06l15.04-9.9z"/><filter id="g" width="120.1%" height="113.8%" x="-10.1%" y="-5.3%" filterUnits="objectBoundingBox"><feMorphology radius="1.5" operator="dilate" in="SourceAlpha" result="shadowSpreadOuter1"/><feOffset dy="2" in="shadowSpreadOuter1" result="shadowOffsetOuter1"/><feGaussianBlur stdDeviation="2" in="shadowOffsetOuter1" result="shadowBlurOuter1"/><feComposite in="shadowBlurOuter1" in2="SourceAlpha" operator="out" result="shadowBlurOuter1"/><feColorMatrix values="0 0 0 0 0 0 0 0 0 0 0 0 0 0 0 0 0 0 1 0" in="shadowBlurOuter1"/></filter><path id="j" d="M115.4 115.18l-7.73 2.82-2.04 17.78 4.26-1.56 8.13-12.37c-.72-2-1.58-4.24-2.64-6.67z"/><filter id="i" width="240.6%" height="188%" x="-70.7%" y="-33.5%" filterUnits="objectBoundingBox"><feMorphology radius="1.5" operator="dilate" in="SourceAlpha" result="shadowSpreadOuter1"/><feOffset dy="2" in="shadowSpreadOuter1" result="shadowOffsetOuter1"/><feGaussianBlur stdDeviation="2" in="shadowOffsetOuter1" result="shadowBlurOuter1"/><feComposite in="shadowBlurOuter1" in2="SourceAlpha" operator="out" result="shadowBlurOuter1"/><feColorMatrix values="0 0 0 0 0 0 0 0 0 0 0 0 0 0 0 0 0 0 1 0" in="shadowBlurOuter1"/></filter><path id="l" d="M42.4 112.15c-4.08-1.7-8.76.24-10.45 4.32-1.7 4.08.23 8.76 4.3 10.45l40.93 17c.98.4 2.02.62 3.07.62.93 0 1.86-.17 2.74-.5l7.44-2.7c-.17-.2-.34-.38-.5-.58-1.46-1.84-2.12-4.14-1.85-6.48l1.08-9.53-8.74 3.2-38.04-15.8z"/><filter id="k" width="130.7%" height="151.5%" x="-14.4%" y="-19.7%" filterUnits="objectBoundingBox"><feMorphology radius="1.5" operator="dilate" in="SourceAlpha" result="shadowSpreadOuter1"/><feOffset dy="2" in="shadowSpreadOuter1" result="shadowOffsetOuter1"/><feGaussianBlur stdDeviation="2" in="shadowOffsetOuter1" result="shadowBlurOuter1"/><feComposite in="shadowBlurOuter1" in2="SourceAlpha" operator="out" result="shadowBlurOuter1"/><feColorMatrix values="0 0 0 0 0 0 0 0 0 0 0 0 0 0 0 0 0 0 1 0" in="shadowBlurOuter1"/></filter><path id="n" d="M144.86 30.4c2.42 7.44-9.3 21.87-5.24 32.58 5.43 14.27 19 10.63 14.74 9.05-4.26-1.6-8.43-6.24-1.53-21.53 7.42-16.43.42-24.3-6.25-28.6-.05 3-.65 5.87-1.72 8.5z"/><filter id="m" width="198.3%" height="135.1%" x="-49.1%" y="-14.8%" filterUnits="objectBoundingBox"><feMorphology radius="1.5" operator="dilate" in="SourceAlpha" result="shadowSpreadOuter1"/><feOffset dy="2" in="shadowSpreadOuter1" result="shadowOffsetOuter1"/><feGaussianBlur stdDeviation="2" in="shadowOffsetOuter1" result="shadowBlurOuter1"/><feComposite in="shadowBlurOuter1" in2="SourceAlpha" operator="out" result="shadowBlurOuter1"/><feColorMatrix values="0 0 0 0 0 0 0 0 0 0 0 0 0 0 0 0 0 0 1 0" in="shadowBlurOuter1"/></filter><circle id="p" cx="122.794" cy="21.5" r="21.5"/><filter id="o" width="139.5%" height="139.5%" x="-19.8%" y="-15.1%" filterUnits="objectBoundingBox"><feMorphology radius="1.5" operator="dilate" in="SourceAlpha" result="shadowSpreadOuter1"/><feOffset dy="2" in="shadowSpreadOuter1" result="shadowOffsetOuter1"/><feGaussianBlur stdDeviation="2" in="shadowOffsetOuter1" result="shadowBlurOuter1"/><feComposite in="shadowBlurOuter1" in2="SourceAlpha" operator="out" result="shadowBlurOuter1"/><feColorMatrix values="0 0 0 0 0 0 0 0 0 0 0 0 0 0 0 0 0 0 0.5 0" in="shadowBlurOuter1"/></filter><path id="r" d="M105.16 53.82c.33 0 .67.02 1 .06 2.34.26 4.44 1.42 5.9 3.27 1.46 1.84 2.12 4.14 1.85 6.47l-4.13 36.06c5.7 9.03 8.82 16.8 10.8 22.48l-21.9 33.32c-1.54 2.33-2.1 5.16-1.53 7.9l10.67 51.82c1.03 4.97 5.4 8.4 10.28 8.4.7 0 1.42-.08 2.13-.23 5.7-1.17 9.35-6.72 8.18-12.4l-9.8-47.58 29.03-44.1c5.06-5.82 6.4-13.44-2.7-21.35-28.57-24.77-19.14-36.14-28.16-46.52-9.18-10.56-20.55-8.53-26.6-.6 2.8 8.54.7 12.94-.83 16.33-2.55 2.8-5.06 5.75-6.48 7.88-.2-.08-.4-.12-.62-.12-.97 0-1.75.78-1.75 1.75 0 .77.5 1.4 1.18 1.65-.03 5.62 4.13 13.5 11.6 11.24l3.2-27.94c.5-4.45 4.26-7.8 8.73-7.8z"/><filter id="q" width="123.9%" height="109.5%" x="-12%" y="-3.6%" filterUnits="objectBoundingBox"><feMorphology radius="1.5" operator="dilate" in="SourceAlpha" result="shadowSpreadOuter1"/><feOffset dy="2" in="shadowSpreadOuter1" result="shadowOffsetOuter1"/><feGaussianBlur stdDeviation="2" in="shadowOffsetOuter1" result="shadowBlurOuter1"/><feComposite in="shadowBlurOuter1" in2="SourceAlpha" operator="out" result="shadowBlurOuter1"/><feColorMatrix values="0 0 0 0 0 0 0 0 0 0 0 0 0 0 0 0 0 0 0.5 0" in="shadowBlurOuter1"/></filter><path id="t" d="M90.37 134.54c-.4 3.57 2.16 6.8 5.72 7.2.24.03.5.05.74.05 3.26 0 6.07-2.46 6.45-5.77l8.32-72.67c.4-3.57-2.15-6.8-5.7-7.2-3.57-.4-6.8 2.15-7.2 5.72l-8.35 72.66z"/><filter id="s" width="179.7%" height="119.8%" x="-39.8%" y="-7.6%" filterUnits="objectBoundingBox"><feMorphology radius="1.5" operator="dilate" in="SourceAlpha" result="shadowSpreadOuter1"/><feOffset dy="2" in="shadowSpreadOuter1" result="shadowOffsetOuter1"/><feGaussianBlur stdDeviation="2" in="shadowOffsetOuter1" result="shadowBlurOuter1"/><feComposite in="shadowBlurOuter1" in2="SourceAlpha" operator="out" result="shadowBlurOuter1"/><feColorMatrix values="0 0 0 0 0 0 0 0 0 0 0 0 0 0 0 0 0 0 0.5 0" in="shadowBlurOuter1"/></filter></defs><g fill="none"><g fill-rule="nonzero"><g id="Path" transform="translate(6 4)"><use fill="#000" filter="url(#a)" xlink:href="#b"/><use fill="#4E4E50" stroke="#1A1A1D" stroke-width="3" xlink:href="#b"/></g><g id="Path" transform="translate(6 4)"><use fill="#000" filter="url(#c)" xlink:href="#d"/><use fill="#4E4E50" stroke="#1A1A1D" stroke-width="3" xlink:href="#d"/></g><g id="Oval" transform="translate(6 4)"><use fill="#000" filter="url(#e)" xlink:href="#f"/><use fill="#4E4E50" stroke="#1A1A1D" stroke-width="3" xlink:href="#f"/></g><g id="Path" transform="translate(6 4)"><use fill="#000" filter="url(#g)" xlink:href="#h"/><use fill="#4E4E50" stroke="#1A1A1D" stroke-width="3" xlink:href="#h"/></g><g id="Path" transform="translate(6 4)"><use fill="#000" filter="url(#i)" xlink:href="#j"/><use fill="#4E4E50" stroke="#1A1A1D" stroke-width="3" xlink:href="#j"/></g><g id="Path" transform="translate(6 4)"><use fill="#000" filter="url(#k)" xlink:href="#l"/><use fill="#4E4E50" stroke="#1A1A1D" stroke-width="3" xlink:href="#l"/></g><g id="Path" transform="translate(6 4)"><use fill="#000" filter="url(#m)" xlink:href="#n"/><use fill="#6F2232" stroke="#1A1A1D" stroke-width="3" xlink:href="#n"/></g><g transform="translate(6 4)"><use fill="#000" filter="url(#o)" xlink:href="#p"/><use fill="#6F2232" stroke="#1A1A1D" stroke-width="3" xlink:href="#p"/></g><g id="Path" transform="translate(6 4)"><use fill="#000" filter="url(#q)" xlink:href="#r"/><use fill="#6F2232" stroke="#1A1A1D" stroke-width="3" xlink:href="#r"/></g><g transform="translate(6 4)"><use fill="#000" filter="url(#s)" xlink:href="#t"/><use fill="#6F2232" stroke="#1A1A1D" stroke-width="3" xlink:href="#t"/></g></g></g></svg>