<svg xmlns="http://www.w3.org/2000/svg" width="246" height="136" xmlns:xlink="http://www.w3.org/1999/xlink"><title>sex-etsy-59</title><defs><path id="b" d="M77.63 72.55c-1-3.13-.72-6.46.78-9.38l19.7-38.2-32.2 3.87c-1.2 3-1.64 6.25-1.73 9.4-.05.37-.1.75-.1 1.14L62.5 89.86 10.83 96.8C4 97.7-.8 104 .1 110.83c.85 6.28 6.22 10.84 12.4 10.84.54 0 1.1-.04 1.66-.12l62.15-8.33c6.07-.82 10.65-5.9 10.84-12L87.78 81c-1.4-.18-2.8-.6-4.07-1.26-2.9-1.5-5.07-4.06-6.07-7.2z"/><filter id="a" width="118.5%" height="117.9%" x="-8.7%" y="-7.1%" filterUnits="objectBoundingBox"><feMorphology radius="1.5" operator="dilate" in="SourceAlpha" result="shadowSpreadOuter1"/><feOffset dy="2" in="shadowSpreadOuter1" result="shadowOffsetOuter1"/><feGaussianBlur stdDeviation="2" in="shadowOffsetOuter1" result="shadowBlurOuter1"/><feComposite in="shadowBlurOuter1" in2="SourceAlpha" operator="out" result="shadowBlurOuter1"/><feColorMatrix values="0 0 0 0 0 0 0 0 0 0 0 0 0 0 0 0 0 0 0.5 0" in="shadowBlurOuter1"/></filter><path id="d" d="M119.3 56.17c.08 0 .17.03.25.05l7.14-16.8c1.6-3.8 5.33-6.26 9.47-6.26 1.4 0 2.74.28 4.03.82 2.53 1.08 4.5 3.08 5.52 5.63 1.03 2.56 1 5.36-.07 7.9L140.7 59.1c6.6-.9 12.34-4.46 13.75-10.13 2.13-8.55-2.5-20.93-17.15-25.96-3.2-1.08-6.2-2-9.1-2.82L112.36 51c2.05 1.66 4.35 3.4 6.95 5.17z"/><filter id="c" width="140.8%" height="144.9%" x="-20.9%" y="-17.4%" filterUnits="objectBoundingBox"><feMorphology radius="1.5" operator="dilate" in="SourceAlpha" result="shadowSpreadOuter1"/><feOffset dy="2" in="shadowSpreadOuter1" result="shadowOffsetOuter1"/><feGaussianBlur stdDeviation="2" in="shadowOffsetOuter1" result="shadowBlurOuter1"/><feComposite in="shadowBlurOuter1" in2="SourceAlpha" operator="out" result="shadowBlurOuter1"/><feColorMatrix values="0 0 0 0 0 0 0 0 0 0 0 0 0 0 0 0 0 0 0.5 0" in="shadowBlurOuter1"/></filter><circle id="f" cx="180.956" cy="29.766" r="22.5"/><filter id="e" width="137.8%" height="137.8%" x="-18.9%" y="-14.4%" filterUnits="objectBoundingBox"><feMorphology radius="1.5" operator="dilate" in="SourceAlpha" result="shadowSpreadOuter1"/><feOffset dy="2" in="shadowSpreadOuter1" result="shadowOffsetOuter1"/><feGaussianBlur stdDeviation="2" in="shadowOffsetOuter1" result="shadowBlurOuter1"/><feComposite in="shadowBlurOuter1" in2="SourceAlpha" operator="out" result="shadowBlurOuter1"/><feColorMatrix values="0 0 0 0 0 0 0 0 0 0 0 0 0 0 0 0 0 0 0.5 0" in="shadowBlurOuter1"/></filter><path id="h" d="M113.68 70.03l4.9-11.56c-3.52-2.37-6.54-4.7-9.12-6.87l19.07-37.02c1.7-3.3 1.43-7.25-.68-10.3-2.1-3.02-5.72-4.65-9.4-4.2L58.3 7.27c-5.48.67-9.4 5.65-8.74 11.13.66 5.5 5.64 9.4 11.12 8.75l41.44-4.98-21.66 42.06c-2.53 4.9-.6 10.94 4.3 13.46 1.47.75 3.04 1.1 4.58 1.1.63 0 1.24-.07 1.86-.2.62.2 1.27.4 1.98.58 12.6 3.12 20.5 6.87 25.93 10.66l-5.3-11.45c-1.2-2.65-1.26-5.7-.12-8.37z"/><filter id="g" width="121.2%" height="123.1%" x="-10.6%" y="-7.2%" filterUnits="objectBoundingBox"><feMorphology radius="1.5" operator="dilate" in="SourceAlpha" result="shadowSpreadOuter1"/><feOffset dy="2" in="shadowSpreadOuter1" result="shadowOffsetOuter1"/><feGaussianBlur stdDeviation="2" in="shadowOffsetOuter1" result="shadowBlurOuter1"/><feComposite in="shadowBlurOuter1" in2="SourceAlpha" operator="out" result="shadowBlurOuter1"/><feColorMatrix values="0 0 0 0 0 0 0 0 0 0 0 0 0 0 0 0 0 0 0.5 0" in="shadowBlurOuter1"/></filter><path id="j" d="M136.74 68.43l-2.32 5.45 5.22 11.26c1.43-.95 3.1-1.48 4.87-1.48 2.08 0 4.1.74 5.68 2.08 1.8 1.52 2.9 3.64 3.1 5.98.2 2.35-.54 4.62-2.05 6.42l-3.6 4.25 2.43 5.22c.27.6.47 1.18.63 1.8 6.84-1.15 11.45-6.48 12.65-13.12-4.87-4.85-6.08-8.85-6.47-12.13.7-1.54 1.4-3.1 2-4.57.68-1.7 1.25-3.26 1.62-4.52.87.04 1.66-.58 1.8-1.46.16-.96-.5-1.86-1.44-2-.07-.02-.14-.02-.22-.02-2-6.43-10.72-14.17-18.23-3.28-.4.6-.82 1.28-1.22 2-1.53-.62-3-1.25-4.44-1.9z"/><filter id="i" width="159.6%" height="136.9%" x="-29.9%" y="-14%" filterUnits="objectBoundingBox"><feMorphology radius="1.5" operator="dilate" in="SourceAlpha" result="shadowSpreadOuter1"/><feOffset dy="2" in="shadowSpreadOuter1" result="shadowOffsetOuter1"/><feGaussianBlur stdDeviation="2" in="shadowOffsetOuter1" result="shadowBlurOuter1"/><feComposite in="shadowBlurOuter1" in2="SourceAlpha" operator="out" result="shadowBlurOuter1"/><feColorMatrix values="0 0 0 0 0 0 0 0 0 0 0 0 0 0 0 0 0 0 0.5 0" in="shadowBlurOuter1"/></filter><path id="l" d="M189.3 122.36c4.92 3.12 12 4.14 22.45-.95 15.1-7.32 19.86-3.3 21.57.92 1.7 4.2 4.95-9.46-9.47-14.47-4.14-1.44-8.75-.56-13.3.96-.23.52-.5 1.03-.78 1.53-4.33 7.63-12.27 11.94-20.46 12.03z"/><filter id="k" width="144.1%" height="195.3%" x="-25.4%" y="-36.4%" filterUnits="objectBoundingBox"><feMorphology radius="1.5" operator="dilate" in="SourceAlpha" result="shadowSpreadOuter1"/><feOffset dy="2" in="shadowSpreadOuter1" result="shadowOffsetOuter1"/><feGaussianBlur stdDeviation="2" in="shadowOffsetOuter1" result="shadowBlurOuter1"/><feComposite in="shadowBlurOuter1" in2="SourceAlpha" operator="out" result="shadowBlurOuter1"/><feColorMatrix values="0 0 0 0 0 0 0 0 0 0 0 0 0 0 0 0 0 0 0.5 0" in="shadowBlurOuter1"/></filter><circle id="n" cx="189.072" cy="98.574" r="21.499"/><filter id="m" width="139.5%" height="139.5%" x="-19.8%" y="-15.1%" filterUnits="objectBoundingBox"><feMorphology radius="1.5" operator="dilate" in="SourceAlpha" result="shadowSpreadOuter1"/><feOffset dy="2" in="shadowSpreadOuter1" result="shadowOffsetOuter1"/><feGaussianBlur stdDeviation="2" in="shadowOffsetOuter1" result="shadowBlurOuter1"/><feComposite in="shadowBlurOuter1" in2="SourceAlpha" operator="out" result="shadowBlurOuter1"/><feColorMatrix values="0 0 0 0 0 0 0 0 0 0 0 0 0 0 0 0 0 0 0.5 0" in="shadowBlurOuter1"/></filter><path id="p" d="M137.78 86.8c.02-.04.04-.05.06-.08l-5.93-12.8 11.63-27.33c1.73-4.07-.17-8.77-4.23-10.5-4.07-1.73-8.77.17-10.5 4.23l-13 30.6c-.9 2.08-.86 4.44.1 6.5l10.55 22.77 11.33-13.4z"/><filter id="o" width="158.6%" height="128.2%" x="-29.3%" filterUnits="objectBoundingBox"><feMorphology radius="1.5" operator="dilate" in="SourceAlpha" result="shadowSpreadOuter1"/><feOffset dy="2" in="shadowSpreadOuter1" result="shadowOffsetOuter1"/><feGaussianBlur stdDeviation="2" in="shadowOffsetOuter1" result="shadowBlurOuter1"/><feComposite in="shadowBlurOuter1" in2="SourceAlpha" operator="out" result="shadowBlurOuter1"/><feColorMatrix values="0 0 0 0 0 0 0 0 0 0 0 0 0 0 0 0 0 0 0.5 0" in="shadowBlurOuter1"/></filter><path id="r" d="M147.97 108.6l-1.97-4.27-11.08 13.12c1.5 1.6 3.62 2.5 5.8 2.5 1.12 0 2.27-.23 3.36-.74 4-1.84 5.75-6.6 3.9-10.6z"/><filter id="q" width="226.5%" height="216.9%" x="-64.9%" y="-49.7%" filterUnits="objectBoundingBox"><feMorphology radius="1.5" operator="dilate" in="SourceAlpha" result="shadowSpreadOuter1"/><feOffset dy="2" in="shadowSpreadOuter1" result="shadowOffsetOuter1"/><feGaussianBlur stdDeviation="2" in="shadowOffsetOuter1" result="shadowBlurOuter1"/><feComposite in="shadowBlurOuter1" in2="SourceAlpha" operator="out" result="shadowBlurOuter1"/><feColorMatrix values="0 0 0 0 0 0 0 0 0 0 0 0 0 0 0 0 0 0 1 0" in="shadowBlurOuter1"/></filter><path id="t" d="M149.47 96.66c2.32-2.75 1.97-6.85-.77-9.16-2.74-2.32-6.85-1.97-9.16.77l-18.28 21.65-30.43 1.73c-3.6.2-6.33 3.28-6.12 6.86.2 3.47 3.07 6.14 6.5 6.14.12 0 .24 0 .37 0l33.22-1.9c1.77-.1 3.43-.93 4.58-2.3l20.1-23.78z"/><filter id="s" width="125.6%" height="143.9%" x="-12.8%" y="-16.8%" filterUnits="objectBoundingBox"><feMorphology radius="1.5" operator="dilate" in="SourceAlpha" result="shadowSpreadOuter1"/><feOffset dy="2" in="shadowSpreadOuter1" result="shadowOffsetOuter1"/><feGaussianBlur stdDeviation="2" in="shadowOffsetOuter1" result="shadowBlurOuter1"/><feComposite in="shadowBlurOuter1" in2="SourceAlpha" operator="out" result="shadowBlurOuter1"/><feColorMatrix values="0 0 0 0 0 0 0 0 0 0 0 0 0 0 0 0 0 0 0.5 0" in="shadowBlurOuter1"/></filter></defs><g fill="none"><g fill-rule="nonzero"><g id="Path" transform="translate(6 3)"><use fill="#000" filter="url(#a)" xlink:href="#b"/><use fill="#4E4E50" stroke="#1A1A1D" stroke-width="3" xlink:href="#b"/></g><g id="Path" transform="translate(6 3)"><use fill="#000" filter="url(#c)" xlink:href="#d"/><use fill="#4E4E50" stroke="#1A1A1D" stroke-width="3" xlink:href="#d"/></g><g id="Oval" transform="translate(6 3)"><use fill="#000" filter="url(#e)" xlink:href="#f"/><use fill="#4E4E50" stroke="#1A1A1D" stroke-width="3" xlink:href="#f"/></g><g id="Path" transform="translate(6 3)"><use fill="#000" filter="url(#g)" xlink:href="#h"/><use fill="#6F2232" stroke="#1A1A1D" stroke-width="3" xlink:href="#h"/></g><g id="Path" transform="translate(6 3)"><use fill="#000" filter="url(#i)" xlink:href="#j"/><use fill="#6F2232" stroke="#1A1A1D" stroke-width="3" xlink:href="#j"/></g><g id="Path" transform="translate(6 3)"><use fill="#000" filter="url(#k)" xlink:href="#l"/><use fill="#6F2232" stroke="#1A1A1D" stroke-width="3" xlink:href="#l"/></g><g transform="translate(6 3) rotate(-39.839 189.072 98.574)"><use fill="#000" filter="url(#m)" xlink:href="#n"/><use fill="#6F2232" stroke="#1A1A1D" stroke-width="3" xlink:href="#n"/></g><g id="Path" transform="translate(6 3)"><use fill="#000" filter="url(#o)" xlink:href="#p"/><use fill="#4E4E50" stroke="#1A1A1D" stroke-width="3" xlink:href="#p"/></g><g id="Path" transform="translate(6 3)"><use fill="#000" filter="url(#q)" xlink:href="#r"/><use fill="#4E4E50" stroke="#1A1A1D" stroke-width="3" xlink:href="#r"/></g><g transform="translate(6 3)"><use fill="#000" filter="url(#s)" xlink:href="#t"/><use fill="#6F2232" stroke="#1A1A1D" stroke-width="3" xlink:href="#t"/></g></g></g></svg>