<svg xmlns="http://www.w3.org/2000/svg" xmlns:xlink="http://www.w3.org/1999/xlink" width="156" height="116"><defs><filter id="i" width="127.1%" height="123.6%" x="-13.6%" y="-8.9%" filterUnits="objectBoundingBox"><feMorphology in="SourceAlpha" operator="dilate" radius="1" result="shadowSpreadOuter1"/><feOffset dy="2" in="shadowSpreadOuter1" result="shadowOffsetOuter1"/><feGaussianBlur in="shadowOffsetOuter1" result="shadowBlurOuter1" stdDeviation="2"/><feComposite in="shadowBlurOuter1" in2="SourceAlpha" operator="out" result="shadowBlurOuter1"/><feColorMatrix in="shadowBlurOuter1" values="0 0 0 0 0 0 0 0 0 0 0 0 0 0 0 0 0 0 0.5 0"/></filter><filter id="q" width="155.2%" height="130.8%" x="-27.6%" y="-11.5%" filterUnits="objectBoundingBox"><feMorphology in="SourceAlpha" operator="dilate" radius="1" result="shadowSpreadOuter1"/><feOffset dy="2" in="shadowSpreadOuter1" result="shadowOffsetOuter1"/><feGaussianBlur in="shadowOffsetOuter1" result="shadowBlurOuter1" stdDeviation="2"/><feComposite in="shadowBlurOuter1" in2="SourceAlpha" operator="out" result="shadowBlurOuter1"/><feColorMatrix in="shadowBlurOuter1" values="0 0 0 0 0 0 0 0 0 0 0 0 0 0 0 0 0 0 0.5 0"/></filter><filter id="o" width="127.1%" height="155.2%" x="-13.6%" y="-20.7%" filterUnits="objectBoundingBox"><feMorphology in="SourceAlpha" operator="dilate" radius="1" result="shadowSpreadOuter1"/><feOffset dy="2" in="shadowSpreadOuter1" result="shadowOffsetOuter1"/><feGaussianBlur in="shadowOffsetOuter1" result="shadowBlurOuter1" stdDeviation="2"/><feComposite in="shadowBlurOuter1" in2="SourceAlpha" operator="out" result="shadowBlurOuter1"/><feColorMatrix in="shadowBlurOuter1" values="0 0 0 0 0 0 0 0 0 0 0 0 0 0 0 0 0 0 0.5 0"/></filter><filter id="c" width="194.8%" height="328.3%" x="-48.8%" y="-92.6%" filterUnits="objectBoundingBox"><feMorphology in="SourceAlpha" operator="dilate" radius=".5" result="shadowSpreadOuter1"/><feOffset dy="2" in="shadowSpreadOuter1" result="shadowOffsetOuter1"/><feGaussianBlur in="shadowOffsetOuter1" result="shadowBlurOuter1" stdDeviation="2"/><feComposite in="shadowBlurOuter1" in2="SourceAlpha" operator="out" result="shadowBlurOuter1"/><feColorMatrix in="shadowBlurOuter1" values="0 0 0 0 0 0 0 0 0 0 0 0 0 0 0 0 0 0 0.5 0"/></filter><filter id="m" width="123.5%" height="138.3%" x="-11%" y="-14.3%" filterUnits="objectBoundingBox"><feMorphology in="SourceAlpha" operator="dilate" radius="1" result="shadowSpreadOuter1"/><feOffset dy="2" in="shadowSpreadOuter1" result="shadowOffsetOuter1"/><feGaussianBlur in="shadowOffsetOuter1" result="shadowBlurOuter1" stdDeviation="2"/><feComposite in="shadowBlurOuter1" in2="SourceAlpha" operator="out" result="shadowBlurOuter1"/><feColorMatrix in="shadowBlurOuter1" values="0 0 0 0 0 0 0 0 0 0 0 0 0 0 0 0 0 0 0.5 0"/></filter><filter id="e" width="233.2%" height="152.6%" x="-66.5%" y="-20.3%" filterUnits="objectBoundingBox"><feMorphology in="SourceAlpha" operator="dilate" radius="1" result="shadowSpreadOuter1"/><feOffset dy="2" in="shadowSpreadOuter1" result="shadowOffsetOuter1"/><feGaussianBlur in="shadowOffsetOuter1" result="shadowBlurOuter1" stdDeviation="2"/><feComposite in="shadowBlurOuter1" in2="SourceAlpha" operator="out" result="shadowBlurOuter1"/><feColorMatrix in="shadowBlurOuter1" values="0 0 0 0 0 0 0 0 0 0 0 0 0 0 0 0 0 0 0.5 0"/></filter><filter id="k" width="166%" height="168.1%" x="-34%" y="-25%" filterUnits="objectBoundingBox"><feMorphology in="SourceAlpha" operator="dilate" radius="1" result="shadowSpreadOuter1"/><feOffset dy="2" in="shadowSpreadOuter1" result="shadowOffsetOuter1"/><feGaussianBlur in="shadowOffsetOuter1" result="shadowBlurOuter1" stdDeviation="2"/><feComposite in="shadowBlurOuter1" in2="SourceAlpha" operator="out" result="shadowBlurOuter1"/><feColorMatrix in="shadowBlurOuter1" values="0 0 0 0 0 0 0 0 0 0 0 0 0 0 0 0 0 0 0.5 0"/></filter><filter id="g" width="159.5%" height="159.6%" x="-29.8%" y="-22.3%" filterUnits="objectBoundingBox"><feMorphology in="SourceAlpha" operator="dilate" radius="1" result="shadowSpreadOuter1"/><feOffset dy="2" in="shadowSpreadOuter1" result="shadowOffsetOuter1"/><feGaussianBlur in="shadowOffsetOuter1" result="shadowBlurOuter1" stdDeviation="2"/><feComposite in="shadowBlurOuter1" in2="SourceAlpha" operator="out" result="shadowBlurOuter1"/><feColorMatrix in="shadowBlurOuter1" values="0 0 0 0 0 0 0 0 0 0 0 0 0 0 0 0 0 0 0.5 0"/></filter><filter id="a" width="148.1%" height="149.5%" x="-24.6%" y="-16.7%" filterUnits="objectBoundingBox"><feMorphology in="SourceAlpha" operator="dilate" radius="1" result="shadowSpreadOuter1"/><feOffset dy="2" in="shadowSpreadOuter1" result="shadowOffsetOuter1"/><feGaussianBlur in="shadowOffsetOuter1" result="shadowBlurOuter1" stdDeviation="2"/><feComposite in="shadowBlurOuter1" in2="SourceAlpha" operator="out" result="shadowBlurOuter1"/><feColorMatrix in="shadowBlurOuter1" values="0 0 0 0 0 0 0 0 0 0 0 0 0 0 0 0 0 0 0.5 0"/></filter><path id="j" d="M8.02 111h42.96a8.02 8.02 0 007.45-4.93 7.74 7.74 0 00-1.92-8.6l-26-24.28c7.4-4.64 16.05-7.95 22.48-10.64l-3.47-3.07a6.37 6.37 0 01-.48-9.14 6.6 6.6 0 013.41-1.96L39.57 43c-10.48 3.3-17.42 7.28-26.95 15.38-7.4 7.32-4.3 13.63-.92 18.35a49.88 49.88 0 001.44 1.89A9.18 9.18 0 0015 80.4l15.95 14.9H8.02A7.94 7.94 0 000 103.15 7.94 7.94 0 008.02 111z"/><path id="l" d="M86.58 58a13.92 13.92 0 003.23-15.8A13.67 13.67 0 0066 39.97c.77.34 1.47.79 2.09 1.35L86.59 58z"/><path id="n" d="M75.04 65L91 61.5 66.35 40.07a6.7 6.7 0 00-1.83-1.13L27.28 23.52a6.74 6.74 0 00-8.74 3.42 6.4 6.4 0 003.51 8.5l36.23 14.99L75.04 65z"/><path id="f" d="M136.94 31.85c5.97 3.57-5.47 13.95-2.41 21.54 3.52 8.72 12.8 6.66 9.92 5.65-2.88-1-5.66-3.88-.77-13.08 4.95-9.33 1.08-14.19-3.14-16.96a15.64 15.64 0 01-3.6 2.85z"/><path id="p" d="M73.45 68l-17.9-16.64a5.02 5.02 0 00-7.23.37 5.37 5.37 0 00.37 7.44l19.87 18.47a5.03 5.03 0 004.56 1.23L102 72.15a5.27 5.27 0 003.86-6.3 5.12 5.12 0 00-6.12-3.97L73.45 68z"/><path id="d" d="M88 77.15c5.97 3.62 14.53 5.24 17-4.15-.73.54-1.6.95-2.58 1.15l-14.42 3z"/><path id="r" d="M118 37.38a4.24 4.24 0 00-5.56-2 4.04 4.04 0 00-2.06 5.4L131 84.62a4.2 4.2 0 005.56 2 4.04 4.04 0 002.06-5.4L118 37.38z"/><path id="b" d="M92.67 62.53l6.23-1.33a6.64 6.64 0 017.56 3.8c2.34-6.83 5.13-10.52 7.76-13.11l-4.67-9.65a5.21 5.21 0 012.77-7.05 5.84 5.84 0 012.33-.48c2.2 0 4.2 1.22 5.11 3.1l2.42 5c2.75-7.67-1.8-12.92-7.97-13.81-3.92 3.95-7.03 4.12-9.4 4.29a46.8 46.8 0 00-6.71-1.18c-.16-.4-.57-.7-1.05-.7-.62 0-1.12.47-1.12 1.06 0 .04.01.08.02.12-3.86 2.18-7.42 8.49 1.6 11.48A69.46 69.46 0 0189 59.4l3.44 2.92c.08.07.15.14.23.21z"/><ellipse id="h" cx="130.456" cy="18.982" rx="13.44" ry="13.428"/></defs><g fill="none" fill-rule="nonzero"><path fill="#4E4E50" d="M119.23 80.47H85.36v3.12h1.7L82 112.45l3.03.55 4.7-26.8h27.58l4.7 26.8 3.03-.55-5.06-28.86h1.69L126 64.64 123.9 60z"/><path fill="#000" d="M133 36.67l-3.74-.67-2.26 7.57 2.62 4.43z"/><g transform="translate(5 -2)"><use fill="#000" filter="url(#a)" xlink:href="#b"/><use fill="#6F2232" stroke="#1A1A1D" stroke-width="2" xlink:href="#b"/></g><g transform="translate(5 -2)"><use fill="#000" filter="url(#c)" xlink:href="#d"/><use fill="#6F2232" stroke="#1A1A1D" xlink:href="#d"/></g><g transform="translate(5 -2)"><use fill="#000" filter="url(#e)" xlink:href="#f"/><use fill="#6F2232" stroke="#1A1A1D" stroke-width="2" xlink:href="#f"/></g><g transform="rotate(-41.854 130.341 11.445)"><use fill="#000" filter="url(#g)" xlink:href="#h"/><use fill="#6F2232" stroke="#1A1A1D" stroke-width="2" xlink:href="#h"/></g><g transform="translate(5 -2)"><use fill="#000" filter="url(#i)" xlink:href="#j"/><use fill="#4E4E50" stroke="#1A1A1D" stroke-width="2" xlink:href="#j"/></g><g transform="translate(5 -2)"><use fill="#000" filter="url(#k)" xlink:href="#l"/><use fill="#4E4E50" stroke="#1A1A1D" stroke-width="2" xlink:href="#l"/></g><g transform="translate(5 -2)"><use fill="#000" filter="url(#m)" xlink:href="#n"/><use fill="#6F2232" stroke="#1A1A1D" stroke-width="2" xlink:href="#n"/></g><g transform="translate(5 -2)"><use fill="#000" filter="url(#o)" xlink:href="#p"/><use fill="#4E4E50" stroke="#1A1A1D" stroke-width="2" xlink:href="#p"/></g><g transform="translate(5 -2)"><use fill="#000" filter="url(#q)" xlink:href="#r"/><use fill="#6F2232" stroke="#1A1A1D" stroke-width="2" xlink:href="#r"/></g></g></svg>