<svg xmlns="http://www.w3.org/2000/svg" width="160" height="170" xmlns:xlink="http://www.w3.org/1999/xlink"><title>sex-etsy-22</title><defs><path id="b" d="M42.08 96.15c2.04 0 4 .87 5.37 2.38 2.73 3 2.53 7.68-.43 10.44l-8.6 8c1.98.12 4-.1 5.93-.66 4.42-.87 9.7-2.05 15.26-2.95.26-1.35.8-2.64 1.6-3.76L76 89.1c-.3-.83-.63-1.72-1-2.65-5.63-.52-10.47-.6-15.13-.2l-7.22 6.8C51.5 94.12 50 94.7 48.4 94.7c-1.72 0-3.4-.73-4.56-2.02-.72-.78-1.2-1.7-1.47-2.7-.94.3-1.9.62-2.9.96-9.25 3.23-12.85 10.65-12.44 16.55l10.12-9.4c1.35-1.26 3.1-1.95 4.93-1.95z"/><filter id="a" width="132.9%" height="151.6%" x="-16.3%" y="-19.4%" filterUnits="objectBoundingBox"><feMorphology radius="1" operator="dilate" in="SourceAlpha" result="shadowSpreadOuter1"/><feOffset dy="2" in="shadowSpreadOuter1" result="shadowOffsetOuter1"/><feGaussianBlur stdDeviation="2" in="shadowOffsetOuter1" result="shadowBlurOuter1"/><feComposite in="shadowBlurOuter1" in2="SourceAlpha" operator="out" result="shadowBlurOuter1"/><feColorMatrix values="0 0 0 0 0 0 0 0 0 0 0 0 0 0 0 0 0 0 0.5 0" in="shadowBlurOuter1"/></filter><path id="d" d="M84 113.03c6.2.24 8.48-1.06 9.34-3.93l21.86 6.28 17.72 39.33c1.5 3.33 4.75 5.3 8.14 5.3 1.24 0 2.5-.26 3.7-.8 4.5-2.08 6.48-7.44 4.43-11.98l-19.44-43.14c-1.08-2.4-3.17-4.22-5.7-4.95L99.22 92 84 113.03z"/><filter id="c" width="125.6%" height="123.8%" x="-13.5%" y="-9.1%" filterUnits="objectBoundingBox"><feMorphology radius="1" operator="dilate" in="SourceAlpha" result="shadowSpreadOuter1"/><feOffset dy="2" in="shadowSpreadOuter1" result="shadowOffsetOuter1"/><feGaussianBlur stdDeviation="2" in="shadowOffsetOuter1" result="shadowBlurOuter1"/><feComposite in="shadowBlurOuter1" in2="SourceAlpha" operator="out" result="shadowBlurOuter1"/><feColorMatrix values="0 0 0 0 0 0 0 0 0 0 0 0 0 0 0 0 0 0 0.5 0" in="shadowBlurOuter1"/></filter><path id="f" d="M7.48 143l7.47-24.28c.4-1.26 1.1-2.4 2.02-3.3L20 112.5c-1.25-.32-2.55-.5-3.9-.5C7.23 112 0 119.5 0 128.78c0 6 2.98 11.24 7.48 14.22z"/><filter id="e" width="184.5%" height="153.3%" x="-40%" y="-19.4%" filterUnits="objectBoundingBox"><feMorphology radius="1" operator="dilate" in="SourceAlpha" result="shadowSpreadOuter1"/><feOffset dy="2" in="shadowSpreadOuter1" result="shadowOffsetOuter1"/><feGaussianBlur stdDeviation="2" in="shadowOffsetOuter1" result="shadowBlurOuter1"/><feComposite in="shadowBlurOuter1" in2="SourceAlpha" operator="out" result="shadowBlurOuter1"/><feColorMatrix values="0 0 0 0 0 0 0 0 0 0 0 0 0 0 0 0 0 0 0.5 0" in="shadowBlurOuter1"/></filter><path id="h" d="M23 143c4.7-2.56 8-8.33 8-15.05 0-2.1-.32-4.1-.9-5.95l-2.27 2.56L23 143z"/><filter id="g" width="306.1%" height="184.1%" x="-106.1%" y="-33%" filterUnits="objectBoundingBox"><feMorphology radius="1" operator="dilate" in="SourceAlpha" result="shadowSpreadOuter1"/><feOffset dy="2" in="shadowSpreadOuter1" result="shadowOffsetOuter1"/><feGaussianBlur stdDeviation="2" in="shadowOffsetOuter1" result="shadowBlurOuter1"/><feComposite in="shadowBlurOuter1" in2="SourceAlpha" operator="out" result="shadowBlurOuter1"/><feColorMatrix values="0 0 0 0 0 0 0 0 0 0 0 0 0 0 0 0 0 0 0.5 0" in="shadowBlurOuter1"/></filter><path id="j" d="M5.3 152.3c-1.02 3.1.7 6.42 3.82 7.42.6.2 1.2.28 1.8.28 2.52 0 4.85-1.6 5.66-4.1l9.9-30.7 19.6-17.95c2.4-2.2 2.57-5.94.35-8.34-2.2-2.4-5.97-2.55-8.38-.34l-20.75 19c-.76.7-1.32 1.58-1.64 2.55L5.3 152.3z"/><filter id="i" width="137.2%" height="125.4%" x="-18.6%" y="-9.5%" filterUnits="objectBoundingBox"><feMorphology radius="1" operator="dilate" in="SourceAlpha" result="shadowSpreadOuter1"/><feOffset dy="2" in="shadowSpreadOuter1" result="shadowOffsetOuter1"/><feGaussianBlur stdDeviation="2" in="shadowOffsetOuter1" result="shadowBlurOuter1"/><feComposite in="shadowBlurOuter1" in2="SourceAlpha" operator="out" result="shadowBlurOuter1"/><feColorMatrix values="0 0 0 0 0 0 0 0 0 0 0 0 0 0 0 0 0 0 0.5 0" in="shadowBlurOuter1"/></filter><path id="l" d="M76.18 19.56c3.8 4.05 5.27 14.88 11.9 18.02 9.82 4.65 15.07-3.74 12.1-2.5-3 1.25-7.45.9-11.37-10.22C85.66 15.9 80.66 13.32 76 13c.28 1.2.43 2.44.43 3.7 0 .98-.1 1.93-.25 2.86z"/><filter id="k" width="164.4%" height="161.7%" x="-33.3%" y="-23.2%" filterUnits="objectBoundingBox"><feMorphology radius="1" operator="dilate" in="SourceAlpha" result="shadowSpreadOuter1"/><feOffset dy="2" in="shadowSpreadOuter1" result="shadowOffsetOuter1"/><feGaussianBlur stdDeviation="2" in="shadowOffsetOuter1" result="shadowBlurOuter1"/><feComposite in="shadowBlurOuter1" in2="SourceAlpha" operator="out" result="shadowBlurOuter1"/><feColorMatrix values="0 0 0 0 0 0 0 0 0 0 0 0 0 0 0 0 0 0 0.5 0" in="shadowBlurOuter1"/></filter><ellipse id="n" cx="58" cy="15.5" rx="15" ry="15.5"/><filter id="m" width="153.3%" height="151.6%" x="-26.7%" y="-19.4%" filterUnits="objectBoundingBox"><feMorphology radius="1" operator="dilate" in="SourceAlpha" result="shadowSpreadOuter1"/><feOffset dy="2" in="shadowSpreadOuter1" result="shadowOffsetOuter1"/><feGaussianBlur stdDeviation="2" in="shadowOffsetOuter1" result="shadowBlurOuter1"/><feComposite in="shadowBlurOuter1" in2="SourceAlpha" operator="out" result="shadowBlurOuter1"/><feColorMatrix values="0 0 0 0 0 0 0 0 0 0 0 0 0 0 0 0 0 0 0.5 0" in="shadowBlurOuter1"/></filter><path id="p" d="M68.57 39.33c.1 0 .22 0 .33 0 1.67.1 3.2.83 4.33 2.1 1.13 1.26 1.7 2.9 1.62 4.6l-1.24 26.5c-.03.78-.2 1.53-.5 2.22 3.43 5.8 5.42 10.83 6.73 14.62l-15.38 21.46c-1.05 1.46-1.55 3.25-1.42 5.05l2.6 37.04c.3 4.02 3.57 7.08 7.46 7.08.17 0 .35 0 .53-.02 4.12-.3 7.22-3.95 6.92-8.15l-2.4-34.26 22.06-30.8c.73-1 1.17-2.12 1.35-3.27 1.14-3.46.26-7.4-4.3-11.45-20.35-18-13.64-26.25-20.06-33.8-6.54-7.66-14.64-6.2-18.95-.42 2 6.2.5 9.4-.6 11.86-1.98 2.22-3.94 4.56-4.87 6.13-.16-.08-.34-.13-.53-.13-.7 0-1.25.57-1.25 1.27 0 .7.53 1.24 1.2 1.27.2 4.28 3.48 9.94 9.2 7.36l.94-20.18c.16-3.42 2.9-6.1 6.23-6.1z"/><filter id="o" width="131.4%" height="112.6%" x="-15.7%" y="-4.7%" filterUnits="objectBoundingBox"><feMorphology radius="1" operator="dilate" in="SourceAlpha" result="shadowSpreadOuter1"/><feOffset dy="2" in="shadowSpreadOuter1" result="shadowOffsetOuter1"/><feGaussianBlur stdDeviation="2" in="shadowOffsetOuter1" result="shadowBlurOuter1"/><feComposite in="shadowBlurOuter1" in2="SourceAlpha" operator="out" result="shadowBlurOuter1"/><feColorMatrix values="0 0 0 0 0 0 0 0 0 0 0 0 0 0 0 0 0 0 0.5 0" in="shadowBlurOuter1"/></filter><path id="r" d="M49.7 92c1.14 0 2.3-.42 3.2-1.28l17.33-16.44c.9-.85 1.44-2.03 1.5-3.3L73 44.04c.12-2.65-1.88-4.9-4.47-5.02-2.62-.13-4.8 1.92-4.92 4.57l-1.16 25-15.94 15.1c-1.9 1.8-2 4.85-.25 6.8.93 1 2.2 1.53 3.45 1.53z"/><filter id="q" width="157.1%" height="130.2%" x="-28.6%" y="-11.3%" filterUnits="objectBoundingBox"><feMorphology radius="1" operator="dilate" in="SourceAlpha" result="shadowSpreadOuter1"/><feOffset dy="2" in="shadowSpreadOuter1" result="shadowOffsetOuter1"/><feGaussianBlur stdDeviation="2" in="shadowOffsetOuter1" result="shadowBlurOuter1"/><feComposite in="shadowBlurOuter1" in2="SourceAlpha" operator="out" result="shadowBlurOuter1"/><feColorMatrix values="0 0 0 0 0 0 0 0 0 0 0 0 0 0 0 0 0 0 0.5 0" in="shadowBlurOuter1"/></filter></defs><g fill="none"><g fill-rule="nonzero"><g id="Path" transform="translate(5 3)"><use fill="#000" filter="url(#a)" xlink:href="#b"/><use fill="#4E4E50" stroke="#1A1A1D" stroke-width="2" xlink:href="#b"/></g><g id="Path" transform="translate(5 3)"><use fill="#000" filter="url(#c)" xlink:href="#d"/><use fill="#4E4E50" stroke="#1A1A1D" stroke-width="2" xlink:href="#d"/></g><g id="Path" transform="translate(5 3)"><use fill="#000" filter="url(#e)" xlink:href="#f"/><use fill="#4E4E50" stroke="#1A1A1D" stroke-width="2" xlink:href="#f"/></g><g id="Path" transform="translate(5 3)"><use fill="#000" filter="url(#g)" xlink:href="#h"/><use fill="#4E4E50" stroke="#1A1A1D" stroke-width="2" xlink:href="#h"/></g><g id="Path" transform="translate(5 3)"><use fill="#000" filter="url(#i)" xlink:href="#j"/><use fill="#4E4E50" stroke="#1A1A1D" stroke-width="2" xlink:href="#j"/></g><g id="Path" transform="translate(5 3)"><use fill="#000" filter="url(#k)" xlink:href="#l"/><use fill="#6F2232" stroke="#1A1A1D" stroke-width="2" xlink:href="#l"/></g><g transform="translate(5 3)"><use fill="#000" filter="url(#m)" xlink:href="#n"/><use fill="#6F2232" stroke="#1A1A1D" stroke-width="2" xlink:href="#n"/></g><g id="Path" transform="translate(5 3)"><use fill="#000" filter="url(#o)" xlink:href="#p"/><use fill="#6F2232" stroke="#1A1A1D" stroke-width="2" xlink:href="#p"/></g><g transform="translate(5 3)"><use fill="#000" filter="url(#q)" xlink:href="#r"/><use fill="#6F2232" stroke="#1A1A1D" stroke-width="2" xlink:href="#r"/></g></g></g></svg>