<?xml version="1.0" encoding="UTF-8"?>
<svg width="165px" height="247px" viewBox="0 0 165 247" version="1.1" xmlns="http://www.w3.org/2000/svg" xmlns:xlink="http://www.w3.org/1999/xlink">
    <title>sex-etsy-26</title>
    <defs>
        <path d="M12.0083,242.8625 C14.6138,242.8625 17.2378,242.0178 19.4409,240.2771 L67.4409,202.344 C69.7768,200.4978 71.3432,197.8494 71.8354,194.9128 L76.7594,165.5418 L55.932,150.1183 L54.6821,152.0744 L48.9303,186.3824 L4.5601,221.447 C-0.6391,225.5564 -1.5239,233.1028 2.5855,238.3025 C4.9536,241.299 8.4644,242.8625 12.0083,242.8625 Z" id="path-1"></path>
        <filter x="-11.1%" y="-7.7%" width="122.3%" height="119.0%" filterUnits="objectBoundingBox" id="filter-2">
            <feMorphology radius="1.5" operator="dilate" in="SourceAlpha" result="shadowSpreadOuter1"></feMorphology>
            <feOffset dx="0" dy="2" in="shadowSpreadOuter1" result="shadowOffsetOuter1"></feOffset>
            <feGaussianBlur stdDeviation="2" in="shadowOffsetOuter1" result="shadowBlurOuter1"></feGaussianBlur>
            <feComposite in="shadowBlurOuter1" in2="SourceAlpha" operator="out" result="shadowBlurOuter1"></feComposite>
            <feColorMatrix values="0 0 0 0 0   0 0 0 0 0   0 0 0 0 0  0 0 0 1 0" type="matrix" in="shadowBlurOuter1"></feColorMatrix>
        </filter>
        <path d="M118.2612,160.6872 C121.5034,163.0881 123.5893,166.7687 123.9829,170.7853 L129.1586,223.6678 L134.4175,236.8258 C136.0591,240.9327 140.0025,243.4318 144.1704,243.4318 C145.4673,243.4318 146.7866,243.1896 148.064,242.6789 C153.4488,240.527 156.0699,234.4167 153.9175,229.0319 L118.1322,139.495 C113.2621,143.8024 105.8055,146.0744 99.175,146.5529 L118.2612,160.6872 Z" id="path-3"></path>
        <filter x="-20.7%" y="-7.4%" width="136.0%" height="117.5%" filterUnits="objectBoundingBox" id="filter-4">
            <feMorphology radius="1.5" operator="dilate" in="SourceAlpha" result="shadowSpreadOuter1"></feMorphology>
            <feOffset dx="0" dy="2" in="shadowSpreadOuter1" result="shadowOffsetOuter1"></feOffset>
            <feGaussianBlur stdDeviation="2" in="shadowOffsetOuter1" result="shadowBlurOuter1"></feGaussianBlur>
            <feComposite in="shadowBlurOuter1" in2="SourceAlpha" operator="out" result="shadowBlurOuter1"></feComposite>
            <feColorMatrix values="0 0 0 0 0   0 0 0 0 0   0 0 0 0 0  0 0 0 0.5 0" type="matrix" in="shadowBlurOuter1"></feColorMatrix>
        </filter>
        <path d="M60.8804,105.8088 C61.1432,105.8088 61.4019,105.8346 61.6623,105.8504 L48.5963,86.1692 C46.461,82.9524 46.3804,78.9639 48.0311,75.7515 L37.3195,74.2597 C36.1759,77.3222 35.5144,80.8621 35.5465,84.8766 C35.7622,100.4284 37.4306,111.4956 42.1392,124.1593 L50.0885,111.7181 C52.4517,108.0178 56.4858,105.8088 60.8804,105.8088 Z" id="path-5"></path>
        <filter x="-32.5%" y="-13.3%" width="170.4%" height="138.0%" filterUnits="objectBoundingBox" id="filter-6">
            <feMorphology radius="1.5" operator="dilate" in="SourceAlpha" result="shadowSpreadOuter1"></feMorphology>
            <feOffset dx="0" dy="2" in="shadowSpreadOuter1" result="shadowOffsetOuter1"></feOffset>
            <feGaussianBlur stdDeviation="2" in="shadowOffsetOuter1" result="shadowBlurOuter1"></feGaussianBlur>
            <feComposite in="shadowBlurOuter1" in2="SourceAlpha" operator="out" result="shadowBlurOuter1"></feComposite>
            <feColorMatrix values="0 0 0 0 0   0 0 0 0 0   0 0 0 0 0  0 0 0 1 0" type="matrix" in="shadowBlurOuter1"></feColorMatrix>
        </filter>
        <path d="M95.6022,146.7693 C95.2586,146.7971 94.9142,146.8126 94.5708,146.8126 C92.7319,146.8126 90.9468,146.423 89.2642,145.6549 L65.6724,134.8746 L57.1734,148.1754 L98.3267,178.6509 L103.5572,232.0977 C104.1646,238.2964 109.3853,242.9297 115.4859,242.9297 C115.8775,242.9297 116.272,242.9107 116.6695,242.8716 C123.2652,242.2261 128.0894,236.3555 127.4439,229.7598 L121.6939,171.0098 C121.3628,167.6333 119.6187,164.5542 116.8921,162.5352 L95.6022,146.7693 Z" id="path-7"></path>
        <filter x="-12.8%" y="-6.4%" width="124.9%" height="116.1%" filterUnits="objectBoundingBox" id="filter-8">
            <feMorphology radius="1.5" operator="dilate" in="SourceAlpha" result="shadowSpreadOuter1"></feMorphology>
            <feOffset dx="0" dy="2" in="shadowSpreadOuter1" result="shadowOffsetOuter1"></feOffset>
            <feGaussianBlur stdDeviation="2" in="shadowOffsetOuter1" result="shadowBlurOuter1"></feGaussianBlur>
            <feComposite in="shadowBlurOuter1" in2="SourceAlpha" operator="out" result="shadowBlurOuter1"></feComposite>
            <feColorMatrix values="0 0 0 0 0   0 0 0 0 0   0 0 0 0 0  0 0 0 1 0" type="matrix" in="shadowBlurOuter1"></feColorMatrix>
        </filter>
        <path d="M57.9879,57.4242 C64.1233,56.3406 69.2347,52.8662 72.5351,48.1292 C65.1516,42.243 61.6718,32.2427 64.5496,22.66 C65.168,20.6009 66.0461,18.6906 67.1305,16.9464 C62.3888,13.5677 56.3488,12.0172 50.1614,13.11 C37.925,15.2711 29.7563,26.9429 31.9176,39.1804 C33.4881,48.0729 40.0826,54.8116 48.2648,57.0044 L53.7138,57.7633 C55.1213,57.7842 56.5503,57.6781 57.9879,57.4242 Z" id="path-9"></path>
        <filter x="-20.8%" y="-14.4%" width="142.8%" height="137.8%" filterUnits="objectBoundingBox" id="filter-10">
            <feMorphology radius="1.5" operator="dilate" in="SourceAlpha" result="shadowSpreadOuter1"></feMorphology>
            <feOffset dx="0" dy="2" in="shadowSpreadOuter1" result="shadowOffsetOuter1"></feOffset>
            <feGaussianBlur stdDeviation="2" in="shadowOffsetOuter1" result="shadowBlurOuter1"></feGaussianBlur>
            <feComposite in="shadowBlurOuter1" in2="SourceAlpha" operator="out" result="shadowBlurOuter1"></feComposite>
            <feColorMatrix values="0 0 0 0 0   0 0 0 0 0   0 0 0 0 0  0 0 0 1 0" type="matrix" in="shadowBlurOuter1"></feColorMatrix>
        </filter>
        <path d="M90.8296,62.9323 C93.2896,63.2746 95.4692,64.5549 96.9673,66.5373 C98.4644,68.5192 99.1001,70.966 98.7573,73.4265 C98.1206,77.9968 94.1645,81.4441 89.5552,81.4441 C89.1284,81.4441 88.6948,81.4143 88.2652,81.3547 L70.8069,78.9233 C70.9193,79.5765 71.1424,80.2966 71.4996,81.1074 C73.3831,84.4985 75.0334,87.7773 76.4945,90.9471 L84.0181,102.28 L107.6666,98.1067 C104.6857,88.7478 105.371,82.4877 105.6437,77.0566 C105.2095,76.3524 104.7849,75.6115 104.3855,74.7872 C102.716,71.3425 102.5329,67.5275 103.0011,63.6761 C96.9894,52.8983 86.3691,52.0343 78.7604,57.557 C78.7933,58.9015 78.7409,60.1144 78.6315,61.2336 L90.8296,62.9323 Z" id="path-11"></path>
        <filter x="-23.4%" y="-13.5%" width="147.7%" height="135.7%" filterUnits="objectBoundingBox" id="filter-12">
            <feMorphology radius="1.5" operator="dilate" in="SourceAlpha" result="shadowSpreadOuter1"></feMorphology>
            <feOffset dx="0" dy="2" in="shadowSpreadOuter1" result="shadowOffsetOuter1"></feOffset>
            <feGaussianBlur stdDeviation="2" in="shadowOffsetOuter1" result="shadowBlurOuter1"></feGaussianBlur>
            <feComposite in="shadowBlurOuter1" in2="SourceAlpha" operator="out" result="shadowBlurOuter1"></feComposite>
            <feColorMatrix values="0 0 0 0 0   0 0 0 0 0   0 0 0 0 0  0 0 0 0.5 0" type="matrix" in="shadowBlurOuter1"></feColorMatrix>
        </filter>
        <path d="M64.8101,131.9518 L90.2193,143.5626 C92.2169,144.4747 94.3492,144.7064 96.3599,144.359 C108.8931,144.4369 129.2139,136.692 117.646,118.4278 C117.4193,118.0698 117.218,117.7305 116.9993,117.3784 L80.9575,123.7388 C80.3677,123.8428 79.7641,123.8955 79.1665,123.8955 C75.7085,123.8955 72.5005,122.1748 70.5864,119.2925 L63.3616,108.41 C59.0725,107.3622 54.481,109.1143 52.0269,112.9563 L21.1529,161.2756 C18.0299,166.1618 19.4605,172.6545 24.3472,175.7771 C26.0982,176.8962 28.0562,177.4304 29.9908,177.4304 C33.4547,177.4304 36.8453,175.7175 38.8482,172.5823 L64.8101,131.9518 Z" id="path-13"></path>
        <filter x="-8.4%" y="-9.4%" width="116.7%" height="124.5%" filterUnits="objectBoundingBox" id="filter-14">
            <feMorphology radius="1.5" operator="dilate" in="SourceAlpha" result="shadowSpreadOuter1"></feMorphology>
            <feOffset dx="0" dy="2" in="shadowSpreadOuter1" result="shadowOffsetOuter1"></feOffset>
            <feGaussianBlur stdDeviation="2" in="shadowOffsetOuter1" result="shadowBlurOuter1"></feGaussianBlur>
            <feComposite in="shadowBlurOuter1" in2="SourceAlpha" operator="out" result="shadowBlurOuter1"></feComposite>
            <feColorMatrix values="0 0 0 0 0   0 0 0 0 0   0 0 0 0 0  0 0 0 0.5 0" type="matrix" in="shadowBlurOuter1"></feColorMatrix>
        </filter>
        <path d="M51.48,71.8913 C53.1763,70.7663 55.1441,70.1721 57.1704,70.1721 C60.6343,70.1721 63.8442,71.8928 65.7583,74.7751 L66.5798,76.0125 L88.5806,79.0764 C88.9087,79.1218 89.2339,79.1443 89.5552,79.1443 C92.9927,79.1443 95.9917,76.6101 96.479,73.1087 C97.0132,69.2801 94.3413,65.7435 90.5122,65.2103 L29.1333,56.6624 C25.2895,56.1292 21.7681,58.8016 21.2349,62.6302 C20.7007,66.4588 23.3726,69.9954 27.2017,70.5286 L49.4914,73.6327 C50.0675,72.9847 50.7247,72.3928 51.48,71.8913 Z" id="path-15"></path>
        <filter x="-11.3%" y="-28.8%" width="122.6%" height="175.4%" filterUnits="objectBoundingBox" id="filter-16">
            <feMorphology radius="1.5" operator="dilate" in="SourceAlpha" result="shadowSpreadOuter1"></feMorphology>
            <feOffset dx="0" dy="2" in="shadowSpreadOuter1" result="shadowOffsetOuter1"></feOffset>
            <feGaussianBlur stdDeviation="2" in="shadowOffsetOuter1" result="shadowBlurOuter1"></feGaussianBlur>
            <feComposite in="shadowBlurOuter1" in2="SourceAlpha" operator="out" result="shadowBlurOuter1"></feComposite>
            <feColorMatrix values="0 0 0 0 0   0 0 0 0 0   0 0 0 0 0  0 0 0 0.5 0" type="matrix" in="shadowBlurOuter1"></feColorMatrix>
        </filter>
        <path d="M108.5352,40.3275 C112.4377,47.2439 101.3232,63.1965 106.4547,73.7835 C113.113,87.5204 126.3135,82.7064 121.9333,81.5026 C117.5531,80.2989 112.9913,76.0245 118.5228,60.1916 C124.1513,44.081 117.5787,36.7377 110.9066,32.8605 C110.7401,34.0248 110.4861,35.1909 110.1378,36.3509 C109.7185,37.7473 109.1755,39.0724 108.5352,40.3275 Z" id="path-17"></path>
        <filter x="-47.8%" y="-14.6%" width="195.8%" height="135.4%" filterUnits="objectBoundingBox" id="filter-18">
            <feMorphology radius="1.5" operator="dilate" in="SourceAlpha" result="shadowSpreadOuter1"></feMorphology>
            <feOffset dx="0" dy="2" in="shadowSpreadOuter1" result="shadowOffsetOuter1"></feOffset>
            <feGaussianBlur stdDeviation="2" in="shadowOffsetOuter1" result="shadowBlurOuter1"></feGaussianBlur>
            <feComposite in="shadowBlurOuter1" in2="SourceAlpha" operator="out" result="shadowBlurOuter1"></feComposite>
            <feColorMatrix values="0 0 0 0 0   0 0 0 0 0   0 0 0 0 0  0 0 0 0.5 0" type="matrix" in="shadowBlurOuter1"></feColorMatrix>
        </filter>
        <circle id="path-19" cx="87.3419155" cy="29.5091863" r="21.4993851"></circle>
        <filter x="-19.8%" y="-15.1%" width="139.5%" height="139.5%" filterUnits="objectBoundingBox" id="filter-20">
            <feMorphology radius="1.5" operator="dilate" in="SourceAlpha" result="shadowSpreadOuter1"></feMorphology>
            <feOffset dx="0" dy="2" in="shadowSpreadOuter1" result="shadowOffsetOuter1"></feOffset>
            <feGaussianBlur stdDeviation="2" in="shadowOffsetOuter1" result="shadowBlurOuter1"></feGaussianBlur>
            <feComposite in="shadowBlurOuter1" in2="SourceAlpha" operator="out" result="shadowBlurOuter1"></feComposite>
            <feColorMatrix values="0 0 0 0 0   0 0 0 0 0   0 0 0 0 0  0 0 0 0.5 0" type="matrix" in="shadowBlurOuter1"></feColorMatrix>
        </filter>
        <path d="M72.5024,118.0202 C74.0014,120.2775 76.517,121.5959 79.1665,121.5959 C79.6274,121.5959 80.0933,121.5559 80.5581,121.4738 L120.2241,114.4738 C124.5747,113.7057 127.48,109.5563 126.7114,105.2052 C125.9438,100.8531 121.7876,97.9489 117.4428,98.7169 L82.935,104.8067 L63.8423,76.0475 C61.3989,72.3678 56.436,71.3644 52.7525,73.8073 C49.0718,76.2511 48.0689,81.216 50.5123,84.8971 L72.5024,118.0202 Z" id="path-21"></path>
        <filter x="-10.9%" y="-13.2%" width="121.9%" height="134.6%" filterUnits="objectBoundingBox" id="filter-22">
            <feMorphology radius="1.5" operator="dilate" in="SourceAlpha" result="shadowSpreadOuter1"></feMorphology>
            <feOffset dx="0" dy="2" in="shadowSpreadOuter1" result="shadowOffsetOuter1"></feOffset>
            <feGaussianBlur stdDeviation="2" in="shadowOffsetOuter1" result="shadowBlurOuter1"></feGaussianBlur>
            <feComposite in="shadowBlurOuter1" in2="SourceAlpha" operator="out" result="shadowBlurOuter1"></feComposite>
            <feColorMatrix values="0 0 0 0 0   0 0 0 0 0   0 0 0 0 0  0 0 0 1 0" type="matrix" in="shadowBlurOuter1"></feColorMatrix>
        </filter>
    </defs>
    <g id="Page-2" stroke="none" stroke-width="1" fill="none" fill-rule="evenodd">
        <g id="sex-etsy-26" transform="translate(5.000000, -4.000000)" fill-rule="nonzero">
            <g id="Path">
                <use fill="black" fill-opacity="1" filter="url(#filter-2)" xlink:href="#path-1"></use>
                <use stroke="#1A1A1D" stroke-width="3" fill="#4E4E50" xlink:href="#path-1"></use>
            </g>
            <g id="Path">
                <use fill="black" fill-opacity="1" filter="url(#filter-4)" xlink:href="#path-3"></use>
                <use stroke="#1A1A1D" stroke-width="3" fill="#6F2232" xlink:href="#path-3"></use>
            </g>
            <g id="Path">
                <use fill="black" fill-opacity="1" filter="url(#filter-6)" xlink:href="#path-5"></use>
                <use stroke="#1A1A1D" stroke-width="3" fill="#4E4E50" xlink:href="#path-5"></use>
            </g>
            <g id="Path">
                <use fill="black" fill-opacity="1" filter="url(#filter-8)" xlink:href="#path-7"></use>
                <use stroke="#1A1A1D" stroke-width="3" fill="#4E4E50" xlink:href="#path-7"></use>
            </g>
            <g id="Path">
                <use fill="black" fill-opacity="1" filter="url(#filter-10)" xlink:href="#path-9"></use>
                <use stroke="#1A1A1D" stroke-width="3" fill="#4E4E50" xlink:href="#path-9"></use>
            </g>
            <path d="M68.4935,78.8951 C68.4814,78.7952 68.4673,78.6941 68.459,78.5963 L68.2785,78.5712 L68.4935,78.8951 Z" id="Path" fill="#000000"></path>
            <g id="Path">
                <use fill="black" fill-opacity="1" filter="url(#filter-12)" xlink:href="#path-11"></use>
                <use stroke="#1A1A1D" stroke-width="3" fill="#6F2232" xlink:href="#path-11"></use>
            </g>
            <g id="Path">
                <use fill="black" fill-opacity="1" filter="url(#filter-14)" xlink:href="#path-13"></use>
                <use stroke="#1A1A1D" stroke-width="3" fill="#6F2232" xlink:href="#path-13"></use>
            </g>
            <g id="Path">
                <use fill="black" fill-opacity="1" filter="url(#filter-16)" xlink:href="#path-15"></use>
                <use stroke="#1A1A1D" stroke-width="3" fill="#6F2232" xlink:href="#path-15"></use>
            </g>
            <g id="Path">
                <use fill="black" fill-opacity="1" filter="url(#filter-18)" xlink:href="#path-17"></use>
                <use stroke="#1A1A1D" stroke-width="3" fill="#6F2232" xlink:href="#path-17"></use>
            </g>
            <g id="Oval" transform="translate(87.341916, 29.509186) rotate(-28.282129) translate(-87.341916, -29.509186) ">
                <use fill="black" fill-opacity="1" filter="url(#filter-20)" xlink:href="#path-19"></use>
                <use stroke="#1A1A1D" stroke-width="3" fill="#6F2232" xlink:href="#path-19"></use>
            </g>
            <g id="Path">
                <use fill="black" fill-opacity="1" filter="url(#filter-22)" xlink:href="#path-21"></use>
                <use stroke="#1A1A1D" stroke-width="3" fill="#4E4E50" xlink:href="#path-21"></use>
            </g>
        </g>
    </g>
</svg>