<svg xmlns="http://www.w3.org/2000/svg" width="168" height="158" xmlns:xlink="http://www.w3.org/1999/xlink"><title>sex-etsy-62</title><defs><path id="b" d="M60.43 82.4c3.8 0 7.43 1.44 10.2 4.06l5.96 5.66c1.9-2.23 2.42-5.5 2.04-8.53l-25.82-2.7c-2.34-.24-4.44-1.38-5.92-3.2-1.48-1.84-2.17-4.13-1.92-6.47.47-4.5 4.23-7.88 8.75-7.88.3 0 .6 0 .9.04l5.17.53c-.55-1.63-1-3.55-1.23-5.88-8.26-4.5-18.68-2.28-23.26 9.18.97 3.76 1.28 7.57.07 11.2-.3.87-.62 1.66-.96 2.4.87 4.76 2.13 10.12 1.18 18l15.3-12.93c2.67-2.26 6.06-3.5 9.55-3.5z"/><filter id="a" width="138.3%" height="144.8%" x="-19.1%" y="-15.1%" filterUnits="objectBoundingBox"><feMorphology radius="1.5" operator="dilate" in="SourceAlpha" result="shadowSpreadOuter1"/><feOffset dy="2" in="shadowSpreadOuter1" result="shadowOffsetOuter1"/><feGaussianBlur stdDeviation="2" in="shadowOffsetOuter1" result="shadowBlurOuter1"/><feComposite in="shadowBlurOuter1" in2="SourceAlpha" operator="out" result="shadowBlurOuter1"/><feColorMatrix values="0 0 0 0 0 0 0 0 0 0 0 0 0 0 0 0 0 0 0.5 0" in="shadowBlurOuter1"/></filter><path id="d" d="M26.83 44.8c-.8-1.17-1.5-2.42-2.1-3.75-.5-1.1-.9-2.23-1.2-3.36-6.13 4.7-11.7 12.8-4.06 28.07 7.52 15 3.54 19.82-.65 21.57-4.18 1.76 9.52 4.84 14.36-9.64 3.73-11.16-9.34-25.55-6.35-32.9z"/><filter id="c" width="193.8%" height="135.2%" x="-46.9%" y="-14.7%" filterUnits="objectBoundingBox"><feMorphology radius="1.5" operator="dilate" in="SourceAlpha" result="shadowSpreadOuter1"/><feOffset dy="2" in="shadowSpreadOuter1" result="shadowOffsetOuter1"/><feGaussianBlur stdDeviation="2" in="shadowOffsetOuter1" result="shadowBlurOuter1"/><feComposite in="shadowBlurOuter1" in2="SourceAlpha" operator="out" result="shadowBlurOuter1"/><feColorMatrix values="0 0 0 0 0 0 0 0 0 0 0 0 0 0 0 0 0 0 0.5 0" in="shadowBlurOuter1"/></filter><ellipse id="f" cx="46.456" cy="31.334" rx="21.501" ry="21.501"/><filter id="e" width="139.5%" height="139.5%" x="-19.8%" y="-15.1%" filterUnits="objectBoundingBox"><feMorphology radius="1.5" operator="dilate" in="SourceAlpha" result="shadowSpreadOuter1"/><feOffset dy="2" in="shadowSpreadOuter1" result="shadowOffsetOuter1"/><feGaussianBlur stdDeviation="2" in="shadowOffsetOuter1" result="shadowBlurOuter1"/><feComposite in="shadowBlurOuter1" in2="SourceAlpha" operator="out" result="shadowBlurOuter1"/><feColorMatrix values="0 0 0 0 0 0 0 0 0 0 0 0 0 0 0 0 0 0 0.5 0" in="shadowBlurOuter1"/></filter><path id="h" d="M108.3 47.7c.17 0 .34-.02.5-.02 1.76 0 3.4.52 4.77 1.4 9.35-2.72 16.18-11.35 16.18-21.58 0-12.43-10.08-22.5-22.5-22.5-12.43 0-22.5 10.07-22.5 22.5 0 10.05 6.6 18.56 15.68 21.45 1.1-.58 2.32-.93 3.56-1l4.3-.25z"/><filter id="g" width="137.8%" height="138.9%" x="-18.9%" y="-14.7%" filterUnits="objectBoundingBox"><feMorphology radius="1.5" operator="dilate" in="SourceAlpha" result="shadowSpreadOuter1"/><feOffset dy="2" in="shadowSpreadOuter1" result="shadowOffsetOuter1"/><feGaussianBlur stdDeviation="2" in="shadowOffsetOuter1" result="shadowBlurOuter1"/><feComposite in="shadowBlurOuter1" in2="SourceAlpha" operator="out" result="shadowBlurOuter1"/><feColorMatrix values="0 0 0 0 0 0 0 0 0 0 0 0 0 0 0 0 0 0 0.5 0" in="shadowBlurOuter1"/></filter><path id="j" d="M100.83 147.1c2.05.07 4.38 0 7.04-.14 8.48-.1 12.6-.96 12.52-12.16l-3.6-2.42-15.97 14.7z"/><filter id="i" width="197.5%" height="218.1%" x="-54.1%" y="-46.8%" filterUnits="objectBoundingBox"><feMorphology radius="1.5" operator="dilate" in="SourceAlpha" result="shadowSpreadOuter1"/><feOffset dy="2" in="shadowSpreadOuter1" result="shadowOffsetOuter1"/><feGaussianBlur stdDeviation="2" in="shadowOffsetOuter1" result="shadowBlurOuter1"/><feComposite in="shadowBlurOuter1" in2="SourceAlpha" operator="out" result="shadowBlurOuter1"/><feColorMatrix values="0 0 0 0 0 0 0 0 0 0 0 0 0 0 0 0 0 0 0.5 0" in="shadowBlurOuter1"/></filter><path id="l" d="M111.67 64.8c3.47.62 6.4 2.98 7.73 6.36l5.36 13.62c.3-1.42.57-2.8.83-4.13 2.7-9.4-.5-20.5-8.02-23.53-.26 3.53-2.63 6.54-5.9 7.68z"/><filter id="k" width="244.1%" height="177.1%" x="-86.9%" y="-25.4%" filterUnits="objectBoundingBox"><feMorphology radius="1.5" operator="dilate" in="SourceAlpha" result="shadowSpreadOuter1"/><feOffset dy="2" in="shadowSpreadOuter1" result="shadowOffsetOuter1"/><feGaussianBlur stdDeviation="2" in="shadowOffsetOuter1" result="shadowBlurOuter1"/><feComposite in="shadowBlurOuter1" in2="SourceAlpha" operator="out" result="shadowBlurOuter1"/><feColorMatrix values="0 0 0 0 0 0 0 0 0 0 0 0 0 0 0 0 0 0 0.5 0" in="shadowBlurOuter1"/></filter><path id="n" d="M92.9 89.15c2.45 0 4.82.73 6.86 2.1l7.35 4.95-6.87-17.5c-.83-2.1-.93-4.36-.34-6.5l-11.42 9.7c-.32.25-.65.5-1 .7-.9 3.2-1.65 6.25-2.25 9.24 2.18-1.73 4.87-2.7 7.66-2.7z"/><filter id="m" width="190.1%" height="192.6%" x="-43.7%" y="-38.8%" filterUnits="objectBoundingBox"><feMorphology radius="1.5" operator="dilate" in="SourceAlpha" result="shadowSpreadOuter1"/><feOffset dy="2" in="shadowSpreadOuter1" result="shadowOffsetOuter1"/><feGaussianBlur stdDeviation="2" in="shadowOffsetOuter1" result="shadowBlurOuter1"/><feComposite in="shadowBlurOuter1" in2="SourceAlpha" operator="out" result="shadowBlurOuter1"/><feColorMatrix values="0 0 0 0 0 0 0 0 0 0 0 0 0 0 0 0 0 0 0.5 0" in="shadowBlurOuter1"/></filter><path id="p" d="M12.5 150.25c2.86 0 5.73-.97 8.07-2.96l39.4-33.33v.02L78.85 97.4l-9.8-9.3c-4.63-4.38-11.8-4.58-16.68-.46L4.43 128.2c-5.27 4.46-5.93 12.35-1.47 17.62 2.47 2.92 6 4.43 9.55 4.43z"/><filter id="o" width="122.5%" height="125.9%" x="-10.8%" y="-9.9%" filterUnits="objectBoundingBox"><feMorphology radius="1.5" operator="dilate" in="SourceAlpha" result="shadowSpreadOuter1"/><feOffset dy="2" in="shadowSpreadOuter1" result="shadowOffsetOuter1"/><feGaussianBlur stdDeviation="2" in="shadowOffsetOuter1" result="shadowBlurOuter1"/><feComposite in="shadowBlurOuter1" in2="SourceAlpha" operator="out" result="shadowBlurOuter1"/><feColorMatrix values="0 0 0 0 0 0 0 0 0 0 0 0 0 0 0 0 0 0 0.5 0" in="shadowBlurOuter1"/></filter><path id="r" d="M131.2 119.13l-12.66 11.65 22.32 15.03c1.72 1.16 3.66 1.72 5.58 1.72 3.2 0 6.37-1.55 8.3-4.42 3.1-4.58 1.87-10.8-2.7-13.88l-18.83-12.67c-.5.95-1.2 1.83-2 2.58z"/><filter id="q" width="147.3%" height="157.3%" x="-24.8%" y="-23.4%" filterUnits="objectBoundingBox"><feMorphology radius="1.5" operator="dilate" in="SourceAlpha" result="shadowSpreadOuter1"/><feOffset dy="2" in="shadowSpreadOuter1" result="shadowOffsetOuter1"/><feGaussianBlur stdDeviation="2" in="shadowOffsetOuter1" result="shadowBlurOuter1"/><feComposite in="shadowBlurOuter1" in2="SourceAlpha" operator="out" result="shadowBlurOuter1"/><feColorMatrix values="0 0 0 0 0 0 0 0 0 0 0 0 0 0 0 0 0 0 0.5 0" in="shadowBlurOuter1"/></filter><path id="t" d="M93.7 114.05l7.28 4.9 11.07-10.2-3.46-8.78-10.13-6.8c-3.76-2.55-8.77-2.23-12.18.77L57.32 119.4l-.08-.12-26.74 22.6c7.96 6.12 23.22 5.78 28.3 2.5.66-.37 1.3-.8 1.88-1.3l8.58-7.55 24.44-21.48z"/><filter id="s" width="122.2%" height="129.5%" x="-11.4%" y="-10.5%" filterUnits="objectBoundingBox"><feMorphology radius="1.5" operator="dilate" in="SourceAlpha" result="shadowSpreadOuter1"/><feOffset dy="2" in="shadowSpreadOuter1" result="shadowOffsetOuter1"/><feGaussianBlur stdDeviation="2" in="shadowOffsetOuter1" result="shadowBlurOuter1"/><feComposite in="shadowBlurOuter1" in2="SourceAlpha" operator="out" result="shadowBlurOuter1"/><feColorMatrix values="0 0 0 0 0 0 0 0 0 0 0 0 0 0 0 0 0 0 0.5 0" in="shadowBlurOuter1"/></filter><path id="v" d="M109.2 62.97c3.57-.2 6.3-3.28 6.1-6.87-.22-3.58-3.27-6.3-6.88-6.1l-4.3.25c-1.4.08-2.74.62-3.8 1.53L80.7 68.43l-26.3-2.75c-3.57-.37-6.76 2.22-7.13 5.8-.38 3.56 2.22 6.76 5.8 7.13l29.04 3.04c.24.03.46.04.68.04 1.54 0 3.03-.54 4.2-1.55l20.08-17.03 2.13-.13z"/><filter id="u" width="125%" height="153.6%" x="-12.5%" y="-20.5%" filterUnits="objectBoundingBox"><feMorphology radius="1.5" operator="dilate" in="SourceAlpha" result="shadowSpreadOuter1"/><feOffset dy="2" in="shadowSpreadOuter1" result="shadowOffsetOuter1"/><feGaussianBlur stdDeviation="2" in="shadowOffsetOuter1" result="shadowBlurOuter1"/><feComposite in="shadowBlurOuter1" in2="SourceAlpha" operator="out" result="shadowBlurOuter1"/><feColorMatrix values="0 0 0 0 0 0 0 0 0 0 0 0 0 0 0 0 0 0 0.5 0" in="shadowBlurOuter1"/></filter><path id="x" d="M114.77 109.39L83.67 138c-3.24 3-3.45 8.06-.45 11.3 1.57 1.73 3.72 2.6 5.88 2.6 1.94 0 3.88-.7 5.42-2.12l35.12-32.34c2.42-2.23 3.23-5.74 2.02-8.8L117.26 72c-1.62-4.1-6.26-6.14-10.37-4.52-4.12 1.62-6.15 6.26-4.53 10.37l12.4 31.54z"/><filter id="w" width="133.3%" x="-16.6%" y="-7.7%" filterUnits="objectBoundingBox"><feMorphology radius="1.5" operator="dilate" in="SourceAlpha" result="shadowSpreadOuter1"/><feOffset dy="2" in="shadowSpreadOuter1" result="shadowOffsetOuter1"/><feGaussianBlur stdDeviation="2" in="shadowOffsetOuter1" result="shadowBlurOuter1"/><feComposite in="shadowBlurOuter1" in2="SourceAlpha" operator="out" result="shadowBlurOuter1"/><feColorMatrix values="0 0 0 0 0 0 0 0 0 0 0 0 0 0 0 0 0 0 0.5 0" in="shadowBlurOuter1"/></filter></defs><g fill="none"><g fill-rule="nonzero"><g id="Path" transform="translate(6 -1)"><use fill="#000" filter="url(#a)" xlink:href="#b"/><use fill="#6F2232" stroke="#1A1A1D" stroke-width="3" xlink:href="#b"/></g><g id="Path" transform="translate(6 -1)"><use fill="#000" filter="url(#c)" xlink:href="#d"/><use fill="#6F2232" stroke="#1A1A1D" stroke-width="3" xlink:href="#d"/></g><g transform="translate(6 -1) rotate(-42.552 46.456 31.334)"><use fill="#000" filter="url(#e)" xlink:href="#f"/><use fill="#6F2232" stroke="#1A1A1D" stroke-width="3" xlink:href="#f"/></g><g id="Path" transform="translate(6 -1)"><use fill="#000" filter="url(#g)" xlink:href="#h"/><use fill="#4E4E50" stroke="#1A1A1D" stroke-width="3" xlink:href="#h"/></g><g id="Path" transform="translate(6 -1)"><use fill="#000" filter="url(#i)" xlink:href="#j"/><use fill="#6F2232" stroke="#1A1A1D" stroke-width="3" xlink:href="#j"/></g><g id="Path" transform="translate(6 -1)"><use fill="#000" filter="url(#k)" xlink:href="#l"/><use fill="#4E4E50" stroke="#1A1A1D" stroke-width="3" xlink:href="#l"/></g><g id="Path" transform="translate(6 -1)"><use fill="#000" filter="url(#m)" xlink:href="#n"/><use fill="#4E4E50" stroke="#1A1A1D" stroke-width="3" xlink:href="#n"/></g><path id="Path" fill="#6F2232" d="M105.24 119.56l-5.35-3.6-16 14.03 1.96 1.83 2.98 2.83z"/><g id="Path" transform="translate(6 -1)"><use fill="#000" filter="url(#o)" xlink:href="#p"/><use fill="#4E4E50" stroke="#1A1A1D" stroke-width="3" xlink:href="#p"/></g><g id="Path" transform="translate(6 -1)"><use fill="#000" filter="url(#q)" xlink:href="#r"/><use fill="#6F2232" stroke="#1A1A1D" stroke-width="3" xlink:href="#r"/></g><g id="Path" transform="translate(6 -1)"><use fill="#000" filter="url(#s)" xlink:href="#t"/><use fill="#6F2232" stroke="#1A1A1D" stroke-width="3" xlink:href="#t"/></g><g id="Path" transform="translate(6 -1)"><use fill="#000" filter="url(#u)" xlink:href="#v"/><use fill="#6F2232" stroke="#1A1A1D" stroke-width="3" xlink:href="#v"/></g><g transform="translate(6 -1)"><use fill="#000" filter="url(#w)" xlink:href="#x"/><use fill="#4E4E50" stroke="#1A1A1D" stroke-width="3" xlink:href="#x"/></g></g></g></svg>