<svg xmlns="http://www.w3.org/2000/svg" xmlns:xlink="http://www.w3.org/1999/xlink" width="251" height="105"><defs><filter id="o" width="143.1%" height="143.2%" x="-21.6%" y="-16.5%" filterUnits="objectBoundingBox"><feMorphology in="SourceAlpha" operator="dilate" radius="1.5" result="shadowSpreadOuter1"/><feOffset dy="2" in="shadowSpreadOuter1" result="shadowOffsetOuter1"/><feGaussianBlur in="shadowOffsetOuter1" result="shadowBlurOuter1" stdDeviation="2"/><feComposite in="shadowBlurOuter1" in2="SourceAlpha" operator="out" result="shadowBlurOuter1"/><feColorMatrix in="shadowBlurOuter1" values="0 0 0 0 0 0 0 0 0 0 0 0 0 0 0 0 0 0 0.5 0"/></filter><filter id="c" width="191%" height="176.1%" x="-37%" y="-26.9%" filterUnits="objectBoundingBox"><feMorphology in="SourceAlpha" operator="dilate" radius="1.5" result="shadowSpreadOuter1"/><feOffset dy="2" in="shadowSpreadOuter1" result="shadowOffsetOuter1"/><feGaussianBlur in="shadowOffsetOuter1" result="shadowBlurOuter1" stdDeviation="2"/><feComposite in="shadowBlurOuter1" in2="SourceAlpha" operator="out" result="shadowBlurOuter1"/><feColorMatrix in="shadowBlurOuter1" values="0 0 0 0 0 0 0 0 0 0 0 0 0 0 0 0 0 0 0.5 0"/></filter><filter id="e" width="113.7%" height="173%" x="-8.6%" y="-42.2%" filterUnits="objectBoundingBox"><feMorphology in="SourceAlpha" operator="dilate" radius="1.5" result="shadowSpreadOuter1"/><feOffset dy="2" in="shadowSpreadOuter1" result="shadowOffsetOuter1"/><feGaussianBlur in="shadowOffsetOuter1" result="shadowBlurOuter1" stdDeviation="2"/><feComposite in="shadowBlurOuter1" in2="SourceAlpha" operator="out" result="shadowBlurOuter1"/><feColorMatrix in="shadowBlurOuter1" values="0 0 0 0 0 0 0 0 0 0 0 0 0 0 0 0 0 0 0.5 0"/></filter><filter id="g" width="120.2%" height="144.1%" x="-10.1%" y="-16.5%" filterUnits="objectBoundingBox"><feMorphology in="SourceAlpha" operator="dilate" radius="1.5" result="shadowSpreadOuter1"/><feOffset dy="2" in="shadowSpreadOuter1" result="shadowOffsetOuter1"/><feGaussianBlur in="shadowOffsetOuter1" result="shadowBlurOuter1" stdDeviation="2"/><feComposite in="shadowBlurOuter1" in2="SourceAlpha" operator="out" result="shadowBlurOuter1"/><feColorMatrix in="shadowBlurOuter1" values="0 0 0 0 0 0 0 0 0 0 0 0 0 0 0 0 0 0 0.5 0"/></filter><filter id="a" width="141.2%" height="141.2%" x="-20.6%" y="-15.8%" filterUnits="objectBoundingBox"><feMorphology in="SourceAlpha" operator="dilate" radius="1.5" result="shadowSpreadOuter1"/><feOffset dy="2" in="shadowSpreadOuter1" result="shadowOffsetOuter1"/><feGaussianBlur in="shadowOffsetOuter1" result="shadowBlurOuter1" stdDeviation="2"/><feComposite in="shadowBlurOuter1" in2="SourceAlpha" operator="out" result="shadowBlurOuter1"/><feColorMatrix in="shadowBlurOuter1" values="0 0 0 0 0 0 0 0 0 0 0 0 0 0 0 0 0 0 0.5 0"/></filter><filter id="i" width="112.1%" height="125.4%" x="-6%" y="-9.7%" filterUnits="objectBoundingBox"><feMorphology in="SourceAlpha" operator="dilate" radius="1.5" result="shadowSpreadOuter1"/><feOffset dy="2" in="shadowSpreadOuter1" result="shadowOffsetOuter1"/><feGaussianBlur in="shadowOffsetOuter1" result="shadowBlurOuter1" stdDeviation="2"/><feComposite in="shadowBlurOuter1" in2="SourceAlpha" operator="out" result="shadowBlurOuter1"/><feColorMatrix in="shadowBlurOuter1" values="0 0 0 0 0 0 0 0 0 0 0 0 0 0 0 0 0 0 0.5 0"/></filter><filter id="k" width="123.6%" height="143.6%" x="-11.8%" y="-16.7%" filterUnits="objectBoundingBox"><feMorphology in="SourceAlpha" operator="dilate" radius="1.5" result="shadowSpreadOuter1"/><feOffset dy="2" in="shadowSpreadOuter1" result="shadowOffsetOuter1"/><feGaussianBlur in="shadowOffsetOuter1" result="shadowBlurOuter1" stdDeviation="2"/><feComposite in="shadowBlurOuter1" in2="SourceAlpha" operator="out" result="shadowBlurOuter1"/><feColorMatrix in="shadowBlurOuter1" values="0 0 0 0 0 0 0 0 0 0 0 0 0 0 0 0 0 0 0.5 0"/></filter><filter id="m" width="145.1%" height="185.4%" x="-23.8%" y="-32.9%" filterUnits="objectBoundingBox"><feMorphology in="SourceAlpha" operator="dilate" radius="1.5" result="shadowSpreadOuter1"/><feOffset dy="2" in="shadowSpreadOuter1" result="shadowOffsetOuter1"/><feGaussianBlur in="shadowOffsetOuter1" result="shadowBlurOuter1" stdDeviation="2"/><feComposite in="shadowBlurOuter1" in2="SourceAlpha" operator="out" result="shadowBlurOuter1"/><feColorMatrix in="shadowBlurOuter1" values="0 0 0 0 0 0 0 0 0 0 0 0 0 0 0 0 0 0 0.5 0"/></filter><path id="f" d="M203.75 61.25a11.28 11.28 0 01-20.68 2.48L174.78 49l-32.22 2.89-1.12 1.24a8.07 8.07 0 01-4.58 14.98l-37.74-2.09a8.12 8.12 0 01-5.59-2.7L82 50.33a14.17 14.17 0 011.53 9.75 10.6 10.6 0 01-.58 1.84l15.2 15.47h34.68c.3-.55.56-1.11.8-1.68l41.93-3.76 60.97 10.88a11.46 11.46 0 004.03-22.56l-37.38-6.67c1.08 2.4 1.29 5.09.57 7.66z"/><path id="d" d="M60.91 55.23c-.04 0-.07 0-.11 0-3.27.26-6.11.15-8.6-.23-1.2 7.46 2.89 17.37 15.03 22.18C69.94 78.23 72.5 79.16 75 80L61.93 67.04a9.12 9.12 0 01-1.02-11.81z"/><path id="l" d="M81.38 27.98a5.97 5.97 0 00-8.39-.5 5.86 5.86 0 00-.5 8.32l22.52 25.16a5.96 5.96 0 004.11 1.97L136.74 65a5.93 5.93 0 006.25-5.56 5.9 5.9 0 00-5.6-6.2l-35.14-1.93-20.87-23.32z"/><path id="h" d="M97.3 79.49L81.92 63.93c-.64.72-1.45 1.17-2.41 1.07-1.05-.1-2.28-.95-2.3-2.98a4.57 4.57 0 00-1.48-3.57c-1.38-1.25-4.44-2.6-11.2-2.44-.13.1-.24.2-.36.3a7.23 7.23 0 00-.09 10.27l24.93 25.25A7.32 7.32 0 0094.23 94h44.47c4.03 0 7.3-3.25 7.3-7.26 0-4-3.27-7.25-7.3-7.25H97.3z"/><path id="n" d="M42 47.09c3.23 4 8.93 6.95 19.26 6.15 15.42-1.2 18.16 3.75 18.2 7.84.06 4.1 7.45-6.3-3.25-15.24-6.28-5.25-17.55-3-24.89-3.84A22.05 22.05 0 0142 47.09z"/><path id="j" d="M70.41 37.5a8.1 8.1 0 01.67-11.4 8 8 0 0111.34.68l17.72 20.04c3.02.67 6.42 1.73 10.3 3.33l26.52 1.47a8 8 0 011.63.26l24.33-27.09 20.99 37.53a9.12 9.12 0 0012.43 3.5 9.2 9.2 0 003.49-12.49L172.6 4.68a9.13 9.13 0 00-14.73-1.65l-20.7 23.04c-7.7.32-22.6 1.01-43.18-6.58 2.27-9.43-5.33-11.81-10.95-10.74a1.6 1.6 0 00-3 1.05c-1.37 1.02-3.67 5.04-5.79 9.18-2.27 1.98-5.54 3.94-11.8 4.22-3.32 5.33-3.45 11.91.68 16.95 4.5.17 9.02.85 12.57 3.35l-5.3-6z"/><ellipse id="p" cx="36.068" cy="26.102" rx="19.707" ry="19.691"/><ellipse id="b" cx="29.764" cy="69.06" rx="20.614" ry="20.616"/></defs><g fill="none" fill-rule="nonzero"><g transform="rotate(-42.159 31.155 77.046)"><use fill="#000" filter="url(#a)" xlink:href="#b"/><use fill="#4E4E50" stroke="#1A1A1D" stroke-width="3" xlink:href="#b"/></g><g transform="translate(-5 3)"><use fill="#000" filter="url(#c)" xlink:href="#d"/><use fill="#4E4E50" stroke="#1A1A1D" stroke-width="3" xlink:href="#d"/></g><g transform="translate(-5 3)"><use fill="#000" filter="url(#e)" xlink:href="#f"/><use fill="#4E4E50" stroke="#1A1A1D" stroke-width="3" xlink:href="#f"/></g><g transform="translate(-5 3)"><use fill="#000" filter="url(#g)" xlink:href="#h"/><use fill="#4E4E50" stroke="#1A1A1D" stroke-width="3" xlink:href="#h"/></g><g transform="translate(-5 3)"><use fill="#000" filter="url(#i)" xlink:href="#j"/><use fill="#6F2232" stroke="#1A1A1D" stroke-width="3" xlink:href="#j"/></g><g transform="translate(-5 3)"><use fill="#000" filter="url(#k)" xlink:href="#l"/><use fill="#6F2232" stroke="#1A1A1D" stroke-width="3" xlink:href="#l"/></g><g transform="translate(-5 3)"><use fill="#000" filter="url(#m)" xlink:href="#n"/><use fill="#6F2232" stroke="#1A1A1D" stroke-width="3" xlink:href="#n"/></g><g transform="rotate(-72.393 35.618 31.018)"><use fill="#000" filter="url(#o)" xlink:href="#p"/><use fill="#6F2232" stroke="#1A1A1D" stroke-width="3" xlink:href="#p"/></g></g></svg>