<svg xmlns="http://www.w3.org/2000/svg" width="160" height="192" xmlns:xlink="http://www.w3.org/1999/xlink"><title>sex-etsy-16</title><defs><path id="b" d="M64.97 19.24C65.55 9.18 57.37.58 46.7.04 37.46-.47 29.37 5.28 27 13.37L53.28 35c6.54-2.65 11.27-8.6 11.7-15.76z"/><filter id="a" width="142.5%" height="146.1%" x="-21.4%" y="-17.1%" filterUnits="objectBoundingBox"><feMorphology radius="1" operator="dilate" in="SourceAlpha" result="shadowSpreadOuter1"/><feOffset dy="2" in="shadowSpreadOuter1" result="shadowOffsetOuter1"/><feGaussianBlur stdDeviation="2" in="shadowOffsetOuter1" result="shadowBlurOuter1"/><feComposite in="shadowBlurOuter1" in2="SourceAlpha" operator="out" result="shadowBlurOuter1"/><feColorMatrix values="0 0 0 0 0 0 0 0 0 0 0 0 0 0 0 0 0 0 0.5 0" in="shadowBlurOuter1"/></filter><path id="d" d="M136.78 158c-7.63-.02-14.2 7.12-19.93 10.78-.77 1.2-1.68 2.35-2.76 3.4-1.8 1.73-3.87 3.08-6.1 4.08 5.55 2.6 13.16 3.27 22.57-5.08 10.5-9.3 15.66-7.54 18.3-4.85 2.64 2.7 1.42-8.3-12.1-8.33z"/><filter id="c" width="141.4%" height="180%" x="-22.4%" y="-30%" filterUnits="objectBoundingBox"><feMorphology radius="1" operator="dilate" in="SourceAlpha" result="shadowSpreadOuter1"/><feOffset dy="2" in="shadowSpreadOuter1" result="shadowOffsetOuter1"/><feGaussianBlur stdDeviation="2" in="shadowOffsetOuter1" result="shadowBlurOuter1"/><feComposite in="shadowBlurOuter1" in2="SourceAlpha" operator="out" result="shadowBlurOuter1"/><feColorMatrix values="0 0 0 0 0 0 0 0 0 0 0 0 0 0 0 0 0 0 0.5 0" in="shadowBlurOuter1"/></filter><ellipse id="f" cx="101.267" cy="161.713" rx="17.884" ry="17.901"/><filter id="e" width="144.7%" height="144.7%" x="-22.4%" y="-16.8%" filterUnits="objectBoundingBox"><feMorphology radius="1" operator="dilate" in="SourceAlpha" result="shadowSpreadOuter1"/><feOffset dy="2" in="shadowSpreadOuter1" result="shadowOffsetOuter1"/><feGaussianBlur stdDeviation="2" in="shadowOffsetOuter1" result="shadowBlurOuter1"/><feComposite in="shadowBlurOuter1" in2="SourceAlpha" operator="out" result="shadowBlurOuter1"/><feColorMatrix values="0 0 0 0 0 0 0 0 0 0 0 0 0 0 0 0 0 0 0.5 0" in="shadowBlurOuter1"/></filter><path id="h" d="M27.2 35.23c3.2.76 5.87 2.84 7.77 6.03 1.1 1.86 1.87 4 2.3 6.3l11.26 9.73L43.3 71l14.55-5.64c1.02-.4 2.1-.6 3.2-.6 1.2 0 2.38.25 3.45.7l2.92-7.67c1.32-3.46.33-7.36-2.48-9.8L25.8 14.2c-3.72-3.2-9.36-2.83-12.6.85s-2.86 9.26.86 12.47l8.47 7.32c.3 0 .57-.03.85-.03 1.3 0 2.6.14 3.82.43z"/><filter id="g" width="128.1%" height="128.4%" x="-14%" y="-10.2%" filterUnits="objectBoundingBox"><feMorphology radius="1" operator="dilate" in="SourceAlpha" result="shadowSpreadOuter1"/><feOffset dy="2" in="shadowSpreadOuter1" result="shadowOffsetOuter1"/><feGaussianBlur stdDeviation="2" in="shadowOffsetOuter1" result="shadowBlurOuter1"/><feComposite in="shadowBlurOuter1" in2="SourceAlpha" operator="out" result="shadowBlurOuter1"/><feColorMatrix values="0 0 0 0 0 0 0 0 0 0 0 0 0 0 0 0 0 0 0.5 0" in="shadowBlurOuter1"/></filter><path id="j" d="M91.1 140.46c-3.16-6.7-1.85-10.48-.9-13.4 2-2.77 3.98-5.66 4.86-7.54.2.06.42.1.64.07.8-.1 1.4-.82 1.3-1.6-.1-.78-.8-1.33-1.6-1.27-.96-5.7-7.32-13-15.55-3.78C66.33 100.62 60.63 89.37 57.57 83l-22.5 8.62-.32.8c-.34.88-.52 1.8-.55 2.7-.1.46-.17.93-.2 1.4l26.14 11.45c3.22 1.4 5.68 4.1 6.76 7.37 1.08 3.28.68 6.86-1.1 9.84l-3.36 5.64c1.76 4.3 2.6 7.87 5.66 11l2.43-6.4c1.07-2.82 3.85-4.7 6.93-4.7.87 0 1.74.14 2.56.44 3.83 1.4 5.78 5.55 4.36 9.3l-2.5 6.54c3.85-.67 7.14-3.08 9.23-6.54z"/><filter id="i" width="125.4%" height="125.7%" x="-12.7%" y="-9.8%" filterUnits="objectBoundingBox"><feMorphology radius="1" operator="dilate" in="SourceAlpha" result="shadowSpreadOuter1"/><feOffset dy="2" in="shadowSpreadOuter1" result="shadowOffsetOuter1"/><feGaussianBlur stdDeviation="2" in="shadowOffsetOuter1" result="shadowBlurOuter1"/><feComposite in="shadowBlurOuter1" in2="SourceAlpha" operator="out" result="shadowBlurOuter1"/><feColorMatrix values="0 0 0 0 0 0 0 0 0 0 0 0 0 0 0 0 0 0 0.5 0" in="shadowBlurOuter1"/></filter><path id="l" d="M27.93 172.46c.88-1.74 2.36-3.02 4.16-3.6l6.03-1.96 23.5-41.92c1.44-2.56 1.76-5.64.9-8.46-.9-2.83-2.87-5.14-5.47-6.35L29.64 97.4c-.13-1.26-.2-2.55-.26-3.85l-1.28.52c-.96.4-1.98.6-3 .6-1.54 0-3.04-.44-4.34-1.27-2.2-1.4-3.66-3.84-3.9-6.5l-3.23-34.3c-.22-2.3.44-4.53 1.84-6.3 1.4-1.78 3.4-2.88 5.6-3.1.27-.03.55-.05.82-.05 4.26 0 7.8 3.35 8.2 7.78L31.7 67.7c.7-4.1 1.46-7.92 2.07-11.33 2.24-8.34-.86-18.27-7.74-20-6.87-1.7-16.78 2.26-20.73 14.54C-.05 67.84-1.13 78.83 1.1 97.4c1.05 5.4 3.12 8.84 5.7 11 .96 1.28 2.2 2.33 3.73 3.03l28.1 13.1-20.62 36.78c-2.78 4.98-1.16 11.4 3.63 14.3 1.6.96 3.33 1.42 5.05 1.42.18 0 .35-.03.53-.03-.22-1.54.03-3.1.73-4.5z"/><filter id="k" width="125.4%" height="111.3%" x="-12.7%" y="-4.3%" filterUnits="objectBoundingBox"><feMorphology radius="1" operator="dilate" in="SourceAlpha" result="shadowSpreadOuter1"/><feOffset dy="2" in="shadowSpreadOuter1" result="shadowOffsetOuter1"/><feGaussianBlur stdDeviation="2" in="shadowOffsetOuter1" result="shadowBlurOuter1"/><feComposite in="shadowBlurOuter1" in2="SourceAlpha" operator="out" result="shadowBlurOuter1"/><feColorMatrix values="0 0 0 0 0 0 0 0 0 0 0 0 0 0 0 0 0 0 0.5 0" in="shadowBlurOuter1"/></filter><path id="n" d="M82.66 142.2c1.05-2.76-.4-5.84-3.23-6.87-2.83-1.02-5.97.4-7.03 3.16l-9.16 24.1-29.4 8.95c-2.88.88-4.5 3.88-3.6 6.7.74 2.28 2.9 3.75 5.23 3.75.54 0 1.08-.08 1.63-.24l31.96-9.73c1.62-.5 2.9-1.7 3.5-3.24l10.1-26.6z"/><filter id="m" width="130.2%" height="134%" x="-15.1%" y="-12.8%" filterUnits="objectBoundingBox"><feMorphology radius="1" operator="dilate" in="SourceAlpha" result="shadowSpreadOuter1"/><feOffset dy="2" in="shadowSpreadOuter1" result="shadowOffsetOuter1"/><feGaussianBlur stdDeviation="2" in="shadowOffsetOuter1" result="shadowBlurOuter1"/><feComposite in="shadowBlurOuter1" in2="SourceAlpha" operator="out" result="shadowBlurOuter1"/><feColorMatrix values="0 0 0 0 0 0 0 0 0 0 0 0 0 0 0 0 0 0 0.5 0" in="shadowBlurOuter1"/></filter><path id="p" d="M58.6 66.86L31.3 77.08l-2.56-25.12c-.37-3.63-3.75-6.3-7.53-5.93-3.8.36-6.57 3.58-6.2 7.2l3.45 33.8c.2 2.07 1.42 3.92 3.26 5 1.1.64 2.34.97 3.6.97.85 0 1.7-.15 2.52-.45l35.76-13.4c3.54-1.33 5.3-5.16 3.9-8.55-1.38-3.4-5.4-5.06-8.93-3.74z"/><filter id="o" width="130.2%" height="134%" x="-15.1%" y="-12.8%" filterUnits="objectBoundingBox"><feMorphology radius="1" operator="dilate" in="SourceAlpha" result="shadowSpreadOuter1"/><feOffset dy="2" in="shadowSpreadOuter1" result="shadowOffsetOuter1"/><feGaussianBlur stdDeviation="2" in="shadowOffsetOuter1" result="shadowBlurOuter1"/><feComposite in="shadowBlurOuter1" in2="SourceAlpha" operator="out" result="shadowBlurOuter1"/><feColorMatrix values="0 0 0 0 0 0 0 0 0 0 0 0 0 0 0 0 0 0 0.5 0" in="shadowBlurOuter1"/></filter></defs><g fill="none"><g fill-rule="nonzero"><g id="Path" transform="translate(5 3)"><use fill="#000" filter="url(#a)" xlink:href="#b"/><use fill="#4E4E50" stroke="#1A1A1D" stroke-width="2" xlink:href="#b"/></g><g id="Path" transform="translate(5 3)"><use fill="#000" filter="url(#c)" xlink:href="#d"/><use fill="#6F2232" stroke="#1A1A1D" stroke-width="2" xlink:href="#d"/></g><g transform="translate(5 3) rotate(-55.66 101.267 161.713)"><use fill="#000" filter="url(#e)" xlink:href="#f"/><use fill="#6F2232" stroke="#1A1A1D" stroke-width="2" xlink:href="#f"/></g><g id="Path" transform="translate(5 3)"><use fill="#000" filter="url(#g)" xlink:href="#h"/><use fill="#6F2232" stroke="#1A1A1D" stroke-width="2" xlink:href="#h"/></g><g id="Path" transform="translate(5 3)"><use fill="#000" filter="url(#i)" xlink:href="#j"/><use fill="#6F2232" stroke="#1A1A1D" stroke-width="2" xlink:href="#j"/></g><g id="Path" transform="translate(5 3)"><use fill="#000" filter="url(#k)" xlink:href="#l"/><use fill="#4E4E50" stroke="#1A1A1D" stroke-width="2" xlink:href="#l"/></g><g id="Path" transform="translate(5 3)"><use fill="#000" filter="url(#m)" xlink:href="#n"/><use fill="#6F2232" stroke="#1A1A1D" stroke-width="2" xlink:href="#n"/></g><g transform="translate(5 3)"><use fill="#000" filter="url(#o)" xlink:href="#p"/><use fill="#4E4E50" stroke="#1A1A1D" stroke-width="2" xlink:href="#p"/></g></g></g></svg>