<svg xmlns="http://www.w3.org/2000/svg" xmlns:xlink="http://www.w3.org/1999/xlink" width="205" height="251"><defs><filter id="s" width="131.6%" height="122.1%" x="-15.8%" y="-8.4%" filterUnits="objectBoundingBox"><feMorphology in="SourceAlpha" operator="dilate" radius="1.5" result="shadowSpreadOuter1"/><feOffset dy="2" in="shadowSpreadOuter1" result="shadowOffsetOuter1"/><feGaussianBlur in="shadowOffsetOuter1" result="shadowBlurOuter1" stdDeviation="2"/><feComposite in="shadowBlurOuter1" in2="SourceAlpha" operator="out" result="shadowBlurOuter1"/><feColorMatrix in="shadowBlurOuter1" values="0 0 0 0 0 0 0 0 0 0 0 0 0 0 0 0 0 0 0.5 0"/></filter><filter id="c" width="198.1%" height="134.7%" x="-49%" y="-14%" filterUnits="objectBoundingBox"><feMorphology in="SourceAlpha" operator="dilate" radius="1.5" result="shadowSpreadOuter1"/><feOffset dy="2" in="shadowSpreadOuter1" result="shadowOffsetOuter1"/><feGaussianBlur in="shadowOffsetOuter1" result="shadowBlurOuter1" stdDeviation="2"/><feComposite in="shadowBlurOuter1" in2="SourceAlpha" operator="out" result="shadowBlurOuter1"/><feColorMatrix in="shadowBlurOuter1" values="0 0 0 0 0 0 0 0 0 0 0 0 0 0 0 0 0 0 0.5 0"/></filter><filter id="e" width="139.5%" height="139.5%" x="-19.8%" y="-15.1%" filterUnits="objectBoundingBox"><feMorphology in="SourceAlpha" operator="dilate" radius="1.5" result="shadowSpreadOuter1"/><feOffset dy="2" in="shadowSpreadOuter1" result="shadowOffsetOuter1"/><feGaussianBlur in="shadowOffsetOuter1" result="shadowBlurOuter1" stdDeviation="2"/><feComposite in="shadowBlurOuter1" in2="SourceAlpha" operator="out" result="shadowBlurOuter1"/><feColorMatrix in="shadowBlurOuter1" values="0 0 0 0 0 0 0 0 0 0 0 0 0 0 0 0 0 0 0.5 0"/></filter><filter id="g" width="117.9%" height="300%" x="-8.9%" y="-73.3%" filterUnits="objectBoundingBox"><feMorphology in="SourceAlpha" operator="dilate" radius=".5" result="shadowSpreadOuter1"/><feOffset dy="2" in="shadowSpreadOuter1" result="shadowOffsetOuter1"/><feGaussianBlur in="shadowOffsetOuter1" result="shadowBlurOuter1" stdDeviation="2"/><feComposite in="shadowBlurOuter1" in2="SourceAlpha" operator="out" result="shadowBlurOuter1"/><feColorMatrix in="shadowBlurOuter1" values="0 0 0 0 0 0 0 0 0 0 0 0 0 0 0 0 0 0 1 0"/></filter><filter id="i" width="135.1%" height="134.8%" x="-17.6%" y="-11.6%" filterUnits="objectBoundingBox"><feMorphology in="SourceAlpha" operator="dilate" radius="1.5" result="shadowSpreadOuter1"/><feOffset dy="2" in="shadowSpreadOuter1" result="shadowOffsetOuter1"/><feGaussianBlur in="shadowOffsetOuter1" result="shadowBlurOuter1" stdDeviation="2"/><feComposite in="shadowBlurOuter1" in2="SourceAlpha" operator="out" result="shadowBlurOuter1"/><feColorMatrix in="shadowBlurOuter1" values="0 0 0 0 0 0 0 0 0 0 0 0 0 0 0 0 0 0 0.5 0"/></filter><filter id="a" width="140.6%" height="147%" x="-20.8%" y="-17.9%" filterUnits="objectBoundingBox"><feMorphology in="SourceAlpha" operator="dilate" radius="1.5" result="shadowSpreadOuter1"/><feOffset dy="2" in="shadowSpreadOuter1" result="shadowOffsetOuter1"/><feGaussianBlur in="shadowOffsetOuter1" result="shadowBlurOuter1" stdDeviation="2"/><feComposite in="shadowBlurOuter1" in2="SourceAlpha" operator="out" result="shadowBlurOuter1"/><feColorMatrix in="shadowBlurOuter1" values="0 0 0 0 0 0 0 0 0 0 0 0 0 0 0 0 0 0 1 0"/></filter><filter id="k" width="113.3%" height="127.8%" x="-6.6%" y="-10.6%" filterUnits="objectBoundingBox"><feMorphology in="SourceAlpha" operator="dilate" radius="1.5" result="shadowSpreadOuter1"/><feOffset dy="2" in="shadowSpreadOuter1" result="shadowOffsetOuter1"/><feGaussianBlur in="shadowOffsetOuter1" result="shadowBlurOuter1" stdDeviation="2"/><feComposite in="shadowBlurOuter1" in2="SourceAlpha" operator="out" result="shadowBlurOuter1"/><feColorMatrix in="shadowBlurOuter1" values="0 0 0 0 0 0 0 0 0 0 0 0 0 0 0 0 0 0 0.5 0"/></filter><filter id="m" width="126.8%" height="113.1%" x="-13.4%" y="-5%" filterUnits="objectBoundingBox"><feMorphology in="SourceAlpha" operator="dilate" radius="1.5" result="shadowSpreadOuter1"/><feOffset dy="2" in="shadowSpreadOuter1" result="shadowOffsetOuter1"/><feGaussianBlur in="shadowOffsetOuter1" result="shadowBlurOuter1" stdDeviation="2"/><feComposite in="shadowBlurOuter1" in2="SourceAlpha" operator="out" result="shadowBlurOuter1"/><feColorMatrix in="shadowBlurOuter1" values="0 0 0 0 0 0 0 0 0 0 0 0 0 0 0 0 0 0 1 0"/></filter><filter id="o" width="137.8%" height="137.8%" x="-18.9%" y="-14.4%" filterUnits="objectBoundingBox"><feMorphology in="SourceAlpha" operator="dilate" radius="1.5" result="shadowSpreadOuter1"/><feOffset dy="2" in="shadowSpreadOuter1" result="shadowOffsetOuter1"/><feGaussianBlur in="shadowOffsetOuter1" result="shadowBlurOuter1" stdDeviation="2"/><feComposite in="shadowBlurOuter1" in2="SourceAlpha" operator="out" result="shadowBlurOuter1"/><feColorMatrix in="shadowBlurOuter1" values="0 0 0 0 0 0 0 0 0 0 0 0 0 0 0 0 0 0 1 0"/></filter><filter id="q" width="125.1%" height="125.1%" x="-12.5%" y="-9.6%" filterUnits="objectBoundingBox"><feMorphology in="SourceAlpha" operator="dilate" radius="1.5" result="shadowSpreadOuter1"/><feOffset dy="2" in="shadowSpreadOuter1" result="shadowOffsetOuter1"/><feGaussianBlur in="shadowOffsetOuter1" result="shadowBlurOuter1" stdDeviation="2"/><feComposite in="shadowBlurOuter1" in2="SourceAlpha" operator="out" result="shadowBlurOuter1"/><feColorMatrix in="shadowBlurOuter1" values="0 0 0 0 0 0 0 0 0 0 0 0 0 0 0 0 0 0 1 0"/></filter><path id="d" d="M186.57 69a23.7 23.7 0 01-4.67 5.2c7.05 6.25-8.29 22.9-3.74 34.93 5.4 14.28 18.98 10.67 14.72 9.08-4.25-1.6-8.41-6.26-1.48-21.53 6.94-15.3 1.35-23.19-4.83-27.69z"/><path id="h" d="M111.85 159.87h84v7.5h-84z"/><path id="n" d="M76.3 136.39c.11-1.11.17-2.34.18-3.7l-16.76-15.66-19.15.52c.04 3.02.15 6.19.36 9.6.33 2.4.86 4.51 1.55 6.35.45 1.9 1.36 3.72 2.73 5.29l32.86 37.61-10.3 55.7a12.5 12.5 0 0024.6 4.54L103.74 175a12.5 12.5 0 00-2.88-10.5L76.31 136.4z"/><path id="b" d="M64.62 91.3c.46 0 .92.02 1.37.07l-4.68-10.42a10.31 10.31 0 019.4-14.52c4.04 0 7.73 2.39 9.4 6.08l4.2 9.35c.08-.36.18-.73.27-1.08 3.4-9.78.31-21.88-8.1-24.47-8.4-2.6-21.01 1.36-26.84 15.7a138.8 138.8 0 00-6.5 19.86l21.13-.57h.35z"/><path id="t" d="M141.58 82.37a6.5 6.5 0 00-10.97 6.99l40.75 64a6.5 6.5 0 1010.97-6.99l-40.75-64z"/><path id="j" d="M131.16 123c1.6-8.36 4.1-13.8 6.71-17.96l-9.2-14.45a8.81 8.81 0 0114.85-9.45l4.32 6.78c2.38-13.76-6.36-21.29-16.32-20.97-4.86 7.55-9.6 8.7-13.2 9.65-4.28-.24-8.64-.33-11.1.06a1.74 1.74 0 00-3.22.66c-.05.34.01.67.14.96-5.12 4.8-8.28 15.68 6.24 17.93-1 5.3-2.23 10.1-3.59 14.41l19.7 8.38c2 .86 3.6 2.28 4.67 4z"/><path id="r" d="M79.9 116.76a8 8 0 004.17 4.08l35.25 15a7.97 7.97 0 0010.5-4.23 8 8 0 00-4.23-10.49l-32.37-13.77L78 73.45a8 8 0 10-14.6 6.56l16.5 36.75z"/><path id="f" d="M180.27 72.57a21.5 21.5 0 10-27.13-33.36 21.5 21.5 0 0027.13 33.36z"/><path id="l" d="M60.6 114.7l33.25 31.06c.43.45.92.9 1.46 1.36l.78.73c.95.88 2.02 1.55 3.16 2.02 10.81 6.38 29.62 9.63 30.26-10.72.04-1.14.09-2.24.15-3.3a10.28 10.28 0 01-11.24 2.1l-35.25-14.99a10.27 10.27 0 01-5.36-5.26L67.13 93.9c-.91-.22-1.85-.33-2.8-.3l-54.11 1.46a10.5 10.5 0 10.56 21l49.82-1.35z"/><circle id="p" cx="85.531" cy="30.5" r="22.5"/></defs><g fill="none" fill-rule="nonzero"><g transform="translate(5 -3)"><use fill="#000" filter="url(#a)" xlink:href="#b"/><use fill="#4E4E50" stroke="#1A1A1D" stroke-width="3" xlink:href="#b"/></g><g transform="translate(5 -3)"><use fill="#000" filter="url(#c)" xlink:href="#d"/><use fill="#6F2232" stroke="#1A1A1D" stroke-width="3" xlink:href="#d"/></g><g transform="translate(5 -3)"><use fill="#000" filter="url(#e)" xlink:href="#f"/><use fill="#6F2232" stroke="#1A1A1D" stroke-width="3" xlink:href="#f"/></g><g transform="translate(5 -3)"><use fill="#000" filter="url(#g)" xlink:href="#h"/><use fill="#4E4E50" stroke="#1A1A1D" xlink:href="#h"/></g><g transform="translate(5 -3)"><use fill="#000" filter="url(#i)" xlink:href="#j"/><use fill="#6F2232" stroke="#1A1A1D" stroke-width="3" xlink:href="#j"/></g><g transform="translate(5 -3)"><use fill="#000" filter="url(#k)" xlink:href="#l"/><use fill="#6F2232" stroke="#1A1A1D" stroke-width="3" xlink:href="#l"/></g><g transform="translate(5 -3)"><use fill="#000" filter="url(#m)" xlink:href="#n"/><use fill="#4E4E50" stroke="#1A1A1D" stroke-width="3" xlink:href="#n"/></g><g transform="rotate(-63.417 85.603 24.953)"><use fill="#000" filter="url(#o)" xlink:href="#p"/><use fill="#4E4E50" stroke="#1A1A1D" stroke-width="3" xlink:href="#p"/></g><g transform="translate(5 -3)"><use fill="#000" filter="url(#q)" xlink:href="#r"/><use fill="#4E4E50" stroke="#1A1A1D" stroke-width="3" xlink:href="#r"/></g><g transform="translate(5 -3)"><use fill="#000" filter="url(#s)" xlink:href="#t"/><use fill="#6F2232" stroke="#1A1A1D" stroke-width="3" xlink:href="#t"/></g></g></svg>