<svg xmlns="http://www.w3.org/2000/svg" width="158" height="227" xmlns:xlink="http://www.w3.org/1999/xlink"><title>sex-etsy-33</title><defs><path id="b" d="M45.25 137.47H74.5c2.05-.93 4.1-2.06 5.97-3.38 2-.9 3.6-2.37 4.66-4.13 4.83-5.52 6.07-12.83-2.4-20.8C63.8 91.3 62.6 80.53 60.9 72.05c-.6-.58-1.2-1.2-1.78-1.9-2.47-2.9-3.6-6.57-4.1-10.4-8.48-8.97-18.98-7.18-25 .05 2.44 8.65.16 12.95-1.5 16.28-2.9 2.93-5.76 6.02-7.17 8.1-.38-.18-.83-.23-1.26-.1-.93.26-1.47 1.23-1.2 2.16.2.7.8 1.17 1.47 1.25.02 6.8 5.7 16.42 16.5 8.37l-1.55-24.04c-.32-4.84 3.36-9.03 8.2-9.34.2-.03.38-.03.56-.03 4.63 0 8.5 3.62 8.8 8.23l2.4 37.42c.2 3.28-1.4 6.32-4.13 8.02 1.1 2.27 2.06 4.43 2.88 6.47l-32.98 14.2c-4.98 2.13-7.5 7.72-5.84 12.88l5.6 17.18 11.4-21.52c2.57-4.86 7.58-7.87 13.07-7.87z"/><filter id="a" width="122.9%" height="117.1%" x="-11.4%" y="-5.7%" filterUnits="objectBoundingBox"><feMorphology radius="1.5" operator="dilate" in="SourceAlpha" result="shadowSpreadOuter1"/><feOffset dy="2" in="shadowSpreadOuter1" result="shadowOffsetOuter1"/><feGaussianBlur stdDeviation="2" in="shadowOffsetOuter1" result="shadowBlurOuter1"/><feComposite in="shadowBlurOuter1" in2="SourceAlpha" operator="out" result="shadowBlurOuter1"/><feColorMatrix values="0 0 0 0 0 0 0 0 0 0 0 0 0 0 0 0 0 0 0.5 0" in="shadowBlurOuter1"/></filter><path id="d" d="M37.18 217.35c1.45 4.44 5.56 7.26 10 7.26 1.06 0 2.16-.16 3.24-.5 5.5-1.8 8.53-7.73 6.73-13.24L47.2 180.2l-13.7 25.83 3.68 11.32z"/><filter id="c" width="170.8%" height="143.5%" x="-35.7%" y="-19.9%" filterUnits="objectBoundingBox"><feMorphology radius="1.5" operator="dilate" in="SourceAlpha" result="shadowSpreadOuter1"/><feOffset dy="2" in="shadowSpreadOuter1" result="shadowOffsetOuter1"/><feGaussianBlur stdDeviation="2" in="shadowOffsetOuter1" result="shadowBlurOuter1"/><feComposite in="shadowBlurOuter1" in2="SourceAlpha" operator="out" result="shadowBlurOuter1"/><feColorMatrix values="0 0 0 0 0 0 0 0 0 0 0 0 0 0 0 0 0 0 0.5 0" in="shadowBlurOuter1"/></filter><path id="f" d="M52.96 108.27l-2.4-37.42c-.24-3.58-3.35-6.3-6.9-6.07-3.6.23-6.3 3.32-6.08 6.9l2.12 33L7.5 119.6c-3.24 1.52-4.65 5.38-3.14 8.64 1.1 2.37 3.45 3.76 5.9 3.76.9 0 1.84-.2 2.73-.6l36.22-16.84c2.43-1.13 3.92-3.63 3.74-6.3z"/><filter id="e" width="134.5%" height="125.3%" x="-17.3%" y="-9.7%" filterUnits="objectBoundingBox"><feMorphology radius="1.5" operator="dilate" in="SourceAlpha" result="shadowSpreadOuter1"/><feOffset dy="2" in="shadowSpreadOuter1" result="shadowOffsetOuter1"/><feGaussianBlur stdDeviation="2" in="shadowOffsetOuter1" result="shadowBlurOuter1"/><feComposite in="shadowBlurOuter1" in2="SourceAlpha" operator="out" result="shadowBlurOuter1"/><feColorMatrix values="0 0 0 0 0 0 0 0 0 0 0 0 0 0 0 0 0 0 0.5 0" in="shadowBlurOuter1"/></filter><path id="h" d="M60.86 68.68c9.85 11.66 21.45 3.73 16.9 3.65-4.54-.1-10.02-3.1-8.57-19.8 1.46-17-6.73-22.5-14.15-24.6.13 1.16.17 2.36.12 3.57-.06 1.46-.26 2.88-.58 4.26 5.47 5.75-1.33 23.93 6.26 32.92z"/><filter id="g" width="170.8%" height="137.1%" x="-35.9%" y="-14.8%" filterUnits="objectBoundingBox"><feMorphology radius="1.5" operator="dilate" in="SourceAlpha" result="shadowSpreadOuter1"/><feOffset dy="2" in="shadowSpreadOuter1" result="shadowOffsetOuter1"/><feGaussianBlur stdDeviation="2" in="shadowOffsetOuter1" result="shadowBlurOuter1"/><feComposite in="shadowBlurOuter1" in2="SourceAlpha" operator="out" result="shadowBlurOuter1"/><feColorMatrix values="0 0 0 0 0 0 0 0 0 0 0 0 0 0 0 0 0 0 0.5 0" in="shadowBlurOuter1"/></filter><circle id="j" cx="31.388" cy="30.5" r="21.5"/><filter id="i" width="139.5%" height="139.5%" x="-19.8%" y="-15.1%" filterUnits="objectBoundingBox"><feMorphology radius="1.5" operator="dilate" in="SourceAlpha" result="shadowSpreadOuter1"/><feOffset dy="2" in="shadowSpreadOuter1" result="shadowOffsetOuter1"/><feGaussianBlur stdDeviation="2" in="shadowOffsetOuter1" result="shadowBlurOuter1"/><feComposite in="shadowBlurOuter1" in2="SourceAlpha" operator="out" result="shadowBlurOuter1"/><feColorMatrix values="0 0 0 0 0 0 0 0 0 0 0 0 0 0 0 0 0 0 0.5 0" in="shadowBlurOuter1"/></filter><path id="l" d="M127.5 190.07c-.35 0-.7-.02-1.02-.05l5.7 32.08 4.92-.87-5.68-31.94c-.9.36-1.88.62-2.9.72-.35.03-.7.05-1.03.05z"/><filter id="k" width="265.3%" height="155%" x="-83%" y="-22.2%" filterUnits="objectBoundingBox"><feMorphology radius="1.5" operator="dilate" in="SourceAlpha" result="shadowSpreadOuter1"/><feOffset dy="2" in="shadowSpreadOuter1" result="shadowOffsetOuter1"/><feGaussianBlur stdDeviation="2" in="shadowOffsetOuter1" result="shadowBlurOuter1"/><feComposite in="shadowBlurOuter1" in2="SourceAlpha" operator="out" result="shadowBlurOuter1"/><feColorMatrix values="0 0 0 0 0 0 0 0 0 0 0 0 0 0 0 0 0 0 1 0" in="shadowBlurOuter1"/></filter><path id="n" d="M144.7 96.43l-10.57 45.64 1.53 15.52 13.92-60.04z"/><filter id="m" width="212.1%" height="140.9%" x="-55.1%" y="-11.1%" filterUnits="objectBoundingBox"><feMorphology radius="1.5" operator="dilate" in="SourceAlpha" result="shadowSpreadOuter1"/><feOffset dy="2" in="shadowSpreadOuter1" result="shadowOffsetOuter1"/><feGaussianBlur stdDeviation="2" in="shadowOffsetOuter1" result="shadowBlurOuter1"/><feComposite in="shadowBlurOuter1" in2="SourceAlpha" operator="out" result="shadowBlurOuter1"/><feColorMatrix values="0 0 0 0 0 0 0 0 0 0 0 0 0 0 0 0 0 0 1 0" in="shadowBlurOuter1"/></filter><path id="p" d="M116.2 170H72.63v5h2.76l-8.22 46.23 4.92.87 7.63-42.94h37.36z"/><filter id="o" width="134.9%" height="133.1%" x="-17.5%" y="-12.5%" filterUnits="objectBoundingBox"><feMorphology radius="1.5" operator="dilate" in="SourceAlpha" result="shadowSpreadOuter1"/><feOffset dy="2" in="shadowSpreadOuter1" result="shadowOffsetOuter1"/><feGaussianBlur stdDeviation="2" in="shadowOffsetOuter1" result="shadowBlurOuter1"/><feComposite in="shadowBlurOuter1" in2="SourceAlpha" operator="out" result="shadowBlurOuter1"/><feColorMatrix values="0 0 0 0 0 0 0 0 0 0 0 0 0 0 0 0 0 0 1 0" in="shadowBlurOuter1"/></filter><path id="r" d="M118 83.52c.33-.03.67-.05 1-.05 5.32 0 9.73 4 10.25 9.3l3.16 31.93c1.95-7 3.14-14.4 3.96-23.3 1.33-15.44-8.1-24.7-16.77-26.2-8.68-1.52-16.94 7.85-18.34 18.1-3 13.13-6.45 31.97-14.46 46.47H45.25c-4.63 0-8.87 2.56-11.04 6.64l-30.74 58c-3.23 6.1-.9 13.68 5.2 16.9 1.85 1 3.86 1.47 5.83 1.47 4.47 0 8.8-2.4 11.05-6.65l27.22-51.35H104c3.62 0 6.86-1.54 9.14-4 .66-.5 1.32-1.05 1.97-1.67l-6.35-64.32c-.56-5.65 3.6-10.7 9.24-11.26z"/><filter id="q" width="112.6%" height="111.5%" x="-6.3%" y="-4.4%" filterUnits="objectBoundingBox"><feMorphology radius="1.5" operator="dilate" in="SourceAlpha" result="shadowSpreadOuter1"/><feOffset dy="2" in="shadowSpreadOuter1" result="shadowOffsetOuter1"/><feGaussianBlur stdDeviation="2" in="shadowOffsetOuter1" result="shadowBlurOuter1"/><feComposite in="shadowBlurOuter1" in2="SourceAlpha" operator="out" result="shadowBlurOuter1"/><feColorMatrix values="0 0 0 0 0 0 0 0 0 0 0 0 0 0 0 0 0 0 1 0" in="shadowBlurOuter1"/></filter><circle id="t" cx="123.127" cy="48.693" r="22.5"/><filter id="s" width="137.8%" height="137.8%" x="-18.9%" y="-14.4%" filterUnits="objectBoundingBox"><feMorphology radius="1.5" operator="dilate" in="SourceAlpha" result="shadowSpreadOuter1"/><feOffset dy="2" in="shadowSpreadOuter1" result="shadowOffsetOuter1"/><feGaussianBlur stdDeviation="2" in="shadowOffsetOuter1" result="shadowBlurOuter1"/><feComposite in="shadowBlurOuter1" in2="SourceAlpha" operator="out" result="shadowBlurOuter1"/><feColorMatrix values="0 0 0 0 0 0 0 0 0 0 0 0 0 0 0 0 0 0 1 0" in="shadowBlurOuter1"/></filter><path id="v" d="M126.96 92.98c-.43-4.4-4.35-7.6-8.74-7.17-4.4.44-7.6 4.36-7.18 8.76l8.5 86c.4 4.13 3.9 7.2 7.95 7.2.26 0 .52 0 .8-.03 4.4-.43 7.6-4.35 7.16-8.75l-8.5-86z"/><filter id="u" width="169.4%" height="116.7%" x="-34.7%" y="-6.4%" filterUnits="objectBoundingBox"><feMorphology radius="1.5" operator="dilate" in="SourceAlpha" result="shadowSpreadOuter1"/><feOffset dy="2" in="shadowSpreadOuter1" result="shadowOffsetOuter1"/><feGaussianBlur stdDeviation="2" in="shadowOffsetOuter1" result="shadowBlurOuter1"/><feComposite in="shadowBlurOuter1" in2="SourceAlpha" operator="out" result="shadowBlurOuter1"/><feColorMatrix values="0 0 0 0 0 0 0 0 0 0 0 0 0 0 0 0 0 0 1 0" in="shadowBlurOuter1"/></filter></defs><g fill="none"><g fill-rule="nonzero"><g id="Path" transform="translate(3 -5)"><use fill="#000" filter="url(#a)" xlink:href="#b"/><use fill="#6F2232" stroke="#1A1A1D" stroke-width="3" xlink:href="#b"/></g><g id="Path" transform="translate(3 -5)"><use fill="#000" filter="url(#c)" xlink:href="#d"/><use fill="#6F2232" stroke="#1A1A1D" stroke-width="3" xlink:href="#d"/></g><g id="Path" transform="translate(3 -5)"><use fill="#000" filter="url(#e)" xlink:href="#f"/><use fill="#6F2232" stroke="#1A1A1D" stroke-width="3" xlink:href="#f"/></g><g id="Path" transform="translate(3 -5)"><use fill="#000" filter="url(#g)" xlink:href="#h"/><use fill="#6F2232" stroke="#1A1A1D" stroke-width="3" xlink:href="#h"/></g><g id="Oval" transform="translate(3 -5) rotate(-45 31.388 30.5)"><use fill="#000" filter="url(#i)" xlink:href="#j"/><use fill="#6F2232" stroke="#1A1A1D" stroke-width="3" xlink:href="#j"/></g><g id="Path" transform="translate(3 -5)"><use fill="#000" filter="url(#k)" xlink:href="#l"/><use fill="#4E4E50" stroke="#1A1A1D" stroke-width="3" xlink:href="#l"/></g><g id="Path" transform="translate(3 -5)"><use fill="#000" filter="url(#m)" xlink:href="#n"/><use fill="#4E4E50" stroke="#1A1A1D" stroke-width="3" xlink:href="#n"/></g><g id="Path" transform="translate(3 -5)"><use fill="#000" filter="url(#o)" xlink:href="#p"/><use fill="#4E4E50" stroke="#1A1A1D" stroke-width="3" xlink:href="#p"/></g><g id="Path" transform="translate(3 -5)"><use fill="#000" filter="url(#q)" xlink:href="#r"/><use fill="#4E4E50" stroke="#1A1A1D" stroke-width="3" xlink:href="#r"/></g><g transform="translate(3 -5) rotate(-45 123.127 48.693)"><use fill="#000" filter="url(#s)" xlink:href="#t"/><use fill="#4E4E50" stroke="#1A1A1D" stroke-width="3" xlink:href="#t"/></g><g transform="translate(3 -5)"><use fill="#000" filter="url(#u)" xlink:href="#v"/><use fill="#4E4E50" stroke="#1A1A1D" stroke-width="3" xlink:href="#v"/></g></g></g></svg>