<svg xmlns="http://www.w3.org/2000/svg" xmlns:xlink="http://www.w3.org/1999/xlink" width="213" height="177"><defs><filter id="i" width="132.3%" height="119.5%" x="-16.1%" y="-7.5%" filterUnits="objectBoundingBox"><feMorphology in="SourceAlpha" operator="dilate" radius="1.5" result="shadowSpreadOuter1"/><feOffset dy="2" in="shadowSpreadOuter1" result="shadowOffsetOuter1"/><feGaussianBlur in="shadowOffsetOuter1" result="shadowBlurOuter1" stdDeviation="2"/><feComposite in="shadowBlurOuter1" in2="SourceAlpha" operator="out" result="shadowBlurOuter1"/><feColorMatrix in="shadowBlurOuter1" values="0 0 0 0 0 0 0 0 0 0 0 0 0 0 0 0 0 0 0.5 0"/></filter><filter id="q" width="139.5%" height="139.5%" x="-19.8%" y="-15.1%" filterUnits="objectBoundingBox"><feMorphology in="SourceAlpha" operator="dilate" radius="1.5" result="shadowSpreadOuter1"/><feOffset dy="2" in="shadowSpreadOuter1" result="shadowOffsetOuter1"/><feGaussianBlur in="shadowOffsetOuter1" result="shadowBlurOuter1" stdDeviation="2"/><feComposite in="shadowBlurOuter1" in2="SourceAlpha" operator="out" result="shadowBlurOuter1"/><feColorMatrix in="shadowBlurOuter1" values="0 0 0 0 0 0 0 0 0 0 0 0 0 0 0 0 0 0 0.5 0"/></filter><filter id="o" width="137.5%" height="160.6%" x="-17.6%" y="-23.2%" filterUnits="objectBoundingBox"><feMorphology in="SourceAlpha" operator="dilate" radius="1.5" result="shadowSpreadOuter1"/><feOffset dy="2" in="shadowSpreadOuter1" result="shadowOffsetOuter1"/><feGaussianBlur in="shadowOffsetOuter1" result="shadowBlurOuter1" stdDeviation="2"/><feComposite in="shadowBlurOuter1" in2="SourceAlpha" operator="out" result="shadowBlurOuter1"/><feColorMatrix in="shadowBlurOuter1" values="0 0 0 0 0 0 0 0 0 0 0 0 0 0 0 0 0 0 0.5 0"/></filter><filter id="c" width="138.5%" height="158.3%" x="-19.2%" y="-21.8%" filterUnits="objectBoundingBox"><feMorphology in="SourceAlpha" operator="dilate" radius="1.5" result="shadowSpreadOuter1"/><feOffset dy="2" in="shadowSpreadOuter1" result="shadowOffsetOuter1"/><feGaussianBlur in="shadowOffsetOuter1" result="shadowBlurOuter1" stdDeviation="2"/><feComposite in="shadowBlurOuter1" in2="SourceAlpha" operator="out" result="shadowBlurOuter1"/><feColorMatrix in="shadowBlurOuter1" values="0 0 0 0 0 0 0 0 0 0 0 0 0 0 0 0 0 0 0.5 0"/></filter><filter id="m" width="152%" height="119.6%" x="-26%" y="-7.5%" filterUnits="objectBoundingBox"><feMorphology in="SourceAlpha" operator="dilate" radius="1.5" result="shadowSpreadOuter1"/><feOffset dy="2" in="shadowSpreadOuter1" result="shadowOffsetOuter1"/><feGaussianBlur in="shadowOffsetOuter1" result="shadowBlurOuter1" stdDeviation="2"/><feComposite in="shadowBlurOuter1" in2="SourceAlpha" operator="out" result="shadowBlurOuter1"/><feColorMatrix in="shadowBlurOuter1" values="0 0 0 0 0 0 0 0 0 0 0 0 0 0 0 0 0 0 0.5 0"/></filter><filter id="e" width="157%" height="161.3%" x="-29.4%" y="-24.3%" filterUnits="objectBoundingBox"><feMorphology in="SourceAlpha" operator="dilate" radius="1.5" result="shadowSpreadOuter1"/><feOffset dy="2" in="shadowSpreadOuter1" result="shadowOffsetOuter1"/><feGaussianBlur in="shadowOffsetOuter1" result="shadowBlurOuter1" stdDeviation="2"/><feComposite in="shadowBlurOuter1" in2="SourceAlpha" operator="out" result="shadowBlurOuter1"/><feColorMatrix in="shadowBlurOuter1" values="0 0 0 0 0 0 0 0 0 0 0 0 0 0 0 0 0 0 0.5 0"/></filter><filter id="k" width="113.9%" height="116.5%" x="-7%" y="-6.3%" filterUnits="objectBoundingBox"><feMorphology in="SourceAlpha" operator="dilate" radius="1.5" result="shadowSpreadOuter1"/><feOffset dy="2" in="shadowSpreadOuter1" result="shadowOffsetOuter1"/><feGaussianBlur in="shadowOffsetOuter1" result="shadowBlurOuter1" stdDeviation="2"/><feComposite in="shadowBlurOuter1" in2="SourceAlpha" operator="out" result="shadowBlurOuter1"/><feColorMatrix in="shadowBlurOuter1" values="0 0 0 0 0 0 0 0 0 0 0 0 0 0 0 0 0 0 0.5 0"/></filter><filter id="g" width="131.6%" height="118.9%" x="-15.2%" y="-7.2%" filterUnits="objectBoundingBox"><feMorphology in="SourceAlpha" operator="dilate" radius="1.5" result="shadowSpreadOuter1"/><feOffset dy="2" in="shadowSpreadOuter1" result="shadowOffsetOuter1"/><feGaussianBlur in="shadowOffsetOuter1" result="shadowBlurOuter1" stdDeviation="2"/><feComposite in="shadowBlurOuter1" in2="SourceAlpha" operator="out" result="shadowBlurOuter1"/><feColorMatrix in="shadowBlurOuter1" values="0 0 0 0 0 0 0 0 0 0 0 0 0 0 0 0 0 0 0.5 0"/></filter><filter id="a" width="137.8%" height="137.8%" x="-18.9%" y="-14.4%" filterUnits="objectBoundingBox"><feMorphology in="SourceAlpha" operator="dilate" radius="1.5" result="shadowSpreadOuter1"/><feOffset dy="2" in="shadowSpreadOuter1" result="shadowOffsetOuter1"/><feGaussianBlur in="shadowOffsetOuter1" result="shadowBlurOuter1" stdDeviation="2"/><feComposite in="shadowBlurOuter1" in2="SourceAlpha" operator="out" result="shadowBlurOuter1"/><feColorMatrix in="shadowBlurOuter1" values="0 0 0 0 0 0 0 0 0 0 0 0 0 0 0 0 0 0 0.5 0"/></filter><path id="j" d="M48.3 72.86a8 8 0 00-10.78 3.45L.9 147.43a8 8 0 0014.22 7.33l36.64-71.12a8 8 0 00-3.45-10.78z"/><path id="l" d="M141 67.58c-3.03 2.42-6.37 4.28-10.17 4.68-.92.1-1.77.12-2.6.12-7.11 4.93-15.43 11.85-41.48 11.6-17.56-.16-18.13 13.9-14.15 24.87.11.38.25.76.41 1.14l.22.5c.23.54.46 1.07.7 1.59l14.82 33.54-42.94 5.27a10 10 0 102.44 19.85l56.31-6.91a10 10 0 007.93-13.97l-15.74-35.64c7.7-3.57 18.2-7.32 32.12-9.35 1.04 9.28 5.88 11.56 10.55 10.73l-7.41-27.66c-.61-2.27-.3-4.64.88-6.68a8.74 8.74 0 017.62-4.4 8.8 8.8 0 018.5 6.52l2.28 8.5c1.43-2.23 3.71-4.6 7.68-6.93.69-9.37-5.64-17.94-17.97-17.37z"/><path id="h" d="M71.83 113c-.23-.5-.48-1.06-.72-1.63l-.2-.45c-.18-.4-.34-.85-.5-1.34-1.49-4.14-2.2-8.1-2.12-11.66-1.78-8.48-2.92-16.77-4.02-23.55-.75-10.33-8.4-20.2-17.15-19.25-8.74.97-18.74 9.6-18.4 25.08.08 2.62.2 5.1.36 7.48l6.4-12.42a10.27 10.27 0 0113.87-4.44 10.31 10.31 0 014.44 13.87l-17.88 34.72c1.8 4.64 4 9.48 6.73 14.84 6.23 10.26 13.75 11.8 20.69 10.59l21.36-2.71L71.83 113z"/><path id="n" d="M146.78 83.98a6.5 6.5 0 10-12.55 3.36l19.7 73.52a6.5 6.5 0 0012.56-3.37l-19.7-73.51z"/><path id="f" d="M174.76 147.24a12.5 12.5 0 004.25-24.64l-20.44-3.52 7.13 26.6 9.06 1.56z"/><path id="p" d="M130.59 69.97c11.7-1.22 19.41-19.1 27.35-19.4.73-1.2 1.56-2.37 2.52-3.46.8-.91 1.68-1.72 2.59-2.48-6.81-3.63-16.53-5.37-27.27 7.92-10.54 13.04-16.58 11.42-19.9 8.33-3.34-3.09-.47 10.67 14.7 9.09z"/><path id="d" d="M137.68 118.06a9.83 9.83 0 01-7.97-3.96l-7.8-1.35a12.54 12.54 0 00-3.7-.08l-17.18 2.18c-.42.18-.84.35-1.26.53l10.39 23.51 9.35-1.18 27.09 4.67-6.58-24.55c-.77.14-1.55.23-2.34.23z"/><circle id="r" cx="178.291" cy="62.873" r="21.5"/><circle id="b" cx="39.788" cy="28.503" r="22.5"/></defs><g fill="none" fill-rule="nonzero"><g transform="rotate(-72.962 42.112 23.946)"><use fill="#000" filter="url(#a)" xlink:href="#b"/><use fill="#4E4E50" stroke="#1A1A1D" stroke-width="3" xlink:href="#b"/></g><g transform="translate(6 -1)"><use fill="#000" filter="url(#c)" xlink:href="#d"/><use fill="#4E4E50" stroke="#1A1A1D" stroke-width="3" xlink:href="#d"/></g><g transform="translate(6 -1)"><use fill="#000" filter="url(#e)" xlink:href="#f"/><use fill="#4E4E50" stroke="#1A1A1D" stroke-width="3" xlink:href="#f"/></g><g transform="translate(6 -1)"><use fill="#000" filter="url(#g)" xlink:href="#h"/><use fill="#4E4E50" stroke="#1A1A1D" stroke-width="3" xlink:href="#h"/></g><g transform="translate(6 -1)"><use fill="#000" filter="url(#i)" xlink:href="#j"/><use fill="#4E4E50" stroke="#1A1A1D" stroke-width="3" xlink:href="#j"/></g><g transform="translate(6 -1)"><use fill="#000" filter="url(#k)" xlink:href="#l"/><use fill="#6F2232" stroke="#1A1A1D" stroke-width="3" xlink:href="#l"/></g><g transform="translate(6 -1)"><use fill="#000" filter="url(#m)" xlink:href="#n"/><use fill="#6F2232" stroke="#1A1A1D" stroke-width="3" xlink:href="#n"/></g><g transform="translate(6 -1)"><use fill="#000" filter="url(#o)" xlink:href="#p"/><use fill="#6F2232" stroke="#1A1A1D" stroke-width="3" xlink:href="#p"/></g><g transform="rotate(-74.663 180.635 58.44)"><use fill="#000" filter="url(#q)" xlink:href="#r"/><use fill="#6F2232" stroke="#1A1A1D" stroke-width="3" xlink:href="#r"/></g></g></svg>