<?xml version="1.0" encoding="UTF-8"?>
<svg width="216px" height="201px" viewBox="0 0 216 201" version="1.1" xmlns="http://www.w3.org/2000/svg" xmlns:xlink="http://www.w3.org/1999/xlink">
    <title>sex-etsy-11</title>
    <defs>
        <path d="M114.1766,116.4468 C114.1695,113.8437 114.1025,111.2651 113.905,108.6308 L95.8496,111.2101 L114.1766,116.4468 Z" id="path-1"></path>
        <filter x="-77.3%" y="-85.8%" width="223.7%" height="326.4%" filterUnits="objectBoundingBox" id="filter-2">
            <feMorphology radius="1.5" operator="dilate" in="SourceAlpha" result="shadowSpreadOuter1"></feMorphology>
            <feOffset dx="0" dy="2" in="shadowSpreadOuter1" result="shadowOffsetOuter1"></feOffset>
            <feGaussianBlur stdDeviation="2" in="shadowOffsetOuter1" result="shadowBlurOuter1"></feGaussianBlur>
            <feComposite in="shadowBlurOuter1" in2="SourceAlpha" operator="out" result="shadowBlurOuter1"></feComposite>
            <feColorMatrix values="0 0 0 0 0   0 0 0 0 0   0 0 0 0 0  0 0 0 1 0" type="matrix" in="shadowBlurOuter1"></feColorMatrix>
        </filter>
        <path d="M111.3542,142.2643 L103.6815,174.0493 C102.0624,180.7593 106.1893,187.5132 112.9003,189.1333 C113.8857,189.3706 114.872,189.4849 115.8427,189.4849 C121.0882,189.4849 125.8782,186.1574 127.6355,181.087 L117.1484,143.9198 L111.3542,142.2643 Z" id="path-3"></path>
        <filter x="-35.0%" y="-14.6%" width="170.2%" height="136.8%" filterUnits="objectBoundingBox" id="filter-4">
            <feMorphology radius="1.5" operator="dilate" in="SourceAlpha" result="shadowSpreadOuter1"></feMorphology>
            <feOffset dx="0" dy="2" in="shadowSpreadOuter1" result="shadowOffsetOuter1"></feOffset>
            <feGaussianBlur stdDeviation="2" in="shadowOffsetOuter1" result="shadowBlurOuter1"></feGaussianBlur>
            <feComposite in="shadowBlurOuter1" in2="SourceAlpha" operator="out" result="shadowBlurOuter1"></feComposite>
            <feColorMatrix values="0 0 0 0 0   0 0 0 0 0   0 0 0 0 0  0 0 0 1 0" type="matrix" in="shadowBlurOuter1"></feColorMatrix>
        </filter>
        <path d="M64.8466,185.6196 C62.9179,182.7964 62.205,179.3911 62.8368,176.0307 L73.5038,119.3637 C74.1679,115.8354 76.3017,112.7289 79.3573,110.8412 C81.3788,109.5922 83.705,108.932 86.0829,108.932 C87.2724,108.932 88.455,109.098 89.5995,109.4242 L90.4445,109.6657 C91.1919,102.5668 92.6514,95.4471 94.2464,88.8055 L77.6885,82.3838 C72.3936,80.3301 69.7559,74.3506 71.8096,69.0557 C73.0533,65.8503 75.8461,63.5033 79.1195,62.7432 L66.8511,57.9816 C65.4915,59.8628 64.2747,62.0288 63.2652,64.5138 C55.3673,84.2842 53.1883,97.3174 54.5555,119.6405 C55.7218,128.0847 59.2362,132.7441 63.6263,135.3307 L57.8253,163.8394 L12.25,163.8394 C5.4844,163.8394 0,169.3238 0,176.0894 C0,182.855 5.4844,188.3394 12.25,188.3394 L67.3478,188.3394 C66.3997,187.568 65.5555,186.6574 64.8466,185.6196 Z" id="path-5"></path>
        <filter x="-9.0%" y="-5.2%" width="118.3%" height="113.3%" filterUnits="objectBoundingBox" id="filter-6">
            <feMorphology radius="1.5" operator="dilate" in="SourceAlpha" result="shadowSpreadOuter1"></feMorphology>
            <feOffset dx="0" dy="2" in="shadowSpreadOuter1" result="shadowOffsetOuter1"></feOffset>
            <feGaussianBlur stdDeviation="2" in="shadowOffsetOuter1" result="shadowBlurOuter1"></feGaussianBlur>
            <feComposite in="shadowBlurOuter1" in2="SourceAlpha" operator="out" result="shadowBlurOuter1"></feComposite>
            <feColorMatrix values="0 0 0 0 0   0 0 0 0 0   0 0 0 0 0  0 0 0 1 0" type="matrix" in="shadowBlurOuter1"></feColorMatrix>
        </filter>
        <path d="M107.489,19.1217 C107.8266,18.3439 108.2025,17.5944 108.6108,16.8719 C106.2264,7.6315 98.0908,0.584 88.0532,0.0342 C75.646,-0.6453 65.0359,8.8619 64.3563,21.2701 C63.6767,33.6782 73.1848,44.2874 85.592,44.9669 C94.2395,45.4406 102.0078,40.9641 106.1557,34.0094 C105.0249,29.1968 105.374,23.9951 107.489,19.1217 Z" id="path-7"></path>
        <filter x="-19.2%" y="-14.4%" width="138.6%" height="137.8%" filterUnits="objectBoundingBox" id="filter-8">
            <feMorphology radius="1.5" operator="dilate" in="SourceAlpha" result="shadowSpreadOuter1"></feMorphology>
            <feOffset dx="0" dy="2" in="shadowSpreadOuter1" result="shadowOffsetOuter1"></feOffset>
            <feGaussianBlur stdDeviation="2" in="shadowOffsetOuter1" result="shadowBlurOuter1"></feGaussianBlur>
            <feComposite in="shadowBlurOuter1" in2="SourceAlpha" operator="out" result="shadowBlurOuter1"></feComposite>
            <feColorMatrix values="0 0 0 0 0   0 0 0 0 0   0 0 0 0 0  0 0 0 1 0" type="matrix" in="shadowBlurOuter1"></feColorMatrix>
        </filter>
        <path d="M194.9135,167.5649 L148.0302,167.5649 L141.4722,144.3219 C137.5645,145.6948 133.2661,146.2758 129.453,146.2758 C129.452,146.2758 129.452,146.2758 129.451,146.2758 C128.6063,146.2748 127.7625,146.2485 126.9412,146.1947 L126.9226,146.1947 C126.0769,146.1947 125.2117,146.1049 124.3513,145.9271 C122.6626,145.6863 121.13,145.3191 119.8031,144.857 L129.9773,180.9163 C131.2537,185.4407 135.3816,188.5647 140.0828,188.5647 L194.9134,188.5647 C200.7122,188.5647 205.4134,183.8635 205.4134,178.0647 C205.4134,172.2659 200.7123,167.5649 194.9135,167.5649 Z" id="path-9"></path>
        <filter x="-10.9%" y="-16.1%" width="120.8%" height="139.8%" filterUnits="objectBoundingBox" id="filter-10">
            <feMorphology radius="1.5" operator="dilate" in="SourceAlpha" result="shadowSpreadOuter1"></feMorphology>
            <feOffset dx="0" dy="2" in="shadowSpreadOuter1" result="shadowOffsetOuter1"></feOffset>
            <feGaussianBlur stdDeviation="2" in="shadowOffsetOuter1" result="shadowBlurOuter1"></feGaussianBlur>
            <feComposite in="shadowBlurOuter1" in2="SourceAlpha" operator="out" result="shadowBlurOuter1"></feComposite>
            <feColorMatrix values="0 0 0 0 0   0 0 0 0 0   0 0 0 0 0  0 0 0 1 0" type="matrix" in="shadowBlurOuter1"></feColorMatrix>
        </filter>
        <path d="M149.0956,41.8323 C151.2429,46.9681 145.5449,55.6456 143.2686,64.2061 C143.478,64.7529 143.6746,65.3135 143.8564,65.8891 C145.21,70.1771 144.898,73.8738 144.2948,77.6225 C149.9603,88.7744 161.4746,85.8839 157.5658,84.2959 C153.3572,82.5861 149.3289,77.8057 156.6814,62.7319 C164.163,47.3937 158.4982,39.3294 152.3275,34.6956 C152.0253,35.8323 151.6363,36.9605 151.1542,38.0715 C150.5736,39.4089 149.8789,40.6611 149.0956,41.8323 Z" id="path-11"></path>
        <filter x="-49.5%" y="-14.7%" width="199.5%" height="135.2%" filterUnits="objectBoundingBox" id="filter-12">
            <feMorphology radius="1.5" operator="dilate" in="SourceAlpha" result="shadowSpreadOuter1"></feMorphology>
            <feOffset dx="0" dy="2" in="shadowSpreadOuter1" result="shadowOffsetOuter1"></feOffset>
            <feGaussianBlur stdDeviation="2" in="shadowOffsetOuter1" result="shadowBlurOuter1"></feGaussianBlur>
            <feComposite in="shadowBlurOuter1" in2="SourceAlpha" operator="out" result="shadowBlurOuter1"></feComposite>
            <feColorMatrix values="0 0 0 0 0   0 0 0 0 0   0 0 0 0 0  0 0 0 1 0" type="matrix" in="shadowBlurOuter1"></feColorMatrix>
        </filter>
        <ellipse id="path-13" cx="129.321576" cy="28.6004995" rx="21.4994493" ry="21.4993493"></ellipse>
        <filter x="-19.8%" y="-15.1%" width="139.5%" height="139.5%" filterUnits="objectBoundingBox" id="filter-14">
            <feMorphology radius="1.5" operator="dilate" in="SourceAlpha" result="shadowSpreadOuter1"></feMorphology>
            <feOffset dx="0" dy="2" in="shadowSpreadOuter1" result="shadowOffsetOuter1"></feOffset>
            <feGaussianBlur stdDeviation="2" in="shadowOffsetOuter1" result="shadowBlurOuter1"></feGaussianBlur>
            <feComposite in="shadowBlurOuter1" in2="SourceAlpha" operator="out" result="shadowBlurOuter1"></feComposite>
            <feColorMatrix values="0 0 0 0 0   0 0 0 0 0   0 0 0 0 0  0 0 0 1 0" type="matrix" in="shadowBlurOuter1"></feColorMatrix>
        </filter>
        <path d="M132.6318,67.3976 C133.58,69.548 133.6347,71.9396 132.7841,74.131 C131.7599,76.7691 129.5979,78.6715 126.9811,79.4057 L140.8395,84.7805 C141.6498,77.7007 143.6515,72.881 141.6624,66.5816 C137.452,53.241 126.2137,50.5721 117.5032,55.4461 C117.3969,56.5829 117.2438,57.6249 117.0534,58.5865 L127.7636,62.7433 C129.9551,63.5938 131.6846,65.2472 132.6318,67.3976 Z" id="path-15"></path>
        <filter x="-34.3%" y="-20.6%" width="167.7%" height="155.7%" filterUnits="objectBoundingBox" id="filter-16">
            <feMorphology radius="1.5" operator="dilate" in="SourceAlpha" result="shadowSpreadOuter1"></feMorphology>
            <feOffset dx="0" dy="2" in="shadowSpreadOuter1" result="shadowOffsetOuter1"></feOffset>
            <feGaussianBlur stdDeviation="2" in="shadowOffsetOuter1" result="shadowBlurOuter1"></feGaussianBlur>
            <feComposite in="shadowBlurOuter1" in2="SourceAlpha" operator="out" result="shadowBlurOuter1"></feComposite>
            <feColorMatrix values="0 0 0 0 0   0 0 0 0 0   0 0 0 0 0  0 0 0 1 0" type="matrix" in="shadowBlurOuter1"></feColorMatrix>
        </filter>
        <path d="M119.0819,142.0805 C120.5282,142.8051 122.495,143.3456 124.7479,143.6608 C125.5062,143.8214 126.264,143.9008 127.0125,143.894 C139.5813,144.7456 157.8787,139.0483 148.9715,120.4624 C146.7579,115.8432 145.101,111.7421 143.8542,108.0454 L114.3465,96.6012 C116.3464,104.7874 116.5375,111.6921 116.4647,119.4929 L88.9676,111.6362 C86.1287,110.8257 83.078,111.2466 80.5662,112.7983 C78.0535,114.3501 76.3103,116.8872 75.7644,119.7895 L65.0974,176.4565 C64.0242,182.1557 67.7742,187.645 73.4734,188.7172 C74.1297,188.8412 74.783,188.9008 75.4275,188.9008 C80.3777,188.9008 84.7849,185.3842 85.7341,180.3412 L94.2712,134.9916 L119.0819,142.0805 Z" id="path-17"></path>
        <filter x="-9.8%" y="-8.1%" width="119.7%" height="119.5%" filterUnits="objectBoundingBox" id="filter-18">
            <feMorphology radius="1.5" operator="dilate" in="SourceAlpha" result="shadowSpreadOuter1"></feMorphology>
            <feOffset dx="0" dy="2" in="shadowSpreadOuter1" result="shadowOffsetOuter1"></feOffset>
            <feGaussianBlur stdDeviation="2" in="shadowOffsetOuter1" result="shadowBlurOuter1"></feGaussianBlur>
            <feComposite in="shadowBlurOuter1" in2="SourceAlpha" operator="out" result="shadowBlurOuter1"></feComposite>
            <feColorMatrix values="0 0 0 0 0   0 0 0 0 0   0 0 0 0 0  0 0 0 1 0" type="matrix" in="shadowBlurOuter1"></feColorMatrix>
        </filter>
        <path d="M122.2285,77.0069 C123.001,77.3067 123.7969,77.4493 124.5781,77.4493 C127.1826,77.4493 129.6406,75.8731 130.6396,73.2989 C131.9384,69.9522 130.2783,66.1866 126.9316,64.8878 L55.4316,37.1378 C52.083,35.838 48.3183,37.4991 47.0205,40.8458 C45.7217,44.1925 47.3818,47.9581 50.7285,49.2569 L122.2285,77.0069 Z" id="path-19"></path>
        <filter x="-10.1%" y="-16.0%" width="120.1%" height="141.7%" filterUnits="objectBoundingBox" id="filter-20">
            <feMorphology radius="1.5" operator="dilate" in="SourceAlpha" result="shadowSpreadOuter1"></feMorphology>
            <feOffset dx="0" dy="2" in="shadowSpreadOuter1" result="shadowOffsetOuter1"></feOffset>
            <feGaussianBlur stdDeviation="2" in="shadowOffsetOuter1" result="shadowBlurOuter1"></feGaussianBlur>
            <feComposite in="shadowBlurOuter1" in2="SourceAlpha" operator="out" result="shadowBlurOuter1"></feComposite>
            <feColorMatrix values="0 0 0 0 0   0 0 0 0 0   0 0 0 0 0  0 0 0 1 0" type="matrix" in="shadowBlurOuter1"></feColorMatrix>
        </filter>
        <path d="M161.8896,112.5733 C162.8398,112.9415 163.8183,113.1163 164.7802,113.1163 C167.9863,113.1163 171.0116,111.1759 172.2411,108.0069 C173.8388,103.8878 171.7938,99.253 167.6747,97.6553 L84.3056,65.3213 C80.1865,63.7246 75.5527,65.7676 73.954,69.8877 C72.3563,74.0068 74.4013,78.6416 78.5204,80.2393 L161.8896,112.5733 Z" id="path-21"></path>
        <filter x="-8.6%" y="-13.4%" width="117.1%" height="135.2%" filterUnits="objectBoundingBox" id="filter-22">
            <feMorphology radius="1.5" operator="dilate" in="SourceAlpha" result="shadowSpreadOuter1"></feMorphology>
            <feOffset dx="0" dy="2" in="shadowSpreadOuter1" result="shadowOffsetOuter1"></feOffset>
            <feGaussianBlur stdDeviation="2" in="shadowOffsetOuter1" result="shadowBlurOuter1"></feGaussianBlur>
            <feComposite in="shadowBlurOuter1" in2="SourceAlpha" operator="out" result="shadowBlurOuter1"></feComposite>
            <feColorMatrix values="0 0 0 0 0   0 0 0 0 0   0 0 0 0 0  0 0 0 1 0" type="matrix" in="shadowBlurOuter1"></feColorMatrix>
        </filter>
    </defs>
    <g id="Page-2" stroke="none" stroke-width="1" fill="none" fill-rule="evenodd">
        <g id="sex-etsy-11" transform="translate(5.000000, 4.000000)" fill-rule="nonzero">
            <g id="Path">
                <use fill="black" fill-opacity="1" filter="url(#filter-2)" xlink:href="#path-1"></use>
                <use stroke="#1A1A1D" stroke-width="3" fill="#4E4E50" xlink:href="#path-1"></use>
            </g>
            <g id="Path">
                <use fill="black" fill-opacity="1" filter="url(#filter-4)" xlink:href="#path-3"></use>
                <use stroke="#1A1A1D" stroke-width="3" fill="#4E4E50" xlink:href="#path-3"></use>
            </g>
            <g id="Path">
                <use fill="black" fill-opacity="1" filter="url(#filter-6)" xlink:href="#path-5"></use>
                <use stroke="#1A1A1D" stroke-width="3" fill="#4E4E50" xlink:href="#path-5"></use>
            </g>
            <g id="Path">
                <use fill="black" fill-opacity="1" filter="url(#filter-8)" xlink:href="#path-7"></use>
                <use stroke="#1A1A1D" stroke-width="3" fill="#4E4E50" xlink:href="#path-7"></use>
            </g>
            <g id="Path">
                <use fill="black" fill-opacity="1" filter="url(#filter-10)" xlink:href="#path-9"></use>
                <use stroke="#1A1A1D" stroke-width="3" fill="#6F2232" xlink:href="#path-9"></use>
            </g>
            <g id="Path">
                <use fill="black" fill-opacity="1" filter="url(#filter-12)" xlink:href="#path-11"></use>
                <use stroke="#1A1A1D" stroke-width="3" fill="#6F2232" xlink:href="#path-11"></use>
            </g>
            <g id="Oval" transform="translate(129.321576, 28.600500) rotate(-75.959588) translate(-129.321576, -28.600500) ">
                <use fill="black" fill-opacity="1" filter="url(#filter-14)" xlink:href="#path-13"></use>
                <use stroke="#1A1A1D" stroke-width="3" fill="#6F2232" xlink:href="#path-13"></use>
            </g>
            <g id="Path">
                <use fill="black" fill-opacity="1" filter="url(#filter-16)" xlink:href="#path-15"></use>
                <use stroke="#1A1A1D" stroke-width="3" fill="#6F2232" xlink:href="#path-15"></use>
            </g>
            <g id="Path">
                <use fill="black" fill-opacity="1" filter="url(#filter-18)" xlink:href="#path-17"></use>
                <use stroke="#1A1A1D" stroke-width="3" fill="#6F2232" xlink:href="#path-17"></use>
            </g>
            <g id="Path">
                <use fill="black" fill-opacity="1" filter="url(#filter-20)" xlink:href="#path-19"></use>
                <use stroke="#1A1A1D" stroke-width="3" fill="#6F2232" xlink:href="#path-19"></use>
            </g>
            <g id="Path">
                <use fill="black" fill-opacity="1" filter="url(#filter-22)" xlink:href="#path-21"></use>
                <use stroke="#1A1A1D" stroke-width="3" fill="#4E4E50" xlink:href="#path-21"></use>
            </g>
        </g>
    </g>
</svg>