<svg xmlns="http://www.w3.org/2000/svg" width="274" height="200" xmlns:xlink="http://www.w3.org/1999/xlink"><title>sex-etsy-12</title><defs><circle id="b" cx="32.499" cy="153.537" r="22.5"/><filter id="a" width="137.8%" height="137.8%" x="-18.9%" y="-14.4%" filterUnits="objectBoundingBox"><feMorphology radius="1.5" operator="dilate" in="SourceAlpha" result="shadowSpreadOuter1"/><feOffset dy="2" in="shadowSpreadOuter1" result="shadowOffsetOuter1"/><feGaussianBlur stdDeviation="2" in="shadowOffsetOuter1" result="shadowBlurOuter1"/><feComposite in="shadowBlurOuter1" in2="SourceAlpha" operator="out" result="shadowBlurOuter1"/><feColorMatrix values="0 0 0 0 0 0 0 0 0 0 0 0 0 0 0 0 0 0 1 0" in="shadowBlurOuter1"/></filter><path id="d" d="M153.07 147.5c-1.37 0-2.72-.23-4.02-.68-1.97-.7-3.7-1.88-5.07-3.4l-1 .1c-1.35 1.47-3.04 2.63-4.97 3.3-1.3.45-2.65.68-4.02.68-3.2 0-6.2-1.26-8.44-3.37-.15 0-.3-.02-.45-.03l-6.93 25.9h28.8c.33-.6.62-1.2.88-1.82l20.07-1.8-6.05-22.6c-2.26 2.32-5.4 3.72-8.8 3.72z"/><filter id="c" width="135.9%" height="169.6%" x="-18%" y="-30.1%" filterUnits="objectBoundingBox"><feMorphology radius="1.5" operator="dilate" in="SourceAlpha" result="shadowSpreadOuter1"/><feOffset dy="2" in="shadowSpreadOuter1" result="shadowOffsetOuter1"/><feGaussianBlur stdDeviation="2" in="shadowOffsetOuter1" result="shadowBlurOuter1"/><feComposite in="shadowBlurOuter1" in2="SourceAlpha" operator="out" result="shadowBlurOuter1"/><feColorMatrix values="0 0 0 0 0 0 0 0 0 0 0 0 0 0 0 0 0 0 1 0" in="shadowBlurOuter1"/></filter><path id="f" d="M193.6 164.07l66.5 11.88c.76.13 1.5.2 2.22.2 5.95 0 11.22-4.26 12.3-10.3 1.2-6.8-3.32-13.3-10.1-14.52l-68.18-12.16c-1.1-.2-2.2-.25-3.3-.15l-6.8.6 6.54 24.53.8-.08z"/><filter id="e" width="119.7%" height="145.7%" x="-10.1%" y="-17.5%" filterUnits="objectBoundingBox"><feMorphology radius="1.5" operator="dilate" in="SourceAlpha" result="shadowSpreadOuter1"/><feOffset dy="2" in="shadowSpreadOuter1" result="shadowOffsetOuter1"/><feGaussianBlur stdDeviation="2" in="shadowOffsetOuter1" result="shadowBlurOuter1"/><feComposite in="shadowBlurOuter1" in2="SourceAlpha" operator="out" result="shadowBlurOuter1"/><feColorMatrix values="0 0 0 0 0 0 0 0 0 0 0 0 0 0 0 0 0 0 1 0" in="shadowBlurOuter1"/></filter><path id="h" d="M70.26 145.12c1.94-1.9 4.5-2.95 7.22-2.95 2.78 0 5.4 1.1 7.35 3.1l11.4 11.6 4.48-16.8c-5.83-1.38-11.32-2.87-16.1-4.08-9.77-3.42-21.87-.32-24.46 8.08-2.6 8.4 1.36 21.02 15.7 26.85 2.94 1.17 5.7 2.2 8.4 3.13l-14.1-14.37c-4-4.06-3.93-10.6.12-14.58z"/><filter id="g" width="142%" height="147.7%" x="-20.6%" y="-16.5%" filterUnits="objectBoundingBox"><feMorphology radius="1.5" operator="dilate" in="SourceAlpha" result="shadowSpreadOuter1"/><feOffset dy="2" in="shadowSpreadOuter1" result="shadowOffsetOuter1"/><feGaussianBlur stdDeviation="2" in="shadowOffsetOuter1" result="shadowBlurOuter1"/><feComposite in="shadowBlurOuter1" in2="SourceAlpha" operator="out" result="shadowBlurOuter1"/><feColorMatrix values="0 0 0 0 0 0 0 0 0 0 0 0 0 0 0 0 0 0 1 0" in="shadowBlurOuter1"/></filter><path id="j" d="M117.52 172.3c-1.68 4.96-6.35 8.37-11.64 8.37-1.07 0-2.14-.15-3.18-.43-6.56-1.75-10.46-8.5-8.7-15.05l1.53-5.76-12.34-12.57c-3.1-3.16-8.17-3.2-11.33-.1-3.15 3.1-3.2 8.16-.1 11.3l27.33 27.84c1.5 1.54 3.56 2.4 5.7 2.4h48.76c4.42 0 8-3.58 8-8 0-4.4-3.58-8-8-8h-36.04z"/><filter id="i" width="118.5%" height="138.8%" x="-9.2%" y="-14.8%" filterUnits="objectBoundingBox"><feMorphology radius="1.5" operator="dilate" in="SourceAlpha" result="shadowSpreadOuter1"/><feOffset dy="2" in="shadowSpreadOuter1" result="shadowOffsetOuter1"/><feGaussianBlur stdDeviation="2" in="shadowOffsetOuter1" result="shadowBlurOuter1"/><feComposite in="shadowBlurOuter1" in2="SourceAlpha" operator="out" result="shadowBlurOuter1"/><feColorMatrix values="0 0 0 0 0 0 0 0 0 0 0 0 0 0 0 0 0 0 1 0" in="shadowBlurOuter1"/></filter><path id="l" d="M117.08 74.5c0-2.2.6-4.27 1.62-6.06-.36 1.16-.56 2.4-.56 3.67 0 6.76 5.47 12.23 12.22 12.23 4.54 0 8.5-2.48 10.6-6.16-1.55 4.96-6.18 8.56-11.66 8.56-1.6 0-3.14-.32-4.55-.9.4 2.14.6 4.15.54 5.95.33.06.67.1 1 .2 6.55 1.75 10.46 8.5 8.7 15.06l-9.1 34.04c1.88 2.6 4.9 4.12 8.08 4.12 1.08 0 2.2-.18 3.27-.55 3.13-1.1 5.37-3.57 6.28-6.5.9 2.92 3.14 5.4 6.27 6.5 1.08.37 2.2.55 3.27.55 3.18 0 6.2-1.54 8.08-4.12l-9.1-34.04c-1.75-6.55 2.15-13.3 8.7-15.06.34-.1.68-.14 1-.2-.04-1.8.16-3.8.55-5.94-1.4.57-2.94.9-4.55.9-5.47 0-10.1-3.6-11.66-8.57 2.1 3.68 6.05 6.16 10.6 6.16 1.3 0 2.54-.2 3.7-.58-2.7-1.7-5.65-4.66-7.64-9.9-2.57-6.76.23-14.36 2.7-21.06.52-1.44 1.03-2.84 1.47-4.17-3.86-.76-8.33-1.27-13.4-1.27-15.76 0-25.8 4.88-29.35 6.95-1.7.67-3.12 2.04-3.78 3.9l-21.62 61.16c-1.2 3.4.58 7.1 3.96 8.3.72.25 1.45.37 2.17.37 2.7 0 5.2-1.67 6.14-4.33l16.38-46.36c-.2-.9-.34-1.86-.34-2.84zm10.15 4.53c-1.36 0-2.46-1.1-2.46-2.47 0-1.36 1.1-2.47 2.46-2.47 1.37 0 2.47 1.1 2.47 2.46 0 1.36-1.1 2.47-2.47 2.47z"/><filter id="k" width="124%" height="117.4%" x="-11.5%" y="-6.6%" filterUnits="objectBoundingBox"><feMorphology radius="1.5" operator="dilate" in="SourceAlpha" result="shadowSpreadOuter1"/><feOffset dy="2" in="shadowSpreadOuter1" result="shadowOffsetOuter1"/><feGaussianBlur stdDeviation="2" in="shadowOffsetOuter1" result="shadowBlurOuter1"/><feComposite in="shadowBlurOuter1" in2="SourceAlpha" operator="out" result="shadowBlurOuter1"/><feColorMatrix values="0 0 0 0 0 0 0 0 0 0 0 0 0 0 0 0 0 0 0.5 0" in="shadowBlurOuter1"/></filter><path id="n" d="M167.3 77.06c.07.2.2.37.3.55.83-1.64 1.3-3.5 1.3-5.5 0-1.27-.2-2.5-.55-3.66 1.03 1.8 1.62 3.85 1.62 6.06 0 .98-.13 1.93-.34 2.84l.93 2.63c2 .8 2.4 2.33 2.12 3.43-.1.4-.3.76-.53 1.06L186 123.7c.96 2.66 3.47 4.33 6.14 4.33.72 0 1.45-.12 2.17-.37 3.4-1.2 5.17-4.9 3.97-8.3L176.65 58.2c-.65-1.86-2.07-3.23-3.78-3.9-.03 0-.07-.03-.1-.05-.55 2.23-1.37 4.64-2.55 7.24-4.05 8.96-3.83 13.4-2.93 15.56z"/><filter id="m" width="153%" height="123.6%" x="-26.4%" y="-9.3%" filterUnits="objectBoundingBox"><feMorphology radius="1.5" operator="dilate" in="SourceAlpha" result="shadowSpreadOuter1"/><feOffset dy="2" in="shadowSpreadOuter1" result="shadowOffsetOuter1"/><feGaussianBlur stdDeviation="2" in="shadowOffsetOuter1" result="shadowBlurOuter1"/><feComposite in="shadowBlurOuter1" in2="SourceAlpha" operator="out" result="shadowBlurOuter1"/><feColorMatrix values="0 0 0 0 0 0 0 0 0 0 0 0 0 0 0 0 0 0 0.5 0" in="shadowBlurOuter1"/></filter><path id="p" d="M96.2 165.78c-1.4 5.33 1.75 10.82 7.1 12.24.86.23 1.73.35 2.58.35 4.42 0 8.46-2.95 9.65-7.42l17.25-64.5c1.43-5.34-1.74-10.82-7.07-12.25-5.34-1.42-10.8 1.74-12.24 7.08l-17.25 64.5z"/><filter id="o" width="145.6%" height="120.1%" x="-22.8%" y="-7.7%" filterUnits="objectBoundingBox"><feMorphology radius="1.5" operator="dilate" in="SourceAlpha" result="shadowSpreadOuter1"/><feOffset dy="2" in="shadowSpreadOuter1" result="shadowOffsetOuter1"/><feGaussianBlur stdDeviation="2" in="shadowOffsetOuter1" result="shadowBlurOuter1"/><feComposite in="shadowBlurOuter1" in2="SourceAlpha" operator="out" result="shadowBlurOuter1"/><feColorMatrix values="0 0 0 0 0 0 0 0 0 0 0 0 0 0 0 0 0 0 0.5 0" in="shadowBlurOuter1"/></filter><path id="r" d="M173.6 101.28c-1.44-5.34-6.92-8.5-12.25-7.08-5.34 1.43-8.5 6.9-7.08 12.25l17.25 64.5c1.2 4.47 5.24 7.42 9.65 7.42.86 0 1.73-.12 2.6-.35 5.33-1.42 8.5-6.9 7.07-12.24l-17.25-64.5z"/><filter id="q" width="145.6%" height="120.1%" x="-22.8%" y="-7.7%" filterUnits="objectBoundingBox"><feMorphology radius="1.5" operator="dilate" in="SourceAlpha" result="shadowSpreadOuter1"/><feOffset dy="2" in="shadowSpreadOuter1" result="shadowOffsetOuter1"/><feGaussianBlur stdDeviation="2" in="shadowOffsetOuter1" result="shadowBlurOuter1"/><feComposite in="shadowBlurOuter1" in2="SourceAlpha" operator="out" result="shadowBlurOuter1"/><feColorMatrix values="0 0 0 0 0 0 0 0 0 0 0 0 0 0 0 0 0 0 0.5 0" in="shadowBlurOuter1"/></filter><path id="t" d="M154.9 73.02c5.43 14.27 19 10.64 14.75 9.06-4.26-1.6-8.43-6.25-1.53-21.53 6.83-15.12 1.45-23-4.65-27.5-1.23 2.03-2.74 3.85-4.5 5.4 6.1 6.52-8.54 22.8-4.06 34.57z"/><filter id="s" width="198.3%" height="134.9%" x="-49.1%" y="-14.2%" filterUnits="objectBoundingBox"><feMorphology radius="1.5" operator="dilate" in="SourceAlpha" result="shadowSpreadOuter1"/><feOffset dy="2" in="shadowSpreadOuter1" result="shadowOffsetOuter1"/><feGaussianBlur stdDeviation="2" in="shadowOffsetOuter1" result="shadowBlurOuter1"/><feComposite in="shadowBlurOuter1" in2="SourceAlpha" operator="out" result="shadowBlurOuter1"/><feColorMatrix values="0 0 0 0 0 0 0 0 0 0 0 0 0 0 0 0 0 0 0.5 0" in="shadowBlurOuter1"/></filter><path id="v" d="M163.97 25.76c2.63-11.3-4.4-22.58-15.68-25.2-11.3-2.64-22.6 4.38-25.22 15.68-2.63 11.3 4.4 22.58 15.7 25.2 11.28 2.64 22.56-4.4 25.2-15.68z"/><filter id="u" width="140.5%" height="140.5%" x="-20.2%" y="-15.5%" filterUnits="objectBoundingBox"><feMorphology radius="1.5" operator="dilate" in="SourceAlpha" result="shadowSpreadOuter1"/><feOffset dy="2" in="shadowSpreadOuter1" result="shadowOffsetOuter1"/><feGaussianBlur stdDeviation="2" in="shadowOffsetOuter1" result="shadowBlurOuter1"/><feComposite in="shadowBlurOuter1" in2="SourceAlpha" operator="out" result="shadowBlurOuter1"/><feColorMatrix values="0 0 0 0 0 0 0 0 0 0 0 0 0 0 0 0 0 0 0.5 0" in="shadowBlurOuter1"/></filter></defs><g fill="none"><g fill-rule="nonzero"><g transform="translate(-6 4) rotate(-45 32.499 153.537)"><use fill="#000" filter="url(#a)" xlink:href="#b"/><use fill="#4E4E50" stroke="#1A1A1D" stroke-width="3" xlink:href="#b"/></g><g id="Path" transform="translate(-6 4)"><use fill="#000" filter="url(#c)" xlink:href="#d"/><use fill="#4E4E50" stroke="#1A1A1D" stroke-width="3" xlink:href="#d"/></g><g id="Path" transform="translate(-6 4)"><use fill="#000" filter="url(#e)" xlink:href="#f"/><use fill="#4E4E50" stroke="#1A1A1D" stroke-width="3" xlink:href="#f"/></g><g id="Path" transform="translate(-6 4)"><use fill="#000" filter="url(#g)" xlink:href="#h"/><use fill="#4E4E50" stroke="#1A1A1D" stroke-width="3" xlink:href="#h"/></g><g id="Path" transform="translate(-6 4)"><use fill="#000" filter="url(#i)" xlink:href="#j"/><use fill="#4E4E50" stroke="#1A1A1D" stroke-width="3" xlink:href="#j"/></g><g transform="translate(-6 4)"><use fill="#000" filter="url(#k)" xlink:href="#l"/><use fill="#6F2232" stroke="#1A1A1D" stroke-width="3" xlink:href="#l"/></g><g id="Path" transform="translate(-6 4)"><use fill="#000" filter="url(#m)" xlink:href="#n"/><use fill="#6F2232" stroke="#1A1A1D" stroke-width="3" xlink:href="#n"/></g><g id="Path" transform="translate(-6 4)"><use fill="#000" filter="url(#o)" xlink:href="#p"/><use fill="#6F2232" stroke="#1A1A1D" stroke-width="3" xlink:href="#p"/></g><g id="Path" transform="translate(-6 4)"><use fill="#000" filter="url(#q)" xlink:href="#r"/><use fill="#6F2232" stroke="#1A1A1D" stroke-width="3" xlink:href="#r"/></g><g id="Path" transform="translate(-6 4)"><use fill="#000" filter="url(#s)" xlink:href="#t"/><use fill="#6F2232" stroke="#1A1A1D" stroke-width="3" xlink:href="#t"/></g><g transform="translate(-6 4)"><use fill="#000" filter="url(#u)" xlink:href="#v"/><use fill="#6F2232" stroke="#1A1A1D" stroke-width="3" xlink:href="#v"/></g></g></g></svg>