<svg xmlns="http://www.w3.org/2000/svg" xmlns:xlink="http://www.w3.org/1999/xlink" width="298" height="113"><defs><filter id="o" width="128.3%" height="123.9%" x="-14.2%" y="-9.1%" filterUnits="objectBoundingBox"><feMorphology in="SourceAlpha" operator="dilate" radius="1.5" result="shadowSpreadOuter1"/><feOffset dy="2" in="shadowSpreadOuter1" result="shadowOffsetOuter1"/><feGaussianBlur in="shadowOffsetOuter1" result="shadowBlurOuter1" stdDeviation="2"/><feComposite in="shadowBlurOuter1" in2="SourceAlpha" operator="out" result="shadowBlurOuter1"/><feColorMatrix in="shadowBlurOuter1" values="0 0 0 0 0 0 0 0 0 0 0 0 0 0 0 0 0 0 0.5 0"/></filter><filter id="c" width="122.8%" height="134.6%" x="-12.3%" y="-12.9%" filterUnits="objectBoundingBox"><feMorphology in="SourceAlpha" operator="dilate" radius="1.5" result="shadowSpreadOuter1"/><feOffset dy="2" in="shadowSpreadOuter1" result="shadowOffsetOuter1"/><feGaussianBlur in="shadowOffsetOuter1" result="shadowBlurOuter1" stdDeviation="2"/><feComposite in="shadowBlurOuter1" in2="SourceAlpha" operator="out" result="shadowBlurOuter1"/><feColorMatrix in="shadowBlurOuter1" values="0 0 0 0 0 0 0 0 0 0 0 0 0 0 0 0 0 0 1 0"/></filter><filter id="e" width="109%" height="137.8%" x="-4.8%" y="-14.6%" filterUnits="objectBoundingBox"><feMorphology in="SourceAlpha" operator="dilate" radius="1.5" result="shadowSpreadOuter1"/><feOffset dy="2" in="shadowSpreadOuter1" result="shadowOffsetOuter1"/><feGaussianBlur in="shadowOffsetOuter1" result="shadowBlurOuter1" stdDeviation="2"/><feComposite in="shadowBlurOuter1" in2="SourceAlpha" operator="out" result="shadowBlurOuter1"/><feColorMatrix in="shadowBlurOuter1" values="0 0 0 0 0 0 0 0 0 0 0 0 0 0 0 0 0 0 1 0"/></filter><filter id="g" width="120.7%" height="124.8%" x="-10.4%" y="-10.5%" filterUnits="objectBoundingBox"><feMorphology in="SourceAlpha" operator="dilate" radius="1.5" result="shadowSpreadOuter1"/><feOffset dy="2" in="shadowSpreadOuter1" result="shadowOffsetOuter1"/><feGaussianBlur in="shadowOffsetOuter1" result="shadowBlurOuter1" stdDeviation="2"/><feComposite in="shadowBlurOuter1" in2="SourceAlpha" operator="out" result="shadowBlurOuter1"/><feColorMatrix in="shadowBlurOuter1" values="0 0 0 0 0 0 0 0 0 0 0 0 0 0 0 0 0 0 0.5 0"/></filter><filter id="a" width="159.5%" height="145.2%" x="-28.5%" y="-17.9%" filterUnits="objectBoundingBox"><feMorphology in="SourceAlpha" operator="dilate" radius="1.5" result="shadowSpreadOuter1"/><feOffset dy="2" in="shadowSpreadOuter1" result="shadowOffsetOuter1"/><feGaussianBlur in="shadowOffsetOuter1" result="shadowBlurOuter1" stdDeviation="2"/><feComposite in="shadowBlurOuter1" in2="SourceAlpha" operator="out" result="shadowBlurOuter1"/><feColorMatrix in="shadowBlurOuter1" values="0 0 0 0 0 0 0 0 0 0 0 0 0 0 0 0 0 0 1 0"/></filter><filter id="i" width="132.3%" height="134.9%" x="-16.1%" y="-13.4%" filterUnits="objectBoundingBox"><feMorphology in="SourceAlpha" operator="dilate" radius="1.5" result="shadowSpreadOuter1"/><feOffset dy="2" in="shadowSpreadOuter1" result="shadowOffsetOuter1"/><feGaussianBlur in="shadowOffsetOuter1" result="shadowBlurOuter1" stdDeviation="2"/><feComposite in="shadowBlurOuter1" in2="SourceAlpha" operator="out" result="shadowBlurOuter1"/><feColorMatrix in="shadowBlurOuter1" values="0 0 0 0 0 0 0 0 0 0 0 0 0 0 0 0 0 0 0.5 0"/></filter><filter id="k" width="135.2%" height="197.7%" x="-16.6%" y="-37.4%" filterUnits="objectBoundingBox"><feMorphology in="SourceAlpha" operator="dilate" radius="1.5" result="shadowSpreadOuter1"/><feOffset dy="2" in="shadowSpreadOuter1" result="shadowOffsetOuter1"/><feGaussianBlur in="shadowOffsetOuter1" result="shadowBlurOuter1" stdDeviation="2"/><feComposite in="shadowBlurOuter1" in2="SourceAlpha" operator="out" result="shadowBlurOuter1"/><feColorMatrix in="shadowBlurOuter1" values="0 0 0 0 0 0 0 0 0 0 0 0 0 0 0 0 0 0 0.5 0"/></filter><filter id="m" width="139.5%" height="139.5%" x="-19.8%" y="-15.1%" filterUnits="objectBoundingBox"><feMorphology in="SourceAlpha" operator="dilate" radius="1.5" result="shadowSpreadOuter1"/><feOffset dy="2" in="shadowSpreadOuter1" result="shadowOffsetOuter1"/><feGaussianBlur in="shadowOffsetOuter1" result="shadowBlurOuter1" stdDeviation="2"/><feComposite in="shadowBlurOuter1" in2="SourceAlpha" operator="out" result="shadowBlurOuter1"/><feColorMatrix in="shadowBlurOuter1" values="0 0 0 0 0 0 0 0 0 0 0 0 0 0 0 0 0 0 0.5 0"/></filter><path id="f" d="M94.17 56.17c-.99-.22-1.99-.4-2.99-.5l5.36 13.6c1 2.56.95 5.36-.15 7.89a10.23 10.23 0 01-9.44 6.19c-1.74 0-3.4-.44-4.87-1.22l1.3 3.24c.61 1.52.9 3.1.92 4.7 1.14.64 2.37 1.23 3.69 1.76 19.77 7.9 32.8 10.08 55.12 8.71 9.94-1.37 14.63-5.98 16.88-11.46l45.74-4.1 66.52 11.87a12.5 12.5 0 004.4-24.61l-68.17-12.17c-1.1-.2-2.2-.24-3.31-.14l-47.98 4.3a9.3 9.3 0 01-7.39 8.59l-38.67 8a9.34 9.34 0 01-7.79-1.92 9.26 9.26 0 01-3.39-7.28c.06-6.09.1-10.66.13-13.7"/><path id="d" d="M100.09 57.16c.03-3.1.1-9.83.2-20.2a9.33 9.33 0 019.3-9.21h.1a9.3 9.3 0 019.2 9.39l-.1 9.12a25.09 25.09 0 017.34-1.22c5.4-8.4 3.42-19.78-9.64-24.8-.6-.23-1.2-.41-1.79-.57a16.6 16.6 0 01-4.4-.64c-9.9-.3-19.68 5.92-47.14-9.36-6.78-3.78-11.97-3.52-15.8-1.07.48.23.95.5 1.4.82L79.5 30.75a10.27 10.27 0 013.7 4.69l4.69 11.89c1.78.62 3.6 1.3 5.47 2.04-.07 1.43 0 2.77.17 4 .1.76.26 1.48.44 2.17"/><path id="l" d="M143.17 11.34a23.82 23.82 0 017.22-3.06C145.9 2 137.98-3.86 122.46 3.25c-15.24 6.99-19.93 2.85-21.53-1.4-1.61-4.25-5.17 9.34 9.13 14.69 11.02 4.12 25.86-8.44 33.11-5.2z"/><path id="h" d="M55.98 79.63H10.5a10.5 10.5 0 000 21h61a10.5 10.5 0 009.75-14.4l-3.21-8.02c-.26-.44-.48-.9-.67-1.4L71.02 60.7l-5.97-14.9-26.52-18.4c-.13 1.61-.15 3.17-.08 4.63a10.42 10.42 0 00.64 5.43l16.9 42.18z"/><path id="p" d="M67.08 44.4L79.5 75.98a8 8 0 1014.88-5.86L81.08 36.28a8 8 0 00-2.89-3.64L47.44 11.31a8 8 0 00-9.12 13.14L67.08 44.4z"/><path id="b" d="M37.15 38.8a22.5 22.5 0 00-5.91 38.53h21.34L37.15 38.81z"/><path id="j" d="M154.77 62.3a7 7 0 00-8.27-5.44l-30.17 6.24.25-25.99a7 7 0 00-6.93-7.06c-.02 0-.05 0-.07 0a7 7 0 00-7 6.93l-.33 34.67a7 7 0 008.42 6.92l38.67-8a7 7 0 005.43-8.28z"/><circle id="n" cx="155.923" cy="31.431" r="21.499"/></defs><g fill="none" fill-rule="nonzero"><g transform="translate(5 4)"><use fill="#000" filter="url(#a)" xlink:href="#b"/><use fill="#4E4E50" stroke="#1A1A1D" stroke-width="3" xlink:href="#b"/></g><g transform="translate(5 4)"><use fill="#000" filter="url(#c)" xlink:href="#d"/><use fill="#6F2232" stroke="#1A1A1D" stroke-width="3" xlink:href="#d"/></g><g transform="translate(5 4)"><use fill="#000" filter="url(#e)" xlink:href="#f"/><use fill="#4E4E50" stroke="#1A1A1D" stroke-width="3" xlink:href="#f"/></g><g transform="translate(5 4)"><use fill="#000" filter="url(#g)" xlink:href="#h"/><use fill="#6F2232" stroke="#1A1A1D" stroke-width="3" xlink:href="#h"/></g><g transform="translate(5 4)"><use fill="#000" filter="url(#i)" xlink:href="#j"/><use fill="#6F2232" stroke="#1A1A1D" stroke-width="3" xlink:href="#j"/></g><g transform="translate(5 4)"><use fill="#000" filter="url(#k)" xlink:href="#l"/><use fill="#6F2232" stroke="#1A1A1D" stroke-width="3" xlink:href="#l"/></g><g transform="rotate(-67.076 161.44 29.66)"><use fill="#000" filter="url(#m)" xlink:href="#n"/><use fill="#6F2232" stroke="#1A1A1D" stroke-width="3" xlink:href="#n"/></g><g transform="translate(5 4)"><use fill="#000" filter="url(#o)" xlink:href="#p"/><use fill="#6F2232" stroke="#1A1A1D" stroke-width="3" xlink:href="#p"/></g></g></svg>