<svg xmlns="http://www.w3.org/2000/svg" xmlns:xlink="http://www.w3.org/1999/xlink" width="139" height="283"><defs><filter id="s" width="120.9%" height="143.3%" x="-10.4%" y="-16.6%" filterUnits="objectBoundingBox"><feMorphology in="SourceAlpha" operator="dilate" radius="1.5" result="shadowSpreadOuter1"/><feOffset dy="2" in="shadowSpreadOuter1" result="shadowOffsetOuter1"/><feGaussianBlur in="shadowOffsetOuter1" result="shadowBlurOuter1" stdDeviation="2"/><feComposite in="shadowBlurOuter1" in2="SourceAlpha" operator="out" result="shadowBlurOuter1"/><feColorMatrix in="shadowBlurOuter1" values="0 0 0 0 0 0 0 0 0 0 0 0 0 0 0 0 0 0 0.5 0"/></filter><filter id="c" width="140.2%" height="136.3%" x="-19.8%" y="-13.7%" filterUnits="objectBoundingBox"><feMorphology in="SourceAlpha" operator="dilate" radius="1.5" result="shadowSpreadOuter1"/><feOffset dy="2" in="shadowSpreadOuter1" result="shadowOffsetOuter1"/><feGaussianBlur in="shadowOffsetOuter1" result="shadowBlurOuter1" stdDeviation="2"/><feComposite in="shadowBlurOuter1" in2="SourceAlpha" operator="out" result="shadowBlurOuter1"/><feColorMatrix in="shadowBlurOuter1" values="0 0 0 0 0 0 0 0 0 0 0 0 0 0 0 0 0 0 1 0"/></filter><filter id="e" width="122.5%" height="112.2%" x="-11.3%" y="-4.8%" filterUnits="objectBoundingBox"><feMorphology in="SourceAlpha" operator="dilate" radius="1.5" result="shadowSpreadOuter1"/><feOffset dy="2" in="shadowSpreadOuter1" result="shadowOffsetOuter1"/><feGaussianBlur in="shadowOffsetOuter1" result="shadowBlurOuter1" stdDeviation="2"/><feComposite in="shadowBlurOuter1" in2="SourceAlpha" operator="out" result="shadowBlurOuter1"/><feColorMatrix in="shadowBlurOuter1" values="0 0 0 0 0 0 0 0 0 0 0 0 0 0 0 0 0 0 1 0"/></filter><filter id="g" width="138.2%" height="174.9%" x="-18.9%" y="-28.4%" filterUnits="objectBoundingBox"><feMorphology in="SourceAlpha" operator="dilate" radius="1.5" result="shadowSpreadOuter1"/><feOffset dy="2" in="shadowSpreadOuter1" result="shadowOffsetOuter1"/><feGaussianBlur in="shadowOffsetOuter1" result="shadowBlurOuter1" stdDeviation="2"/><feComposite in="shadowBlurOuter1" in2="SourceAlpha" operator="out" result="shadowBlurOuter1"/><feColorMatrix in="shadowBlurOuter1" values="0 0 0 0 0 0 0 0 0 0 0 0 0 0 0 0 0 0 1 0"/></filter><filter id="i" width="138.7%" height="141.5%" x="-19.4%" y="-18.1%" filterUnits="objectBoundingBox"><feMorphology in="SourceAlpha" operator="dilate" radius="1.5" result="shadowSpreadOuter1"/><feOffset dy="2" in="shadowSpreadOuter1" result="shadowOffsetOuter1"/><feGaussianBlur in="shadowOffsetOuter1" result="shadowBlurOuter1" stdDeviation="2"/><feComposite in="shadowBlurOuter1" in2="SourceAlpha" operator="out" result="shadowBlurOuter1"/><feColorMatrix in="shadowBlurOuter1" values="0 0 0 0 0 0 0 0 0 0 0 0 0 0 0 0 0 0 0.5 0"/></filter><filter id="a" width="132.6%" height="120.2%" x="-16.2%" y="-10.3%" filterUnits="objectBoundingBox"><feMorphology in="SourceAlpha" operator="dilate" radius="1.5" result="shadowSpreadOuter1"/><feOffset dy="2" in="shadowSpreadOuter1" result="shadowOffsetOuter1"/><feGaussianBlur in="shadowOffsetOuter1" result="shadowBlurOuter1" stdDeviation="2"/><feComposite in="shadowBlurOuter1" in2="SourceAlpha" operator="out" result="shadowBlurOuter1"/><feColorMatrix in="shadowBlurOuter1" values="0 0 0 0 0 0 0 0 0 0 0 0 0 0 0 0 0 0 1 0"/></filter><filter id="k" width="116.4%" height="120.9%" x="-8.2%" y="-8%" filterUnits="objectBoundingBox"><feMorphology in="SourceAlpha" operator="dilate" radius="1.5" result="shadowSpreadOuter1"/><feOffset dy="2" in="shadowSpreadOuter1" result="shadowOffsetOuter1"/><feGaussianBlur in="shadowOffsetOuter1" result="shadowBlurOuter1" stdDeviation="2"/><feComposite in="shadowBlurOuter1" in2="SourceAlpha" operator="out" result="shadowBlurOuter1"/><feColorMatrix in="shadowBlurOuter1" values="0 0 0 0 0 0 0 0 0 0 0 0 0 0 0 0 0 0 0.5 0"/></filter><filter id="m" width="119.1%" height="175%" x="-9.6%" y="-28.7%" filterUnits="objectBoundingBox"><feMorphology in="SourceAlpha" operator="dilate" radius="1.5" result="shadowSpreadOuter1"/><feOffset dy="2" in="shadowSpreadOuter1" result="shadowOffsetOuter1"/><feGaussianBlur in="shadowOffsetOuter1" result="shadowBlurOuter1" stdDeviation="2"/><feComposite in="shadowBlurOuter1" in2="SourceAlpha" operator="out" result="shadowBlurOuter1"/><feColorMatrix in="shadowBlurOuter1" values="0 0 0 0 0 0 0 0 0 0 0 0 0 0 0 0 0 0 0.5 0"/></filter><filter id="o" width="165.8%" height="137.5%" x="-33.4%" y="-14.8%" filterUnits="objectBoundingBox"><feMorphology in="SourceAlpha" operator="dilate" radius="1.5" result="shadowSpreadOuter1"/><feOffset dy="2" in="shadowSpreadOuter1" result="shadowOffsetOuter1"/><feGaussianBlur in="shadowOffsetOuter1" result="shadowBlurOuter1" stdDeviation="2"/><feComposite in="shadowBlurOuter1" in2="SourceAlpha" operator="out" result="shadowBlurOuter1"/><feColorMatrix in="shadowBlurOuter1" values="0 0 0 0 0 0 0 0 0 0 0 0 0 0 0 0 0 0 0.5 0"/></filter><filter id="q" width="139.5%" height="139.5%" x="-19.8%" y="-15.1%" filterUnits="objectBoundingBox"><feMorphology in="SourceAlpha" operator="dilate" radius="1.5" result="shadowSpreadOuter1"/><feOffset dy="2" in="shadowSpreadOuter1" result="shadowOffsetOuter1"/><feGaussianBlur in="shadowOffsetOuter1" result="shadowBlurOuter1" stdDeviation="2"/><feComposite in="shadowBlurOuter1" in2="SourceAlpha" operator="out" result="shadowBlurOuter1"/><feColorMatrix in="shadowBlurOuter1" values="0 0 0 0 0 0 0 0 0 0 0 0 0 0 0 0 0 0 0.5 0"/></filter><path id="d" d="M51.96 113.01c.96-4.16 2-8.16 2.97-11.87l-14.2-.77a10.24 10.24 0 01-7.1-3.4 10.3 10.3 0 018.22-17.16l14.99.8c-1.38-4.64-4.27-8.39-8.52-9.7a16.1 16.1 0 00-1.4-.36l-9.32.71c-.32.03-.65.04-.98.04 0 0-.02 0-.03 0-5.9 2.02-11.68 6.87-15.11 15.32-4.68 11.7-7.34 21.05-8.46 31.36L51.96 113z"/><path id="h" d="M84.45 42.04c.47 0 .95.02 1.43.08h.24c1.16 0 2.28.05 3.36.15a22.5 22.5 0 00-44.86 2.78l38.86-2.98c.33-.02.65-.03.97-.03z"/><path id="n" d="M89.87 123.6a6.5 6.5 0 00-1.64-12.9L12.3 120.4a6.5 6.5 0 001.65 12.9l75.92-9.69z"/><path id="b" d="M23.18 165.78l5.37 37.38-27.08 50.8a12.5 12.5 0 1022.06 11.75l28.81-54.04-1.02-5.94-28.14-39.95z"/><path id="p" d="M102.62 156.55c6.24 5.15-.16 24.1 7.93 32.91 10.33 11.24 21.59 2.83 17.05 2.94-4.54.1-10.14-2.67-9.4-19.43.77-17.19-7.79-22.27-15.34-24.03a23.9 23.9 0 01-.24 7.61z"/><path id="j" d="M84.8 100.07a10.33 10.33 0 01-7.06 2.3l-12.52-.68c-3.1 3.4-4.25 6.99-4.17 10.16l26.89-3.43a8.82 8.82 0 019.84 7.62 8.81 8.81 0 01-7.62 9.84l-10.32 1.32c.2.33.4.67.58 1.03 5.5.26 10.5 2.4 14.4 5.79 4.86-2.1 8.75-6.88 9.92-14.67 1.5-9.94-5.6-15.05-5.3-31.23L84.8 100.07z"/><path id="t" d="M101.74 62.64l-26.1 21.29-33.92-1.83a8 8 0 10-.86 15.98l37 2a8 8 0 005.49-1.8l28.5-23.25a8 8 0 10-10.11-12.4z"/><path id="f" d="M14.24 135.56a8.91 8.91 0 01-1.76.05c.07 1.97.15 4 .29 6.13.76 5.54 2.54 9.46 4.9 12.22.05.06.07.11.11.17l35.72 50.7 9.85 57.13A12.5 12.5 0 0088 257.71l-10.34-59.9a12.5 12.5 0 00-2.1-5.08l-26.98-38.3c0-2.24-.08-4.93-.25-8.15-.38-4.9-.17-10 .4-15.11l-34.48 4.4z"/><path id="l" d="M27.3 63.33a10.5 10.5 0 0010.13 5.64l34.34-2.63c.66 4.31 1.14 9.38 1.21 15.14l1.89.1 25.41-20.73a10.31 10.31 0 014.37-2.08c.3-10.9-9.45-14.45-18.9-14.35a10.5 10.5 0 00-2.1-.05l-40.9 3.13L21.13 5.68a10.5 10.5 0 00-18.65 9.65l24.83 48z"/><circle id="r" cx="79.265" cy="152" r="21.5"/></defs><g fill="none" fill-rule="nonzero"><g transform="translate(5 3)"><use fill="#000" filter="url(#a)" xlink:href="#b"/><use fill="#4E4E50" stroke="#1A1A1D" stroke-width="3" xlink:href="#b"/></g><g transform="translate(5 3)"><use fill="#000" filter="url(#c)" xlink:href="#d"/><use fill="#4E4E50" stroke="#1A1A1D" stroke-width="3" xlink:href="#d"/></g><g transform="translate(5 3)"><use fill="#000" filter="url(#e)" xlink:href="#f"/><use fill="#4E4E50" stroke="#1A1A1D" stroke-width="3" xlink:href="#f"/></g><g transform="translate(5 3)"><use fill="#000" filter="url(#g)" xlink:href="#h"/><use fill="#4E4E50" stroke="#1A1A1D" stroke-width="3" xlink:href="#h"/></g><g transform="translate(5 3)"><use fill="#000" filter="url(#i)" xlink:href="#j"/><use fill="#6F2232" stroke="#1A1A1D" stroke-width="3" xlink:href="#j"/></g><g transform="translate(5 3)"><use fill="#000" filter="url(#k)" xlink:href="#l"/><use fill="#6F2232" stroke="#1A1A1D" stroke-width="3" xlink:href="#l"/></g><g transform="translate(5 3)"><use fill="#000" filter="url(#m)" xlink:href="#n"/><use fill="#6F2232" stroke="#1A1A1D" stroke-width="3" xlink:href="#n"/></g><g transform="translate(5 3)"><use fill="#000" filter="url(#o)" xlink:href="#p"/><use fill="#6F2232" stroke="#1A1A1D" stroke-width="3" xlink:href="#p"/></g><g transform="translate(5 3)"><use fill="#000" filter="url(#q)" xlink:href="#r"/><use fill="#6F2232" stroke="#1A1A1D" stroke-width="3" xlink:href="#r"/></g><g transform="translate(5 3)"><use fill="#000" filter="url(#s)" xlink:href="#t"/><use fill="#6F2232" stroke="#1A1A1D" stroke-width="3" xlink:href="#t"/></g></g></svg>