<?xml version="1.0" encoding="UTF-8"?>
<svg width="202px" height="211px" viewBox="0 0 202 211" version="1.1" xmlns="http://www.w3.org/2000/svg" xmlns:xlink="http://www.w3.org/1999/xlink">
    <title>sex-etsy-57</title>
    <defs>
        <path d="M122.2654,138.4542 L122.1785,138.6061 C117.2801,146.4249 111.0008,150.3902 103.5174,150.3902 C103.1678,150.3902 102.8192,150.3819 102.4715,150.3653 L62.994,150.3653 L45.2022,182.1114 L45.2022,193.5196 C45.2022,196.2696 47.4522,198.5196 50.2022,198.5196 L122.8127,198.5196 C125.5627,198.5196 127.8127,196.2696 127.8127,193.5196 L127.8127,160.0384 C130.7126,159.1047 133.0925,156.8732 134.1602,153.899 L154.9065,96.133 L136.194,96.3793 C134.4246,111.2726 130.4513,122.8696 122.2654,138.4542 Z" id="path-1"></path>
        <filter x="-7.7%" y="-6.4%" width="116.1%" height="116.6%" filterUnits="objectBoundingBox" id="filter-2">
            <feMorphology radius="1.5" operator="dilate" in="SourceAlpha" result="shadowSpreadOuter1"></feMorphology>
            <feOffset dx="0" dy="2" in="shadowSpreadOuter1" result="shadowOffsetOuter1"></feOffset>
            <feGaussianBlur stdDeviation="2" in="shadowOffsetOuter1" result="shadowBlurOuter1"></feGaussianBlur>
            <feComposite in="shadowBlurOuter1" in2="SourceAlpha" operator="out" result="shadowBlurOuter1"></feComposite>
            <feColorMatrix values="0 0 0 0 0   0 0 0 0 0   0 0 0 0 0  0 0 0 1 0" type="matrix" in="shadowBlurOuter1"></feColorMatrix>
        </filter>
        <circle id="path-3" cx="110.597004" cy="29.8334963" r="22.499376"></circle>
        <filter x="-18.9%" y="-14.4%" width="137.8%" height="137.8%" filterUnits="objectBoundingBox" id="filter-4">
            <feMorphology radius="1.5" operator="dilate" in="SourceAlpha" result="shadowSpreadOuter1"></feMorphology>
            <feOffset dx="0" dy="2" in="shadowSpreadOuter1" result="shadowOffsetOuter1"></feOffset>
            <feGaussianBlur stdDeviation="2" in="shadowOffsetOuter1" result="shadowBlurOuter1"></feGaussianBlur>
            <feComposite in="shadowBlurOuter1" in2="SourceAlpha" operator="out" result="shadowBlurOuter1"></feComposite>
            <feColorMatrix values="0 0 0 0 0   0 0 0 0 0   0 0 0 0 0  0 0 0 0.5 0" type="matrix" in="shadowBlurOuter1"></feColorMatrix>
        </filter>
        <path d="M123.0238,69.5714 C123.1103,69.657 123.2034,69.7349 123.2869,69.8238 C123.9262,70.5041 124.4438,71.2533 124.8627,72.0405 C125.396,71.9632 125.9354,71.9121 126.4822,71.9049 L133.0328,71.8188 C131.8069,68.686 130.0595,66.067 128.0172,63.988 C127.2895,66.4182 125.5263,68.5116 123.0238,69.5714 Z" id="path-5"></path>
        <filter x="-95.6%" y="-99.5%" width="286.5%" height="332.3%" filterUnits="objectBoundingBox" id="filter-6">
            <feMorphology radius="1.5" operator="dilate" in="SourceAlpha" result="shadowSpreadOuter1"></feMorphology>
            <feOffset dx="0" dy="2" in="shadowSpreadOuter1" result="shadowOffsetOuter1"></feOffset>
            <feGaussianBlur stdDeviation="2" in="shadowOffsetOuter1" result="shadowBlurOuter1"></feGaussianBlur>
            <feComposite in="shadowBlurOuter1" in2="SourceAlpha" operator="out" result="shadowBlurOuter1"></feComposite>
            <feColorMatrix values="0 0 0 0 0   0 0 0 0 0   0 0 0 0 0  0 0 0 0.5 0" type="matrix" in="shadowBlurOuter1"></feColorMatrix>
        </filter>
        <path d="M130.8348,96.4498 L94.1356,124.1358 C93.8543,124.3487 93.5526,124.5538 93.1951,124.7735 C88.4217,128.5275 80.7557,132.5025 73.407,132.5025 C73.407,132.5025 73.407,132.5025 73.4061,132.5025 C69.235,132.5025 62.5794,131.1178 59.2065,123.0655 L54.3231,123.0655 C49.8006,123.0655 45.6297,125.5089 43.4188,129.4542 L10.3924,188.3815 C7.0174,194.4034 9.1629,202.0216 15.1854,205.3971 C17.119,206.4806 19.2156,206.9952 21.285,206.9952 C25.661,206.9952 29.909,204.693 32.201,200.6041 L61.6463,148.0655 L102.5272,148.0655 C108.5399,148.3639 114.8074,146.0392 120.2293,137.385 C128.3563,121.9116 132.1713,110.7112 133.8856,96.4097 L130.8348,96.4498 Z" id="path-7"></path>
        <filter x="-6.8%" y="-5.9%" width="113.7%" height="115.4%" filterUnits="objectBoundingBox" id="filter-8">
            <feMorphology radius="1.5" operator="dilate" in="SourceAlpha" result="shadowSpreadOuter1"></feMorphology>
            <feOffset dx="0" dy="2" in="shadowSpreadOuter1" result="shadowOffsetOuter1"></feOffset>
            <feGaussianBlur stdDeviation="2" in="shadowOffsetOuter1" result="shadowBlurOuter1"></feGaussianBlur>
            <feComposite in="shadowBlurOuter1" in2="SourceAlpha" operator="out" result="shadowBlurOuter1"></feComposite>
            <feColorMatrix values="0 0 0 0 0   0 0 0 0 0   0 0 0 0 0  0 0 0 0.5 0" type="matrix" in="shadowBlurOuter1"></feColorMatrix>
        </filter>
        <path d="M12.6429,48.4167 C11.0577,47.3793 9.6427,46.1796 8.3937,44.86 C3.1835,50.8086 -1.2795,60.2464 10.2031,73.9645 C20.9679,86.8252 18.2087,92.4347 14.5355,95.1073 C10.8623,97.7799 24.9124,97.6239 26.2924,82.4208 C27.4856,69.2762 7.1649,57.0317 13.8085,49.1294 C13.416,48.9033 13.0266,48.6678 12.6429,48.4167 Z" id="path-9"></path>
        <filter x="-36.4%" y="-14.0%" width="172.8%" height="134.4%" filterUnits="objectBoundingBox" id="filter-10">
            <feMorphology radius="1.5" operator="dilate" in="SourceAlpha" result="shadowSpreadOuter1"></feMorphology>
            <feOffset dx="0" dy="2" in="shadowSpreadOuter1" result="shadowOffsetOuter1"></feOffset>
            <feGaussianBlur stdDeviation="2" in="shadowOffsetOuter1" result="shadowBlurOuter1"></feGaussianBlur>
            <feComposite in="shadowBlurOuter1" in2="SourceAlpha" operator="out" result="shadowBlurOuter1"></feComposite>
            <feColorMatrix values="0 0 0 0 0   0 0 0 0 0   0 0 0 0 0  0 0 0 0.5 0" type="matrix" in="shadowBlurOuter1"></feColorMatrix>
        </filter>
        <ellipse id="path-11" cx="25.6757425" cy="28.5027406" rx="21.5002359" ry="21.5001359"></ellipse>
        <filter x="-19.8%" y="-15.1%" width="139.5%" height="139.5%" filterUnits="objectBoundingBox" id="filter-12">
            <feMorphology radius="1.5" operator="dilate" in="SourceAlpha" result="shadowSpreadOuter1"></feMorphology>
            <feOffset dx="0" dy="2" in="shadowSpreadOuter1" result="shadowOffsetOuter1"></feOffset>
            <feGaussianBlur stdDeviation="2" in="shadowOffsetOuter1" result="shadowBlurOuter1"></feGaussianBlur>
            <feComposite in="shadowBlurOuter1" in2="SourceAlpha" operator="out" result="shadowBlurOuter1"></feComposite>
            <feColorMatrix values="0 0 0 0 0   0 0 0 0 0   0 0 0 0 0  0 0 0 0.5 0" type="matrix" in="shadowBlurOuter1"></feColorMatrix>
        </filter>
        <path d="M184.1121,73.4469 L126.5125,74.2047 C126.253,74.2081 125.9945,74.2223 125.7374,74.2457 C126.6661,77.7828 125.6816,81.7082 122.8348,84.3834 L97.6981,108.005 C96.3934,109.2306 94.784,110.0983 93.0447,110.5152 L60.1699,118.3915 C64.1133,136.3494 82.4144,130.3905 91.8782,122.8822 C92.1751,122.7032 92.4681,122.5134 92.7508,122.2999 L130.0516,94.1598 L184.3758,93.4449 C189.8983,93.3722 194.3162,88.8365 194.243897,83.3146 C194.1707,77.7916 189.6493,73.3834 184.1121,73.4469 Z" id="path-13"></path>
        <filter x="-6.5%" y="-11.5%" width="112.9%" height="129.9%" filterUnits="objectBoundingBox" id="filter-14">
            <feMorphology radius="1.5" operator="dilate" in="SourceAlpha" result="shadowSpreadOuter1"></feMorphology>
            <feOffset dx="0" dy="2" in="shadowSpreadOuter1" result="shadowOffsetOuter1"></feOffset>
            <feGaussianBlur stdDeviation="2" in="shadowOffsetOuter1" result="shadowBlurOuter1"></feGaussianBlur>
            <feComposite in="shadowBlurOuter1" in2="SourceAlpha" operator="out" result="shadowBlurOuter1"></feComposite>
            <feColorMatrix values="0 0 0 0 0   0 0 0 0 0   0 0 0 0 0  0 0 0 0.5 0" type="matrix" in="shadowBlurOuter1"></feColorMatrix>
        </filter>
        <path d="M77.6527,81.048 L49.6581,72.3984 C47.4122,71.7044 45.5712,70.1778 44.4732,68.0987 C43.3761,66.0199 43.1545,63.6383 43.8491,61.392 C45.1491,57.1818 49.4016,54.569 53.7383,55.3149 C54.1137,55.3795 54.4895,55.47 54.8555,55.5829 L83.6227,64.4717 C84.868,60.4269 82.3086,55.8716 79.1595,53.2508 C79.4012,52.7261 79.3821,52.0945 79.0467,51.5723 C78.5247,50.759 77.4422,50.5231 76.6287,51.0454 C76.388,51.1999 76.2049,51.4067 76.0701,51.6379 C73.7308,51.3727 69.0194,51.9456 64.4212,52.6826 C60.7469,52.102 55.9163,51.4482 50.3045,44.4383 C40.3494,45.1532 32.4266,53.5596 36.241,67.019 C39.26,77.6785 49.3668,78.6756 55.8425,98.245 L82.4748,91.8648 C80.8268,88.635 79.1966,85.0379 77.6527,81.048 Z" id="path-15"></path>
        <filter x="-17.5%" y="-12.1%" width="134.9%" height="132.2%" filterUnits="objectBoundingBox" id="filter-16">
            <feMorphology radius="1.5" operator="dilate" in="SourceAlpha" result="shadowSpreadOuter1"></feMorphology>
            <feOffset dx="0" dy="2" in="shadowSpreadOuter1" result="shadowOffsetOuter1"></feOffset>
            <feGaussianBlur stdDeviation="2" in="shadowOffsetOuter1" result="shadowBlurOuter1"></feGaussianBlur>
            <feComposite in="shadowBlurOuter1" in2="SourceAlpha" operator="out" result="shadowBlurOuter1"></feComposite>
            <feColorMatrix values="0 0 0 0 0   0 0 0 0 0   0 0 0 0 0  0 0 0 0.5 0" type="matrix" in="shadowBlurOuter1"></feColorMatrix>
        </filter>
        <path d="M54.1744,57.78 C50.7528,56.7198 47.1056,58.642 46.046,62.0716 C44.9853,65.5015 46.9069,69.1412 50.3374,70.201 L84.9614,80.8992 C85.2306,80.9822 85.5028,81.0473 85.778,81.0947 C86.9638,81.2986 88.1887,81.1705 89.3144,80.7156 L102.19,75.5148 L108.7274,69.3712 C110.6453,67.5694 113.1492,66.5773 115.7791,66.5773 C117.5904,66.5773 119.3595,67.0658 120.9085,67.9539 L122.028,67.5017 C125.3568,66.1573 126.9647,62.3688 125.6207,59.0405 C124.275,55.7115 120.4869,54.1036 117.1591,55.4481 L86.5893,67.7956 L54.1744,57.78 Z" id="path-17"></path>
        <filter x="-10.6%" y="-24.8%" width="121.2%" height="164.8%" filterUnits="objectBoundingBox" id="filter-18">
            <feMorphology radius="1.5" operator="dilate" in="SourceAlpha" result="shadowSpreadOuter1"></feMorphology>
            <feOffset dx="0" dy="2" in="shadowSpreadOuter1" result="shadowOffsetOuter1"></feOffset>
            <feGaussianBlur stdDeviation="2" in="shadowOffsetOuter1" result="shadowBlurOuter1"></feGaussianBlur>
            <feComposite in="shadowBlurOuter1" in2="SourceAlpha" operator="out" result="shadowBlurOuter1"></feComposite>
            <feColorMatrix values="0 0 0 0 0   0 0 0 0 0   0 0 0 0 0  0 0 0 0.5 0" type="matrix" in="shadowBlurOuter1"></feColorMatrix>
        </filter>
        <path d="M92.5086,108.2784 C93.8621,107.9542 95.1082,107.2818 96.1229,106.3287 L121.2596,82.7076 C124.4793,79.6817 124.6365,74.6188 121.6112,71.399 C118.5867,68.1803 113.5233,68.0211 110.3026,71.0475 L86.7147,93.214 L52.4012,101.4347 C48.1053,102.464 45.4559,106.7818 46.4852,111.0782 C47.3651,114.7486 50.6434,117.2164 54.2586,117.2164 C54.8758,117.2164 55.5028,117.1442 56.1297,116.9942 L92.5086,108.2784 Z" id="path-19"></path>
        <filter x="-11.0%" y="-13.4%" width="121.9%" height="135.2%" filterUnits="objectBoundingBox" id="filter-20">
            <feMorphology radius="1.5" operator="dilate" in="SourceAlpha" result="shadowSpreadOuter1"></feMorphology>
            <feOffset dx="0" dy="2" in="shadowSpreadOuter1" result="shadowOffsetOuter1"></feOffset>
            <feGaussianBlur stdDeviation="2" in="shadowOffsetOuter1" result="shadowBlurOuter1"></feGaussianBlur>
            <feComposite in="shadowBlurOuter1" in2="SourceAlpha" operator="out" result="shadowBlurOuter1"></feComposite>
            <feColorMatrix values="0 0 0 0 0   0 0 0 0 0   0 0 0 0 0  0 0 0 0.5 0" type="matrix" in="shadowBlurOuter1"></feColorMatrix>
        </filter>
        <rect id="path-21" x="47.16" y="201.4249" width="13.8948" height="2.7789"></rect>
        <filter x="-61.2%" y="-233.9%" width="222.3%" height="711.8%" filterUnits="objectBoundingBox" id="filter-22">
            <feMorphology radius="1.5" operator="dilate" in="SourceAlpha" result="shadowSpreadOuter1"></feMorphology>
            <feOffset dx="0" dy="2" in="shadowSpreadOuter1" result="shadowOffsetOuter1"></feOffset>
            <feGaussianBlur stdDeviation="2" in="shadowOffsetOuter1" result="shadowBlurOuter1"></feGaussianBlur>
            <feComposite in="shadowBlurOuter1" in2="SourceAlpha" operator="out" result="shadowBlurOuter1"></feComposite>
            <feColorMatrix values="0 0 0 0 0   0 0 0 0 0   0 0 0 0 0  0 0 0 1 0" type="matrix" in="shadowBlurOuter1"></feColorMatrix>
        </filter>
        <rect id="path-23" x="111.96" y="201.4249" width="13.8948" height="2.7789"></rect>
        <filter x="-61.2%" y="-233.9%" width="222.3%" height="711.8%" filterUnits="objectBoundingBox" id="filter-24">
            <feMorphology radius="1.5" operator="dilate" in="SourceAlpha" result="shadowSpreadOuter1"></feMorphology>
            <feOffset dx="0" dy="2" in="shadowSpreadOuter1" result="shadowOffsetOuter1"></feOffset>
            <feGaussianBlur stdDeviation="2" in="shadowOffsetOuter1" result="shadowBlurOuter1"></feGaussianBlur>
            <feComposite in="shadowBlurOuter1" in2="SourceAlpha" operator="out" result="shadowBlurOuter1"></feComposite>
            <feColorMatrix values="0 0 0 0 0   0 0 0 0 0   0 0 0 0 0  0 0 0 1 0" type="matrix" in="shadowBlurOuter1"></feColorMatrix>
        </filter>
    </defs>
    <g id="Page-2" stroke="none" stroke-width="1" fill="none" fill-rule="evenodd">
        <g id="sex-etsy-57" transform="translate(2.000000, -3.000000)" fill-rule="nonzero">
            <g id="Path">
                <use fill="black" fill-opacity="1" filter="url(#filter-2)" xlink:href="#path-1"></use>
                <use stroke="#1A1A1D" stroke-width="3" fill="#4E4E50" xlink:href="#path-1"></use>
            </g>
            <g id="Oval" transform="translate(110.597004, 29.833496) rotate(-22.967618) translate(-110.597004, -29.833496) ">
                <use fill="black" fill-opacity="1" filter="url(#filter-4)" xlink:href="#path-3"></use>
                <use stroke="#1A1A1D" stroke-width="3" fill="#4E4E50" xlink:href="#path-3"></use>
            </g>
            <g id="Path">
                <use fill="black" fill-opacity="1" filter="url(#filter-6)" xlink:href="#path-5"></use>
                <use stroke="#1A1A1D" stroke-width="3" fill="#4E4E50" xlink:href="#path-5"></use>
            </g>
            <g id="Path">
                <use fill="black" fill-opacity="1" filter="url(#filter-8)" xlink:href="#path-7"></use>
                <use stroke="#1A1A1D" stroke-width="3" fill="#4E4E50" xlink:href="#path-7"></use>
            </g>
            <g id="Path">
                <use fill="black" fill-opacity="1" filter="url(#filter-10)" xlink:href="#path-9"></use>
                <use stroke="#1A1A1D" stroke-width="3" fill="#6F2232" xlink:href="#path-9"></use>
            </g>
            <g id="Oval" transform="translate(25.675743, 28.502741) rotate(-11.905478) translate(-25.675743, -28.502741) ">
                <use fill="black" fill-opacity="1" filter="url(#filter-12)" xlink:href="#path-11"></use>
                <use stroke="#1A1A1D" stroke-width="3" fill="#6F2232" xlink:href="#path-11"></use>
            </g>
            <g id="Path">
                <use fill="black" fill-opacity="1" filter="url(#filter-14)" xlink:href="#path-13"></use>
                <use stroke="#1A1A1D" stroke-width="3" fill="#6F2232" xlink:href="#path-13"></use>
            </g>
            <g id="Path">
                <use fill="black" fill-opacity="1" filter="url(#filter-16)" xlink:href="#path-15"></use>
                <use stroke="#1A1A1D" stroke-width="3" fill="#6F2232" xlink:href="#path-15"></use>
            </g>
            <g id="Path">
                <use fill="black" fill-opacity="1" filter="url(#filter-18)" xlink:href="#path-17"></use>
                <use stroke="#1A1A1D" stroke-width="3" fill="#6F2232" xlink:href="#path-17"></use>
            </g>
            <g id="Path">
                <use fill="black" fill-opacity="1" filter="url(#filter-20)" xlink:href="#path-19"></use>
                <use stroke="#1A1A1D" stroke-width="3" fill="#4E4E50" xlink:href="#path-19"></use>
            </g>
            <g id="Rectangle">
                <use fill="black" fill-opacity="1" filter="url(#filter-22)" xlink:href="#path-21"></use>
                <use stroke="#1A1A1D" stroke-width="3" fill="#4E4E50" xlink:href="#path-21"></use>
            </g>
            <g id="Rectangle">
                <use fill="black" fill-opacity="1" filter="url(#filter-24)" xlink:href="#path-23"></use>
                <use stroke="#1A1A1D" stroke-width="3" fill="#4E4E50" xlink:href="#path-23"></use>
            </g>
        </g>
    </g>
</svg>