<svg xmlns="http://www.w3.org/2000/svg" width="218" height="251" xmlns:xlink="http://www.w3.org/1999/xlink"><title>sex-etsy-41</title><defs><path id="b" d="M25.94 67.34c1.34-.6 2.76-.9 4.2-.9 4.07 0 7.75 2.38 9.42 6.07l4.2 9.36c.08-.36.18-.73.27-1.08 3.4-9.78.3-21.88-8.1-24.47-8.4-2.58-21 1.37-26.84 15.7C1.2 91.8-1 104.83.37 127.15c.34 2.42.87 4.52 1.55 6.36.46 1.9 1.36 3.72 2.73 5.3l32.86 37.6-10.3 55.7c-1.24 6.78 3.24 13.3 10.03 14.56.77.14 1.53.2 2.3.2 5.9 0 11.15-4.2 12.26-10.22L63.2 175c.7-3.75-.37-7.62-2.88-10.5l-24.56-28.1c.13-1.4.2-2.95.18-4.72-.4-5.14-.15-10.5.48-15.86L20.76 80.95c-2.32-5.18 0-11.3 5.18-13.6z"/><filter id="a" width="126.8%" height="108.9%" x="-13.4%" y="-3.4%" filterUnits="objectBoundingBox"><feMorphology radius="1.5" operator="dilate" in="SourceAlpha" result="shadowSpreadOuter1"/><feOffset dy="2" in="shadowSpreadOuter1" result="shadowOffsetOuter1"/><feGaussianBlur stdDeviation="2" in="shadowOffsetOuter1" result="shadowBlurOuter1"/><feComposite in="shadowBlurOuter1" in2="SourceAlpha" operator="out" result="shadowBlurOuter1"/><feColorMatrix values="0 0 0 0 0 0 0 0 0 0 0 0 0 0 0 0 0 0 1 0" in="shadowBlurOuter1"/></filter><circle id="d" cx="44.979" cy="30.502" r="22.499"/><filter id="c" width="137.8%" height="137.8%" x="-18.9%" y="-14.4%" filterUnits="objectBoundingBox"><feMorphology radius="1.5" operator="dilate" in="SourceAlpha" result="shadowSpreadOuter1"/><feOffset dy="2" in="shadowSpreadOuter1" result="shadowOffsetOuter1"/><feGaussianBlur stdDeviation="2" in="shadowOffsetOuter1" result="shadowBlurOuter1"/><feComposite in="shadowBlurOuter1" in2="SourceAlpha" operator="out" result="shadowBlurOuter1"/><feColorMatrix values="0 0 0 0 0 0 0 0 0 0 0 0 0 0 0 0 0 0 1 0" in="shadowBlurOuter1"/></filter><path id="f" d="M78.78 135.84c1.02.44 2.08.64 3.12.64 3.12 0 6.07-1.82 7.37-4.87 1.73-4.05-.16-8.75-4.23-10.48l-32.37-13.77-15.2-33.9c-1.82-4.02-6.56-5.83-10.6-4.02-4.02 1.8-5.82 6.55-4 10.58l16.5 36.76c.8 1.84 2.3 3.3 4.16 4.08l35.25 15z"/><filter id="e" width="125.1%" height="125.1%" x="-12.5%" y="-9.6%" filterUnits="objectBoundingBox"><feMorphology radius="1.5" operator="dilate" in="SourceAlpha" result="shadowSpreadOuter1"/><feOffset dy="2" in="shadowSpreadOuter1" result="shadowOffsetOuter1"/><feGaussianBlur stdDeviation="2" in="shadowOffsetOuter1" result="shadowBlurOuter1"/><feComposite in="shadowBlurOuter1" in2="SourceAlpha" operator="out" result="shadowBlurOuter1"/><feColorMatrix values="0 0 0 0 0 0 0 0 0 0 0 0 0 0 0 0 0 0 1 0" in="shadowBlurOuter1"/></filter><path id="h" d="M146.1 87.8c.85-1.13 1.8-2.2 2.86-3.18.9-.83 1.85-1.54 2.83-2.2-6.42-4.32-15.9-7.05-27.95 5.07-11.82 11.9-17.66 9.65-20.66 6.24-3-3.42-1.57 10.56 13.7 10.55 11.77-.02 21.27-17.02 29.2-16.5z"/><filter id="g" width="136.4%" height="166.6%" x="-17%" y="-25.5%" filterUnits="objectBoundingBox"><feMorphology radius="1.5" operator="dilate" in="SourceAlpha" result="shadowSpreadOuter1"/><feOffset dy="2" in="shadowSpreadOuter1" result="shadowOffsetOuter1"/><feGaussianBlur stdDeviation="2" in="shadowOffsetOuter1" result="shadowBlurOuter1"/><feComposite in="shadowBlurOuter1" in2="SourceAlpha" operator="out" result="shadowBlurOuter1"/><feColorMatrix values="0 0 0 0 0 0 0 0 0 0 0 0 0 0 0 0 0 0 0.5 0" in="shadowBlurOuter1"/></filter><circle id="j" cx="165.082" cy="102.119" r="21.501"/><filter id="i" width="139.5%" height="139.5%" x="-19.8%" y="-15.1%" filterUnits="objectBoundingBox"><feMorphology radius="1.5" operator="dilate" in="SourceAlpha" result="shadowSpreadOuter1"/><feOffset dy="2" in="shadowSpreadOuter1" result="shadowOffsetOuter1"/><feGaussianBlur stdDeviation="2" in="shadowOffsetOuter1" result="shadowBlurOuter1"/><feComposite in="shadowBlurOuter1" in2="SourceAlpha" operator="out" result="shadowBlurOuter1"/><feColorMatrix values="0 0 0 0 0 0 0 0 0 0 0 0 0 0 0 0 0 0 0.5 0" in="shadowBlurOuter1"/></filter><path id="l" d="M124.33 114.4c-2.98 2-3.76 6.05-1.75 9.02l19.83 29.34c1.22 1.78 3.24 2.86 5.4 2.86h39.33c3.6 0 6.5-2.9 6.5-6.5s-2.9-6.5-6.5-6.5h-35.88l-17.9-26.48c-2-2.97-6.05-3.75-9.02-1.74z"/><filter id="k" width="123.6%" height="140.2%" x="-11.8%" y="-15.4%" filterUnits="objectBoundingBox"><feMorphology radius="1.5" operator="dilate" in="SourceAlpha" result="shadowSpreadOuter1"/><feOffset dy="2" in="shadowSpreadOuter1" result="shadowOffsetOuter1"/><feGaussianBlur stdDeviation="2" in="shadowOffsetOuter1" result="shadowBlurOuter1"/><feComposite in="shadowBlurOuter1" in2="SourceAlpha" operator="out" result="shadowBlurOuter1"/><feColorMatrix values="0 0 0 0 0 0 0 0 0 0 0 0 0 0 0 0 0 0 0.5 0" in="shadowBlurOuter1"/></filter><path id="n" d="M123.47 159.87h84v7.5h-84z"/><filter id="m" width="120.2%" height="326.7%" x="-10.1%" y="-86.7%" filterUnits="objectBoundingBox"><feMorphology radius="1.5" operator="dilate" in="SourceAlpha" result="shadowSpreadOuter1"/><feOffset dy="2" in="shadowSpreadOuter1" result="shadowOffsetOuter1"/><feGaussianBlur stdDeviation="2" in="shadowOffsetOuter1" result="shadowBlurOuter1"/><feComposite in="shadowBlurOuter1" in2="SourceAlpha" operator="out" result="shadowBlurOuter1"/><feColorMatrix values="0 0 0 0 0 0 0 0 0 0 0 0 0 0 0 0 0 0 1 0" in="shadowBlurOuter1"/></filter><path id="p" d="M129.38 147.85c.97 0 1.75-.8 1.75-1.75 0-.54-.25-1.02-.63-1.34.33-1.07.62-2.54.88-4.22l-10.7-15.83c-1.32-1.94-1.8-4.28-1.35-6.6.44-2.3 1.76-4.3 3.7-5.6 1.47-1 3.17-1.52 4.93-1.52 2.93 0 5.66 1.45 7.3 3.87l5.78 8.56c.78-.43 1.62-.87 2.56-1.3 1.64-9.25-3.78-18.43-16.1-19.12-3.26 2.1-6.77 3.6-10.6 3.6-.92 0-1.77-.05-2.6-.13-7.35 4.04-16.06 9.83-40.23 7.5L85.94 119c5.23 2.23 7.67 8.3 5.45 13.5-1.63 3.82-5.36 6.28-9.5 6.28-1.38 0-2.74-.27-4.02-.82l-23.7-10.08c-.18 4.83 1 10.06 2.73 14.3.32 1.17.82 2.32 1.55 3.38l.6.87c.38.6.76 1.15 1.15 1.64l25.96 37.36-8.5 49.1c-.97 5.73 2.86 11.16 8.57 12.15.6.1 1.2.15 1.8.15 5.02 0 9.46-3.6 10.34-8.7l9.2-53.36c.48-2.72-.14-5.52-1.7-7.78l-23.23-33.44c7.52-2.26 17.1-4.24 28.96-4.73.15 14.7 11.37 13.12 16.85 8.74.27.17.6.28.93.28z"/><filter id="o" width="118.9%" height="111.8%" x="-9.5%" y="-4.5%" filterUnits="objectBoundingBox"><feMorphology radius="1.5" operator="dilate" in="SourceAlpha" result="shadowSpreadOuter1"/><feOffset dy="2" in="shadowSpreadOuter1" result="shadowOffsetOuter1"/><feGaussianBlur stdDeviation="2" in="shadowOffsetOuter1" result="shadowBlurOuter1"/><feComposite in="shadowBlurOuter1" in2="SourceAlpha" operator="out" result="shadowBlurOuter1"/><feColorMatrix values="0 0 0 0 0 0 0 0 0 0 0 0 0 0 0 0 0 0 0.5 0" in="shadowBlurOuter1"/></filter></defs><g fill="none"><g fill-rule="nonzero"><g id="Path" transform="translate(5 -3)"><use fill="#000" filter="url(#a)" xlink:href="#b"/><use fill="#4E4E50" stroke="#1A1A1D" stroke-width="3" xlink:href="#b"/></g><g id="Oval" transform="translate(5 -3) rotate(-65.183 44.979 30.502)"><use fill="#000" filter="url(#c)" xlink:href="#d"/><use fill="#4E4E50" stroke="#1A1A1D" stroke-width="3" xlink:href="#d"/></g><g id="Path" transform="translate(5 -3)"><use fill="#000" filter="url(#e)" xlink:href="#f"/><use fill="#4E4E50" stroke="#1A1A1D" stroke-width="3" xlink:href="#f"/></g><g id="Path" transform="translate(5 -3)"><use fill="#000" filter="url(#g)" xlink:href="#h"/><use fill="#6F2232" stroke="#1A1A1D" stroke-width="3" xlink:href="#h"/></g><g transform="translate(5 -3) rotate(-88.281 165.082 102.119)"><use fill="#000" filter="url(#i)" xlink:href="#j"/><use fill="#6F2232" stroke="#1A1A1D" stroke-width="3" xlink:href="#j"/></g><g id="Path" transform="translate(5 -3)"><use fill="#000" filter="url(#k)" xlink:href="#l"/><use fill="#6F2232" stroke="#1A1A1D" stroke-width="3" xlink:href="#l"/></g><g transform="translate(5 -3)"><use fill="#000" filter="url(#m)" xlink:href="#n"/><use fill="#4E4E50" stroke="#1A1A1D" stroke-width="3" xlink:href="#n"/></g><g transform="translate(5 -3)"><use fill="#000" filter="url(#o)" xlink:href="#p"/><use fill="#6F2232" stroke="#1A1A1D" stroke-width="3" xlink:href="#p"/></g></g></g></svg>