<svg xmlns="http://www.w3.org/2000/svg" xmlns:xlink="http://www.w3.org/1999/xlink" width="218" height="204"><defs><filter id="g" width="135.7%" height="191%" x="-17%" y="-34.9%" filterUnits="objectBoundingBox"><feMorphology in="SourceAlpha" operator="dilate" radius="1.5" result="shadowSpreadOuter1"/><feOffset dy="2" in="shadowSpreadOuter1" result="shadowOffsetOuter1"/><feGaussianBlur in="shadowOffsetOuter1" result="shadowBlurOuter1" stdDeviation="2"/><feComposite in="shadowBlurOuter1" in2="SourceAlpha" operator="out" result="shadowBlurOuter1"/><feColorMatrix in="shadowBlurOuter1" values="0 0 0 0 0 0 0 0 0 0 0 0 0 0 0 0 0 0 0.5 0"/></filter><filter id="m" width="132.3%" height="120.3%" x="-16.1%" y="-7.8%" filterUnits="objectBoundingBox"><feMorphology in="SourceAlpha" operator="dilate" radius="1.5" result="shadowSpreadOuter1"/><feOffset dy="2" in="shadowSpreadOuter1" result="shadowOffsetOuter1"/><feGaussianBlur in="shadowOffsetOuter1" result="shadowBlurOuter1" stdDeviation="2"/><feComposite in="shadowBlurOuter1" in2="SourceAlpha" operator="out" result="shadowBlurOuter1"/><feColorMatrix in="shadowBlurOuter1" values="0 0 0 0 0 0 0 0 0 0 0 0 0 0 0 0 0 0 0.5 0"/></filter><filter id="k" width="119.8%" height="111.3%" x="-9.9%" y="-4.3%" filterUnits="objectBoundingBox"><feMorphology in="SourceAlpha" operator="dilate" radius="1.5" result="shadowSpreadOuter1"/><feOffset dy="2" in="shadowSpreadOuter1" result="shadowOffsetOuter1"/><feGaussianBlur in="shadowOffsetOuter1" result="shadowBlurOuter1" stdDeviation="2"/><feComposite in="shadowBlurOuter1" in2="SourceAlpha" operator="out" result="shadowBlurOuter1"/><feColorMatrix in="shadowBlurOuter1" values="0 0 0 0 0 0 0 0 0 0 0 0 0 0 0 0 0 0 0.5 0"/></filter><filter id="c" width="119.3%" height="120.7%" x="-9.7%" y="-8.3%" filterUnits="objectBoundingBox"><feMorphology in="SourceAlpha" operator="dilate" radius="1.5" result="shadowSpreadOuter1"/><feOffset dy="2" in="shadowSpreadOuter1" result="shadowOffsetOuter1"/><feGaussianBlur in="shadowOffsetOuter1" result="shadowBlurOuter1" stdDeviation="2"/><feComposite in="shadowBlurOuter1" in2="SourceAlpha" operator="out" result="shadowBlurOuter1"/><feColorMatrix in="shadowBlurOuter1" values="0 0 0 0 0 0 0 0 0 0 0 0 0 0 0 0 0 0 0.5 0"/></filter><filter id="i" width="139.5%" height="139.5%" x="-19.8%" y="-15.1%" filterUnits="objectBoundingBox"><feMorphology in="SourceAlpha" operator="dilate" radius="1.5" result="shadowSpreadOuter1"/><feOffset dy="2" in="shadowSpreadOuter1" result="shadowOffsetOuter1"/><feGaussianBlur in="shadowOffsetOuter1" result="shadowBlurOuter1" stdDeviation="2"/><feComposite in="shadowBlurOuter1" in2="SourceAlpha" operator="out" result="shadowBlurOuter1"/><feColorMatrix in="shadowBlurOuter1" values="0 0 0 0 0 0 0 0 0 0 0 0 0 0 0 0 0 0 0.5 0"/></filter><filter id="e" width="125.8%" height="130.9%" x="-12.9%" y="-11.8%" filterUnits="objectBoundingBox"><feMorphology in="SourceAlpha" operator="dilate" radius="1.5" result="shadowSpreadOuter1"/><feOffset dy="2" in="shadowSpreadOuter1" result="shadowOffsetOuter1"/><feGaussianBlur in="shadowOffsetOuter1" result="shadowBlurOuter1" stdDeviation="2"/><feComposite in="shadowBlurOuter1" in2="SourceAlpha" operator="out" result="shadowBlurOuter1"/><feColorMatrix in="shadowBlurOuter1" values="0 0 0 0 0 0 0 0 0 0 0 0 0 0 0 0 0 0 0.5 0"/></filter><filter id="a" width="137.8%" height="137.8%" x="-18.9%" y="-14.4%" filterUnits="objectBoundingBox"><feMorphology in="SourceAlpha" operator="dilate" radius="1.5" result="shadowSpreadOuter1"/><feOffset dy="2" in="shadowSpreadOuter1" result="shadowOffsetOuter1"/><feGaussianBlur in="shadowOffsetOuter1" result="shadowBlurOuter1" stdDeviation="2"/><feComposite in="shadowBlurOuter1" in2="SourceAlpha" operator="out" result="shadowBlurOuter1"/><feColorMatrix in="shadowBlurOuter1" values="0 0 0 0 0 0 0 0 0 0 0 0 0 0 0 0 0 0 0.5 0"/></filter><path id="h" d="M140.76 124.8c10.26 5.76 26.85-4.38 33.52-.07a23.82 23.82 0 017.6-1.92c-3.47-6.89-10.4-13.89-26.83-9.24-16.13 4.58-20.13-.23-21.07-4.68-.93-4.44-6.53 8.45 6.78 15.91z"/><path id="f" d="M149.08 142.46a6.5 6.5 0 10-12.66 2.93l9.75 42a6.5 6.5 0 006.33 5.03h43.25a6.5 6.5 0 000-13h-38.09l-8.58-36.96z"/><path id="l" d="M73.25 192.42a12.5 12.5 0 0011.9-16.32l-19.12-59.55c.67-8.2 2.98-16.69 5.78-24.72L58.44 67.17a10.31 10.31 0 0118.12-9.82l5.21 9.62c3.84-9 2.2-20.26-5.32-23.8-7.96-3.74-21-1.59-28.78 11.8-10.58 18.48-14.56 31.07-16.33 53.37-.03 12.02 5.6 17.25 12.17 19.84l12.6 39.24H12.5a12.5 12.5 0 000 25h60.75z"/><path id="d" d="M109.07 138.98a10.32 10.32 0 01-13.96-4.15l-14.35-26.49c-5.07 2.78-8.39 9.17-9.98 15.47l16.56 51.59c1.44 4.49.64 9.44-2.13 13.25a14.75 14.75 0 01-4.5 4.02h10.54a10.5 10.5 0 0010.23-12.86l-8.6-37.28a118.5 118.5 0 0128.57 10.95c1.7 12.58 11.65 15.3 17.46 12.81l-4.73-20.38a8.74 8.74 0 011.1-6.64 8.74 8.74 0 017.48-4.15c4.1 0 7.63 2.8 8.56 6.81l2.65 11.42c.44.02.87.03 1.33.07 5.97-7.26 5.74-17.92-4.66-24.56-3.87.23-7.66-.18-11-2.05-.8-.45-1.52-.92-2.2-1.4-6.63-.06-14.52.42-27.37-6.2l3.15 5.8c2.7 5 .85 11.27-4.15 13.97z"/><path id="n" d="M74.53 58.45a8 8 0 00-14.06 7.62l36.66 67.67a8 8 0 1014.07-7.63L74.53 58.45z"/><circle id="j" cx="183.819" cy="146.548" r="21.5"/><circle id="b" cx="96.863" cy="22.504" r="22.5"/></defs><g fill="none" fill-rule="nonzero"><g transform="translate(6 4)"><use fill="#000" filter="url(#a)" xlink:href="#b"/><use fill="#4E4E50" stroke="#1A1A1D" stroke-width="3" xlink:href="#b"/></g><g transform="translate(6 4)"><use fill="#000" filter="url(#c)" xlink:href="#d"/><use fill="#6F2232" stroke="#1A1A1D" stroke-width="3" xlink:href="#d"/></g><g transform="translate(6 4)"><use fill="#000" filter="url(#e)" xlink:href="#f"/><use fill="#6F2232" stroke="#1A1A1D" stroke-width="3" xlink:href="#f"/></g><g transform="translate(6 4)"><use fill="#000" filter="url(#g)" xlink:href="#h"/><use fill="#6F2232" stroke="#1A1A1D" stroke-width="3" xlink:href="#h"/></g><g transform="rotate(-58.278 190.406 143.167)"><use fill="#000" filter="url(#i)" xlink:href="#j"/><use fill="#6F2232" stroke="#1A1A1D" stroke-width="3" xlink:href="#j"/></g><g transform="translate(6 4)"><use fill="#000" filter="url(#k)" xlink:href="#l"/><use fill="#4E4E50" stroke="#1A1A1D" stroke-width="3" xlink:href="#l"/></g><g transform="translate(6 4)"><use fill="#000" filter="url(#m)" xlink:href="#n"/><use fill="#4E4E50" stroke="#1A1A1D" stroke-width="3" xlink:href="#n"/></g></g></svg>