<svg xmlns="http://www.w3.org/2000/svg" xmlns:xlink="http://www.w3.org/1999/xlink" width="160" height="72"><defs><filter id="g" width="172.7%" height="172.7%" x="-36.4%" y="-27.3%" filterUnits="objectBoundingBox"><feMorphology in="SourceAlpha" operator="dilate" radius="1" result="shadowSpreadOuter1"/><feOffset dy="2" in="shadowSpreadOuter1" result="shadowOffsetOuter1"/><feGaussianBlur in="shadowOffsetOuter1" result="shadowBlurOuter1" stdDeviation="2"/><feComposite in="shadowBlurOuter1" in2="SourceAlpha" operator="out" result="shadowBlurOuter1"/><feColorMatrix in="shadowBlurOuter1" values="0 0 0 0 0 0 0 0 0 0 0 0 0 0 0 0 0 0 0.5 0"/></filter><filter id="m" width="140%" height="164%" x="-20%" y="-24%" filterUnits="objectBoundingBox"><feMorphology in="SourceAlpha" operator="dilate" radius="1" result="shadowSpreadOuter1"/><feOffset dy="2" in="shadowSpreadOuter1" result="shadowOffsetOuter1"/><feGaussianBlur in="shadowOffsetOuter1" result="shadowBlurOuter1" stdDeviation="2"/><feComposite in="shadowBlurOuter1" in2="SourceAlpha" operator="out" result="shadowBlurOuter1"/><feColorMatrix in="shadowBlurOuter1" values="0 0 0 0 0 0 0 0 0 0 0 0 0 0 0 0 0 0 0.5 0"/></filter><filter id="k" width="169.5%" height="169.7%" x="-34.7%" y="-26.1%" filterUnits="objectBoundingBox"><feMorphology in="SourceAlpha" operator="dilate" radius="1" result="shadowSpreadOuter1"/><feOffset dy="2" in="shadowSpreadOuter1" result="shadowOffsetOuter1"/><feGaussianBlur in="shadowOffsetOuter1" result="shadowBlurOuter1" stdDeviation="2"/><feComposite in="shadowBlurOuter1" in2="SourceAlpha" operator="out" result="shadowBlurOuter1"/><feColorMatrix in="shadowBlurOuter1" values="0 0 0 0 0 0 0 0 0 0 0 0 0 0 0 0 0 0 0.5 0"/></filter><filter id="c" width="147.1%" height="155.2%" x="-23.5%" y="-20.7%" filterUnits="objectBoundingBox"><feMorphology in="SourceAlpha" operator="dilate" radius="1" result="shadowSpreadOuter1"/><feOffset dy="2" in="shadowSpreadOuter1" result="shadowOffsetOuter1"/><feGaussianBlur in="shadowOffsetOuter1" result="shadowBlurOuter1" stdDeviation="2"/><feComposite in="shadowBlurOuter1" in2="SourceAlpha" operator="out" result="shadowBlurOuter1"/><feColorMatrix in="shadowBlurOuter1" values="0 0 0 0 0 0 0 0 0 0 0 0 0 0 0 0 0 0 0.5 0"/></filter><filter id="i" width="127.1%" height="128.6%" x="-13.6%" y="-10.7%" filterUnits="objectBoundingBox"><feMorphology in="SourceAlpha" operator="dilate" radius="1" result="shadowSpreadOuter1"/><feOffset dy="2" in="shadowSpreadOuter1" result="shadowOffsetOuter1"/><feGaussianBlur in="shadowOffsetOuter1" result="shadowBlurOuter1" stdDeviation="2"/><feComposite in="shadowBlurOuter1" in2="SourceAlpha" operator="out" result="shadowBlurOuter1"/><feColorMatrix in="shadowBlurOuter1" values="0 0 0 0 0 0 0 0 0 0 0 0 0 0 0 0 0 0 0.5 0"/></filter><filter id="e" width="166.1%" height="279.7%" x="-32%" y="-68.8%" filterUnits="objectBoundingBox"><feMorphology in="SourceAlpha" operator="dilate" radius="1" result="shadowSpreadOuter1"/><feOffset dy="2" in="shadowSpreadOuter1" result="shadowOffsetOuter1"/><feGaussianBlur in="shadowOffsetOuter1" result="shadowBlurOuter1" stdDeviation="2"/><feComposite in="shadowBlurOuter1" in2="SourceAlpha" operator="out" result="shadowBlurOuter1"/><feColorMatrix in="shadowBlurOuter1" values="0 0 0 0 0 0 0 0 0 0 0 0 0 0 0 0 0 0 0.5 0"/></filter><filter id="a" width="122.9%" height="136.4%" x="-11.4%" y="-13.6%" filterUnits="objectBoundingBox"><feMorphology in="SourceAlpha" operator="dilate" radius="1" result="shadowSpreadOuter1"/><feOffset dy="2" in="shadowSpreadOuter1" result="shadowOffsetOuter1"/><feGaussianBlur in="shadowOffsetOuter1" result="shadowBlurOuter1" stdDeviation="2"/><feComposite in="shadowBlurOuter1" in2="SourceAlpha" operator="out" result="shadowBlurOuter1"/><feColorMatrix in="shadowBlurOuter1" values="0 0 0 0 0 0 0 0 0 0 0 0 0 0 0 0 0 0 0.5 0"/></filter><path id="j" d="M47.85 14.72a5.25 5.25 0 017.31 1.56l2.74 4.24a6.54 6.54 0 00.84-5.38C57.36 10.82 52 6.65 44.26 8.41 33.62 10.9 27.5 13.81 18.5 20.96c-6.18 5.73-3.92 11.02-1.4 15 .51.81.99 1.52 1.46 2.1l8.73 13.06H6.41A6.43 6.43 0 000 57.56 6.43 6.43 0 006.41 64h32.9a6.4 6.4 0 005.67-3.41 6.47 6.47 0 00-.34-6.62l-13.2-19.74c5.7-3.46 12.38-5.87 17.67-7.82l-2.81-4.35a5.33 5.33 0 011.55-7.34z"/><path id="f" d="M116.38 29.12c5.15 2.78 13.47-2.11 16.81-.03a12.26 12.26 0 013.81-.93c-1.74-3.33-5.22-6.7-13.45-4.46-8.1 2.2-10.1-.11-10.56-2.26-.48-2.15-3.28 4.08 3.4 7.68z"/><path id="d" d="M121.61 37.65a3.35 3.35 0 00-4.02-2.56 3.43 3.43 0 00-2.5 4.11l5.02 22.15a3.37 3.37 0 003.26 2.65h22.28a3.39 3.39 0 003.35-3.43c0-1.89-1.5-3.42-3.35-3.42h-19.62l-4.42-19.5z"/><path id="n" d="M83.7 35.05a4.1 4.1 0 003.24-4.75 4 4 0 00-4.63-3.33l-18.8 3.41-9.17-14.51a3.93 3.93 0 00-5.52-1.2 4.17 4.17 0 00-1.18 5.67l10.6 16.8a3.96 3.96 0 004.05 1.8l21.41-3.9z"/><path id="b" d="M92.33 38.27a59.7 59.7 0 0114.5 5.62c.86 6.46 5.9 7.85 8.85 6.58L113.28 40a4.53 4.53 0 014.35-5.53 4.45 4.45 0 014.35 3.5l1.34 5.85c.23 0 .44.01.68.03 3.03-3.72 2.91-9.19-2.36-12.6a9.87 9.87 0 01-5.59-1.05c-.4-.23-.77-.47-1.1-.71-4.4-.05-9.87.4-20.6-7.42-6.67-4.86-10.88-.36-12.72 4.9l.69-.12a5.23 5.23 0 016.05 4.28 5.3 5.3 0 01-4.24 6.13l-2.84.51 3.52 15.45H61.33A5.36 5.36 0 0056 58.6 5.36 5.36 0 0061.33 64H91.5a5.3 5.3 0 004.17-2.03 5.43 5.43 0 001.02-4.57l-4.37-19.13z"/><ellipse id="l" cx="72.078" cy="15.104" rx="11.516" ry="11.485"/><circle id="h" cx="139" cy="40" r="11"/></defs><g fill="none" fill-rule="nonzero"><g transform="translate(5 1)"><use fill="#000" filter="url(#a)" xlink:href="#b"/><use fill="#6F2232" stroke="#1A1A1D" stroke-width="2" xlink:href="#b"/></g><g transform="translate(5 1)"><use fill="#000" filter="url(#c)" xlink:href="#d"/><use fill="#6F2232" stroke="#1A1A1D" stroke-width="2" xlink:href="#d"/></g><g transform="translate(5 1)"><use fill="#000" filter="url(#e)" xlink:href="#f"/><use fill="#6F2232" stroke="#1A1A1D" stroke-width="2" xlink:href="#f"/></g><g transform="translate(5 1)"><use fill="#000" filter="url(#g)" xlink:href="#h"/><use fill="#6F2232" stroke="#1A1A1D" stroke-width="2" xlink:href="#h"/></g><g transform="translate(5 1)"><use fill="#000" filter="url(#i)" xlink:href="#j"/><use fill="#4E4E50" stroke="#1A1A1D" stroke-width="2" xlink:href="#j"/></g><g transform="rotate(-69.697 75.296 12.013)"><use fill="#000" filter="url(#k)" xlink:href="#l"/><use fill="#4E4E50" stroke="#1A1A1D" stroke-width="2" xlink:href="#l"/></g><g transform="translate(5 1)"><use fill="#000" filter="url(#m)" xlink:href="#n"/><use fill="#4E4E50" stroke="#1A1A1D" stroke-width="2" xlink:href="#n"/></g></g></svg>