<svg xmlns="http://www.w3.org/2000/svg" width="296" height="157" xmlns:xlink="http://www.w3.org/1999/xlink"><title>sex-etsy-9</title><defs><path id="b" d="M156.43 66.33l-7.8 19.88c.9.38 1.74.77 2.58 1.15 2.2 1 4.3 1.94 6.72 2.64 4.8-4.78 9.62-7.9 13.92-9.96.6-.28 1.2-.54 1.78-.8.17-.07.34-.14.5-.2.45-.2.88-.36 1.32-.53.16-.05.32-.1.48-.17.56-.2 1.12-.4 1.68-.58.06-.02.12-.04.18-.06.5-.17 1-.32 1.48-.46.16-.04.32-.1.5-.13.4-.1.8-.2 1.2-.3.14-.04.28-.07.4-.1.53-.13 1.04-.24 1.54-.34.1 0 .18-.03.27-.04.4-.08.83-.16 1.23-.22.15-.03.3-.05.43-.07.38-.06.75-.1 1.1-.16.08 0 .16-.02.24-.03 1.95-.23 3.7-.32 5.18-.32 2.5 0 4.33.23 5.26.38l-4.5-14.72c-1.1-3.6-4.6-5.8-8.2-5.42l-29.2-1.5.4.58c2.33 3.37 2.83 7.67 1.33 11.5z"/><filter id="a" width="137.8%" height="148.5%" x="-18.6%" y="-18.6%" filterUnits="objectBoundingBox"><feMorphology radius="1.5" operator="dilate" in="SourceAlpha" result="shadowSpreadOuter1"/><feOffset dy="2" in="shadowSpreadOuter1" result="shadowOffsetOuter1"/><feGaussianBlur stdDeviation="2" in="shadowOffsetOuter1" result="shadowBlurOuter1"/><feComposite in="shadowBlurOuter1" in2="SourceAlpha" operator="out" result="shadowBlurOuter1"/><feColorMatrix values="0 0 0 0 0 0 0 0 0 0 0 0 0 0 0 0 0 0 1 0" in="shadowBlurOuter1"/></filter><path id="d" d="M35.94 110.93h81.17c-1.64-3.1-1.9-6.83-.57-10.25l10.9-27.76-10.38 3.18c-.27.08-.53.18-.8.3L85.74 48.77c-2.6-2.35-6.06-3.47-9.54-3.1-3.48.38-6.63 2.22-8.66 5.07l-36.75 51.5c-.3.42-.57.86-.8 1.3H12.35C5.53 103.56 0 109.1 0 115.93c0 6.83 5.53 12.37 12.36 12.37h12.38c-.7-1.55-1.1-3.26-1.1-5.07 0-6.78 5.52-12.3 12.3-12.3zM79.5 76.17l30.3 27.4H59.94l19.55-27.4z"/><filter id="c" width="114.2%" height="120.6%" x="-6.7%" y="-7.9%" filterUnits="objectBoundingBox"><feMorphology radius="1.5" operator="dilate" in="SourceAlpha" result="shadowSpreadOuter1"/><feOffset dy="2" in="shadowSpreadOuter1" result="shadowOffsetOuter1"/><feGaussianBlur stdDeviation="2" in="shadowOffsetOuter1" result="shadowBlurOuter1"/><feComposite in="shadowBlurOuter1" in2="SourceAlpha" operator="out" result="shadowBlurOuter1"/><feColorMatrix values="0 0 0 0 0 0 0 0 0 0 0 0 0 0 0 0 0 0 1 0" in="shadowBlurOuter1"/></filter><path id="f" d="M228.08 88.88c2.4.56 4.62 1.47 6.63 2.67 9.72-4.8 14.8-16.06 11.53-26.75-3.64-11.88-16.23-18.56-28.1-14.92-11.9 3.64-18.57 16.22-14.93 28.1 1.66 5.4 5.18 9.74 9.64 12.5 3.03-1.42 6.4-2.2 9.94-2.2 1.77 0 3.56.2 5.3.6z"/><filter id="e" width="137.8%" height="140.3%" x="-18.9%" y="-15.2%" filterUnits="objectBoundingBox"><feMorphology radius="1.5" operator="dilate" in="SourceAlpha" result="shadowSpreadOuter1"/><feOffset dy="2" in="shadowSpreadOuter1" result="shadowOffsetOuter1"/><feGaussianBlur stdDeviation="2" in="shadowOffsetOuter1" result="shadowBlurOuter1"/><feComposite in="shadowBlurOuter1" in2="SourceAlpha" operator="out" result="shadowBlurOuter1"/><feColorMatrix values="0 0 0 0 0 0 0 0 0 0 0 0 0 0 0 0 0 0 1 0" in="shadowBlurOuter1"/></filter><path id="h" d="M137.97 137.32c-1.2-2.02-1.56-4.38-1-6.66 4.6-18.52 11.74-30.73 19.17-38.8-3.8-1.26-6.86-3.02-10.48-4.37l8.63-22c1.2-3.1.8-6.6-1.1-9.35L117.38 4.32c-3.14-4.55-9.37-5.7-13.9-2.54-4.55 3.14-5.7 9.37-2.55 13.9l11.3 16.34 1.15-.87c4.57-3.38 11.03-2.4 14.4 2.15 3.4 4.57 2.42 11.03-2.14 14.4l-1.7 1.27 9.8 14.17-15.06 38.38c-1.62 4.12-.3 8.67 2.93 11.35v.36H35.94c-5.52 0-10 4.48-10 10s4.48 10 10 10h61.02c16.45.28 18.3 4.66 36.06 4.66 2.2 0 3.86-.14 5.1-.38-.05-.07-.1-.13-.15-.2z"/><filter id="g" width="114%" height="112.3%" x="-6.5%" y="-4.7%" filterUnits="objectBoundingBox"><feMorphology radius="1.5" operator="dilate" in="SourceAlpha" result="shadowSpreadOuter1"/><feOffset dy="2" in="shadowSpreadOuter1" result="shadowOffsetOuter1"/><feGaussianBlur stdDeviation="2" in="shadowOffsetOuter1" result="shadowBlurOuter1"/><feComposite in="shadowBlurOuter1" in2="SourceAlpha" operator="out" result="shadowBlurOuter1"/><feColorMatrix values="0 0 0 0 0 0 0 0 0 0 0 0 0 0 0 0 0 0 1 0" in="shadowBlurOuter1"/></filter><path id="j" d="M279.2 127l-20.35-.18c.42.2.85.4 1.26.63 6.97 3.9 9.1 9 9.7 12.47l9.3.08s.03 0 .05 0c3.56 0 6.47-2.87 6.5-6.44.03-3.6-2.86-6.53-6.45-6.56z"/><filter id="i" width="184.9%" height="229.5%" x="-53.2%" y="-49.8%" filterUnits="objectBoundingBox"><feMorphology radius="1.5" operator="dilate" in="SourceAlpha" result="shadowSpreadOuter1"/><feOffset dy="2" in="shadowSpreadOuter1" result="shadowOffsetOuter1"/><feGaussianBlur stdDeviation="2" in="shadowOffsetOuter1" result="shadowBlurOuter1"/><feComposite in="shadowBlurOuter1" in2="SourceAlpha" operator="out" result="shadowBlurOuter1"/><feColorMatrix values="0 0 0 0 0 0 0 0 0 0 0 0 0 0 0 0 0 0 1 0" in="shadowBlurOuter1"/></filter><path id="l" d="M216.67 134.04c-12-3.28-19.4-15.53-16.56-27.76 1.05-4.45 3.3-8.32 6.36-11.33-.8-3.12-1.7-5.74-2.58-7.85-.94-2.27-1.83-3.93-2.45-4.98-.8-1.93-2.54-3.44-4.74-3.87-1.16-.22-11.52-2.02-23.87 3.87-11.08 5.28-25.9 18.1-33.62 49.1-.86 3.47 1.26 7 4.75 7.87.52.12 1.05.18 1.57.18 2.9 0 5.57-1.97 6.3-4.93 9.23-37.07 28.67-42.87 37.7-43.48l.5 2.27c-2.26.12-5.15.57-8.35 1.8.02.1.03.22.03.34 0 1.36-1.1 2.46-2.46 2.46-.72 0-1.36-.3-1.8-.8-1.86 1.06-3.77 2.4-5.67 4.1.75 3.42 2.92 6.28 5.86 7.96-3.3-1.03-5.96-3.4-7.4-6.5-5.73 5.72-11.32 14.8-15.34 29.22 2.37-.9 5-1.6 8.24-1.87 1.72-.15 4-.14 6.63-.03-.45-1.26-.7-2.62-.7-4.03 0-5.48 3.6-10.1 8.56-11.67-3.68 2.1-6.16 6.06-6.16 10.6 0 6.75 5.47 12.22 12.22 12.22 1.27 0 2.5-.2 3.66-.56.32-.1.63-.23.94-.35 1.12 1.9 3.17 3.18 5.54 3.2l27.15.24c-1.8-1.65-3.2-3.55-4.33-5.46zm-37.43-8.65c1.36 0 2.46 1.1 2.46 2.46 0 1.36-1.1 2.47-2.46 2.47-1.36 0-2.47-1.1-2.47-2.47 0-1.36 1.1-2.47 2.47-2.47z"/><filter id="k" width="124.8%" height="127.6%" x="-10.4%" y="-10.5%" filterUnits="objectBoundingBox"><feMorphology radius="1.5" operator="dilate" in="SourceAlpha" result="shadowSpreadOuter1"/><feOffset dy="2" in="shadowSpreadOuter1" result="shadowOffsetOuter1"/><feGaussianBlur stdDeviation="2" in="shadowOffsetOuter1" result="shadowBlurOuter1"/><feComposite in="shadowBlurOuter1" in2="SourceAlpha" operator="out" result="shadowBlurOuter1"/><feColorMatrix values="0 0 0 0 0 0 0 0 0 0 0 0 0 0 0 0 0 0 1 0" in="shadowBlurOuter1"/></filter><path id="n" d="M259 129.46c-6.07-3.4-14.34-1.25-21.47.18-4.04 3.3-9.17 5.23-14.7 5.23-1.02 0-2.03-.08-3.03-.2 3.96 5.58 11.06 9.94 24.9 6.02 16.13-4.58 20.13.23 21.07 4.67.94 4.45 6.53-8.44-6.78-15.9z"/><filter id="m" width="139%" height="191%" x="-21.3%" y="-34.7%" filterUnits="objectBoundingBox"><feMorphology radius="1.5" operator="dilate" in="SourceAlpha" result="shadowSpreadOuter1"/><feOffset dy="2" in="shadowSpreadOuter1" result="shadowOffsetOuter1"/><feGaussianBlur stdDeviation="2" in="shadowOffsetOuter1" result="shadowBlurOuter1"/><feComposite in="shadowBlurOuter1" in2="SourceAlpha" operator="out" result="shadowBlurOuter1"/><feColorMatrix values="0 0 0 0 0 0 0 0 0 0 0 0 0 0 0 0 0 0 1 0" in="shadowBlurOuter1"/></filter><path id="p" d="M218.04 132.02c11.3 2.62 22.58-4.4 25.2-15.7 2.64-11.28-4.4-22.57-15.68-25.2-11.3-2.63-22.58 4.4-25.2 15.7-2.64 11.28 4.4 22.56 15.68 25.2z"/><filter id="o" width="140.5%" height="140.5%" x="-20.2%" y="-15.5%" filterUnits="objectBoundingBox"><feMorphology radius="1.5" operator="dilate" in="SourceAlpha" result="shadowSpreadOuter1"/><feOffset dy="2" in="shadowSpreadOuter1" result="shadowOffsetOuter1"/><feGaussianBlur stdDeviation="2" in="shadowOffsetOuter1" result="shadowBlurOuter1"/><feComposite in="shadowBlurOuter1" in2="SourceAlpha" operator="out" result="shadowBlurOuter1"/><feColorMatrix values="0 0 0 0 0 0 0 0 0 0 0 0 0 0 0 0 0 0 1 0" in="shadowBlurOuter1"/></filter><path id="r" d="M124.26 45.86c3.55-2.63 4.3-7.64 1.67-11.2-2.63-3.54-7.64-4.3-11.2-1.66l-5.92 4.4c-3.54 2.62 5.98 15.48 9.53 12.85l5.93-4.4z"/><filter id="q" width="187.3%" height="188.7%" x="-43.7%" y="-33.9%" filterUnits="objectBoundingBox"><feMorphology radius="1.5" operator="dilate" in="SourceAlpha" result="shadowSpreadOuter1"/><feOffset dy="2" in="shadowSpreadOuter1" result="shadowOffsetOuter1"/><feGaussianBlur stdDeviation="2" in="shadowOffsetOuter1" result="shadowBlurOuter1"/><feComposite in="shadowBlurOuter1" in2="SourceAlpha" operator="out" result="shadowBlurOuter1"/><feColorMatrix values="0 0 0 0 0 0 0 0 0 0 0 0 0 0 0 0 0 0 1 0" in="shadowBlurOuter1"/></filter></defs><g fill="none"><g fill-rule="nonzero"><g id="Path" transform="translate(5 3)"><use fill="#000" filter="url(#a)" xlink:href="#b"/><use fill="#4E4E50" stroke="#1A1A1D" stroke-width="3" xlink:href="#b"/></g><g id="Shape" transform="translate(5 3)"><use fill="#000" filter="url(#c)" xlink:href="#d"/><use fill="#4E4E50" stroke="#1A1A1D" stroke-width="3" xlink:href="#d"/></g><g id="Path" transform="translate(5 3)"><use fill="#000" filter="url(#e)" xlink:href="#f"/><use fill="#4E4E50" stroke="#1A1A1D" stroke-width="3" xlink:href="#f"/></g><g id="Path" transform="translate(5 3)"><use fill="#000" filter="url(#g)" xlink:href="#h"/><use fill="#6F2232" stroke="#1A1A1D" stroke-width="3" xlink:href="#h"/></g><g id="Path" transform="translate(5 3)"><use fill="#000" filter="url(#i)" xlink:href="#j"/><use fill="#4E4E50" stroke="#1A1A1D" stroke-width="3" xlink:href="#j"/></g><g transform="translate(5 3)"><use fill="#000" filter="url(#k)" xlink:href="#l"/><use fill="#6F2232" stroke="#1A1A1D" stroke-width="3" xlink:href="#l"/></g><path id="Path" fill="#000" d="M245.6 129.66h-.05s0 0 0 .02c0 0 .04 0 .06-.02z"/><g id="Path" transform="translate(5 3)"><use fill="#000" filter="url(#m)" xlink:href="#n"/><use fill="#6F2232" stroke="#1A1A1D" stroke-width="3" xlink:href="#n"/></g><g id="Path" transform="translate(5 3)"><use fill="#000" filter="url(#o)" xlink:href="#p"/><use fill="#6F2232" stroke="#1A1A1D" stroke-width="3" xlink:href="#p"/></g><g transform="translate(5 3)"><use fill="#000" filter="url(#q)" xlink:href="#r"/><use fill="#4E4E50" stroke="#1A1A1D" stroke-width="3" xlink:href="#r"/></g></g></g></svg>