<svg xmlns="http://www.w3.org/2000/svg" width="175" height="243" xmlns:xlink="http://www.w3.org/1999/xlink"><title>sex-etsy-25</title><defs><path id="b" d="M56.82 138.4L62.5 125l-13.92-9.63c-.97-.67-1.8-1.5-2.5-2.46l-5.66-7.87c-2.48-1.03-4.42-3.15-5.15-5.86-.14-.56-.23-1.12-.27-1.68L24.13 82.35c-1.6-2.23-2.24-4.96-1.8-7.67.45-2.73 1.92-5.1 4.16-6.7 1.75-1.28 3.82-1.95 6-1.95 3.3 0 6.43 1.6 8.36 4.3l11 15.3 1.3-.36c-1.96-4.85-3.7-9.47-5.3-13.5-2.96-9.92-12.55-17.92-20.88-15.1-8.34 2.8-16.25 13.4-12.58 28.44 3.34 13.38 7 23.07 13 32.94.46.24.9.5 1.35.8l28.07 19.52z"/><filter id="a" width="135.4%" height="121.6%" x="-17.3%" y="-7.9%" filterUnits="objectBoundingBox"><feMorphology radius="1.5" operator="dilate" in="SourceAlpha" result="shadowSpreadOuter1"/><feOffset dy="2" in="shadowSpreadOuter1" result="shadowOffsetOuter1"/><feGaussianBlur stdDeviation="2" in="shadowOffsetOuter1" result="shadowBlurOuter1"/><feComposite in="shadowBlurOuter1" in2="SourceAlpha" operator="out" result="shadowBlurOuter1"/><feColorMatrix values="0 0 0 0 0 0 0 0 0 0 0 0 0 0 0 0 0 0 1 0" in="shadowBlurOuter1"/></filter><path id="d" d="M87.58 142.37L84 139.9l-8.52 20.04 4.6 5.1-26.25 55.2c-2.97 6.22-.32 13.68 5.92 16.65 1.73.8 3.56 1.2 5.36 1.2 4.68 0 9.16-2.63 11.3-7.13l29.83-62.7c2.17-4.56 1.38-9.97-2-13.72l-9.38-10.46c-.46.06-.93.1-1.4.1-2.1 0-4.14-.63-5.87-1.83z"/><filter id="c" width="131%" height="118.1%" x="-15.5%" y="-7.4%" filterUnits="objectBoundingBox"><feMorphology radius="1.5" operator="dilate" in="SourceAlpha" result="shadowSpreadOuter1"/><feOffset dy="2" in="shadowSpreadOuter1" result="shadowOffsetOuter1"/><feGaussianBlur stdDeviation="2" in="shadowOffsetOuter1" result="shadowBlurOuter1"/><feComposite in="shadowBlurOuter1" in2="SourceAlpha" operator="out" result="shadowBlurOuter1"/><feColorMatrix values="0 0 0 0 0 0 0 0 0 0 0 0 0 0 0 0 0 0 1 0" in="shadowBlurOuter1"/></filter><circle id="f" cx="29.501" cy="29.503" r="22.499"/><filter id="e" width="137.8%" height="137.8%" x="-18.9%" y="-14.4%" filterUnits="objectBoundingBox"><feMorphology radius="1.5" operator="dilate" in="SourceAlpha" result="shadowSpreadOuter1"/><feOffset dy="2" in="shadowSpreadOuter1" result="shadowOffsetOuter1"/><feGaussianBlur stdDeviation="2" in="shadowOffsetOuter1" result="shadowBlurOuter1"/><feComposite in="shadowBlurOuter1" in2="SourceAlpha" operator="out" result="shadowBlurOuter1"/><feColorMatrix values="0 0 0 0 0 0 0 0 0 0 0 0 0 0 0 0 0 0 1 0" in="shadowBlurOuter1"/></filter><path id="h" d="M104.86 55.03c10.68-4.95 12.18-24.33 19.58-27.22.3-1.36.7-2.73 1.27-4.08.48-1.12 1.02-2.18 1.63-3.2-7.62-1.2-17.36.3-23.2 16.34C98.4 52.62 92.15 53.04 88 51.2c-4.16-1.84 3 10.24 16.86 3.83z"/><filter id="g" width="144.4%" height="146.3%" x="-21%" y="-17.7%" filterUnits="objectBoundingBox"><feMorphology radius="1.5" operator="dilate" in="SourceAlpha" result="shadowSpreadOuter1"/><feOffset dy="2" in="shadowSpreadOuter1" result="shadowOffsetOuter1"/><feGaussianBlur stdDeviation="2" in="shadowOffsetOuter1" result="shadowBlurOuter1"/><feComposite in="shadowBlurOuter1" in2="SourceAlpha" operator="out" result="shadowBlurOuter1"/><feColorMatrix values="0 0 0 0 0 0 0 0 0 0 0 0 0 0 0 0 0 0 0.5 0" in="shadowBlurOuter1"/></filter><circle id="j" cx="147.692" cy="32.849" r="21.5"/><filter id="i" width="139.5%" height="139.5%" x="-19.8%" y="-15.1%" filterUnits="objectBoundingBox"><feMorphology radius="1.5" operator="dilate" in="SourceAlpha" result="shadowSpreadOuter1"/><feOffset dy="2" in="shadowSpreadOuter1" result="shadowOffsetOuter1"/><feGaussianBlur stdDeviation="2" in="shadowOffsetOuter1" result="shadowBlurOuter1"/><feComposite in="shadowBlurOuter1" in2="SourceAlpha" operator="out" result="shadowBlurOuter1"/><feColorMatrix values="0 0 0 0 0 0 0 0 0 0 0 0 0 0 0 0 0 0 0.5 0" in="shadowBlurOuter1"/></filter><path id="l" d="M148.16 97.5c.9.23 1.84-.3 2.1-1.2.26-.94-.28-1.9-1.2-2.17-.27-.07-.53-.08-.78-.04-.67-2.43-2.42-6.3-4.27-10-.53-3.7-1.34-8.5 3.68-15.94-3.65-9.3-14.03-14.36-25.74-6.7-3.08 2-4.9 4.43-6.6 7.23l9.83-2.64c.75-.2 1.5-.3 2.28-.3 3.97 0 7.47 2.7 8.5 6.54 1.25 4.7-1.55 9.52-6.24 10.77L92.55 93c-3 1.78-6.43 3.6-10.42 5.48-1.8.83-3.3 1.74-4.57 2.7-2 1.1-3.64 2.83-4.6 5.08l-.3.72 26.66 18.45c.4.27.75.57 1.1.88 5.32-7.22 13.96-17.26 28.72-27.18 7.9 12.63 16.8 5.05 19.04-1.6z"/><filter id="k" width="122.3%" height="125.9%" x="-11.4%" y="-9.5%" filterUnits="objectBoundingBox"><feMorphology radius="1.5" operator="dilate" in="SourceAlpha" result="shadowSpreadOuter1"/><feOffset dy="2" in="shadowSpreadOuter1" result="shadowOffsetOuter1"/><feGaussianBlur stdDeviation="2" in="shadowOffsetOuter1" result="shadowBlurOuter1"/><feComposite in="shadowBlurOuter1" in2="SourceAlpha" operator="out" result="shadowBlurOuter1"/><feColorMatrix values="0 0 0 0 0 0 0 0 0 0 0 0 0 0 0 0 0 0 0.5 0" in="shadowBlurOuter1"/></filter><path id="n" d="M64.43 126.34l-6.6 15.56-30.4-21.12c-4.75-3.3-11.3-2.13-14.6 2.63-3.32 4.77-2.14 11.3 2.62 14.62l41 28.5c1.78 1.24 3.87 1.88 6 1.88.97 0 1.95-.14 2.9-.4 3.04-.9 5.52-3.1 6.76-6l9.96-23.45-17.63-12.2z"/><filter id="m" width="124.4%" height="134.3%" x="-12%" y="-13.1%" filterUnits="objectBoundingBox"><feMorphology radius="1.5" operator="dilate" in="SourceAlpha" result="shadowSpreadOuter1"/><feOffset dy="2" in="shadowSpreadOuter1" result="shadowOffsetOuter1"/><feGaussianBlur stdDeviation="2" in="shadowOffsetOuter1" result="shadowBlurOuter1"/><feComposite in="shadowBlurOuter1" in2="SourceAlpha" operator="out" result="shadowBlurOuter1"/><feColorMatrix values="0 0 0 0 0 0 0 0 0 0 0 0 0 0 0 0 0 0 0.5 0" in="shadowBlurOuter1"/></filter><path id="p" d="M41.5 88.4l7.97-2.13L39 71.7c-2.6-3.6-7.58-4.42-11.17-1.84-3.6 2.58-4.4 7.57-1.83 11.16l9.43 13.12c.9-2.72 3.1-4.95 6.08-5.74z"/><filter id="o" width="172%" height="176.5%" x="-34%" y="-25.2%" filterUnits="objectBoundingBox"><feMorphology radius="1.5" operator="dilate" in="SourceAlpha" result="shadowSpreadOuter1"/><feOffset dy="2" in="shadowSpreadOuter1" result="shadowOffsetOuter1"/><feGaussianBlur stdDeviation="2" in="shadowOffsetOuter1" result="shadowBlurOuter1"/><feComposite in="shadowBlurOuter1" in2="SourceAlpha" operator="out" result="shadowBlurOuter1"/><feColorMatrix values="0 0 0 0 0 0 0 0 0 0 0 0 0 0 0 0 0 0 1 0" in="shadowBlurOuter1"/></filter><path id="r" d="M98 127.32L60.7 101.5l-14.65 3.9c-.75.2-1.52.3-2.28.3 0 0-.03 0-.04 0l4.22 5.87c.53.74 1.2 1.4 1.94 1.9l39 27c1.38.97 2.97 1.43 4.54 1.43 2.53 0 5.03-1.2 6.58-3.45 2.52-3.63 1.6-8.6-2.02-11.13z"/><filter id="q" width="131.9%" height="142.4%" x="-17.2%" y="-16.4%" filterUnits="objectBoundingBox"><feMorphology radius="1.5" operator="dilate" in="SourceAlpha" result="shadowSpreadOuter1"/><feOffset dy="2" in="shadowSpreadOuter1" result="shadowOffsetOuter1"/><feGaussianBlur stdDeviation="2" in="shadowOffsetOuter1" result="shadowBlurOuter1"/><feComposite in="shadowBlurOuter1" in2="SourceAlpha" operator="out" result="shadowBlurOuter1"/><feColorMatrix values="0 0 0 0 0 0 0 0 0 0 0 0 0 0 0 0 0 0 1 0" in="shadowBlurOuter1"/></filter><path id="t" d="M42.1 90.62c-3.47.93-5.53 4.5-4.6 7.96.77 2.9 3.4 4.82 6.27 4.82.56 0 1.12-.07 1.68-.22l83.67-22.33c3.47-.93 5.53-4.5 4.6-7.96-.92-3.48-4.48-5.54-7.95-4.6L42.1 90.6z"/><filter id="s" width="117.6%" height="148.1%" x="-8.8%" y="-18.4%" filterUnits="objectBoundingBox"><feMorphology radius="1.5" operator="dilate" in="SourceAlpha" result="shadowSpreadOuter1"/><feOffset dy="2" in="shadowSpreadOuter1" result="shadowOffsetOuter1"/><feGaussianBlur stdDeviation="2" in="shadowOffsetOuter1" result="shadowBlurOuter1"/><feComposite in="shadowBlurOuter1" in2="SourceAlpha" operator="out" result="shadowBlurOuter1"/><feColorMatrix values="0 0 0 0 0 0 0 0 0 0 0 0 0 0 0 0 0 0 0.5 0" in="shadowBlurOuter1"/></filter></defs><g fill="none"><g fill-rule="nonzero"><g id="Path" transform="translate(-1 -3)"><use fill="#000" filter="url(#a)" xlink:href="#b"/><use fill="#4E4E50" stroke="#1A1A1D" stroke-width="3" xlink:href="#b"/></g><g id="Path" transform="translate(-1 -3)"><use fill="#000" filter="url(#c)" xlink:href="#d"/><use fill="#4E4E50" stroke="#1A1A1D" stroke-width="3" xlink:href="#d"/></g><g id="Oval" transform="translate(-1 -3) rotate(-20.764 29.501 29.503)"><use fill="#000" filter="url(#e)" xlink:href="#f"/><use fill="#4E4E50" stroke="#1A1A1D" stroke-width="3" xlink:href="#f"/></g><g id="Path" transform="translate(-1 -3)"><use fill="#000" filter="url(#g)" xlink:href="#h"/><use fill="#6F2232" stroke="#1A1A1D" stroke-width="3" xlink:href="#h"/></g><g transform="translate(-1 -3) rotate(-39.323 147.692 32.849)"><use fill="#000" filter="url(#i)" xlink:href="#j"/><use fill="#6F2232" stroke="#1A1A1D" stroke-width="3" xlink:href="#j"/></g><g id="Path" transform="translate(-1 -3)"><use fill="#000" filter="url(#k)" xlink:href="#l"/><use fill="#6F2232" stroke="#1A1A1D" stroke-width="3" xlink:href="#l"/></g><g id="Path" transform="translate(-1 -3)"><use fill="#000" filter="url(#m)" xlink:href="#n"/><use fill="#6F2232" stroke="#1A1A1D" stroke-width="3" xlink:href="#n"/></g><g id="Path" transform="translate(-1 -3)"><use fill="#000" filter="url(#o)" xlink:href="#p"/><use fill="#4E4E50" stroke="#1A1A1D" stroke-width="3" xlink:href="#p"/></g><g id="Path" transform="translate(-1 -3)"><use fill="#000" filter="url(#q)" xlink:href="#r"/><use fill="#4E4E50" stroke="#1A1A1D" stroke-width="3" xlink:href="#r"/></g><g transform="translate(-1 -3)"><use fill="#000" filter="url(#s)" xlink:href="#t"/><use fill="#6F2232" stroke="#1A1A1D" stroke-width="3" xlink:href="#t"/></g></g></g></svg>