<svg xmlns="http://www.w3.org/2000/svg" width="178" height="249" xmlns:xlink="http://www.w3.org/1999/xlink"><title>sex-etsy-56</title><defs><path id="b" d="M73.3 163.45l6.85-11.7c-3.2-.28-6.1-2.02-7.8-4.8-.14-.2-.26-.43-.37-.65-1.2.18-2.4.3-3.6.3-1.38 0-3.03-.15-4.73-.6l-19.2 81.95c-1.32 5.65 2.18 11.3 7.83 12.62.8.2 1.6.28 2.4.28 4.77 0 9.08-3.27 10.22-8.1l8-34.14-1.62-26.77c-.18-2.94.52-5.84 2-8.38z"/><filter id="a" width="150.6%" height="118.4%" x="-23.6%" y="-7.3%" filterUnits="objectBoundingBox"><feMorphology radius="1.5" operator="dilate" in="SourceAlpha" result="shadowSpreadOuter1"/><feOffset dy="2" in="shadowSpreadOuter1" result="shadowOffsetOuter1"/><feGaussianBlur stdDeviation="2" in="shadowOffsetOuter1" result="shadowBlurOuter1"/><feComposite in="shadowBlurOuter1" in2="SourceAlpha" operator="out" result="shadowBlurOuter1"/><feColorMatrix values="0 0 0 0 0 0 0 0 0 0 0 0 0 0 0 0 0 0 0.5 0" in="shadowBlurOuter1"/></filter><path id="d" d="M130.64 119.9c0 .04-.03.08-.04.12-.04.13-.1.25-.13.37-.07.16-.13.33-.2.5-.06.12-.1.24-.17.36-.08.17-.17.34-.25.5-.06.1-.12.2-.18.3-.15.27-.3.52-.48.76-.2.27-.4.53-.63.78 0 0-.02.02-.03.03-.2.25-.44.48-.67.7-.58.54-1.2 1-1.87 1.4l-39.48 24.53c-1.12.7-2.35 1.15-3.64 1.38l-7.6 12.97c-1.26 2.15-1.85 4.62-1.7 7.1l3.5 58c.4 6.63 5.9 11.74 12.46 11.74.25 0 .5 0 .77-.02 6.9-.42 12.15-6.34 11.73-13.23l-3.27-54.22 16.84-28.7c.9.06 1.78.06 2.67 0 5-.4 10.17-2.97 14.97-9.86 11.35-19.27 15.32-31.87 17.26-53.07.02-.23.03-.46.04-.68l-9.66 5.53-10.24 32.7z"/><filter id="c" width="122.4%" height="111.4%" x="-11%" y="-4.8%" filterUnits="objectBoundingBox"><feMorphology radius="1.5" operator="dilate" in="SourceAlpha" result="shadowSpreadOuter1"/><feOffset dy="2" in="shadowSpreadOuter1" result="shadowOffsetOuter1"/><feGaussianBlur stdDeviation="2" in="shadowOffsetOuter1" result="shadowBlurOuter1"/><feComposite in="shadowBlurOuter1" in2="SourceAlpha" operator="out" result="shadowBlurOuter1"/><feColorMatrix values="0 0 0 0 0 0 0 0 0 0 0 0 0 0 0 0 0 0 0.5 0" in="shadowBlurOuter1"/></filter><path id="f" d="M130.57 63.6l9.07-5.2c-1.93-1.13-3.95-1.9-5.94-2.23-4.08-.7-8.06 1-11.28 4.06.38-.06.77-.08 1.16-.08 2.8 0 5.34 1.28 7 3.46z"/><filter id="e" width="223.3%" height="330.5%" x="-66.1%" y="-85.5%" filterUnits="objectBoundingBox"><feMorphology radius="1.5" operator="dilate" in="SourceAlpha" result="shadowSpreadOuter1"/><feOffset dy="2" in="shadowSpreadOuter1" result="shadowOffsetOuter1"/><feGaussianBlur stdDeviation="2" in="shadowOffsetOuter1" result="shadowBlurOuter1"/><feComposite in="shadowBlurOuter1" in2="SourceAlpha" operator="out" result="shadowBlurOuter1"/><feColorMatrix values="0 0 0 0 0 0 0 0 0 0 0 0 0 0 0 0 0 0 0.5 0" in="shadowBlurOuter1"/></filter><circle id="h" cx="128.051" cy="27.507" r="22.5"/><filter id="g" width="137.8%" height="137.8%" x="-18.9%" y="-14.4%" filterUnits="objectBoundingBox"><feMorphology radius="1.5" operator="dilate" in="SourceAlpha" result="shadowSpreadOuter1"/><feOffset dy="2" in="shadowSpreadOuter1" result="shadowOffsetOuter1"/><feGaussianBlur stdDeviation="2" in="shadowOffsetOuter1" result="shadowBlurOuter1"/><feComposite in="shadowBlurOuter1" in2="SourceAlpha" operator="out" result="shadowBlurOuter1"/><feColorMatrix values="0 0 0 0 0 0 0 0 0 0 0 0 0 0 0 0 0 0 0.5 0" in="shadowBlurOuter1"/></filter><path id="j" d="M115.58 106.75l-1.5 4.84-37.22 23.12c-3.75 2.33-4.9 7.27-2.57 11.02 1.5 2.44 4.12 3.78 6.8 3.78 1.44 0 2.9-.4 4.2-1.2l39.74-24.7c1.8-1.13 3-2.87 3.5-4.8 0 0 .02 0 .03 0l9.38-29.93-14.86 8.52-7.52 9.33z"/><filter id="i" width="127.9%" height="130.9%" x="-13.1%" y="-13.5%" filterUnits="objectBoundingBox"><feMorphology radius="1.5" operator="dilate" in="SourceAlpha" result="shadowSpreadOuter1"/><feOffset dy="2" in="shadowSpreadOuter1" result="shadowOffsetOuter1"/><feGaussianBlur stdDeviation="2" in="shadowOffsetOuter1" result="shadowBlurOuter1"/><feComposite in="shadowBlurOuter1" in2="SourceAlpha" operator="out" result="shadowBlurOuter1"/><feColorMatrix values="0 0 0 0 0 0 0 0 0 0 0 0 0 0 0 0 0 0 0.5 0" in="shadowBlurOuter1"/></filter><path id="l" d="M8.48 56.62c-2.98 5.5-3.54 13.06 3.8 23.5 9.67 13.7 6.45 19.06 2.57 21.42-3.88 2.36 10.13 3.37 12.77-11.67 1.72-9.83-8.85-20.16-10.97-27.78-1.85-.75-3.63-1.74-5.3-2.97-1.04-.77-2-1.6-2.87-2.5z"/><filter id="k" width="179.4%" height="138.9%" x="-39.7%" y="-16.2%" filterUnits="objectBoundingBox"><feMorphology radius="1.5" operator="dilate" in="SourceAlpha" result="shadowSpreadOuter1"/><feOffset dy="2" in="shadowSpreadOuter1" result="shadowOffsetOuter1"/><feGaussianBlur stdDeviation="2" in="shadowOffsetOuter1" result="shadowBlurOuter1"/><feComposite in="shadowBlurOuter1" in2="SourceAlpha" operator="out" result="shadowBlurOuter1"/><feColorMatrix values="0 0 0 0 0 0 0 0 0 0 0 0 0 0 0 0 0 0 0.5 0" in="shadowBlurOuter1"/></filter><circle id="n" cx="25.503" cy="39.992" r="21.501"/><filter id="m" width="139.5%" height="139.5%" x="-19.8%" y="-15.1%" filterUnits="objectBoundingBox"><feMorphology radius="1.5" operator="dilate" in="SourceAlpha" result="shadowSpreadOuter1"/><feOffset dy="2" in="shadowSpreadOuter1" result="shadowOffsetOuter1"/><feGaussianBlur stdDeviation="2" in="shadowOffsetOuter1" result="shadowBlurOuter1"/><feComposite in="shadowBlurOuter1" in2="SourceAlpha" operator="out" result="shadowBlurOuter1"/><feColorMatrix values="0 0 0 0 0 0 0 0 0 0 0 0 0 0 0 0 0 0 0.5 0" in="shadowBlurOuter1"/></filter><path id="p" d="M156.96 51.12L131.72 65.6c.7 1.7.87 3.6.42 5.42-.55 2.28-1.96 4.22-3.97 5.44L94.2 97.18c-.43.25-.88.46-1.33.64l-11.58 14.4c-2.5-4.88-5.02-10.76-7.2-17.75l-24.5-6.8c-4.66-1.32-7.4-6.18-6.1-10.85 1.05-3.8 4.54-6.44 8.47-6.44.8 0 1.6.1 2.36.32l27.24 7.6c.9-4.05-1.68-8.6-4.74-11.1.16-.27.26-.58.26-.9 0-.97-.8-1.76-1.76-1.76-.82 0-1.5.57-1.7 1.33-2.5-.23-6.72.06-10.84.48-3.64-.8-8.42-1.72-13.62-9.04-9.98.16-18.37 8.1-15.34 21.75 3 13.42 17.73 12.6 20.66 50.3.98 12.58 8.52 15.77 16.6 14.75-.4-1.6-.43-3.28-.04-4.93.62-2.67 2.25-4.95 4.6-6.4l32.1-19.97 13.8-17.16 45.85-26.3c5.04-2.9 6.77-9.3 3.9-14.33-2.9-5.02-9.32-6.76-14.34-3.88z"/><filter id="o" width="112.2%" height="118%" x="-6.1%" y="-6.9%" filterUnits="objectBoundingBox"><feMorphology radius="1.5" operator="dilate" in="SourceAlpha" result="shadowSpreadOuter1"/><feOffset dy="2" in="shadowSpreadOuter1" result="shadowOffsetOuter1"/><feGaussianBlur stdDeviation="2" in="shadowOffsetOuter1" result="shadowBlurOuter1"/><feComposite in="shadowBlurOuter1" in2="SourceAlpha" operator="out" result="shadowBlurOuter1"/><feColorMatrix values="0 0 0 0 0 0 0 0 0 0 0 0 0 0 0 0 0 0 0.5 0" in="shadowBlurOuter1"/></filter><path id="r" d="M53.7 72.92c-3.44-.97-7.03 1.06-8 4.5-.95 3.47 1.07 7.06 4.53 8.02l37.64 10.48c.57.16 1.16.24 1.74.24 1.2 0 2.37-.32 3.4-.95l33.97-20.7c3.07-1.87 4.04-5.87 2.17-8.94-1.87-3.06-5.87-4.03-8.93-2.16L88.65 82.64 53.7 72.92z"/><filter id="q" width="120.1%" height="150.4%" y="-19.3%" filterUnits="objectBoundingBox"><feMorphology radius="1.5" operator="dilate" in="SourceAlpha" result="shadowSpreadOuter1"/><feOffset dy="2" in="shadowSpreadOuter1" result="shadowOffsetOuter1"/><feGaussianBlur stdDeviation="2" in="shadowOffsetOuter1" result="shadowBlurOuter1"/><feComposite in="shadowBlurOuter1" in2="SourceAlpha" operator="out" result="shadowBlurOuter1"/><feColorMatrix values="0 0 0 0 0 0 0 0 0 0 0 0 0 0 0 0 0 0 0.5 0" in="shadowBlurOuter1"/></filter></defs><g fill="none"><g fill-rule="nonzero"><g id="Path"><use fill="#000" filter="url(#a)" xlink:href="#b"/><use fill="#6F2232" stroke="#1A1A1D" stroke-width="3" xlink:href="#b"/></g><g id="Path"><use fill="#000" filter="url(#c)" xlink:href="#d"/><use fill="#4E4E50" stroke="#1A1A1D" stroke-width="3" xlink:href="#d"/></g><g id="Path"><use fill="#000" filter="url(#e)" xlink:href="#f"/><use fill="#4E4E50" stroke="#1A1A1D" stroke-width="3" xlink:href="#f"/></g><g id="Oval" transform="rotate(-76.532 128.051 27.507)"><use fill="#000" filter="url(#g)" xlink:href="#h"/><use fill="#4E4E50" stroke="#1A1A1D" stroke-width="3" xlink:href="#h"/></g><g id="Path"><use fill="#000" filter="url(#i)" xlink:href="#j"/><use fill="#4E4E50" stroke="#1A1A1D" stroke-width="3" xlink:href="#j"/></g><g id="Path"><use fill="#000" filter="url(#k)" xlink:href="#l"/><use fill="#6F2232" stroke="#1A1A1D" stroke-width="3" xlink:href="#l"/></g><g transform="rotate(-80.596 25.503 39.992)"><use fill="#000" filter="url(#m)" xlink:href="#n"/><use fill="#6F2232" stroke="#1A1A1D" stroke-width="3" xlink:href="#n"/></g><g id="Path"><use fill="#000" filter="url(#o)" xlink:href="#p"/><use fill="#6F2232" stroke="#1A1A1D" stroke-width="3" xlink:href="#p"/></g><g><use fill="#000" filter="url(#q)" xlink:href="#r"/><use fill="#6F2232" stroke="#1A1A1D" stroke-width="3" xlink:href="#r"/></g></g></g></svg>