<svg xmlns="http://www.w3.org/2000/svg" width="160" height="166" xmlns:xlink="http://www.w3.org/1999/xlink"><title>sex-etsy-17</title><defs><path id="b" d="M14.34 54.25c-3.46-.97-7.08.97-8.08 4.34-1 3.36 1 6.88 4.47 7.85l27 7.55c.04-4.62.43-8.74 1.27-12.86l-24.66-6.9z"/><filter id="a" width="149%" height="181.6%" x="-24.2%" y="-30%" filterUnits="objectBoundingBox"><feMorphology radius="1" operator="dilate" in="SourceAlpha" result="shadowSpreadOuter1"/><feOffset dy="2" in="shadowSpreadOuter1" result="shadowOffsetOuter1"/><feGaussianBlur stdDeviation="2" in="shadowOffsetOuter1" result="shadowBlurOuter1"/><feComposite in="shadowBlurOuter1" in2="SourceAlpha" operator="out" result="shadowBlurOuter1"/><feColorMatrix values="0 0 0 0 0 0 0 0 0 0 0 0 0 0 0 0 0 0 0.5 0" in="shadowBlurOuter1"/></filter><ellipse id="d" cx="75.374" cy="21.665" rx="14.963" ry="14.97"/><filter id="c" width="153.5%" height="153.4%" x="-26.7%" y="-20%" filterUnits="objectBoundingBox"><feMorphology radius="1" operator="dilate" in="SourceAlpha" result="shadowSpreadOuter1"/><feOffset dy="2" in="shadowSpreadOuter1" result="shadowOffsetOuter1"/><feGaussianBlur stdDeviation="2" in="shadowOffsetOuter1" result="shadowBlurOuter1"/><feComposite in="shadowBlurOuter1" in2="SourceAlpha" operator="out" result="shadowBlurOuter1"/><feColorMatrix values="0 0 0 0 0 0 0 0 0 0 0 0 0 0 0 0 0 0 0.5 0" in="shadowBlurOuter1"/></filter><path id="f" d="M40.63 93.35c-1.13-1.17-1.93-2.6-2.34-4.18-.28-.72-.5-1.5-.7-2.3L7.7 83.1C4.2 82.44.8 84.7.12 88.16c-.68 3.45 1.6 6.8 5.1 7.5L48 101l-7.37-7.65z"/><filter id="e" width="136.8%" height="190.8%" x="-16.7%" y="-33.3%" filterUnits="objectBoundingBox"><feMorphology radius="1" operator="dilate" in="SourceAlpha" result="shadowSpreadOuter1"/><feOffset dy="2" in="shadowSpreadOuter1" result="shadowOffsetOuter1"/><feGaussianBlur stdDeviation="2" in="shadowOffsetOuter1" result="shadowBlurOuter1"/><feComposite in="shadowBlurOuter1" in2="SourceAlpha" operator="out" result="shadowBlurOuter1"/><feColorMatrix values="0 0 0 0 0 0 0 0 0 0 0 0 0 0 0 0 0 0 0.5 0" in="shadowBlurOuter1"/></filter><path id="h" d="M113 114.34c2.06-3.13 4.62-8.2 6.02-15.35 2.05-10.53.06-17.83-.82-20.33-.28-1.33-1.17-2.5-2.5-3.1L98.07 67.9 67.06 54.36c-2.2-.96-4.75.06-5.7 2.27-.95 2.2.06 4.77 2.25 5.73L95.3 76.2l7.26 3.15 3.1 1.36c-3.15.58-6.47 1-9.38.97-1.7-.02-3.25-.2-4.55-.56-6.56-1.88-8.63-5.83-14.6-7.94-.4-.22-.84-.4-1.3-.54l-5.2-1.5 1.13 5.34 19.85 20.7c1.28 1.33 1.97 3.08 1.93 4.93-.03 1.83-.78 3.55-2.1 4.84-.4.4-.85.72-1.32 1 .06.2.1.42.17.64 1.2 4.05 5.23 6.47 9.27 5.73.3-.05.57-.1.86-.2.9-.27 1.72-.7 2.45-1.22.42.3.83.6 1.23.87l.02.13 8.3 44.56c.4 2.1 2.22 3.56 4.26 3.56.27 0 .53-.02.8-.08 2.36-.44 3.9-2.72 3.47-5.08l-7.92-42.5z"/><filter id="g" width="126.7%" height="114.8%" x="-13.3%" y="-5.6%" filterUnits="objectBoundingBox"><feMorphology radius="1" operator="dilate" in="SourceAlpha" result="shadowSpreadOuter1"/><feOffset dy="2" in="shadowSpreadOuter1" result="shadowOffsetOuter1"/><feGaussianBlur stdDeviation="2" in="shadowOffsetOuter1" result="shadowBlurOuter1"/><feComposite in="shadowBlurOuter1" in2="SourceAlpha" operator="out" result="shadowBlurOuter1"/><feColorMatrix values="0 0 0 0 0 0 0 0 0 0 0 0 0 0 0 0 0 0 0.5 0" in="shadowBlurOuter1"/></filter><path id="j" d="M141.74 89.23c-7.05-3.16-15.34-.02-18.5 7-3.18 7-.03 15.25 7.02 18.4 2 .9 4.08 1.26 6.13 1.2.62-1.52.9-2.9.58-4.12-.2-.77-.68-1.48-1.42-2.15l1.26-.9c6.82 6.57-7.7 16.96-7.95 26.25-.25 10.12 9.04 11.3 6.8 9.26-2.22-2.04-3.6-5.95 4.5-13.6 9.92-9.33 4.33-19.23.37-24.56l1.24-.9c1.32 1.8 2.85 4.14 3.95 6.83 1.24-1.2 2.3-2.63 3.04-4.3 3.16-7 .02-15.25-7.03-18.4z"/><filter id="i" width="157.1%" height="127.9%" x="-28.6%" y="-10.5%" filterUnits="objectBoundingBox"><feMorphology radius="1" operator="dilate" in="SourceAlpha" result="shadowSpreadOuter1"/><feOffset dy="2" in="shadowSpreadOuter1" result="shadowOffsetOuter1"/><feGaussianBlur stdDeviation="2" in="shadowOffsetOuter1" result="shadowBlurOuter1"/><feComposite in="shadowBlurOuter1" in2="SourceAlpha" operator="out" result="shadowBlurOuter1"/><feColorMatrix values="0 0 0 0 0 0 0 0 0 0 0 0 0 0 0 0 0 0 0.5 0" in="shadowBlurOuter1"/></filter><path id="l" d="M62.68 89.68c.03-.4.04-.85.05-1.3l-3.28-3.27c-.92-.9-1.55-2.05-1.83-3.3l-6.65-30.23c-.8-3.68 1.64-7.3 5.47-8.07.48-.1.98-.15 1.47-.15 3.34 0 6.25 2.27 6.94 5.4l1.07 4.86c.33.1.65.18.95.3l1.26.53c.08-.26.15-.52.2-.77 2.36-6.46.23-14.46-5.56-16.17-5.8-1.72-14.47.9-18.48 10.37-5.44 13.06-6.94 21.67-6 36.42.23 1.6.6 3 1.08 4.22.34 1.36 1.04 2.65 2.12 3.73l23.1 23.26-2.5 36.7c-.32 4.55 3.27 8.48 8.02 8.78.2 0 .38.02.57.02 4.5 0 8.28-3.35 8.58-7.72l2.75-40.3c.16-2.3-.7-4.57-2.36-6.24L62.68 89.68z"/><filter id="k" width="136.4%" height="112.9%" x="-18.2%" y="-4.8%" filterUnits="objectBoundingBox"><feMorphology radius="1" operator="dilate" in="SourceAlpha" result="shadowSpreadOuter1"/><feOffset dy="2" in="shadowSpreadOuter1" result="shadowOffsetOuter1"/><feGaussianBlur stdDeviation="2" in="shadowOffsetOuter1" result="shadowBlurOuter1"/><feComposite in="shadowBlurOuter1" in2="SourceAlpha" operator="out" result="shadowBlurOuter1"/><feColorMatrix values="0 0 0 0 0 0 0 0 0 0 0 0 0 0 0 0 0 0 0.5 0" in="shadowBlurOuter1"/></filter><path id="n" d="M90.38 106.5c2.1-2.03 2.17-5.4.14-7.5L70.54 78.14 68.2 67l-4.95-2.17c-2.94-1.28-4.3-4.73-3.02-7.7.9-2.08 2.9-3.43 5.16-3.5l-.94-4.4c-.6-2.88-3.4-4.72-6.27-4.1-2.86.6-4.7 3.42-4.08 6.3l6.38 30.4c.2 1 .68 1.88 1.37 2.6l21.04 21.94c1.05 1.1 2.43 1.63 3.8 1.63 1.33 0 2.66-.5 3.68-1.5z"/><filter id="m" width="142.1%" height="125.4%" x="-21.1%" y="-9.5%" filterUnits="objectBoundingBox"><feMorphology radius="1" operator="dilate" in="SourceAlpha" result="shadowSpreadOuter1"/><feOffset dy="2" in="shadowSpreadOuter1" result="shadowOffsetOuter1"/><feGaussianBlur stdDeviation="2" in="shadowOffsetOuter1" result="shadowBlurOuter1"/><feComposite in="shadowBlurOuter1" in2="SourceAlpha" operator="out" result="shadowBlurOuter1"/><feColorMatrix values="0 0 0 0 0 0 0 0 0 0 0 0 0 0 0 0 0 0 0.5 0" in="shadowBlurOuter1"/></filter></defs><g fill="none"><g fill-rule="nonzero"><g id="Path" transform="translate(5 -3)"><use fill="#000" filter="url(#a)" xlink:href="#b"/><use fill="#6F2232" stroke="#1A1A1D" stroke-width="2" xlink:href="#b"/></g><g transform="translate(5 -3) rotate(-41.867 75.374 21.665)"><use fill="#000" filter="url(#c)" xlink:href="#d"/><use fill="#4E4E50" stroke="#1A1A1D" stroke-width="2" xlink:href="#d"/></g><g id="Path" transform="translate(5 -3)"><use fill="#000" filter="url(#e)" xlink:href="#f"/><use fill="#6F2232" stroke="#1A1A1D" stroke-width="2" xlink:href="#f"/></g><g id="Path" transform="translate(5 -3)"><use fill="#000" filter="url(#g)" xlink:href="#h"/><use fill="#6F2232" stroke="#1A1A1D" stroke-width="2" xlink:href="#h"/></g><g id="Path" transform="translate(5 -3)"><use fill="#000" filter="url(#i)" xlink:href="#j"/><use fill="#6F2232" stroke="#1A1A1D" stroke-width="2" xlink:href="#j"/></g><g id="Path" transform="translate(5 -3)"><use fill="#000" filter="url(#k)" xlink:href="#l"/><use fill="#4E4E50" stroke="#1A1A1D" stroke-width="2" xlink:href="#l"/></g><g transform="translate(5 -3)"><use fill="#000" filter="url(#m)" xlink:href="#n"/><use fill="#4E4E50" stroke="#1A1A1D" stroke-width="2" xlink:href="#n"/></g></g></g></svg>