<svg xmlns="http://www.w3.org/2000/svg" width="165" height="247" xmlns:xlink="http://www.w3.org/1999/xlink"><title>sex-etsy-26</title><defs><path id="b" d="M12 242.86c2.6 0 5.24-.84 7.44-2.58l48-37.94c2.34-1.84 3.9-4.5 4.4-7.43l4.92-29.36-20.83-15.42-1.25 1.95-5.75 34.3-44.37 35.08c-5.2 4.1-6.08 11.65-1.97 16.85 2.35 3 5.86 4.56 9.4 4.56z"/><filter id="a" width="122.3%" height="119%" x="-11.1%" y="-7.7%" filterUnits="objectBoundingBox"><feMorphology radius="1.5" operator="dilate" in="SourceAlpha" result="shadowSpreadOuter1"/><feOffset dy="2" in="shadowSpreadOuter1" result="shadowOffsetOuter1"/><feGaussianBlur stdDeviation="2" in="shadowOffsetOuter1" result="shadowBlurOuter1"/><feComposite in="shadowBlurOuter1" in2="SourceAlpha" operator="out" result="shadowBlurOuter1"/><feColorMatrix values="0 0 0 0 0 0 0 0 0 0 0 0 0 0 0 0 0 0 1 0" in="shadowBlurOuter1"/></filter><path id="d" d="M118.26 160.7c3.24 2.4 5.33 6.07 5.72 10.1l5.18 52.87 5.26 13.16c1.64 4.1 5.58 6.6 9.75 6.6 1.3 0 2.62-.24 3.9-.75 5.38-2.15 8-8.26 5.85-13.65l-35.8-89.53c-4.86 4.3-12.3 6.57-18.95 7.05l19.1 14.14z"/><filter id="c" width="136%" height="117.5%" x="-20.7%" y="-7.4%" filterUnits="objectBoundingBox"><feMorphology radius="1.5" operator="dilate" in="SourceAlpha" result="shadowSpreadOuter1"/><feOffset dy="2" in="shadowSpreadOuter1" result="shadowOffsetOuter1"/><feGaussianBlur stdDeviation="2" in="shadowOffsetOuter1" result="shadowBlurOuter1"/><feComposite in="shadowBlurOuter1" in2="SourceAlpha" operator="out" result="shadowBlurOuter1"/><feColorMatrix values="0 0 0 0 0 0 0 0 0 0 0 0 0 0 0 0 0 0 0.5 0" in="shadowBlurOuter1"/></filter><path id="f" d="M60.88 105.8c.26 0 .52.03.78.05L48.6 86.17c-2.14-3.22-2.22-7.2-.57-10.42l-10.7-1.5c-1.15 3.07-1.82 6.6-1.78 10.63.2 15.55 1.88 26.62 6.6 39.28l7.94-12.44c2.35-3.7 6.4-5.9 10.78-5.9z"/><filter id="e" width="170.4%" height="138%" x="-32.5%" y="-13.3%" filterUnits="objectBoundingBox"><feMorphology radius="1.5" operator="dilate" in="SourceAlpha" result="shadowSpreadOuter1"/><feOffset dy="2" in="shadowSpreadOuter1" result="shadowOffsetOuter1"/><feGaussianBlur stdDeviation="2" in="shadowOffsetOuter1" result="shadowBlurOuter1"/><feComposite in="shadowBlurOuter1" in2="SourceAlpha" operator="out" result="shadowBlurOuter1"/><feColorMatrix values="0 0 0 0 0 0 0 0 0 0 0 0 0 0 0 0 0 0 1 0" in="shadowBlurOuter1"/></filter><path id="h" d="M95.6 146.77c-.34.03-.7.04-1.03.04-1.84 0-3.62-.38-5.3-1.15l-23.6-10.78-8.5 13.3 41.16 30.48 5.23 53.45c.6 6.2 5.83 10.83 11.93 10.83.38 0 .77-.02 1.17-.06 6.6-.64 11.42-6.5 10.77-13.1L121.7 171c-.34-3.37-2.08-6.45-4.8-8.46l-21.3-15.77z"/><filter id="g" width="124.9%" height="116.1%" x="-12.8%" y="-6.4%" filterUnits="objectBoundingBox"><feMorphology radius="1.5" operator="dilate" in="SourceAlpha" result="shadowSpreadOuter1"/><feOffset dy="2" in="shadowSpreadOuter1" result="shadowOffsetOuter1"/><feGaussianBlur stdDeviation="2" in="shadowOffsetOuter1" result="shadowBlurOuter1"/><feComposite in="shadowBlurOuter1" in2="SourceAlpha" operator="out" result="shadowBlurOuter1"/><feColorMatrix values="0 0 0 0 0 0 0 0 0 0 0 0 0 0 0 0 0 0 1 0" in="shadowBlurOuter1"/></filter><path id="j" d="M58 57.42c6.12-1.08 11.23-4.55 14.54-9.3-7.4-5.88-10.87-15.88-8-25.46.63-2.06 1.5-3.97 2.6-5.7-4.75-3.4-10.8-4.94-16.98-3.85-12.23 2.17-20.4 13.84-18.24 26.08C33.5 48.08 40.08 54.8 48.26 57l5.45.76c1.42.02 2.85-.08 4.3-.34z"/><filter id="i" width="142.8%" height="137.8%" x="-20.8%" y="-14.4%" filterUnits="objectBoundingBox"><feMorphology radius="1.5" operator="dilate" in="SourceAlpha" result="shadowSpreadOuter1"/><feOffset dy="2" in="shadowSpreadOuter1" result="shadowOffsetOuter1"/><feGaussianBlur stdDeviation="2" in="shadowOffsetOuter1" result="shadowBlurOuter1"/><feComposite in="shadowBlurOuter1" in2="SourceAlpha" operator="out" result="shadowBlurOuter1"/><feColorMatrix values="0 0 0 0 0 0 0 0 0 0 0 0 0 0 0 0 0 0 1 0" in="shadowBlurOuter1"/></filter><path id="l" d="M90.83 62.93c2.46.34 4.64 1.62 6.14 3.6 1.5 2 2.13 4.44 1.8 6.9-.65 4.57-4.6 8-9.2 8-.44 0-.88-.02-1.3-.08L70.8 78.92c.12.66.34 1.38.7 2.2 1.88 3.38 3.53 6.66 5 9.83L84 102.28l23.65-4.17c-2.98-9.35-2.3-15.6-2.03-21.04-.43-.7-.86-1.45-1.25-2.27-1.68-3.46-1.87-7.27-1.4-11.12-6-10.78-16.63-11.65-24.24-6.12.03 1.34-.02 2.55-.13 3.67l12.2 1.7z"/><filter id="k" width="147.7%" height="135.7%" x="-23.4%" y="-13.5%" filterUnits="objectBoundingBox"><feMorphology radius="1.5" operator="dilate" in="SourceAlpha" result="shadowSpreadOuter1"/><feOffset dy="2" in="shadowSpreadOuter1" result="shadowOffsetOuter1"/><feGaussianBlur stdDeviation="2" in="shadowOffsetOuter1" result="shadowBlurOuter1"/><feComposite in="shadowBlurOuter1" in2="SourceAlpha" operator="out" result="shadowBlurOuter1"/><feColorMatrix values="0 0 0 0 0 0 0 0 0 0 0 0 0 0 0 0 0 0 0.5 0" in="shadowBlurOuter1"/></filter><path id="n" d="M64.8 131.95l25.42 11.6c2 .92 4.13 1.16 6.14.8 12.53.1 32.85-7.66 21.3-25.92-.24-.36-.44-.7-.66-1.05l-36.04 6.36c-.6.1-1.2.16-1.8.16-3.45 0-6.66-1.73-8.57-4.6l-7.24-10.9c-4.3-1.04-8.88.7-11.33 4.56l-30.88 48.32c-3.12 4.88-1.7 11.37 3.2 14.5 1.75 1.12 3.7 1.65 5.64 1.65 3.45 0 6.85-1.7 8.85-4.85l25.96-40.63z"/><filter id="m" width="116.7%" height="124.5%" x="-8.4%" y="-9.4%" filterUnits="objectBoundingBox"><feMorphology radius="1.5" operator="dilate" in="SourceAlpha" result="shadowSpreadOuter1"/><feOffset dy="2" in="shadowSpreadOuter1" result="shadowOffsetOuter1"/><feGaussianBlur stdDeviation="2" in="shadowOffsetOuter1" result="shadowBlurOuter1"/><feComposite in="shadowBlurOuter1" in2="SourceAlpha" operator="out" result="shadowBlurOuter1"/><feColorMatrix values="0 0 0 0 0 0 0 0 0 0 0 0 0 0 0 0 0 0 0.5 0" in="shadowBlurOuter1"/></filter><path id="p" d="M51.48 71.9c1.7-1.13 3.66-1.73 5.7-1.73 3.45 0 6.66 1.72 8.58 4.6l.82 1.24 22 3.08c.33.04.65.06.98.06 3.43 0 6.43-2.53 6.92-6.03.53-3.82-2.14-7.36-5.97-7.9l-61.37-8.54c-3.84-.53-7.36 2.14-7.9 5.97-.53 3.83 2.14 7.37 5.97 7.9l22.3 3.1c.57-.65 1.22-1.24 1.98-1.74z"/><filter id="o" width="122.6%" height="175.4%" x="-11.3%" y="-28.8%" filterUnits="objectBoundingBox"><feMorphology radius="1.5" operator="dilate" in="SourceAlpha" result="shadowSpreadOuter1"/><feOffset dy="2" in="shadowSpreadOuter1" result="shadowOffsetOuter1"/><feGaussianBlur stdDeviation="2" in="shadowOffsetOuter1" result="shadowBlurOuter1"/><feComposite in="shadowBlurOuter1" in2="SourceAlpha" operator="out" result="shadowBlurOuter1"/><feColorMatrix values="0 0 0 0 0 0 0 0 0 0 0 0 0 0 0 0 0 0 0.5 0" in="shadowBlurOuter1"/></filter><path id="r" d="M108.54 40.33c3.9 6.9-7.22 22.87-2.1 33.45 6.67 13.74 19.87 8.93 15.5 7.72-4.4-1.2-8.95-5.48-3.42-21.3 5.63-16.12-.94-23.46-7.6-27.34-.18 1.16-.43 2.33-.78 3.5-.42 1.4-.96 2.7-1.6 3.97z"/><filter id="q" width="195.8%" height="135.4%" x="-47.8%" y="-14.6%" filterUnits="objectBoundingBox"><feMorphology radius="1.5" operator="dilate" in="SourceAlpha" result="shadowSpreadOuter1"/><feOffset dy="2" in="shadowSpreadOuter1" result="shadowOffsetOuter1"/><feGaussianBlur stdDeviation="2" in="shadowOffsetOuter1" result="shadowBlurOuter1"/><feComposite in="shadowBlurOuter1" in2="SourceAlpha" operator="out" result="shadowBlurOuter1"/><feColorMatrix values="0 0 0 0 0 0 0 0 0 0 0 0 0 0 0 0 0 0 0.5 0" in="shadowBlurOuter1"/></filter><circle id="t" cx="87.342" cy="29.509" r="21.499"/><filter id="s" width="139.5%" height="139.5%" x="-19.8%" y="-15.1%" filterUnits="objectBoundingBox"><feMorphology radius="1.5" operator="dilate" in="SourceAlpha" result="shadowSpreadOuter1"/><feOffset dy="2" in="shadowSpreadOuter1" result="shadowOffsetOuter1"/><feGaussianBlur stdDeviation="2" in="shadowOffsetOuter1" result="shadowBlurOuter1"/><feComposite in="shadowBlurOuter1" in2="SourceAlpha" operator="out" result="shadowBlurOuter1"/><feColorMatrix values="0 0 0 0 0 0 0 0 0 0 0 0 0 0 0 0 0 0 0.5 0" in="shadowBlurOuter1"/></filter><path id="v" d="M72.5 118.02c1.5 2.26 4.02 3.58 6.67 3.58.46 0 .92-.04 1.4-.13l39.65-7c4.35-.76 7.26-4.9 6.5-9.26-.78-4.35-4.93-7.25-9.28-6.48l-34.5 6.1-19.1-28.77c-2.44-3.68-7.4-4.7-11.1-2.24-3.67 2.45-4.67 7.42-2.23 11.1l22 33.12z"/><filter id="u" width="121.9%" height="134.6%" x="-10.9%" y="-13.2%" filterUnits="objectBoundingBox"><feMorphology radius="1.5" operator="dilate" in="SourceAlpha" result="shadowSpreadOuter1"/><feOffset dy="2" in="shadowSpreadOuter1" result="shadowOffsetOuter1"/><feGaussianBlur stdDeviation="2" in="shadowOffsetOuter1" result="shadowBlurOuter1"/><feComposite in="shadowBlurOuter1" in2="SourceAlpha" operator="out" result="shadowBlurOuter1"/><feColorMatrix values="0 0 0 0 0 0 0 0 0 0 0 0 0 0 0 0 0 0 1 0" in="shadowBlurOuter1"/></filter></defs><g fill="none"><g fill-rule="nonzero"><g id="Path" transform="translate(5 -4)"><use fill="#000" filter="url(#a)" xlink:href="#b"/><use fill="#4E4E50" stroke="#1A1A1D" stroke-width="3" xlink:href="#b"/></g><g id="Path" transform="translate(5 -4)"><use fill="#000" filter="url(#c)" xlink:href="#d"/><use fill="#6F2232" stroke="#1A1A1D" stroke-width="3" xlink:href="#d"/></g><g id="Path" transform="translate(5 -4)"><use fill="#000" filter="url(#e)" xlink:href="#f"/><use fill="#4E4E50" stroke="#1A1A1D" stroke-width="3" xlink:href="#f"/></g><g id="Path" transform="translate(5 -4)"><use fill="#000" filter="url(#g)" xlink:href="#h"/><use fill="#4E4E50" stroke="#1A1A1D" stroke-width="3" xlink:href="#h"/></g><g id="Path" transform="translate(5 -4)"><use fill="#000" filter="url(#i)" xlink:href="#j"/><use fill="#4E4E50" stroke="#1A1A1D" stroke-width="3" xlink:href="#j"/></g><path id="Path" fill="#000" d="M73.5 74.9c-.02-.1-.03-.2-.04-.3l-.18-.03.2.33z"/><g id="Path" transform="translate(5 -4)"><use fill="#000" filter="url(#k)" xlink:href="#l"/><use fill="#6F2232" stroke="#1A1A1D" stroke-width="3" xlink:href="#l"/></g><g id="Path" transform="translate(5 -4)"><use fill="#000" filter="url(#m)" xlink:href="#n"/><use fill="#6F2232" stroke="#1A1A1D" stroke-width="3" xlink:href="#n"/></g><g id="Path" transform="translate(5 -4)"><use fill="#000" filter="url(#o)" xlink:href="#p"/><use fill="#6F2232" stroke="#1A1A1D" stroke-width="3" xlink:href="#p"/></g><g id="Path" transform="translate(5 -4)"><use fill="#000" filter="url(#q)" xlink:href="#r"/><use fill="#6F2232" stroke="#1A1A1D" stroke-width="3" xlink:href="#r"/></g><g transform="translate(5 -4) rotate(-28.282 87.342 29.509)"><use fill="#000" filter="url(#s)" xlink:href="#t"/><use fill="#6F2232" stroke="#1A1A1D" stroke-width="3" xlink:href="#t"/></g><g transform="translate(5 -4)"><use fill="#000" filter="url(#u)" xlink:href="#v"/><use fill="#4E4E50" stroke="#1A1A1D" stroke-width="3" xlink:href="#v"/></g></g></g></svg>