<?xml version="1.0" encoding="UTF-8"?>
<svg width="186px" height="264px" viewBox="0 0 186 264" version="1.1" xmlns="http://www.w3.org/2000/svg" xmlns:xlink="http://www.w3.org/1999/xlink">
    <title>sex-etsy-13</title>
    <defs>
        <path d="M43.2124,90.8598 L56.9872,100.6644 C57.9689,96.7503 59.0867,93.6273 60.2392,91.1477 L60.2392,102.979 L61.6003,103.9478 C62.0769,102.7857 62.5788,101.6773 63.073,100.5904 C64.7244,96.9478 66.2859,93.5084 66.7136,88.4664 C66.9103,86.1515 66.5606,83.3623 65.8782,80.3764 C63.032,78.3011 61.1226,75.0326 60.8813,71.3013 L45.8919,84.1672 C44.9151,86.2304 44.0186,88.4554 43.2124,90.8598 Z" id="path-1"></path>
        <filter x="-37.2%" y="-26.1%" width="173.3%" height="160.8%" filterUnits="objectBoundingBox" id="filter-2">
            <feMorphology radius="1.5" operator="dilate" in="SourceAlpha" result="shadowSpreadOuter1"></feMorphology>
            <feOffset dx="0" dy="2" in="shadowSpreadOuter1" result="shadowOffsetOuter1"></feOffset>
            <feGaussianBlur stdDeviation="2" in="shadowOffsetOuter1" result="shadowBlurOuter1"></feGaussianBlur>
            <feComposite in="shadowBlurOuter1" in2="SourceAlpha" operator="out" result="shadowBlurOuter1"></feComposite>
            <feColorMatrix values="0 0 0 0 0   0 0 0 0 0   0 0 0 0 0  0 0 0 1 0" type="matrix" in="shadowBlurOuter1"></feColorMatrix>
        </filter>
        <path d="M111.4998,100.5894 C111.9939,101.6763 112.4959,102.7847 112.9725,103.9478 L114.3311,102.9807 L114.3311,91.2589 C115.4479,93.6558 116.5698,96.7343 117.5678,100.6766 L131.3578,90.8601 C130.5515,88.4551 129.6547,86.2297 128.6777,84.166 L113.6907,71.3022 C113.5368,73.6799 112.707,75.8681 111.3856,77.6829 C111.9826,78.6944 112.8821,79.4261 114.2076,79.9197 C116.3003,80.6987 116.7193,82.2808 116.4415,83.3993 C115.8535,85.7719 112.6123,86.2185 110.0151,85.8799 C109.4517,85.8064 108.7185,85.6663 107.8838,85.4198 C107.7984,86.4987 107.7801,87.5245 107.8601,88.4654 C108.2879,93.5074 109.8484,96.9478 111.4998,100.5894 Z" id="path-3"></path>
        <filter x="-36.1%" y="-26.1%" width="173.3%" height="160.8%" filterUnits="objectBoundingBox" id="filter-4">
            <feMorphology radius="1.5" operator="dilate" in="SourceAlpha" result="shadowSpreadOuter1"></feMorphology>
            <feOffset dx="0" dy="2" in="shadowSpreadOuter1" result="shadowOffsetOuter1"></feOffset>
            <feGaussianBlur stdDeviation="2" in="shadowOffsetOuter1" result="shadowBlurOuter1"></feGaussianBlur>
            <feComposite in="shadowBlurOuter1" in2="SourceAlpha" operator="out" result="shadowBlurOuter1"></feComposite>
            <feColorMatrix values="0 0 0 0 0   0 0 0 0 0   0 0 0 0 0  0 0 0 1 0" type="matrix" in="shadowBlurOuter1"></feColorMatrix>
        </filter>
        <path d="M54.2365,50.0157 L55.1521,49.3501 C55.5309,49.0753 62.9959,43.7668 76.792,41.7936 C69.0327,37.8771 64.0628,29.8751 63.994,21.1826 C62.6299,20.9244 61.2243,20.7837 59.7851,20.7837 C47.3593,20.7837 37.2851,30.8569 37.2851,43.2837 C37.2851,49.3757 39.7103,54.8984 43.6427,58.9497 L53.9177,50.1304 C53.9969,50.0624 54.1096,50.0312 54.2365,50.0157 Z" id="path-5"></path>
        <filter x="-21.5%" y="-17.0%" width="159.4%" height="145.9%" filterUnits="objectBoundingBox" id="filter-6">
            <feMorphology radius="1.5" operator="dilate" in="SourceAlpha" result="shadowSpreadOuter1"></feMorphology>
            <feOffset dx="0" dy="2" in="shadowSpreadOuter1" result="shadowOffsetOuter1"></feOffset>
            <feGaussianBlur stdDeviation="2" in="shadowOffsetOuter1" result="shadowBlurOuter1"></feGaussianBlur>
            <feComposite in="shadowBlurOuter1" in2="SourceAlpha" operator="out" result="shadowBlurOuter1"></feComposite>
            <feColorMatrix values="0 0 0 0 0   0 0 0 0 0   0 0 0 0 0  0 0 0 1 0" type="matrix" in="shadowBlurOuter1"></feColorMatrix>
        </filter>
        <path d="M103.0359,141.2163 C100.9402,142.7075 98.4763,143.4966 95.9109,143.4966 C92.6629,143.4966 89.5671,142.2075 87.2859,139.9712 C85.0056,142.2075 81.9089,143.4956 78.6609,143.4956 C76.0964,143.4956 73.6326,142.7075 71.5369,141.2163 L60.2392,133.1747 L60.2392,134.8149 L51.709,239.4058 C51.1543,246.2129 56.2226,252.1783 63.0273,252.733 C69.832,253.2872 75.8007,248.2232 76.3554,241.4156 L83.7841,150.3316 L90.7862,150.3316 L98.2148,241.4156 C98.7695,248.2232 104.7382,253.2872 111.5429,252.733 C118.3476,252.1783 123.416,246.2129 122.8613,239.4058 L114.331,134.8148 L114.331,133.1763 L103.0359,141.2163 Z" id="path-7"></path>
        <filter x="-11.9%" y="-6.6%" width="123.9%" height="115.4%" filterUnits="objectBoundingBox" id="filter-8">
            <feMorphology radius="1.5" operator="dilate" in="SourceAlpha" result="shadowSpreadOuter1"></feMorphology>
            <feOffset dx="0" dy="2" in="shadowSpreadOuter1" result="shadowOffsetOuter1"></feOffset>
            <feGaussianBlur stdDeviation="2" in="shadowOffsetOuter1" result="shadowBlurOuter1"></feGaussianBlur>
            <feComposite in="shadowBlurOuter1" in2="SourceAlpha" operator="out" result="shadowBlurOuter1"></feComposite>
            <feColorMatrix values="0 0 0 0 0   0 0 0 0 0   0 0 0 0 0  0 0 0 1 0" type="matrix" in="shadowBlurOuter1"></feColorMatrix>
        </filter>
        <path d="M153.0949,105.1242 L136.2744,90.6866 C135.3933,90.9943 134.5465,91.4134 133.7699,91.9663 L111.8568,107.5649 C109.8104,101.237 106.2689,96.9238 105.5677,88.6608 C105.4608,87.4041 105.5037,86.0237 105.6586,84.5629 C104.6875,84.0996 103.6608,83.4898 102.6322,82.6695 C102.2618,82.7033 101.8881,82.7263 101.5088,82.7263 C96.0371,82.7263 91.4068,79.13 89.8487,74.1725 C91.9239,77.79 95.7897,80.242 100.2415,80.3169 C98.8539,78.6761 97.5557,76.5756 96.5167,73.8413 C93.9517,67.0917 96.7464,59.4943 99.2127,52.791 C100.2688,49.9203 101.2916,47.1393 101.7279,44.8348 C99.124,44.281 96.2198,43.8379 93.0268,43.5877 C91.19,44.0489 89.2733,44.2992 87.303,44.2992 C85.5286,44.2992 83.7454,44.0931 82.0032,43.6879 C81.8673,43.6562 81.7351,43.6172 81.6002,43.5832 C68.3308,44.6125 60.0624,49.0006 57.4271,50.6123 C56.7151,50.9233 56.036,51.3427 55.4156,51.8754 L4.8326,95.2924 C1.4801,98.1703 1.0953,103.2201 3.9732,106.5737 C5.5552,108.4165 7.7945,109.3628 10.0474,109.3628 C11.8912,109.3628 13.7447,108.729 15.2544,107.4331 L61.0802,68.0994 C61.3417,66.7895 61.8185,65.5599 62.4625,64.4374 C62.0985,65.5955 61.9007,66.8273 61.9007,68.1056 C61.9007,74.8556 67.3727,80.3276 74.1227,80.3276 C78.6623,80.3276 82.6152,77.8469 84.7229,74.1727 C83.1648,79.1302 78.5345,82.7265 73.0627,82.7265 C71.4542,82.7265 69.9222,82.4077 68.5156,81.843 C68.9737,84.3241 69.1767,86.6476 69.0056,88.6611 C68.303,96.9248 64.7619,101.238 62.7151,107.5654 L40.8012,91.9663 C40.0249,91.4134 39.178,90.9941 38.2967,90.6863 L21.4766,105.1236 L0.9985,147.5132 C-1.4048,152.4859 0.6792,158.4644 5.6528,160.8667 C7.0542,161.5444 8.5356,161.8647 9.9956,161.8647 C13.7124,161.8647 17.2817,159.7836 19.0063,156.2124 L33.9543,125.2713 C33.75,124.5326 33.7439,123.7717 33.9704,123.002 L36.0521,115.9269 C37.6552,110.4782 43.3916,107.35 48.8403,108.9531 C54.289,110.5562 57.4172,116.2926 55.8141,121.7413 L54.4858,126.256 L72.8706,139.3422 C77.3706,142.5453 83.6147,141.4926 86.8159,136.9945 C86.9868,136.7545 87.1391,136.5072 87.2861,136.2582 C87.4331,136.5072 87.5854,136.7545 87.7563,136.9945 C90.9584,141.4945 97.2026,142.5453 101.7016,139.3422 L120.0848,126.2567 L118.7562,121.7413 C117.1531,116.2926 120.2812,110.5562 125.73,108.9531 C131.1788,107.35 136.9151,110.4781 138.5182,115.9269 L140.5999,123.002 C140.8262,123.7713 140.8203,124.5318 140.6163,125.2701 L155.5648,156.2124 C157.2894,159.7837 160.8587,161.8647 164.5755,161.8647 C166.0345,161.8647 167.5169,161.5444 168.9183,160.8667 C173.8919,158.4644 175.9749,152.4858 173.5726,147.5132 L153.0949,105.1242 Z M70.9937,75.0265 C69.6315,75.0265 68.5272,73.9222 68.5272,72.56 C68.5272,71.1978 69.6315,70.0935 70.9937,70.0935 C72.3559,70.0935 73.4602,71.1978 73.4602,72.56 C73.4602,73.9222 72.3559,75.0265 70.9937,75.0265 Z" id="path-9"></path>
        <filter x="-4.9%" y="-5.5%" width="109.7%" height="114.4%" filterUnits="objectBoundingBox" id="filter-10">
            <feMorphology radius="1.5" operator="dilate" in="SourceAlpha" result="shadowSpreadOuter1"></feMorphology>
            <feOffset dx="0" dy="2" in="shadowSpreadOuter1" result="shadowOffsetOuter1"></feOffset>
            <feGaussianBlur stdDeviation="2" in="shadowOffsetOuter1" result="shadowBlurOuter1"></feGaussianBlur>
            <feComposite in="shadowBlurOuter1" in2="SourceAlpha" operator="out" result="shadowBlurOuter1"></feComposite>
            <feColorMatrix values="0 0 0 0 0   0 0 0 0 0   0 0 0 0 0  0 0 0 0.5 0" type="matrix" in="shadowBlurOuter1"></feColorMatrix>
        </filter>
        <path d="M53.6077,121.0922 C54.8547,116.8539 52.4294,112.4065 48.1911,111.1595 C43.9528,109.9124 39.5054,112.3378 38.2583,116.5761 L36.1766,123.6512 C34.9296,127.8895 50.279,132.4057 51.526,128.1674 L53.6077,121.0922 Z" id="path-11"></path>
        <filter x="-47.7%" y="-34.1%" width="195.4%" height="189.3%" filterUnits="objectBoundingBox" id="filter-12">
            <feMorphology radius="1.5" operator="dilate" in="SourceAlpha" result="shadowSpreadOuter1"></feMorphology>
            <feOffset dx="0" dy="2" in="shadowSpreadOuter1" result="shadowOffsetOuter1"></feOffset>
            <feGaussianBlur stdDeviation="2" in="shadowOffsetOuter1" result="shadowBlurOuter1"></feGaussianBlur>
            <feComposite in="shadowBlurOuter1" in2="SourceAlpha" operator="out" result="shadowBlurOuter1"></feComposite>
            <feColorMatrix values="0 0 0 0 0   0 0 0 0 0   0 0 0 0 0  0 0 0 1 0" type="matrix" in="shadowBlurOuter1"></feColorMatrix>
        </filter>
        <path d="M138.3937,123.6512 L136.312,116.5761 C135.0649,112.3378 130.6175,109.9125 126.3792,111.1595 C122.1409,112.4065 119.7156,116.854 120.9626,121.0922 L123.0443,128.1673 C124.2913,132.4057 139.6407,127.8895 138.3937,123.6512 Z" id="path-13"></path>
        <filter x="-47.7%" y="-34.2%" width="195.4%" height="189.3%" filterUnits="objectBoundingBox" id="filter-14">
            <feMorphology radius="1.5" operator="dilate" in="SourceAlpha" result="shadowSpreadOuter1"></feMorphology>
            <feOffset dx="0" dy="2" in="shadowSpreadOuter1" result="shadowOffsetOuter1"></feOffset>
            <feGaussianBlur stdDeviation="2" in="shadowOffsetOuter1" result="shadowBlurOuter1"></feGaussianBlur>
            <feComposite in="shadowBlurOuter1" in2="SourceAlpha" operator="out" result="shadowBlurOuter1"></feComposite>
            <feColorMatrix values="0 0 0 0 0   0 0 0 0 0   0 0 0 0 0  0 0 0 1 0" type="matrix" in="shadowBlurOuter1"></feColorMatrix>
        </filter>
        <path d="M119.1531,51.8755 C118.5486,51.3562 117.8875,50.947 117.1952,50.6385 C116.8157,53.8297 115.8187,57.4234 113.9803,61.4939 C113.3878,62.8055 112.8965,64.0095 112.4755,65.1347 C112.9319,66.0649 113.2832,67.0557 113.4917,68.1005 L159.3172,107.4332 C160.826,108.7291 162.6795,109.3629 164.5233,109.3629 C166.7762,109.3629 169.0155,108.4166 170.5975,106.5729 C173.4754,103.2204 173.0907,98.1696 169.7371,95.2926 L119.1531,51.8755 Z" id="path-15"></path>
        <filter x="-14.4%" y="-11.9%" width="128.5%" height="129.8%" filterUnits="objectBoundingBox" id="filter-16">
            <feMorphology radius="1.5" operator="dilate" in="SourceAlpha" result="shadowSpreadOuter1"></feMorphology>
            <feOffset dx="0" dy="2" in="shadowSpreadOuter1" result="shadowOffsetOuter1"></feOffset>
            <feGaussianBlur stdDeviation="2" in="shadowOffsetOuter1" result="shadowBlurOuter1"></feGaussianBlur>
            <feComposite in="shadowBlurOuter1" in2="SourceAlpha" operator="out" result="shadowBlurOuter1"></feComposite>
            <feColorMatrix values="0 0 0 0 0   0 0 0 0 0   0 0 0 0 0  0 0 0 0.5 0" type="matrix" in="shadowBlurOuter1"></feColorMatrix>
        </filter>
        <path d="M102.732,38.4547 C108.8273,44.9671 94.1888,61.2423 98.6664,73.0238 C104.0897,87.2935 117.6627,83.66 113.4055,82.0754 C109.1483,80.4908 104.9804,75.8316 111.884,60.547 C118.7127,45.4282 113.3263,37.5522 107.2286,33.0369 C106.0034,35.0799 104.4851,36.9005 102.732,38.4547 Z" id="path-17"></path>
        <filter x="-49.1%" y="-14.2%" width="198.3%" height="134.9%" filterUnits="objectBoundingBox" id="filter-18">
            <feMorphology radius="1.5" operator="dilate" in="SourceAlpha" result="shadowSpreadOuter1"></feMorphology>
            <feOffset dx="0" dy="2" in="shadowSpreadOuter1" result="shadowOffsetOuter1"></feOffset>
            <feGaussianBlur stdDeviation="2" in="shadowOffsetOuter1" result="shadowBlurOuter1"></feGaussianBlur>
            <feComposite in="shadowBlurOuter1" in2="SourceAlpha" operator="out" result="shadowBlurOuter1"></feComposite>
            <feColorMatrix values="0 0 0 0 0   0 0 0 0 0   0 0 0 0 0  0 0 0 0.5 0" type="matrix" in="shadowBlurOuter1"></feColorMatrix>
        </filter>
        <path d="M82.5252,41.4479 C93.8181,44.0769 105.1033,37.0529 107.7341,25.76 C110.3631,14.4675 103.3396,3.1804 92.0486,0.5515 C80.7556,-2.0774 69.4685,4.9441 66.8377,16.237 C64.2068,27.532 71.2302,38.8171 82.5252,41.4479 Z" id="path-19"></path>
        <filter x="-20.2%" y="-15.5%" width="140.5%" height="140.5%" filterUnits="objectBoundingBox" id="filter-20">
            <feMorphology radius="1.5" operator="dilate" in="SourceAlpha" result="shadowSpreadOuter1"></feMorphology>
            <feOffset dx="0" dy="2" in="shadowSpreadOuter1" result="shadowOffsetOuter1"></feOffset>
            <feGaussianBlur stdDeviation="2" in="shadowOffsetOuter1" result="shadowBlurOuter1"></feGaussianBlur>
            <feComposite in="shadowBlurOuter1" in2="SourceAlpha" operator="out" result="shadowBlurOuter1"></feComposite>
            <feColorMatrix values="0 0 0 0 0   0 0 0 0 0   0 0 0 0 0  0 0 0 0.5 0" type="matrix" in="shadowBlurOuter1"></feColorMatrix>
        </filter>
    </defs>
    <g id="Page-2" stroke="none" stroke-width="1" fill="none" fill-rule="evenodd">
        <g id="sex-etsy-13" transform="translate(6.000000, 4.000000)" fill-rule="nonzero">
            <g id="Path">
                <use fill="black" fill-opacity="1" filter="url(#filter-2)" xlink:href="#path-1"></use>
                <use stroke="#1A1A1D" stroke-width="3" fill="#4E4E50" xlink:href="#path-1"></use>
            </g>
            <g id="Path">
                <use fill="black" fill-opacity="1" filter="url(#filter-4)" xlink:href="#path-3"></use>
                <use stroke="#1A1A1D" stroke-width="3" fill="#4E4E50" xlink:href="#path-3"></use>
            </g>
            <g id="Path">
                <use fill="black" fill-opacity="1" filter="url(#filter-6)" xlink:href="#path-5"></use>
                <use stroke="#1A1A1D" stroke-width="3" fill="#4E4E50" xlink:href="#path-5"></use>
            </g>
            <g id="Path">
                <use fill="black" fill-opacity="1" filter="url(#filter-8)" xlink:href="#path-7"></use>
                <use stroke="#1A1A1D" stroke-width="3" fill="#4E4E50" xlink:href="#path-7"></use>
            </g>
            <g id="Shape">
                <use fill="black" fill-opacity="1" filter="url(#filter-10)" xlink:href="#path-9"></use>
                <use stroke="#1A1A1D" stroke-width="3" fill="#6F2232" xlink:href="#path-9"></use>
            </g>
            <g id="Path">
                <use fill="black" fill-opacity="1" filter="url(#filter-12)" xlink:href="#path-11"></use>
                <use stroke="#1A1A1D" stroke-width="3" fill="#4E4E50" xlink:href="#path-11"></use>
            </g>
            <g id="Path">
                <use fill="black" fill-opacity="1" filter="url(#filter-14)" xlink:href="#path-13"></use>
                <use stroke="#1A1A1D" stroke-width="3" fill="#4E4E50" xlink:href="#path-13"></use>
            </g>
            <g id="Path">
                <use fill="black" fill-opacity="1" filter="url(#filter-16)" xlink:href="#path-15"></use>
                <use stroke="#1A1A1D" stroke-width="3" fill="#6F2232" xlink:href="#path-15"></use>
            </g>
            <path d="M112.671,68.1056 C112.671,67.1845 112.5606,66.2904 112.3674,65.4275 C110.7249,69.9047 110.3606,72.9426 110.5569,74.9749 C111.8901,73.0169 112.671,70.6529 112.671,68.1056 Z" id="Path" fill="#000000"></path>
            <g id="Path">
                <use fill="black" fill-opacity="1" filter="url(#filter-18)" xlink:href="#path-17"></use>
                <use stroke="#1A1A1D" stroke-width="3" fill="#6F2232" xlink:href="#path-17"></use>
            </g>
            <g id="Path">
                <use fill="black" fill-opacity="1" filter="url(#filter-20)" xlink:href="#path-19"></use>
                <use stroke="#1A1A1D" stroke-width="3" fill="#6F2232" xlink:href="#path-19"></use>
            </g>
        </g>
    </g>
</svg>