<svg xmlns="http://www.w3.org/2000/svg" width="275" height="167" xmlns:xlink="http://www.w3.org/1999/xlink"><title>sex-etsy-14</title><defs><path id="b" d="M111.74 36.42c1.43-4.18-.8-8.72-4.98-10.15-1.82-.63-3.7-.56-5.38.06l9.24 13.37 1.12-3.28z"/><filter id="a" width="264.2%" height="235.6%" x="-85.5%" y="-46.9%" filterUnits="objectBoundingBox"><feMorphology radius="1.5" operator="dilate" in="SourceAlpha" result="shadowSpreadOuter1"/><feOffset dy="2" in="shadowSpreadOuter1" result="shadowOffsetOuter1"/><feGaussianBlur stdDeviation="2" in="shadowOffsetOuter1" result="shadowBlurOuter1"/><feComposite in="shadowBlurOuter1" in2="SourceAlpha" operator="out" result="shadowBlurOuter1"/><feColorMatrix values="0 0 0 0 0 0 0 0 0 0 0 0 0 0 0 0 0 0 1 0" in="shadowBlurOuter1"/></filter><path id="d" d="M109.3 85.8l1.2-3.03-2.58-3.72s0 0 0 .02c-.9 2.4-.28 5 1.38 6.74z"/><filter id="c" width="674.7%" height="383.9%" x="-284.2%" y="-115.1%" filterUnits="objectBoundingBox"><feMorphology radius="1.5" operator="dilate" in="SourceAlpha" result="shadowSpreadOuter1"/><feOffset dy="2" in="shadowSpreadOuter1" result="shadowOffsetOuter1"/><feGaussianBlur stdDeviation="2" in="shadowOffsetOuter1" result="shadowBlurOuter1"/><feComposite in="shadowBlurOuter1" in2="SourceAlpha" operator="out" result="shadowBlurOuter1"/><feColorMatrix values="0 0 0 0 0 0 0 0 0 0 0 0 0 0 0 0 0 0 0.5 0" in="shadowBlurOuter1"/></filter><path id="f" d="M132.12 95l26.04 9.7c.8-.16 1.64-.25 2.5-.25 2.2 0 4.27.6 6.06 1.63-1.16-.37-2.4-.57-3.67-.57-6.75 0-12.22 5.5-12.22 12.24 0 4.54 2.48 8.5 6.15 10.6-4.96-1.56-8.55-6.2-8.55-11.66 0-1.6.32-3.14.88-4.55-2.47.46-4.8.66-6.8.5-7.64-.66-11.9-3.73-17.5-5.8l8.64-22c1.22-3.1.8-6.6-1.08-9.35L96.73 23.65c-3.14-4.55-9.37-5.68-13.9-2.54-4.56 3.15-5.7 9.38-2.55 13.92l32.8 47.45-15.05 38.38c-.07.16-.12.33-.18.5l39.96 17.82c3.62 1.6 6.4 4.53 7.8 8.22.22.54.38 1.1.53 1.67.93 0 1.93.04 3 .08-.45-1.26-.7-2.6-.7-4.03 0-5.47 3.6-10.1 8.55-11.66-3.67 2.1-6.15 6.06-6.15 10.6 0 6.75 5.47 12.22 12.22 12.22 1.28 0 2.5-.2 3.67-.56.32-.1.63-.22.94-.34 1.12 1.9 3.17 3.18 5.53 3.2l27.15.24c-1.8-1.64-3.2-3.53-4.32-5.45-12.02-3.27-19.4-15.53-16.56-27.75 1.03-4.45 3.3-8.33 6.34-11.34-1.62-6.5-3.85-10.86-5.04-12.87-.67-1.57-1.96-2.88-3.7-3.53l-40.53-15.1c-.13 1-.38 1.95-.74 2.9L132.1 95zm24 19.6c0-1.35 1.1-2.46 2.47-2.46 1.36 0 2.46 1.1 2.46 2.47s-1.1 2.47-2.47 2.47-2.47-1.1-2.47-2.46zm2.47 30.13c1.36 0 2.46 1.1 2.46 2.46 0 1.35-1.1 2.46-2.47 2.46s-2.47-1.1-2.47-2.47 1.1-2.47 2.46-2.47z"/><filter id="e" width="116.7%" height="112.2%" x="-7%" y="-4.7%" filterUnits="objectBoundingBox"><feMorphology radius="1.5" operator="dilate" in="SourceAlpha" result="shadowSpreadOuter1"/><feOffset dy="2" in="shadowSpreadOuter1" result="shadowOffsetOuter1"/><feGaussianBlur stdDeviation="2" in="shadowOffsetOuter1" result="shadowBlurOuter1"/><feComposite in="shadowBlurOuter1" in2="SourceAlpha" operator="out" result="shadowBlurOuter1"/><feColorMatrix values="0 0 0 0 0 0 0 0 0 0 0 0 0 0 0 0 0 0 0.5 0" in="shadowBlurOuter1"/></filter><path id="h" d="M46.78 137.88h9.92c-.17-.46-.34-.92-.5-1.4l-.05-.15c-.34-1.26-.74-2.5-1.16-3.76H31.72l-9.72 20h10c.05-8.1 6.66-14.7 14.78-14.7z"/><filter id="g" width="153.5%" height="185%" x="-27.1%" y="-32.5%" filterUnits="objectBoundingBox"><feMorphology radius="1.5" operator="dilate" in="SourceAlpha" result="shadowSpreadOuter1"/><feOffset dy="2" in="shadowSpreadOuter1" result="shadowOffsetOuter1"/><feGaussianBlur stdDeviation="2" in="shadowOffsetOuter1" result="shadowBlurOuter1"/><feComposite in="shadowBlurOuter1" in2="SourceAlpha" operator="out" result="shadowBlurOuter1"/><feColorMatrix values="0 0 0 0 0 0 0 0 0 0 0 0 0 0 0 0 0 0 0.5 0" in="shadowBlurOuter1"/></filter><path id="j" d="M249.17 159.25l9.27.08c.02 0 .04 0 .06 0 3.57 0 6.47-2.87 6.5-6.44.03-3.6-2.85-6.53-6.44-6.57l-20.36-.18c.43.2.85.4 1.27.64 6.96 3.9 9.1 9 9.7 12.45z"/><filter id="i" width="184.9%" height="229.5%" x="-53.2%" y="-49.8%" filterUnits="objectBoundingBox"><feMorphology radius="1.5" operator="dilate" in="SourceAlpha" result="shadowSpreadOuter1"/><feOffset dy="2" in="shadowSpreadOuter1" result="shadowOffsetOuter1"/><feGaussianBlur stdDeviation="2" in="shadowOffsetOuter1" result="shadowBlurOuter1"/><feComposite in="shadowBlurOuter1" in2="SourceAlpha" operator="out" result="shadowBlurOuter1"/><feColorMatrix values="0 0 0 0 0 0 0 0 0 0 0 0 0 0 0 0 0 0 0.5 0" in="shadowBlurOuter1"/></filter><path id="l" d="M131.78 165.2c.4 0 .77-.04 1.16-.07.1 0 .18-.02.28-.03.3-.04.6-.08.88-.14.1-.02.18-.03.28-.05.33-.06.66-.15 1-.24.13-.04.26-.1.4-.14.2-.07.4-.14.62-.23.14-.06.27-.1.4-.17.28-.12.55-.25.82-.4.07-.03.15-.07.22-.1.28-.17.56-.34.83-.52.08-.04.16-.1.24-.15.25-.17.5-.35.73-.54.05-.03.1-.07.15-.1.57-.5 1.1-1.02 1.6-1.6.04-.06.08-.1.13-.17.2-.23.37-.47.54-.7.06-.1.1-.17.16-.25.17-.25.33-.52.48-.8.06-.08.1-.18.16-.27.12-.23.25-.47.36-.72 0-.03.02-.05.03-.08.12-.27.22-.56.33-.85.04-.1.08-.22.12-.33.08-.24.14-.5.2-.74.04-.16.1-.33.13-.5.04-.17.07-.35.1-.53.04-.24.08-.48.1-.72.02-.13.02-.26.03-.38.03-.3.05-.6.05-.88 0-.03 0-.06 0-.1 0-.1 0-.2 0-.3-.02-.28-.03-.55-.06-.83 0-.18-.04-.36-.06-.54-.03-.2-.06-.43-.1-.64-.04-.22-.1-.44-.15-.65-.03-.16-.07-.33-.12-.5-.07-.23-.15-.46-.23-.7-.05-.14-.1-.3-.16-.44-.1-.22-.2-.44-.3-.66-.07-.15-.14-.3-.22-.45-.1-.2-.2-.38-.32-.57-.1-.17-.2-.33-.3-.5-.1-.16-.2-.3-.32-.47-.13-.17-.26-.35-.4-.52-.1-.13-.22-.25-.32-.38-.16-.18-.32-.36-.5-.53-.1-.12-.22-.23-.33-.34-.2-.16-.36-.33-.55-.48-.13-.12-.27-.22-.4-.33-.18-.14-.36-.27-.54-.4-.17-.12-.36-.24-.55-.36-.15-.1-.3-.18-.45-.27-.25-.15-.5-.27-.76-.4-.1-.04-.17-.1-.27-.13l-.2-.1s-.02 0-.04 0L90.56 120.6c-.06-.33-.12-.68-.2-1.03-2.88-10.04-5.8-17.9-9.55-25.07-2.12-4.07-4.5-7.9-7.3-11.8l14.1 2.8c.53.12 1.06.17 1.57.17 3.36 0 6.44-2.13 7.57-5.4l3.98-11.64L89.4 52.27l-5.53 16.18L48.9 61.5c-.48-.1-.96-.15-1.44-.16-5.55-.74-10.7.7-14.3 3.36-5.98 4.46-6.06 14.1-1.98 21.84l5.8-11.96c1.72-3.52 5.36-5.8 9.28-5.8 1.56 0 3.08.35 4.5 1.04 5.1 2.48 7.24 8.65 4.76 13.76L44.4 106.5c1.37 2.17 2.73 4.4 4.06 6.7 4.15 7.2 7.84 14.85 9.9 22.53.28.77.54 1.48.8 2.16H87v2.28H46.78c-6.9 0-12.5 5.6-12.5 12.5s5.6 12.5 12.5 12.5h84.94c.02 0 .04 0 .06 0z"/><filter id="k" width="114.7%" height="116.6%" x="-7.3%" y="-7.3%" filterUnits="objectBoundingBox"><feMorphology radius="1.5" operator="dilate" in="SourceAlpha" result="shadowSpreadOuter1"/><feOffset dy="2" in="shadowSpreadOuter1" result="shadowOffsetOuter1"/><feGaussianBlur stdDeviation="2" in="shadowOffsetOuter1" result="shadowBlurOuter1"/><feComposite in="shadowBlurOuter1" in2="SourceAlpha" operator="out" result="shadowBlurOuter1"/><feColorMatrix values="0 0 0 0 0 0 0 0 0 0 0 0 0 0 0 0 0 0 1 0" in="shadowBlurOuter1"/></filter><ellipse id="n" cx="35.001" cy="32.499" rx="22.5" ry="22.5"/><filter id="m" width="137.8%" height="137.8%" x="-18.9%" y="-14.4%" filterUnits="objectBoundingBox"><feMorphology radius="1.5" operator="dilate" in="SourceAlpha" result="shadowSpreadOuter1"/><feOffset dy="2" in="shadowSpreadOuter1" result="shadowOffsetOuter1"/><feGaussianBlur stdDeviation="2" in="shadowOffsetOuter1" result="shadowBlurOuter1"/><feComposite in="shadowBlurOuter1" in2="SourceAlpha" operator="out" result="shadowBlurOuter1"/><feColorMatrix values="0 0 0 0 0 0 0 0 0 0 0 0 0 0 0 0 0 0 1 0" in="shadowBlurOuter1"/></filter><path id="p" d="M53.45 82.58c1.93-3.98.27-8.76-3.7-10.7-3.98-1.92-8.76-.26-10.7 3.7L.82 154.35c-1.92 3.97-.27 8.76 3.7 10.7 1.13.54 2.32.8 3.5.8 2.96 0 5.8-1.66 7.2-4.5l38.25-78.76z"/><filter id="o" width="131.3%" height="117.9%" x="-15.7%" y="-6.9%" filterUnits="objectBoundingBox"><feMorphology radius="1.5" operator="dilate" in="SourceAlpha" result="shadowSpreadOuter1"/><feOffset dy="2" in="shadowSpreadOuter1" result="shadowOffsetOuter1"/><feGaussianBlur stdDeviation="2" in="shadowOffsetOuter1" result="shadowBlurOuter1"/><feComposite in="shadowBlurOuter1" in2="SourceAlpha" operator="out" result="shadowBlurOuter1"/><feColorMatrix values="0 0 0 0 0 0 0 0 0 0 0 0 0 0 0 0 0 0 1 0" in="shadowBlurOuter1"/></filter><path id="r" d="M216.88 148.98c-4.03 3.3-9.16 5.22-14.7 5.22-1.02 0-2.03-.07-3.03-.2 3.97 5.6 11.07 9.94 24.9 6.02 16.14-4.57 20.13.24 21.07 4.68.94 4.45 6.54-8.44-6.78-15.9-6.06-3.4-14.33-1.26-21.46.18z"/><filter id="q" width="139%" height="191%" x="-21.3%" y="-34.7%" filterUnits="objectBoundingBox"><feMorphology radius="1.5" operator="dilate" in="SourceAlpha" result="shadowSpreadOuter1"/><feOffset dy="2" in="shadowSpreadOuter1" result="shadowOffsetOuter1"/><feGaussianBlur stdDeviation="2" in="shadowOffsetOuter1" result="shadowBlurOuter1"/><feComposite in="shadowBlurOuter1" in2="SourceAlpha" operator="out" result="shadowBlurOuter1"/><feColorMatrix values="0 0 0 0 0 0 0 0 0 0 0 0 0 0 0 0 0 0 0.5 0" in="shadowBlurOuter1"/></filter><path id="t" d="M181.7 126.14c-2.62 11.3 4.4 22.58 15.7 25.2 11.3 2.64 22.57-4.4 25.2-15.68 2.63-11.3-4.4-22.58-15.68-25.2-11.3-2.64-22.58 4.38-25.2 15.68z"/><filter id="s" width="140.5%" height="140.5%" x="-20.2%" y="-15.5%" filterUnits="objectBoundingBox"><feMorphology radius="1.5" operator="dilate" in="SourceAlpha" result="shadowSpreadOuter1"/><feOffset dy="2" in="shadowSpreadOuter1" result="shadowOffsetOuter1"/><feGaussianBlur stdDeviation="2" in="shadowOffsetOuter1" result="shadowBlurOuter1"/><feComposite in="shadowBlurOuter1" in2="SourceAlpha" operator="out" result="shadowBlurOuter1"/><feColorMatrix values="0 0 0 0 0 0 0 0 0 0 0 0 0 0 0 0 0 0 0.5 0" in="shadowBlurOuter1"/></filter></defs><g fill="none"><g fill-rule="nonzero"><g id="Path" transform="translate(5 -6)"><use fill="#000" filter="url(#a)" xlink:href="#b"/><use fill="#4E4E50" stroke="#1A1A1D" stroke-width="3" xlink:href="#b"/></g><g id="Path" transform="translate(5 -6)"><use fill="#000" filter="url(#c)" xlink:href="#d"/><use fill="#6F2232" stroke="#1A1A1D" stroke-width="3" xlink:href="#d"/></g><g transform="translate(5 -6)"><use fill="#000" filter="url(#e)" xlink:href="#f"/><use fill="#6F2232" stroke="#1A1A1D" stroke-width="3" xlink:href="#f"/></g><g id="Path" transform="translate(5 -6)"><use fill="#000" filter="url(#g)" xlink:href="#h"/><use fill="#6F2232" stroke="#1A1A1D" stroke-width="3" xlink:href="#h"/></g><g id="Path" transform="translate(5 -6)"><use fill="#000" filter="url(#i)" xlink:href="#j"/><use fill="#6F2232" stroke="#1A1A1D" stroke-width="3" xlink:href="#j"/></g><path id="Path" fill="#000" d="M224.96 140h-.05c.02 0 .04 0 .06 0z"/><g id="Path" transform="translate(5 -6)"><use fill="#000" filter="url(#k)" xlink:href="#l"/><use fill="#4E4E50" stroke="#1A1A1D" stroke-width="3" xlink:href="#l"/></g><g transform="translate(5 -6) rotate(-41.867 35.001 32.499)"><use fill="#000" filter="url(#m)" xlink:href="#n"/><use fill="#4E4E50" stroke="#1A1A1D" stroke-width="3" xlink:href="#n"/></g><g id="Path" transform="translate(5 -6)"><use fill="#000" filter="url(#o)" xlink:href="#p"/><use fill="#4E4E50" stroke="#1A1A1D" stroke-width="3" xlink:href="#p"/></g><g id="Path" transform="translate(5 -6)"><use fill="#000" filter="url(#q)" xlink:href="#r"/><use fill="#6F2232" stroke="#1A1A1D" stroke-width="3" xlink:href="#r"/></g><g transform="translate(5 -6)"><use fill="#000" filter="url(#s)" xlink:href="#t"/><use fill="#6F2232" stroke="#1A1A1D" stroke-width="3" xlink:href="#t"/></g></g></g></svg>