<svg xmlns="http://www.w3.org/2000/svg" xmlns:xlink="http://www.w3.org/1999/xlink" width="191" height="236"><defs><filter id="i" width="153.6%" height="148.7%" x="-26.1%" y="-20%" filterUnits="objectBoundingBox"><feMorphology in="SourceAlpha" operator="dilate" radius="1.5" result="shadowSpreadOuter1"/><feOffset dy="2" in="shadowSpreadOuter1" result="shadowOffsetOuter1"/><feGaussianBlur in="shadowOffsetOuter1" result="shadowBlurOuter1" stdDeviation="2"/><feComposite in="shadowBlurOuter1" in2="SourceAlpha" operator="out" result="shadowBlurOuter1"/><feColorMatrix in="shadowBlurOuter1" values="0 0 0 0 0 0 0 0 0 0 0 0 0 0 0 0 0 0 1 0"/></filter><filter id="q" width="140.5%" height="140.5%" x="-20.2%" y="-15.5%" filterUnits="objectBoundingBox"><feMorphology in="SourceAlpha" operator="dilate" radius="1.5" result="shadowSpreadOuter1"/><feOffset dy="2" in="shadowSpreadOuter1" result="shadowOffsetOuter1"/><feGaussianBlur in="shadowOffsetOuter1" result="shadowBlurOuter1" stdDeviation="2"/><feComposite in="shadowBlurOuter1" in2="SourceAlpha" operator="out" result="shadowBlurOuter1"/><feColorMatrix in="shadowBlurOuter1" values="0 0 0 0 0 0 0 0 0 0 0 0 0 0 0 0 0 0 1 0"/></filter><filter id="o" width="198.3%" height="135.4%" x="-49.1%" y="-15%" filterUnits="objectBoundingBox"><feMorphology in="SourceAlpha" operator="dilate" radius="1.5" result="shadowSpreadOuter1"/><feOffset dy="2" in="shadowSpreadOuter1" result="shadowOffsetOuter1"/><feGaussianBlur in="shadowOffsetOuter1" result="shadowBlurOuter1" stdDeviation="2"/><feComposite in="shadowBlurOuter1" in2="SourceAlpha" operator="out" result="shadowBlurOuter1"/><feColorMatrix in="shadowBlurOuter1" values="0 0 0 0 0 0 0 0 0 0 0 0 0 0 0 0 0 0 1 0"/></filter><filter id="c" width="117.1%" height="108.7%" x="-9%" y="-3.3%" filterUnits="objectBoundingBox"><feMorphology in="SourceAlpha" operator="dilate" radius="1.5" result="shadowSpreadOuter1"/><feOffset dy="2" in="shadowSpreadOuter1" result="shadowOffsetOuter1"/><feGaussianBlur in="shadowOffsetOuter1" result="shadowBlurOuter1" stdDeviation="2"/><feComposite in="shadowBlurOuter1" in2="SourceAlpha" operator="out" result="shadowBlurOuter1"/><feColorMatrix in="shadowBlurOuter1" values="0 0 0 0 0 0 0 0 0 0 0 0 0 0 0 0 0 0 1 0"/></filter><filter id="m" width="125.5%" height="137.1%" x="-12.7%" y="-14.2%" filterUnits="objectBoundingBox"><feMorphology in="SourceAlpha" operator="dilate" radius="1.5" result="shadowSpreadOuter1"/><feOffset dy="2" in="shadowSpreadOuter1" result="shadowOffsetOuter1"/><feGaussianBlur in="shadowOffsetOuter1" result="shadowBlurOuter1" stdDeviation="2"/><feComposite in="shadowBlurOuter1" in2="SourceAlpha" operator="out" result="shadowBlurOuter1"/><feColorMatrix in="shadowBlurOuter1" values="0 0 0 0 0 0 0 0 0 0 0 0 0 0 0 0 0 0 1 0"/></filter><filter id="e" width="133.1%" height="114.1%" x="-16.6%" y="-5.8%" filterUnits="objectBoundingBox"><feMorphology in="SourceAlpha" operator="dilate" radius="1.5" result="shadowSpreadOuter1"/><feOffset dy="2" in="shadowSpreadOuter1" result="shadowOffsetOuter1"/><feGaussianBlur in="shadowOffsetOuter1" result="shadowBlurOuter1" stdDeviation="2"/><feComposite in="shadowBlurOuter1" in2="SourceAlpha" operator="out" result="shadowBlurOuter1"/><feColorMatrix in="shadowBlurOuter1" values="0 0 0 0 0 0 0 0 0 0 0 0 0 0 0 0 0 0 1 0"/></filter><filter id="k" width="170.3%" height="175.1%" x="-35%" y="-27.5%" filterUnits="objectBoundingBox"><feMorphology in="SourceAlpha" operator="dilate" radius="1.5" result="shadowSpreadOuter1"/><feOffset dy="2" in="shadowSpreadOuter1" result="shadowOffsetOuter1"/><feGaussianBlur in="shadowOffsetOuter1" result="shadowBlurOuter1" stdDeviation="2"/><feComposite in="shadowBlurOuter1" in2="SourceAlpha" operator="out" result="shadowBlurOuter1"/><feColorMatrix in="shadowBlurOuter1" values="0 0 0 0 0 0 0 0 0 0 0 0 0 0 0 0 0 0 1 0"/></filter><filter id="g" width="137.8%" height="137.8%" x="-18.9%" y="-14.4%" filterUnits="objectBoundingBox"><feMorphology in="SourceAlpha" operator="dilate" radius="1.5" result="shadowSpreadOuter1"/><feOffset dy="2" in="shadowSpreadOuter1" result="shadowOffsetOuter1"/><feGaussianBlur in="shadowOffsetOuter1" result="shadowBlurOuter1" stdDeviation="2"/><feComposite in="shadowBlurOuter1" in2="SourceAlpha" operator="out" result="shadowBlurOuter1"/><feColorMatrix in="shadowBlurOuter1" values="0 0 0 0 0 0 0 0 0 0 0 0 0 0 0 0 0 0 1 0"/></filter><filter id="a" width="130.8%" height="129.3%" x="-14.9%" y="-11.2%" filterUnits="objectBoundingBox"><feMorphology in="SourceAlpha" operator="dilate" radius="1.5" result="shadowSpreadOuter1"/><feOffset dy="2" in="shadowSpreadOuter1" result="shadowOffsetOuter1"/><feGaussianBlur in="shadowOffsetOuter1" result="shadowBlurOuter1" stdDeviation="2"/><feComposite in="shadowBlurOuter1" in2="SourceAlpha" operator="out" result="shadowBlurOuter1"/><feColorMatrix in="shadowBlurOuter1" values="0 0 0 0 0 0 0 0 0 0 0 0 0 0 0 0 0 0 1 0"/></filter><path id="j" d="M52.1 102.7L39.2 87.02l-17.28 20.11a10 10 0 0015.16 13.04L52.1 102.7z"/><path id="l" d="M62.77 83.24l15.67-16.05-3.53-4.09a10 10 0 00-15.16 0l-6.92 8.06 9.94 12.08z"/><path id="h" d="M25.6 44.97A22.5 22.5 0 1028.05.04a22.5 22.5 0 00-2.47 44.93z"/><path id="n" d="M62.62 86.68L43.77 63.76a8 8 0 00-12.36 10.16l24.52 29.82a8 8 0 0011.9.5l26.2-26.83a8 8 0 10-11.45-11.18L62.62 86.68z"/><path id="f" d="M76.3 98.87l-6.82 6.98a10.26 10.26 0 01-7.8 3.1 10.32 10.32 0 01-7.53-3.75l-.57-.7-7.17 8.34a73.92 73.92 0 014.22 9.62c3.2 7.35 5.92 10.16 9.2 10.46-.9 35.78-23.98 71.62-24.26 72.05a12.5 12.5 0 1020.9 13.72c1.65-2.5 38.13-58.94 25.81-110.36a31.33 31.33 0 00-.64-3.26l-5.35-6.2z"/><path id="p" d="M162.09 31.85c1.67 7.58-9.37 21.54-5.4 31.98 5.42 14.27 19 10.64 14.74 9.05-4.26-1.58-8.43-6.24-1.53-21.52 7.28-16.12.69-24-5.86-28.36-.06 2.99-.7 6-1.95 8.85z"/><path id="d" d="M76.66 61.6l3.39 3.94.89-.91a10.27 10.27 0 0110.85-2.5l12.5-10.74a12.26 12.26 0 015.34-6.83 12.2 12.2 0 002.52 19.55 12.2 12.2 0 0012.26-.27 12.23 12.23 0 01-17.9-1.12 31.56 31.56 0 01-1.72 4.22c-.36.71-.74 1.38-1.14 1.99-1.81 2.7-3.71 4.67-5.64 6.33a10.25 10.25 0 01-2.33 3.76L77.9 97.22l12.01 13.95a9.99 9.99 0 009.42 3.3c.19.16.4.32.62.5L120.1 216.5a10 10 0 0019.62-3.9l-17.88-90.08c2.4-.83 4.58-2.59 6.28-5.68a23.69 23.69 0 002.38-5.43c3.6-9.1.9-15.32 5.15-24.82.3-.69.66-1.37 1.06-2.06a32.3 32.3 0 012.54-3.7 12.17 12.17 0 01-10.36-14.52 12.2 12.2 0 0024.19 2.23c.03 2.07-.44 4.16-1.51 6.1-.15.26-.3.5-.47.75l16.5 47.95a6.5 6.5 0 1012.29-4.23l-14.85-43.17c-3.3-1.2-7.79-4.13-10.51-11.3-1.8-4.7-.97-9.82.52-14.76a36.99 36.99 0 00-5.27-5.93 23.3 23.3 0 01-31.01-13.59c-2.89-.37-5.1-.4-6.45-.36a6.48 6.48 0 00-4.9 1.53l-32.79 28.2a12.3 12.3 0 012.02 1.86zm38.67-4.61A2.47 2.47 0 11111 54.6a2.47 2.47 0 014.32 2.39zM140.5 73.7a2.47 2.47 0 112.39-4.32 2.47 2.47 0 01-2.39 4.32z"/><path id="r" d="M126.68 38.13a21 21 0 1028.1-31.2 21 21 0 00-28.1 31.2z"/><path id="b" d="M7.84 106.9l11.25.22c.32-.51.67-1.01 1.08-1.49l17.55-20.42-8.08-9.83a10.23 10.23 0 01-2.3-7.54c.27-2.74 1.59-5.21 3.71-6.96a10.35 10.35 0 0114.5 1.42l5.8 7.05 5.54-6.44a190.7 190.7 0 00-5.75-5.88c-11.11-10.77-24.25-9.3-30.9-3.54-.04.04-.08.08-.12.12C6.32 63.93 1.09 91.64.1 97.61a8 8 0 007.73 9.29zM22.7 79.14c2.85 3.65 6.2 7.78 9.6 12.25l-14.48-.3c1.16-4.49 2.6-8.9 4.2-12.74.22.26.44.54.68.8z"/></defs><g fill="none" fill-rule="nonzero"><g transform="translate(5 4)"><use fill="#000" filter="url(#a)" xlink:href="#b"/><use fill="#4E4E50" stroke="#1A1A1D" stroke-width="3" xlink:href="#b"/></g><g transform="translate(5 4)"><use fill="#000" filter="url(#c)" xlink:href="#d"/><use fill="#6F2232" stroke="#1A1A1D" stroke-width="3" xlink:href="#d"/></g><g transform="translate(5 4)"><use fill="#000" filter="url(#e)" xlink:href="#f"/><use fill="#4E4E50" stroke="#1A1A1D" stroke-width="3" xlink:href="#f"/></g><g transform="translate(5 4)"><use fill="#000" filter="url(#g)" xlink:href="#h"/><use fill="#4E4E50" stroke="#1A1A1D" stroke-width="3" xlink:href="#h"/></g><g transform="translate(5 4)"><use fill="#000" filter="url(#i)" xlink:href="#j"/><use fill="#6F2232" stroke="#1A1A1D" stroke-width="3" xlink:href="#j"/></g><g transform="translate(5 4)"><use fill="#000" filter="url(#k)" xlink:href="#l"/><use fill="#6F2232" stroke="#1A1A1D" stroke-width="3" xlink:href="#l"/></g><g transform="translate(5 4)"><use fill="#000" filter="url(#m)" xlink:href="#n"/><use fill="#4E4E50" stroke="#1A1A1D" stroke-width="3" xlink:href="#n"/></g><g transform="translate(5 4)"><use fill="#000" filter="url(#o)" xlink:href="#p"/><use fill="#6F2232" stroke="#1A1A1D" stroke-width="3" xlink:href="#p"/></g><g transform="translate(5 4)"><use fill="#000" filter="url(#q)" xlink:href="#r"/><use fill="#6F2232" stroke="#1A1A1D" stroke-width="3" xlink:href="#r"/></g></g></svg>