<svg xmlns="http://www.w3.org/2000/svg" width="150" height="169" xmlns:xlink="http://www.w3.org/1999/xlink"><title>sex-etsy-23</title><defs><path id="b" d="M56.14 103.36l-.64-1.72c-.8-.24-1.54-.45-2.25-.64l-10.17 8.95.35 1.08-14.76 35.28c-1.77 4.24.08 9.16 4.13 11 1.04.48 2.13.7 3.2.7 3.08 0 6.02-1.87 7.33-5l16-38.26c.8-1.9.9-4.06.24-6.03l-.62-1.9c-1.25-.75-2.25-1.95-2.8-3.44z"/><filter id="a" width="150%" height="128.3%" x="-25%" y="-10.7%" filterUnits="objectBoundingBox"><feMorphology radius="1" operator="dilate" in="SourceAlpha" result="shadowSpreadOuter1"/><feOffset dy="2" in="shadowSpreadOuter1" result="shadowOffsetOuter1"/><feGaussianBlur stdDeviation="2" in="shadowOffsetOuter1" result="shadowBlurOuter1"/><feComposite in="shadowBlurOuter1" in2="SourceAlpha" operator="out" result="shadowBlurOuter1"/><feColorMatrix values="0 0 0 0 0 0 0 0 0 0 0 0 0 0 0 0 0 0 0.5 0" in="shadowBlurOuter1"/></filter><path id="d" d="M48.34 85.08l-4.1-11.1c-.25-.7-.4-1.45-.44-2.2l-1.22-28c-.08-1.88.53-3.68 1.72-5.06 1.2-1.38 2.83-2.2 4.6-2.28.1 0 .2 0 .3 0 3.55 0 6.47 2.93 6.63 6.68l.5 11.6c.8-2.42 1.6-4.7 2.28-6.78 2.74-6.43 1.44-14.82-3.8-17.08-5.26-2.26-13.57-.33-18.1 9.05-6.2 12.95-8.32 21.66-8.7 36.88.35 7.48 3.56 10.92 7.4 12.62l1.8 5.6 11.14-9.92z"/><filter id="c" width="150%" height="125.8%" x="-25%" y="-9.2%" filterUnits="objectBoundingBox"><feMorphology radius="1" operator="dilate" in="SourceAlpha" result="shadowSpreadOuter1"/><feOffset dy="2" in="shadowSpreadOuter1" result="shadowOffsetOuter1"/><feGaussianBlur stdDeviation="2" in="shadowOffsetOuter1" result="shadowBlurOuter1"/><feComposite in="shadowBlurOuter1" in2="SourceAlpha" operator="out" result="shadowBlurOuter1"/><feColorMatrix values="0 0 0 0 0 0 0 0 0 0 0 0 0 0 0 0 0 0 0.5 0" in="shadowBlurOuter1"/></filter><ellipse id="f" cx="67.26" cy="15.654" rx="14.983" ry="14.965"/><filter id="e" width="153.4%" height="153.5%" x="-26.7%" y="-20%" filterUnits="objectBoundingBox"><feMorphology radius="1" operator="dilate" in="SourceAlpha" result="shadowSpreadOuter1"/><feOffset dy="2" in="shadowSpreadOuter1" result="shadowOffsetOuter1"/><feGaussianBlur stdDeviation="2" in="shadowOffsetOuter1" result="shadowBlurOuter1"/><feComposite in="shadowBlurOuter1" in2="SourceAlpha" operator="out" result="shadowBlurOuter1"/><feColorMatrix values="0 0 0 0 0 0 0 0 0 0 0 0 0 0 0 0 0 0 0.5 0" in="shadowBlurOuter1"/></filter><path id="h" d="M92.6 89.92c6.57 3.4 17.24-2.54 21.52 0 .83-.32 1.7-.6 2.6-.78.77-.16 1.53-.27 2.28-.33-2.22-4.05-6.66-8.18-17.2-5.47-10.38 2.66-12.94-.18-13.53-2.8-.6-2.6-4.22 4.97 4.32 9.4z"/><filter id="g" width="151.8%" height="246.6%" x="-25%" y="-55.9%" filterUnits="objectBoundingBox"><feMorphology radius="1" operator="dilate" in="SourceAlpha" result="shadowSpreadOuter1"/><feOffset dy="2" in="shadowSpreadOuter1" result="shadowOffsetOuter1"/><feGaussianBlur stdDeviation="2" in="shadowOffsetOuter1" result="shadowBlurOuter1"/><feComposite in="shadowBlurOuter1" in2="SourceAlpha" operator="out" result="shadowBlurOuter1"/><feColorMatrix values="0 0 0 0 0 0 0 0 0 0 0 0 0 0 0 0 0 0 0.5 0" in="shadowBlurOuter1"/></filter><ellipse id="j" cx="122.938" cy="104.345" rx="14.313" ry="14.305"/><filter id="i" width="155.9%" height="155.9%" x="-27.9%" y="-21%" filterUnits="objectBoundingBox"><feMorphology radius="1" operator="dilate" in="SourceAlpha" result="shadowSpreadOuter1"/><feOffset dy="2" in="shadowSpreadOuter1" result="shadowOffsetOuter1"/><feGaussianBlur stdDeviation="2" in="shadowOffsetOuter1" result="shadowBlurOuter1"/><feComposite in="shadowBlurOuter1" in2="SourceAlpha" operator="out" result="shadowBlurOuter1"/><feColorMatrix values="0 0 0 0 0 0 0 0 0 0 0 0 0 0 0 0 0 0 0.5 0" in="shadowBlurOuter1"/></filter><path id="l" d="M67.84 104.28c-.2.46-.46.9-.76 1.3 3.22 1.58 6.7 3.56 10.37 6.1-5.98 7.87.92 11.53 5.63 11.32.08.6.64 1.05 1.27 1 .64-.06 1.12-.63 1.06-1.26 0-.18-.07-.34-.16-.48 1.36-1 3.34-3 5.22-5.03.2-.12.44-.24.67-.36l-2.34-6.84c-.52-1.47-.4-3.05.3-4.44.7-1.4 1.9-2.44 3.4-2.93.6-.2 1.24-.3 1.88-.3 2.53 0 4.78 1.58 5.6 3.95l2.7 7.9c3.6-4.52 3.42-11.14-3.42-15.98-7.5-5.3-14.5 1.6-32.8-15.66C64.15 80.43 62 79.32 60 79l7.95 20.08c.67 1.7.64 3.54-.1 5.2z"/><filter id="k" width="136.7%" height="135.8%" x="-18.9%" y="-13.6%" filterUnits="objectBoundingBox"><feMorphology radius="1" operator="dilate" in="SourceAlpha" result="shadowSpreadOuter1"/><feOffset dy="2" in="shadowSpreadOuter1" result="shadowOffsetOuter1"/><feGaussianBlur stdDeviation="2" in="shadowOffsetOuter1" result="shadowBlurOuter1"/><feComposite in="shadowBlurOuter1" in2="SourceAlpha" operator="out" result="shadowBlurOuter1"/><feColorMatrix values="0 0 0 0 0 0 0 0 0 0 0 0 0 0 0 0 0 0 0.5 0" in="shadowBlurOuter1"/></filter><path id="n" d="M26.08 110.33c1.2 1.5 3 2.44 4.96 2.63.25.03.5.04.74.04 1.7 0 3.36-.58 4.67-1.65L53.9 97.18c.66.16 1.36.33 2.1.53l-6.25-15.44L32.85 96l-19.9-24.33C10.47 68.63 5.9 68.1 2.77 70.5c-3.15 2.4-3.7 6.8-1.2 9.82l24.5 30z"/><filter id="m" width="129.8%" height="136.4%" x="-14.3%" y="-13.6%" filterUnits="objectBoundingBox"><feMorphology radius="1" operator="dilate" in="SourceAlpha" result="shadowSpreadOuter1"/><feOffset dy="2" in="shadowSpreadOuter1" result="shadowOffsetOuter1"/><feGaussianBlur stdDeviation="2" in="shadowOffsetOuter1" result="shadowBlurOuter1"/><feComposite in="shadowBlurOuter1" in2="SourceAlpha" operator="out" result="shadowBlurOuter1"/><feColorMatrix values="0 0 0 0 0 0 0 0 0 0 0 0 0 0 0 0 0 0 0.5 0" in="shadowBlurOuter1"/></filter><path id="p" d="M97.36 106.9c-.75-2.23-3.2-3.43-5.44-2.68-2.24.76-3.45 3.17-2.7 5.4l15.42 45.47c.6 1.78 2.27 2.9 4.06 2.9.46 0 .92-.07 1.38-.22 2.24-.76 3.45-3.17 2.7-5.4L97.35 106.9z"/><filter id="o" width="166.7%" height="129.6%" x="-33.3%" y="-11.1%" filterUnits="objectBoundingBox"><feMorphology radius="1" operator="dilate" in="SourceAlpha" result="shadowSpreadOuter1"/><feOffset dy="2" in="shadowSpreadOuter1" result="shadowOffsetOuter1"/><feGaussianBlur stdDeviation="2" in="shadowOffsetOuter1" result="shadowBlurOuter1"/><feComposite in="shadowBlurOuter1" in2="SourceAlpha" operator="out" result="shadowBlurOuter1"/><feColorMatrix values="0 0 0 0 0 0 0 0 0 0 0 0 0 0 0 0 0 0 0.5 0" in="shadowBlurOuter1"/></filter><path id="r" d="M55.76 103.62c.82 2.1 2.82 3.38 4.94 3.38.64 0 1.3-.12 1.93-.36 2.72-1.07 4.07-4.14 3-6.87L53.82 69.44l-1.2-26.38c-.14-2.93-2.62-5.18-5.55-5.05-2.92.14-5.18 2.62-5.04 5.55l1.26 27.25c.03.57.15 1.14.36 1.68l12.14 31.14z"/><filter id="q" width="166.7%" height="123.2%" x="-33.3%" y="-8.7%" filterUnits="objectBoundingBox"><feMorphology radius="1" operator="dilate" in="SourceAlpha" result="shadowSpreadOuter1"/><feOffset dy="2" in="shadowSpreadOuter1" result="shadowOffsetOuter1"/><feGaussianBlur stdDeviation="2" in="shadowOffsetOuter1" result="shadowBlurOuter1"/><feComposite in="shadowBlurOuter1" in2="SourceAlpha" operator="out" result="shadowBlurOuter1"/><feColorMatrix values="0 0 0 0 0 0 0 0 0 0 0 0 0 0 0 0 0 0 0.5 0" in="shadowBlurOuter1"/></filter></defs><g fill="none"><g fill-rule="nonzero"><g id="Path" transform="translate(5 4)"><use fill="#000" filter="url(#a)" xlink:href="#b"/><use fill="#4E4E50" stroke="#1A1A1D" stroke-width="2" xlink:href="#b"/></g><g id="Path" transform="translate(5 4)"><use fill="#000" filter="url(#c)" xlink:href="#d"/><use fill="#4E4E50" stroke="#1A1A1D" stroke-width="2" xlink:href="#d"/></g><g id="Oval" transform="translate(5 4) rotate(-88.951 67.26 15.654)"><use fill="#000" filter="url(#e)" xlink:href="#f"/><use fill="#4E4E50" stroke="#1A1A1D" stroke-width="2" xlink:href="#f"/></g><g id="Path" transform="translate(5 4)"><use fill="#000" filter="url(#g)" xlink:href="#h"/><use fill="#6F2232" stroke="#1A1A1D" stroke-width="2" xlink:href="#h"/></g><g transform="translate(5 4) rotate(-58.111 122.938 104.345)"><use fill="#000" filter="url(#i)" xlink:href="#j"/><use fill="#6F2232" stroke="#1A1A1D" stroke-width="2" xlink:href="#j"/></g><g id="Path" transform="translate(5 4)"><use fill="#000" filter="url(#k)" xlink:href="#l"/><use fill="#6F2232" stroke="#1A1A1D" stroke-width="2" xlink:href="#l"/></g><g id="Path" transform="translate(5 4)"><use fill="#000" filter="url(#m)" xlink:href="#n"/><use fill="#6F2232" stroke="#1A1A1D" stroke-width="2" xlink:href="#n"/></g><g id="Path" transform="translate(5 4)"><use fill="#000" filter="url(#o)" xlink:href="#p"/><use fill="#6F2232" stroke="#1A1A1D" stroke-width="2" xlink:href="#p"/></g><g transform="translate(5 4)"><use fill="#000" filter="url(#q)" xlink:href="#r"/><use fill="#4E4E50" stroke="#1A1A1D" stroke-width="2" xlink:href="#r"/></g></g></g></svg>