<svg xmlns="http://www.w3.org/2000/svg" width="274" height="162" xmlns:xlink="http://www.w3.org/1999/xlink"><title>sex-etsy-39</title><defs><circle id="b" cx="30.499" cy="123.56" r="22.5"/><filter id="a" width="137.8%" height="137.8%" x="-18.9%" y="-14.4%" filterUnits="objectBoundingBox"><feMorphology radius="1.5" operator="dilate" in="SourceAlpha" result="shadowSpreadOuter1"/><feOffset dy="2" in="shadowSpreadOuter1" result="shadowOffsetOuter1"/><feGaussianBlur stdDeviation="2" in="shadowOffsetOuter1" result="shadowBlurOuter1"/><feComposite in="shadowBlurOuter1" in2="SourceAlpha" operator="out" result="shadowBlurOuter1"/><feColorMatrix values="0 0 0 0 0 0 0 0 0 0 0 0 0 0 0 0 0 0 1 0" in="shadowBlurOuter1"/></filter><path id="d" d="M68.13 129.7c-3.98-4.04-3.92-10.57.13-14.55 1.94-1.9 4.5-2.95 7.22-2.95.8 0 1.6.1 2.36.28l1.4-7.36c-9-1.74-18.8 1.52-21.1 9-2.5 8.13 1.12 20.2 14.37 26.25l1-5.2-5.37-5.46z"/><filter id="c" width="178.9%" height="149.3%" x="-38.9%" y="-18.2%" filterUnits="objectBoundingBox"><feMorphology radius="1.5" operator="dilate" in="SourceAlpha" result="shadowSpreadOuter1"/><feOffset dy="2" in="shadowSpreadOuter1" result="shadowOffsetOuter1"/><feGaussianBlur stdDeviation="2" in="shadowOffsetOuter1" result="shadowBlurOuter1"/><feComposite in="shadowBlurOuter1" in2="SourceAlpha" operator="out" result="shadowBlurOuter1"/><feColorMatrix values="0 0 0 0 0 0 0 0 0 0 0 0 0 0 0 0 0 0 1 0" in="shadowBlurOuter1"/></filter><path id="f" d="M160.63 111.77l-6.32 3.92c-3.98 3.84-8.34 5.87-12.6 5.87-4.78 0-9.22-2.45-13.22-7.3-10.74.04-22.07-2.26-32.16-4.74l-3.12 16.32 13.93 14.18h37.85c.32-.6.6-1.2.87-1.83l45.74-4.1 4.5.8-11-25.32-24.47 2.2z"/><filter id="e" width="117.6%" height="156.8%" x="-8.4%" y="-22.4%" filterUnits="objectBoundingBox"><feMorphology radius="1.5" operator="dilate" in="SourceAlpha" result="shadowSpreadOuter1"/><feOffset dy="2" in="shadowSpreadOuter1" result="shadowOffsetOuter1"/><feGaussianBlur stdDeviation="2" in="shadowOffsetOuter1" result="shadowBlurOuter1"/><feComposite in="shadowBlurOuter1" in2="SourceAlpha" operator="out" result="shadowBlurOuter1"/><feColorMatrix values="0 0 0 0 0 0 0 0 0 0 0 0 0 0 0 0 0 0 1 0" in="shadowBlurOuter1"/></filter><path id="h" d="M226.33 140.3l31.78 5.67c.76.13 1.5.2 2.22.2 5.95 0 11.22-4.26 12.3-10.3 1.2-6.8-3.32-13.3-10.1-14.5l-48.12-8.6 11.65 26.8c.1.23.2.48.28.73z"/><filter id="g" width="130.8%" height="152.3%" x="-16.2%" y="-20.9%" filterUnits="objectBoundingBox"><feMorphology radius="1.5" operator="dilate" in="SourceAlpha" result="shadowSpreadOuter1"/><feOffset dy="2" in="shadowSpreadOuter1" result="shadowOffsetOuter1"/><feGaussianBlur stdDeviation="2" in="shadowOffsetOuter1" result="shadowBlurOuter1"/><feComposite in="shadowBlurOuter1" in2="SourceAlpha" operator="out" result="shadowBlurOuter1"/><feColorMatrix values="0 0 0 0 0 0 0 0 0 0 0 0 0 0 0 0 0 0 1 0" in="shadowBlurOuter1"/></filter><path id="j" d="M223.94 140.48l-27.83-64c-1.2-2.8-3.58-4.93-6.5-5.84-2.9-.9-6.07-.5-8.66 1.1l-27.07 16.8c-8.23-3.6-20.34-9.92-33.73-22.8 10.38-10.12 1.87-17.1-5.03-18.2.02-.03.02-.06.02-.08 0-.97-.78-1.75-1.75-1.75-.96 0-1.75.8-1.75 1.76 0 .12.02.24.04.36-2.2 1.03-5.86 3.74-9.36 6.54-3.5 1.3-8 3.1-16.35-.22-8.1 5.37-10.9 16.14-1.9 25.78l.95-4.9c.8-4.15 4.42-7.16 8.63-7.16.56 0 1.12.06 1.67.16 4.76.9 7.9 5.53 7 10.3l-1.85 9.6c7.38 2.64 16.57 7.55 29 23.9 8.26 10.85 17.02 8.34 23.44 2.05L181.7 96l22.98 52.85c1.72 3.96 5.58 6.32 9.64 6.32 1.4 0 2.82-.28 4.18-.88 5.32-2.32 7.75-8.5 5.44-13.82z"/><filter id="i" width="111.6%" height="115.5%" x="-5.8%" y="-5.9%" filterUnits="objectBoundingBox"><feMorphology radius="1.5" operator="dilate" in="SourceAlpha" result="shadowSpreadOuter1"/><feOffset dy="2" in="shadowSpreadOuter1" result="shadowOffsetOuter1"/><feGaussianBlur stdDeviation="2" in="shadowOffsetOuter1" result="shadowBlurOuter1"/><feComposite in="shadowBlurOuter1" in2="SourceAlpha" operator="out" result="shadowBlurOuter1"/><feColorMatrix values="0 0 0 0 0 0 0 0 0 0 0 0 0 0 0 0 0 0 0.5 0" in="shadowBlurOuter1"/></filter><path id="l" d="M63.85 51.14c-1.62-.94-3.08-2.04-4.4-3.26-5.36 5.16-9.4 13.48-1.28 27.4 8.45 14.47 4.8 19.54.72 21.56-4.08 2.02 9.8 4.22 13.7-10.53 3.3-12.43-13.7-27.45-7.26-34.4-.5-.23-1-.48-1.5-.76z"/><filter id="k" width="187.3%" height="134.8%" x="-43.7%" y="-14%" filterUnits="objectBoundingBox"><feMorphology radius="1.5" operator="dilate" in="SourceAlpha" result="shadowSpreadOuter1"/><feOffset dy="2" in="shadowSpreadOuter1" result="shadowOffsetOuter1"/><feGaussianBlur stdDeviation="2" in="shadowOffsetOuter1" result="shadowBlurOuter1"/><feComposite in="shadowBlurOuter1" in2="SourceAlpha" operator="out" result="shadowBlurOuter1"/><feColorMatrix values="0 0 0 0 0 0 0 0 0 0 0 0 0 0 0 0 0 0 0.5 0" in="shadowBlurOuter1"/></filter><circle id="n" cx="75.712" cy="30.507" r="21.499"/><filter id="m" width="139.5%" height="139.5%" x="-19.8%" y="-15.1%" filterUnits="objectBoundingBox"><feMorphology radius="1.5" operator="dilate" in="SourceAlpha" result="shadowSpreadOuter1"/><feOffset dy="2" in="shadowSpreadOuter1" result="shadowOffsetOuter1"/><feGaussianBlur stdDeviation="2" in="shadowOffsetOuter1" result="shadowBlurOuter1"/><feComposite in="shadowBlurOuter1" in2="SourceAlpha" operator="out" result="shadowBlurOuter1"/><feColorMatrix values="0 0 0 0 0 0 0 0 0 0 0 0 0 0 0 0 0 0 0.5 0" in="shadowBlurOuter1"/></filter><path id="p" d="M106.17 142.33l-13.5-13.74-3.64 19.1 8.07 8.24c1.5 1.53 3.56 2.4 5.7 2.4h48.76c4.42 0 8-3.6 8-8 0-4.43-3.58-8-8-8h-45.4z"/><filter id="o" width="124.3%" height="162.5%" x="-12.2%" y="-27.2%" filterUnits="objectBoundingBox"><feMorphology radius="1.5" operator="dilate" in="SourceAlpha" result="shadowSpreadOuter1"/><feOffset dy="2" in="shadowSpreadOuter1" result="shadowOffsetOuter1"/><feGaussianBlur stdDeviation="2" in="shadowOffsetOuter1" result="shadowBlurOuter1"/><feComposite in="shadowBlurOuter1" in2="SourceAlpha" operator="out" result="shadowBlurOuter1"/><feColorMatrix values="0 0 0 0 0 0 0 0 0 0 0 0 0 0 0 0 0 0 1 0" in="shadowBlurOuter1"/></filter><path id="r" d="M69.77 128.1l4.26 4.34 3.38-17.7c-2.6-.64-5.47.03-7.53 2.05-3.15 3.08-3.2 8.15-.1 11.3z"/><filter id="q" width="273.4%" height="203.7%" x="-85.6%" y="-36.2%" filterUnits="objectBoundingBox"><feMorphology radius="1.5" operator="dilate" in="SourceAlpha" result="shadowSpreadOuter1"/><feOffset dy="2" in="shadowSpreadOuter1" result="shadowOffsetOuter1"/><feGaussianBlur stdDeviation="2" in="shadowOffsetOuter1" result="shadowBlurOuter1"/><feComposite in="shadowBlurOuter1" in2="SourceAlpha" operator="out" result="shadowBlurOuter1"/><feColorMatrix values="0 0 0 0 0 0 0 0 0 0 0 0 0 0 0 0 0 0 1 0" in="shadowBlurOuter1"/></filter><path id="t" d="M100.03 77.88c.67-3.52-1.64-6.93-5.17-7.6-3.52-.68-6.93 1.64-7.6 5.16l-14.33 75c-.68 3.53 1.63 6.93 5.16 7.6.4.1.8.12 1.22.12 3.06 0 5.78-2.16 6.38-5.28l14.33-75z"/><filter id="s" width="162.2%" height="119.3%" x="-31.1%" y="-7.4%" filterUnits="objectBoundingBox"><feMorphology radius="1.5" operator="dilate" in="SourceAlpha" result="shadowSpreadOuter1"/><feOffset dy="2" in="shadowSpreadOuter1" result="shadowOffsetOuter1"/><feGaussianBlur stdDeviation="2" in="shadowOffsetOuter1" result="shadowBlurOuter1"/><feComposite in="shadowBlurOuter1" in2="SourceAlpha" operator="out" result="shadowBlurOuter1"/><feColorMatrix values="0 0 0 0 0 0 0 0 0 0 0 0 0 0 0 0 0 0 0.5 0" in="shadowBlurOuter1"/></filter></defs><g fill="none"><g fill-rule="nonzero"><g id="Oval" transform="translate(-4 -4) rotate(-63.768 30.499 123.56)"><use fill="#000" filter="url(#a)" xlink:href="#b"/><use fill="#4E4E50" stroke="#1A1A1D" stroke-width="3" xlink:href="#b"/></g><g id="Path" transform="translate(-4 -4)"><use fill="#000" filter="url(#c)" xlink:href="#d"/><use fill="#4E4E50" stroke="#1A1A1D" stroke-width="3" xlink:href="#d"/></g><g id="Path" transform="translate(-4 -4)"><use fill="#000" filter="url(#e)" xlink:href="#f"/><use fill="#4E4E50" stroke="#1A1A1D" stroke-width="3" xlink:href="#f"/></g><g id="Path" transform="translate(-4 -4)"><use fill="#000" filter="url(#g)" xlink:href="#h"/><use fill="#4E4E50" stroke="#1A1A1D" stroke-width="3" xlink:href="#h"/></g><g id="Path" transform="translate(-4 -4)"><use fill="#000" filter="url(#i)" xlink:href="#j"/><use fill="#6F2232" stroke="#1A1A1D" stroke-width="3" xlink:href="#j"/></g><g id="Path" transform="translate(-4 -4)"><use fill="#000" filter="url(#k)" xlink:href="#l"/><use fill="#6F2232" stroke="#1A1A1D" stroke-width="3" xlink:href="#l"/></g><g transform="translate(-4 -4) rotate(-56.37 75.712 30.507)"><use fill="#000" filter="url(#m)" xlink:href="#n"/><use fill="#6F2232" stroke="#1A1A1D" stroke-width="3" xlink:href="#n"/></g><g id="Path" transform="translate(-4 -4)"><use fill="#000" filter="url(#o)" xlink:href="#p"/><use fill="#4E4E50" stroke="#1A1A1D" stroke-width="3" xlink:href="#p"/></g><g id="Path" transform="translate(-4 -4)"><use fill="#000" filter="url(#q)" xlink:href="#r"/><use fill="#4E4E50" stroke="#1A1A1D" stroke-width="3" xlink:href="#r"/></g><g transform="translate(-4 -4)"><use fill="#000" filter="url(#s)" xlink:href="#t"/><use fill="#6F2232" stroke="#1A1A1D" stroke-width="3" xlink:href="#t"/></g></g></g></svg>