<svg xmlns="http://www.w3.org/2000/svg" width="263" height="172" xmlns:xlink="http://www.w3.org/1999/xlink"><title>sex-etsy-28</title><defs><path id="b" d="M121.53 21.4l5 20.94c2.82 1.5 6 2.44 9.4 2.63 12.4.68 23-8.83 23.7-21.24.67-12.4-8.83-23.02-21.24-23.7-9.8-.53-18.46 5.27-22.02 13.83 2.52 1.74 4.4 4.38 5.15 7.54z"/><filter id="a" width="140.1%" height="137.8%" x="-20.4%" y="-14.4%" filterUnits="objectBoundingBox"><feMorphology radius="1.5" operator="dilate" in="SourceAlpha" result="shadowSpreadOuter1"/><feOffset dy="2" in="shadowSpreadOuter1" result="shadowOffsetOuter1"/><feGaussianBlur stdDeviation="2" in="shadowOffsetOuter1" result="shadowBlurOuter1"/><feComposite in="shadowBlurOuter1" in2="SourceAlpha" operator="out" result="shadowBlurOuter1"/><feColorMatrix values="0 0 0 0 0 0 0 0 0 0 0 0 0 0 0 0 0 0 1 0" in="shadowBlurOuter1"/></filter><path id="d" d="M158.8 126.46s-.6-.42-1.54-1.1c-2.12-1.6-3.8-3.06-5.7-3.95-4.3-2.9-9.5-6.22-12.5-7.46.06-.24.08-.5.04-.77-.16-.96-1.06-1.6-2-1.44-.94.15-1.57 1-1.46 1.94-4.96 1.06-10.8 5.52-9.27 11.4-6.84.97-12.76 1.14-17.88.9l7.26-10.43 14.66-21.04-2.12 1.02c-1.4.67-2.93 1.02-4.46 1.02-2.84 0-5.58-1.18-7.52-3.25l-6.1-6.53-12.88 18.46L85.64 122l9.6 13.5c2 2.8 2.9 6.14 2.7 9.44h24.1l27.33-13.97c1.24-.63 2.62-.96 4-.96 3.33 0 6.33 1.85 7.84 4.8 2.22 4.32.5 9.64-3.82 11.84l-13 6.65c4.1 1.12 7.7 2 12.17 1.03 13.68-2.94 17.4-13.88 13.35-23-5.07-1.2-8.46-3.05-11.1-4.87z"/><filter id="c" width="120.2%" height="126.3%" x="-10.3%" y="-10.9%" filterUnits="objectBoundingBox"><feMorphology radius="1.5" operator="dilate" in="SourceAlpha" result="shadowSpreadOuter1"/><feOffset dy="2" in="shadowSpreadOuter1" result="shadowOffsetOuter1"/><feGaussianBlur stdDeviation="2" in="shadowOffsetOuter1" result="shadowBlurOuter1"/><feComposite in="shadowBlurOuter1" in2="SourceAlpha" operator="out" result="shadowBlurOuter1"/><feColorMatrix values="0 0 0 0 0 0 0 0 0 0 0 0 0 0 0 0 0 0 1 0" in="shadowBlurOuter1"/></filter><path id="f" d="M126.18 73.68l4.92-2.37-11.8-49.36c-1.36-5.64-7.02-9.12-12.66-7.77-5.64 1.35-9.12 7-7.77 12.65l5.7 23.88c.18.16.36.32.53.5l21.08 22.48z"/><filter id="e" width="153%" height="129%" x="-26.1%" y="-10.9%" filterUnits="objectBoundingBox"><feMorphology radius="1.5" operator="dilate" in="SourceAlpha" result="shadowSpreadOuter1"/><feOffset dy="2" in="shadowSpreadOuter1" result="shadowOffsetOuter1"/><feGaussianBlur stdDeviation="2" in="shadowOffsetOuter1" result="shadowBlurOuter1"/><feComposite in="shadowBlurOuter1" in2="SourceAlpha" operator="out" result="shadowBlurOuter1"/><feColorMatrix values="0 0 0 0 0 0 0 0 0 0 0 0 0 0 0 0 0 0 1 0" in="shadowBlurOuter1"/></filter><path id="h" d="M12.5 131.57c-6.9 0-12.5 5.6-12.5 12.5s5.6 12.5 12.5 12.5h59.17c-.3-.9-.47-1.84-.47-2.83 0-4.85 3.95-8.8 8.8-8.8h15.63c.2-2.84-.57-5.7-2.27-8.12l-16-22.5-2.38-3.36c13.27-10.6 21.15-19.24 28.4-31.48l-13.3-14.2c-1.9-2-2.88-4.62-2.8-7.37.1-2.74 1.25-5.3 3.26-7.17 1.92-1.8 4.42-2.8 7.04-2.8 1.46 0 2.88.33 4.2.9l-3-12.47c-6.97-.85-15.15 4.37-19.25 11.8-7.95 11.84-18.7 29.48-32.48 40-1.46 1.32-2.67 2.5-3.67 3.6-.54.56-1.03 1.15-1.45 1.78-1.6 2.17-2.22 4-2.1 5.7-.3 2.93.4 5.98 2.23 8.57l9.73 13.7 7.15 10.07H12.5z"/><filter id="g" width="116.8%" height="114.1%" x="-8.2%" y="-5.4%" filterUnits="objectBoundingBox"><feMorphology radius="1.5" operator="dilate" in="SourceAlpha" result="shadowSpreadOuter1"/><feOffset dy="2" in="shadowSpreadOuter1" result="shadowOffsetOuter1"/><feGaussianBlur stdDeviation="2" in="shadowOffsetOuter1" result="shadowBlurOuter1"/><feComposite in="shadowBlurOuter1" in2="SourceAlpha" operator="out" result="shadowBlurOuter1"/><feColorMatrix values="0 0 0 0 0 0 0 0 0 0 0 0 0 0 0 0 0 0 1 0" in="shadowBlurOuter1"/></filter><path id="j" d="M159.17 135.85c-1.64-3.2-5.55-4.46-8.75-2.83l-27.82 14.22H80c-3.6 0-6.5 2.9-6.5 6.5s2.9 6.5 6.5 6.5h44.17c1.02 0 2.04-.24 2.96-.7l29.2-14.94c3.2-1.64 4.47-5.55 2.84-8.75z"/><filter id="i" width="119.7%" height="160.9%" x="-9.8%" y="-23.3%" filterUnits="objectBoundingBox"><feMorphology radius="1.5" operator="dilate" in="SourceAlpha" result="shadowSpreadOuter1"/><feOffset dy="2" in="shadowSpreadOuter1" result="shadowOffsetOuter1"/><feGaussianBlur stdDeviation="2" in="shadowOffsetOuter1" result="shadowBlurOuter1"/><feComposite in="shadowBlurOuter1" in2="SourceAlpha" operator="out" result="shadowBlurOuter1"/><feColorMatrix values="0 0 0 0 0 0 0 0 0 0 0 0 0 0 0 0 0 0 1 0" in="shadowBlurOuter1"/></filter><path id="l" d="M125.65 76.5l-22.23-23.73c-3.02-3.22-8.08-3.4-11.3-.37-3.23 3.03-3.4 8.1-.37 11.3l26.25 28c1.55 1.66 3.67 2.54 5.84 2.54 1.17 0 2.35-.26 3.46-.8l39.83-19.16c4-1.9 5.66-6.7 3.75-10.67-1.92-3.97-6.7-5.65-10.68-3.73L125.65 76.5z"/><filter id="k" width="120.7%" height="138.6%" x="-10.4%" y="-14.8%" filterUnits="objectBoundingBox"><feMorphology radius="1.5" operator="dilate" in="SourceAlpha" result="shadowSpreadOuter1"/><feOffset dy="2" in="shadowSpreadOuter1" result="shadowOffsetOuter1"/><feGaussianBlur stdDeviation="2" in="shadowOffsetOuter1" result="shadowBlurOuter1"/><feComposite in="shadowBlurOuter1" in2="SourceAlpha" operator="out" result="shadowBlurOuter1"/><feColorMatrix values="0 0 0 0 0 0 0 0 0 0 0 0 0 0 0 0 0 0 1 0" in="shadowBlurOuter1"/></filter><path id="n" d="M237.4 137.4c-7.7-.67-15.07 6.05-21.43 10.4-.45.73-.93 1.44-1.46 2.13-3 3.87-6.95 6.57-11.27 8 5.96 3.76 14.42 5.2 25.8-4.4 12.8-10.84 18.42-8.1 21.1-4.44 2.7 3.65 2.47-10.4-12.74-11.7z"/><filter id="m" width="139.2%" height="172.5%" x="-21.6%" y="-27.7%" filterUnits="objectBoundingBox"><feMorphology radius="1.5" operator="dilate" in="SourceAlpha" result="shadowSpreadOuter1"/><feOffset dy="2" in="shadowSpreadOuter1" result="shadowOffsetOuter1"/><feGaussianBlur stdDeviation="2" in="shadowOffsetOuter1" result="shadowBlurOuter1"/><feComposite in="shadowBlurOuter1" in2="SourceAlpha" operator="out" result="shadowBlurOuter1"/><feColorMatrix values="0 0 0 0 0 0 0 0 0 0 0 0 0 0 0 0 0 0 1 0" in="shadowBlurOuter1"/></filter><circle id="p" cx="195.671" cy="135.384" r="21.5"/><filter id="o" width="139.5%" height="139.5%" x="-19.8%" y="-15.1%" filterUnits="objectBoundingBox"><feMorphology radius="1.5" operator="dilate" in="SourceAlpha" result="shadowSpreadOuter1"/><feOffset dy="2" in="shadowSpreadOuter1" result="shadowOffsetOuter1"/><feGaussianBlur stdDeviation="2" in="shadowOffsetOuter1" result="shadowBlurOuter1"/><feComposite in="shadowBlurOuter1" in2="SourceAlpha" operator="out" result="shadowBlurOuter1"/><feColorMatrix values="0 0 0 0 0 0 0 0 0 0 0 0 0 0 0 0 0 0 1 0" in="shadowBlurOuter1"/></filter></defs><g fill="none"><g fill-rule="nonzero"><g id="Path" transform="translate(6 4)"><use fill="#000" filter="url(#a)" xlink:href="#b"/><use fill="#4E4E50" stroke="#1A1A1D" stroke-width="3" xlink:href="#b"/></g><g id="Path" transform="translate(6 4)"><use fill="#000" filter="url(#c)" xlink:href="#d"/><use fill="#6F2232" stroke="#1A1A1D" stroke-width="3" xlink:href="#d"/></g><g id="Path" transform="translate(6 4)"><use fill="#000" filter="url(#e)" xlink:href="#f"/><use fill="#6F2232" stroke="#1A1A1D" stroke-width="3" xlink:href="#f"/></g><g id="Path" transform="translate(6 4)"><use fill="#000" filter="url(#g)" xlink:href="#h"/><use fill="#4E4E50" stroke="#1A1A1D" stroke-width="3" xlink:href="#h"/></g><g id="Path" transform="translate(6 4)"><use fill="#000" filter="url(#i)" xlink:href="#j"/><use fill="#6F2232" stroke="#1A1A1D" stroke-width="3" xlink:href="#j"/></g><g id="Path" transform="translate(6 4)"><use fill="#000" filter="url(#k)" xlink:href="#l"/><use fill="#4E4E50" stroke="#1A1A1D" stroke-width="3" xlink:href="#l"/></g><g transform="translate(6 4)"><use fill="#000" filter="url(#m)" xlink:href="#n"/><use fill="#6F2232" stroke="#1A1A1D" stroke-width="3" xlink:href="#n"/></g><g transform="translate(6 4) rotate(-77.93 195.671 135.384)"><use fill="#000" filter="url(#o)" xlink:href="#p"/><use fill="#6F2232" stroke="#1A1A1D" stroke-width="3" xlink:href="#p"/></g></g></g></svg>