<svg xmlns="http://www.w3.org/2000/svg" xmlns:xlink="http://www.w3.org/1999/xlink" width="186" height="264"><defs><filter id="s" width="140.5%" height="140.5%" x="-20.2%" y="-15.5%" filterUnits="objectBoundingBox"><feMorphology in="SourceAlpha" operator="dilate" radius="1.5" result="shadowSpreadOuter1"/><feOffset dy="2" in="shadowSpreadOuter1" result="shadowOffsetOuter1"/><feGaussianBlur in="shadowOffsetOuter1" result="shadowBlurOuter1" stdDeviation="2"/><feComposite in="shadowBlurOuter1" in2="SourceAlpha" operator="out" result="shadowBlurOuter1"/><feColorMatrix in="shadowBlurOuter1" values="0 0 0 0 0 0 0 0 0 0 0 0 0 0 0 0 0 0 0.5 0"/></filter><filter id="c" width="173.3%" height="160.8%" x="-36.1%" y="-26.1%" filterUnits="objectBoundingBox"><feMorphology in="SourceAlpha" operator="dilate" radius="1.5" result="shadowSpreadOuter1"/><feOffset dy="2" in="shadowSpreadOuter1" result="shadowOffsetOuter1"/><feGaussianBlur in="shadowOffsetOuter1" result="shadowBlurOuter1" stdDeviation="2"/><feComposite in="shadowBlurOuter1" in2="SourceAlpha" operator="out" result="shadowBlurOuter1"/><feColorMatrix in="shadowBlurOuter1" values="0 0 0 0 0 0 0 0 0 0 0 0 0 0 0 0 0 0 1 0"/></filter><filter id="e" width="159.4%" height="145.9%" x="-21.5%" y="-17%" filterUnits="objectBoundingBox"><feMorphology in="SourceAlpha" operator="dilate" radius="1.5" result="shadowSpreadOuter1"/><feOffset dy="2" in="shadowSpreadOuter1" result="shadowOffsetOuter1"/><feGaussianBlur in="shadowOffsetOuter1" result="shadowBlurOuter1" stdDeviation="2"/><feComposite in="shadowBlurOuter1" in2="SourceAlpha" operator="out" result="shadowBlurOuter1"/><feColorMatrix in="shadowBlurOuter1" values="0 0 0 0 0 0 0 0 0 0 0 0 0 0 0 0 0 0 1 0"/></filter><filter id="g" width="123.9%" height="115.4%" x="-11.9%" y="-6.6%" filterUnits="objectBoundingBox"><feMorphology in="SourceAlpha" operator="dilate" radius="1.5" result="shadowSpreadOuter1"/><feOffset dy="2" in="shadowSpreadOuter1" result="shadowOffsetOuter1"/><feGaussianBlur in="shadowOffsetOuter1" result="shadowBlurOuter1" stdDeviation="2"/><feComposite in="shadowBlurOuter1" in2="SourceAlpha" operator="out" result="shadowBlurOuter1"/><feColorMatrix in="shadowBlurOuter1" values="0 0 0 0 0 0 0 0 0 0 0 0 0 0 0 0 0 0 1 0"/></filter><filter id="i" width="109.7%" height="114.4%" x="-4.9%" y="-5.5%" filterUnits="objectBoundingBox"><feMorphology in="SourceAlpha" operator="dilate" radius="1.5" result="shadowSpreadOuter1"/><feOffset dy="2" in="shadowSpreadOuter1" result="shadowOffsetOuter1"/><feGaussianBlur in="shadowOffsetOuter1" result="shadowBlurOuter1" stdDeviation="2"/><feComposite in="shadowBlurOuter1" in2="SourceAlpha" operator="out" result="shadowBlurOuter1"/><feColorMatrix in="shadowBlurOuter1" values="0 0 0 0 0 0 0 0 0 0 0 0 0 0 0 0 0 0 0.5 0"/></filter><filter id="a" width="173.3%" height="160.8%" x="-37.2%" y="-26.1%" filterUnits="objectBoundingBox"><feMorphology in="SourceAlpha" operator="dilate" radius="1.5" result="shadowSpreadOuter1"/><feOffset dy="2" in="shadowSpreadOuter1" result="shadowOffsetOuter1"/><feGaussianBlur in="shadowOffsetOuter1" result="shadowBlurOuter1" stdDeviation="2"/><feComposite in="shadowBlurOuter1" in2="SourceAlpha" operator="out" result="shadowBlurOuter1"/><feColorMatrix in="shadowBlurOuter1" values="0 0 0 0 0 0 0 0 0 0 0 0 0 0 0 0 0 0 1 0"/></filter><filter id="k" width="195.4%" height="189.3%" x="-47.7%" y="-34.1%" filterUnits="objectBoundingBox"><feMorphology in="SourceAlpha" operator="dilate" radius="1.5" result="shadowSpreadOuter1"/><feOffset dy="2" in="shadowSpreadOuter1" result="shadowOffsetOuter1"/><feGaussianBlur in="shadowOffsetOuter1" result="shadowBlurOuter1" stdDeviation="2"/><feComposite in="shadowBlurOuter1" in2="SourceAlpha" operator="out" result="shadowBlurOuter1"/><feColorMatrix in="shadowBlurOuter1" values="0 0 0 0 0 0 0 0 0 0 0 0 0 0 0 0 0 0 1 0"/></filter><filter id="m" width="195.4%" height="189.3%" x="-47.7%" y="-34.2%" filterUnits="objectBoundingBox"><feMorphology in="SourceAlpha" operator="dilate" radius="1.5" result="shadowSpreadOuter1"/><feOffset dy="2" in="shadowSpreadOuter1" result="shadowOffsetOuter1"/><feGaussianBlur in="shadowOffsetOuter1" result="shadowBlurOuter1" stdDeviation="2"/><feComposite in="shadowBlurOuter1" in2="SourceAlpha" operator="out" result="shadowBlurOuter1"/><feColorMatrix in="shadowBlurOuter1" values="0 0 0 0 0 0 0 0 0 0 0 0 0 0 0 0 0 0 1 0"/></filter><filter id="o" width="128.5%" height="129.8%" x="-14.4%" y="-11.9%" filterUnits="objectBoundingBox"><feMorphology in="SourceAlpha" operator="dilate" radius="1.5" result="shadowSpreadOuter1"/><feOffset dy="2" in="shadowSpreadOuter1" result="shadowOffsetOuter1"/><feGaussianBlur in="shadowOffsetOuter1" result="shadowBlurOuter1" stdDeviation="2"/><feComposite in="shadowBlurOuter1" in2="SourceAlpha" operator="out" result="shadowBlurOuter1"/><feColorMatrix in="shadowBlurOuter1" values="0 0 0 0 0 0 0 0 0 0 0 0 0 0 0 0 0 0 0.5 0"/></filter><filter id="q" width="198.3%" height="134.9%" x="-49.1%" y="-14.2%" filterUnits="objectBoundingBox"><feMorphology in="SourceAlpha" operator="dilate" radius="1.5" result="shadowSpreadOuter1"/><feOffset dy="2" in="shadowSpreadOuter1" result="shadowOffsetOuter1"/><feGaussianBlur in="shadowOffsetOuter1" result="shadowBlurOuter1" stdDeviation="2"/><feComposite in="shadowBlurOuter1" in2="SourceAlpha" operator="out" result="shadowBlurOuter1"/><feColorMatrix in="shadowBlurOuter1" values="0 0 0 0 0 0 0 0 0 0 0 0 0 0 0 0 0 0 0.5 0"/></filter><path id="d" d="M111.5 100.59c.5 1.09 1 2.2 1.47 3.36l1.36-.97V91.26a53.28 53.28 0 013.24 9.42l13.79-9.82c-.8-2.4-1.7-4.63-2.68-6.7L113.69 71.3a12.14 12.14 0 01-2.3 6.38 5.18 5.18 0 002.82 2.24c2.09.78 2.5 2.36 2.23 3.48-.59 2.37-3.83 2.82-6.42 2.48-.57-.07-1.3-.21-2.14-.46-.08 1.08-.1 2.1-.02 3.05.43 5.04 1.99 8.48 3.64 12.12z"/><path id="h" d="M103.04 141.22a12.34 12.34 0 01-15.75-1.25 12.33 12.33 0 01-15.75 1.25l-11.3-8.05v1.64l-8.53 104.6a12.36 12.36 0 0024.65 2l7.42-91.08h7l7.43 91.09a12.36 12.36 0 0024.65-2.01l-8.53-104.6v-1.63l-11.3 8.04z"/><path id="n" d="M138.4 123.65l-2.09-7.07a8 8 0 00-15.35 4.51l2.08 7.08c1.25 4.24 16.6-.28 15.35-4.52z"/><path id="b" d="M43.21 90.86l13.78 9.8c.98-3.91 2.1-7.03 3.25-9.51v11.83l1.36.97a96.7 96.7 0 011.47-3.36c1.65-3.64 3.22-7.08 3.64-12.12.2-2.32-.15-5.1-.83-8.1a12.19 12.19 0 01-5-9.07L45.9 84.17a60.75 60.75 0 00-2.68 6.69z"/><path id="p" d="M119.15 51.88a7.98 7.98 0 00-1.95-1.24 37.14 37.14 0 01-3.22 10.85 59.16 59.16 0 00-1.5 3.64c.45.93.8 1.93 1.01 2.97l45.83 39.33a7.96 7.96 0 0011.28-.86 8 8 0 00-.86-11.28l-50.59-43.41z"/><path id="j" d="M153.1 105.12L136.26 90.7c-.88.3-1.72.72-2.5 1.28l-21.91 15.6c-2.05-6.33-5.6-10.65-6.3-18.9-.1-1.27-.06-2.65.1-4.1-.97-.47-2-1.08-3.03-1.9a12.23 12.23 0 01-12.78-8.5 12.2 12.2 0 0010.4 6.15 21.98 21.98 0 01-3.73-6.48c-2.57-6.75.23-14.35 2.7-21.05 1.05-2.87 2.07-5.65 2.5-7.96-2.6-.55-5.5-1-8.7-1.24a23.47 23.47 0 01-11.02.1c-.13-.03-.26-.07-.4-.1C68.33 44.6 60.06 49 57.43 50.6a8 8 0 00-2.01 1.27L4.83 95.29a8 8 0 0010.42 12.14L61.08 68.1c.26-1.31.74-2.54 1.38-3.66a12.21 12.21 0 0022.26 9.73 12.23 12.23 0 01-16.2 7.67c.45 2.48.66 4.8.49 6.82-.7 8.26-4.25 12.58-6.3 18.9l-21.9-15.6a9.96 9.96 0 00-2.51-1.27l-16.82 14.43L1 147.52a10 10 0 1018 8.7l14.95-30.95c-.2-.74-.2-1.5.02-2.27l2.08-7.07a10.31 10.31 0 0119.76 5.81l-1.32 4.52 18.38 13.08a10 10 0 0014.42-3.08 10 10 0 0014.42 3.08l18.37-13.08-1.32-4.52a10.31 10.31 0 0119.76-5.81l2.08 7.07c.23.77.22 1.53.02 2.27l14.94 30.94a10 10 0 1018.01-8.7l-20.48-42.39zM71 75.02a2.47 2.47 0 110-4.93 2.47 2.47 0 010 4.94z"/><path id="r" d="M102.73 38.45c6.1 6.52-8.54 22.8-4.06 34.57 5.42 14.27 19 10.64 14.74 9.06-4.26-1.59-8.43-6.25-1.53-21.53 6.83-15.12 1.45-23-4.65-27.51a23.14 23.14 0 01-4.5 5.41z"/><path id="f" d="M54.24 50.02l.91-.67c.38-.27 7.85-5.58 21.64-7.56A23.37 23.37 0 0164 21.2a22.5 22.5 0 00-20.35 37.77l10.28-8.83a.6.6 0 01.32-.11z"/><path id="t" d="M82.53 41.45A21 21 0 1092.04.55a21 21 0 00-9.51 40.9z"/><path id="l" d="M53.6 121.1a8 8 0 00-15.34-4.52l-2.08 7.07c-1.25 4.24 14.1 8.76 15.35 4.52l2.08-7.08z"/></defs><g fill="none" fill-rule="nonzero"><g transform="translate(6 4)"><use fill="#000" filter="url(#a)" xlink:href="#b"/><use fill="#4E4E50" stroke="#1A1A1D" stroke-width="3" xlink:href="#b"/></g><g transform="translate(6 4)"><use fill="#000" filter="url(#c)" xlink:href="#d"/><use fill="#4E4E50" stroke="#1A1A1D" stroke-width="3" xlink:href="#d"/></g><g transform="translate(6 4)"><use fill="#000" filter="url(#e)" xlink:href="#f"/><use fill="#4E4E50" stroke="#1A1A1D" stroke-width="3" xlink:href="#f"/></g><g transform="translate(6 4)"><use fill="#000" filter="url(#g)" xlink:href="#h"/><use fill="#4E4E50" stroke="#1A1A1D" stroke-width="3" xlink:href="#h"/></g><g transform="translate(6 4)"><use fill="#000" filter="url(#i)" xlink:href="#j"/><use fill="#6F2232" stroke="#1A1A1D" stroke-width="3" xlink:href="#j"/></g><g transform="translate(6 4)"><use fill="#000" filter="url(#k)" xlink:href="#l"/><use fill="#4E4E50" stroke="#1A1A1D" stroke-width="3" xlink:href="#l"/></g><g transform="translate(6 4)"><use fill="#000" filter="url(#m)" xlink:href="#n"/><use fill="#4E4E50" stroke="#1A1A1D" stroke-width="3" xlink:href="#n"/></g><g transform="translate(6 4)"><use fill="#000" filter="url(#o)" xlink:href="#p"/><use fill="#6F2232" stroke="#1A1A1D" stroke-width="3" xlink:href="#p"/></g><path fill="#000" d="M118.67 72.1c0-.92-.1-1.81-.3-2.67-1.65 4.47-2 7.51-1.81 9.54a12.16 12.16 0 002.11-6.86z"/><g transform="translate(6 4)"><use fill="#000" filter="url(#q)" xlink:href="#r"/><use fill="#6F2232" stroke="#1A1A1D" stroke-width="3" xlink:href="#r"/></g><g transform="translate(6 4)"><use fill="#000" filter="url(#s)" xlink:href="#t"/><use fill="#6F2232" stroke="#1A1A1D" stroke-width="3" xlink:href="#t"/></g></g></svg>