<svg xmlns="http://www.w3.org/2000/svg" xmlns:xlink="http://www.w3.org/1999/xlink" width="202" height="211"><defs><filter id="k" width="139.5%" height="139.5%" x="-19.8%" y="-15.1%" filterUnits="objectBoundingBox"><feMorphology in="SourceAlpha" operator="dilate" radius="1.5" result="shadowSpreadOuter1"/><feOffset dy="2" in="shadowSpreadOuter1" result="shadowOffsetOuter1"/><feGaussianBlur in="shadowOffsetOuter1" result="shadowBlurOuter1" stdDeviation="2"/><feComposite in="shadowBlurOuter1" in2="SourceAlpha" operator="out" result="shadowBlurOuter1"/><feColorMatrix in="shadowBlurOuter1" values="0 0 0 0 0 0 0 0 0 0 0 0 0 0 0 0 0 0 0.5 0"/></filter><filter id="w" width="222.3%" height="711.8%" x="-61.2%" y="-233.9%" filterUnits="objectBoundingBox"><feMorphology in="SourceAlpha" operator="dilate" radius="1.5" result="shadowSpreadOuter1"/><feOffset dy="2" in="shadowSpreadOuter1" result="shadowOffsetOuter1"/><feGaussianBlur in="shadowOffsetOuter1" result="shadowBlurOuter1" stdDeviation="2"/><feComposite in="shadowBlurOuter1" in2="SourceAlpha" operator="out" result="shadowBlurOuter1"/><feColorMatrix in="shadowBlurOuter1" values="0 0 0 0 0 0 0 0 0 0 0 0 0 0 0 0 0 0 1 0"/></filter><filter id="e" width="286.5%" height="332.3%" x="-95.6%" y="-99.5%" filterUnits="objectBoundingBox"><feMorphology in="SourceAlpha" operator="dilate" radius="1.5" result="shadowSpreadOuter1"/><feOffset dy="2" in="shadowSpreadOuter1" result="shadowOffsetOuter1"/><feGaussianBlur in="shadowOffsetOuter1" result="shadowBlurOuter1" stdDeviation="2"/><feComposite in="shadowBlurOuter1" in2="SourceAlpha" operator="out" result="shadowBlurOuter1"/><feColorMatrix in="shadowBlurOuter1" values="0 0 0 0 0 0 0 0 0 0 0 0 0 0 0 0 0 0 0.5 0"/></filter><filter id="g" width="113.7%" height="115.4%" x="-6.8%" y="-5.9%" filterUnits="objectBoundingBox"><feMorphology in="SourceAlpha" operator="dilate" radius="1.5" result="shadowSpreadOuter1"/><feOffset dy="2" in="shadowSpreadOuter1" result="shadowOffsetOuter1"/><feGaussianBlur in="shadowOffsetOuter1" result="shadowBlurOuter1" stdDeviation="2"/><feComposite in="shadowBlurOuter1" in2="SourceAlpha" operator="out" result="shadowBlurOuter1"/><feColorMatrix in="shadowBlurOuter1" values="0 0 0 0 0 0 0 0 0 0 0 0 0 0 0 0 0 0 0.5 0"/></filter><filter id="i" width="172.8%" height="134.4%" x="-36.4%" y="-14%" filterUnits="objectBoundingBox"><feMorphology in="SourceAlpha" operator="dilate" radius="1.5" result="shadowSpreadOuter1"/><feOffset dy="2" in="shadowSpreadOuter1" result="shadowOffsetOuter1"/><feGaussianBlur in="shadowOffsetOuter1" result="shadowBlurOuter1" stdDeviation="2"/><feComposite in="shadowBlurOuter1" in2="SourceAlpha" operator="out" result="shadowBlurOuter1"/><feColorMatrix in="shadowBlurOuter1" values="0 0 0 0 0 0 0 0 0 0 0 0 0 0 0 0 0 0 0.5 0"/></filter><filter id="u" width="222.3%" height="711.8%" x="-61.2%" y="-233.9%" filterUnits="objectBoundingBox"><feMorphology in="SourceAlpha" operator="dilate" radius="1.5" result="shadowSpreadOuter1"/><feOffset dy="2" in="shadowSpreadOuter1" result="shadowOffsetOuter1"/><feGaussianBlur in="shadowOffsetOuter1" result="shadowBlurOuter1" stdDeviation="2"/><feComposite in="shadowBlurOuter1" in2="SourceAlpha" operator="out" result="shadowBlurOuter1"/><feColorMatrix in="shadowBlurOuter1" values="0 0 0 0 0 0 0 0 0 0 0 0 0 0 0 0 0 0 1 0"/></filter><filter id="c" width="137.8%" height="137.8%" x="-18.9%" y="-14.4%" filterUnits="objectBoundingBox"><feMorphology in="SourceAlpha" operator="dilate" radius="1.5" result="shadowSpreadOuter1"/><feOffset dy="2" in="shadowSpreadOuter1" result="shadowOffsetOuter1"/><feGaussianBlur in="shadowOffsetOuter1" result="shadowBlurOuter1" stdDeviation="2"/><feComposite in="shadowBlurOuter1" in2="SourceAlpha" operator="out" result="shadowBlurOuter1"/><feColorMatrix in="shadowBlurOuter1" values="0 0 0 0 0 0 0 0 0 0 0 0 0 0 0 0 0 0 0.5 0"/></filter><filter id="a" width="116.1%" height="116.6%" x="-7.7%" y="-6.4%" filterUnits="objectBoundingBox"><feMorphology in="SourceAlpha" operator="dilate" radius="1.5" result="shadowSpreadOuter1"/><feOffset dy="2" in="shadowSpreadOuter1" result="shadowOffsetOuter1"/><feGaussianBlur in="shadowOffsetOuter1" result="shadowBlurOuter1" stdDeviation="2"/><feComposite in="shadowBlurOuter1" in2="SourceAlpha" operator="out" result="shadowBlurOuter1"/><feColorMatrix in="shadowBlurOuter1" values="0 0 0 0 0 0 0 0 0 0 0 0 0 0 0 0 0 0 1 0"/></filter><filter id="m" width="112.9%" height="129.9%" x="-6.5%" y="-11.5%" filterUnits="objectBoundingBox"><feMorphology in="SourceAlpha" operator="dilate" radius="1.5" result="shadowSpreadOuter1"/><feOffset dy="2" in="shadowSpreadOuter1" result="shadowOffsetOuter1"/><feGaussianBlur in="shadowOffsetOuter1" result="shadowBlurOuter1" stdDeviation="2"/><feComposite in="shadowBlurOuter1" in2="SourceAlpha" operator="out" result="shadowBlurOuter1"/><feColorMatrix in="shadowBlurOuter1" values="0 0 0 0 0 0 0 0 0 0 0 0 0 0 0 0 0 0 0.5 0"/></filter><filter id="o" width="134.9%" height="132.2%" x="-17.5%" y="-12.1%" filterUnits="objectBoundingBox"><feMorphology in="SourceAlpha" operator="dilate" radius="1.5" result="shadowSpreadOuter1"/><feOffset dy="2" in="shadowSpreadOuter1" result="shadowOffsetOuter1"/><feGaussianBlur in="shadowOffsetOuter1" result="shadowBlurOuter1" stdDeviation="2"/><feComposite in="shadowBlurOuter1" in2="SourceAlpha" operator="out" result="shadowBlurOuter1"/><feColorMatrix in="shadowBlurOuter1" values="0 0 0 0 0 0 0 0 0 0 0 0 0 0 0 0 0 0 0.5 0"/></filter><filter id="q" width="121.2%" height="164.8%" x="-10.6%" y="-24.8%" filterUnits="objectBoundingBox"><feMorphology in="SourceAlpha" operator="dilate" radius="1.5" result="shadowSpreadOuter1"/><feOffset dy="2" in="shadowSpreadOuter1" result="shadowOffsetOuter1"/><feGaussianBlur in="shadowOffsetOuter1" result="shadowBlurOuter1" stdDeviation="2"/><feComposite in="shadowBlurOuter1" in2="SourceAlpha" operator="out" result="shadowBlurOuter1"/><feColorMatrix in="shadowBlurOuter1" values="0 0 0 0 0 0 0 0 0 0 0 0 0 0 0 0 0 0 0.5 0"/></filter><filter id="s" width="121.9%" height="135.2%" x="-11%" y="-13.4%" filterUnits="objectBoundingBox"><feMorphology in="SourceAlpha" operator="dilate" radius="1.5" result="shadowSpreadOuter1"/><feOffset dy="2" in="shadowSpreadOuter1" result="shadowOffsetOuter1"/><feGaussianBlur in="shadowOffsetOuter1" result="shadowBlurOuter1" stdDeviation="2"/><feComposite in="shadowBlurOuter1" in2="SourceAlpha" operator="out" result="shadowBlurOuter1"/><feColorMatrix in="shadowBlurOuter1" values="0 0 0 0 0 0 0 0 0 0 0 0 0 0 0 0 0 0 0.5 0"/></filter><path id="b" d="M122.27 138.45l-.1.16c-4.89 7.81-11.17 11.78-18.65 11.78-.35 0-.7 0-1.05-.02H63L45.2 182.1v11.41c0 2.75 2.25 5 5 5h72.61c2.75 0 5-2.25 5-5v-33.48a10 10 0 006.35-6.14l20.75-57.77-18.72.25c-1.77 14.9-5.74 26.49-13.92 42.07z"/><path id="j" d="M12.64 48.42c-1.58-1.04-3-2.24-4.25-3.56-5.2 5.95-9.67 15.39 1.81 29.1 10.77 12.87 8 18.47 4.34 21.15-3.68 2.67 10.37 2.51 11.75-12.69 1.2-13.14-19.13-25.39-12.48-33.3a24 24 0 01-1.17-.7z"/><path id="p" d="M77.65 81.05l-28-8.65a8.74 8.74 0 01-5.18-4.3 8.82 8.82 0 0110.38-12.52l28.77 8.9c1.25-4.05-1.31-8.6-4.46-11.23a1.75 1.75 0 00-3.09-1.61c-2.34-.27-7.05.3-11.65 1.04-3.67-.58-8.5-1.23-14.12-8.24-9.95.71-17.87 9.12-14.06 22.58 3.02 10.66 13.13 11.66 19.6 31.23l26.63-6.39a115.44 115.44 0 01-4.82-10.81z"/><path id="f" d="M123.02 69.57c.09.09.18.16.27.25.64.68 1.15 1.43 1.57 2.22.54-.08 1.08-.13 1.62-.14l6.55-.08a23.16 23.16 0 00-5.01-7.83 8.78 8.78 0 01-5 5.58z"/><path id="r" d="M54.17 57.78a6.5 6.5 0 00-3.83 12.42l34.62 10.7a6.53 6.53 0 004.35-.18l12.88-5.2 6.54-6.15a10.26 10.26 0 0112.18-1.42l1.12-.45a6.5 6.5 0 00-4.87-12.05L86.59 67.8 54.17 57.78z"/><path id="x" d="M111.96 201.43h13.9v2.77h-13.9z"/><path id="t" d="M92.5 108.28a8 8 0 003.62-1.95l25.14-23.62a8 8 0 00-10.96-11.66L86.71 93.2l-34.3 8.22A8 8 0 0056.12 117l36.38-8.71z"/><path id="h" d="M130.83 96.45l-36.7 27.69c-.28.2-.58.41-.93.63-4.78 3.76-12.44 7.73-19.8 7.73-4.17 0-10.82-1.38-14.2-9.43h-4.88a12.5 12.5 0 00-10.9 6.38l-33.03 58.93A12.5 12.5 0 0032.2 200.6l29.45-52.53h40.88c6.01.3 12.28-2.03 17.7-10.69 8.13-15.47 11.94-26.67 13.66-40.97l-3.06.04z"/><path id="v" d="M47.16 201.43h13.9v2.77h-13.9z"/><path id="n" d="M184.11 73.45l-57.6.75a10 10 0 00-.77.05 10.3 10.3 0 01-2.9 10.13L97.7 108.01a10.32 10.32 0 01-4.66 2.5l-32.87 7.88c3.94 17.96 22.24 12 31.7 4.5.3-.19.6-.38.88-.59l37.3-28.14 54.33-.72a10 10 0 10-.27-20z"/><circle id="l" cx="25.676" cy="28.503" r="21.5"/><circle id="d" cx="110.597" cy="29.833" r="22.499"/></defs><g fill="none" fill-rule="nonzero"><g transform="translate(2 -3)"><use fill="#000" filter="url(#a)" xlink:href="#b"/><use fill="#4E4E50" stroke="#1A1A1D" stroke-width="3" xlink:href="#b"/></g><g transform="rotate(-22.968 104.214 23.411)"><use fill="#000" filter="url(#c)" xlink:href="#d"/><use fill="#4E4E50" stroke="#1A1A1D" stroke-width="3" xlink:href="#d"/></g><g transform="translate(2 -3)"><use fill="#000" filter="url(#e)" xlink:href="#f"/><use fill="#4E4E50" stroke="#1A1A1D" stroke-width="3" xlink:href="#f"/></g><g transform="translate(2 -3)"><use fill="#000" filter="url(#g)" xlink:href="#h"/><use fill="#4E4E50" stroke="#1A1A1D" stroke-width="3" xlink:href="#h"/></g><g transform="translate(2 -3)"><use fill="#000" filter="url(#i)" xlink:href="#j"/><use fill="#6F2232" stroke="#1A1A1D" stroke-width="3" xlink:href="#j"/></g><g transform="rotate(-11.905 12.29 17.412)"><use fill="#000" filter="url(#k)" xlink:href="#l"/><use fill="#6F2232" stroke="#1A1A1D" stroke-width="3" xlink:href="#l"/></g><g transform="translate(2 -3)"><use fill="#000" filter="url(#m)" xlink:href="#n"/><use fill="#6F2232" stroke="#1A1A1D" stroke-width="3" xlink:href="#n"/></g><g transform="translate(2 -3)"><use fill="#000" filter="url(#o)" xlink:href="#p"/><use fill="#6F2232" stroke="#1A1A1D" stroke-width="3" xlink:href="#p"/></g><g transform="translate(2 -3)"><use fill="#000" filter="url(#q)" xlink:href="#r"/><use fill="#6F2232" stroke="#1A1A1D" stroke-width="3" xlink:href="#r"/></g><g transform="translate(2 -3)"><use fill="#000" filter="url(#s)" xlink:href="#t"/><use fill="#4E4E50" stroke="#1A1A1D" stroke-width="3" xlink:href="#t"/></g><g transform="translate(2 -3)"><use fill="#000" filter="url(#u)" xlink:href="#v"/><use fill="#4E4E50" stroke="#1A1A1D" stroke-width="3" xlink:href="#v"/></g><g transform="translate(2 -3)"><use fill="#000" filter="url(#w)" xlink:href="#x"/><use fill="#4E4E50" stroke="#1A1A1D" stroke-width="3" xlink:href="#x"/></g></g></svg>