<svg xmlns="http://www.w3.org/2000/svg" xmlns:xlink="http://www.w3.org/1999/xlink" width="138" height="255"><defs><filter id="o" width="145%" height="125.1%" x="-23%" y="-9.4%" filterUnits="objectBoundingBox"><feMorphology in="SourceAlpha" operator="dilate" radius="1.5" result="shadowSpreadOuter1"/><feOffset dy="2" in="shadowSpreadOuter1" result="shadowOffsetOuter1"/><feGaussianBlur in="shadowOffsetOuter1" result="shadowBlurOuter1" stdDeviation="2"/><feComposite in="shadowBlurOuter1" in2="SourceAlpha" operator="out" result="shadowBlurOuter1"/><feColorMatrix in="shadowBlurOuter1" values="0 0 0 0 0 0 0 0 0 0 0 0 0 0 0 0 0 0 0.5 0"/></filter><filter id="c" width="177.3%" height="187.8%" x="-40.4%" y="-34.8%" filterUnits="objectBoundingBox"><feMorphology in="SourceAlpha" operator="dilate" radius="1.5" result="shadowSpreadOuter1"/><feOffset dy="2" in="shadowSpreadOuter1" result="shadowOffsetOuter1"/><feGaussianBlur in="shadowOffsetOuter1" result="shadowBlurOuter1" stdDeviation="2"/><feComposite in="shadowBlurOuter1" in2="SourceAlpha" operator="out" result="shadowBlurOuter1"/><feColorMatrix in="shadowBlurOuter1" values="0 0 0 0 0 0 0 0 0 0 0 0 0 0 0 0 0 0 1 0"/></filter><filter id="e" width="142.8%" height="126.4%" x="-20.2%" y="-9.9%" filterUnits="objectBoundingBox"><feMorphology in="SourceAlpha" operator="dilate" radius="1.5" result="shadowSpreadOuter1"/><feOffset dy="2" in="shadowSpreadOuter1" result="shadowOffsetOuter1"/><feGaussianBlur in="shadowOffsetOuter1" result="shadowBlurOuter1" stdDeviation="2"/><feComposite in="shadowBlurOuter1" in2="SourceAlpha" operator="out" result="shadowBlurOuter1"/><feColorMatrix in="shadowBlurOuter1" values="0 0 0 0 0 0 0 0 0 0 0 0 0 0 0 0 0 0 1 0"/></filter><filter id="g" width="123.9%" height="109.5%" x="-12%" y="-3.6%" filterUnits="objectBoundingBox"><feMorphology in="SourceAlpha" operator="dilate" radius="1.5" result="shadowSpreadOuter1"/><feOffset dy="2" in="shadowSpreadOuter1" result="shadowOffsetOuter1"/><feGaussianBlur in="shadowOffsetOuter1" result="shadowBlurOuter1" stdDeviation="2"/><feComposite in="shadowBlurOuter1" in2="SourceAlpha" operator="out" result="shadowBlurOuter1"/><feColorMatrix in="shadowBlurOuter1" values="0 0 0 0 0 0 0 0 0 0 0 0 0 0 0 0 0 0 0.5 0"/></filter><filter id="a" width="129%" height="108.7%" x="-14.5%" y="-3.3%" filterUnits="objectBoundingBox"><feMorphology in="SourceAlpha" operator="dilate" radius="1.5" result="shadowSpreadOuter1"/><feOffset dy="2" in="shadowSpreadOuter1" result="shadowOffsetOuter1"/><feGaussianBlur in="shadowOffsetOuter1" result="shadowBlurOuter1" stdDeviation="2"/><feComposite in="shadowBlurOuter1" in2="SourceAlpha" operator="out" result="shadowBlurOuter1"/><feColorMatrix in="shadowBlurOuter1" values="0 0 0 0 0 0 0 0 0 0 0 0 0 0 0 0 0 0 1 0"/></filter><filter id="i" width="137.8%" height="137.8%" x="-18.9%" y="-14.4%" filterUnits="objectBoundingBox"><feMorphology in="SourceAlpha" operator="dilate" radius="1.5" result="shadowSpreadOuter1"/><feOffset dy="2" in="shadowSpreadOuter1" result="shadowOffsetOuter1"/><feGaussianBlur in="shadowOffsetOuter1" result="shadowBlurOuter1" stdDeviation="2"/><feComposite in="shadowBlurOuter1" in2="SourceAlpha" operator="out" result="shadowBlurOuter1"/><feColorMatrix in="shadowBlurOuter1" values="0 0 0 0 0 0 0 0 0 0 0 0 0 0 0 0 0 0 1 0"/></filter><filter id="k" width="198.3%" height="135.1%" x="-49.1%" y="-14.8%" filterUnits="objectBoundingBox"><feMorphology in="SourceAlpha" operator="dilate" radius="1.5" result="shadowSpreadOuter1"/><feOffset dy="2" in="shadowSpreadOuter1" result="shadowOffsetOuter1"/><feGaussianBlur in="shadowOffsetOuter1" result="shadowBlurOuter1" stdDeviation="2"/><feComposite in="shadowBlurOuter1" in2="SourceAlpha" operator="out" result="shadowBlurOuter1"/><feColorMatrix in="shadowBlurOuter1" values="0 0 0 0 0 0 0 0 0 0 0 0 0 0 0 0 0 0 0.5 0"/></filter><filter id="m" width="139.5%" height="139.5%" x="-19.8%" y="-15.1%" filterUnits="objectBoundingBox"><feMorphology in="SourceAlpha" operator="dilate" radius="1.5" result="shadowSpreadOuter1"/><feOffset dy="2" in="shadowSpreadOuter1" result="shadowOffsetOuter1"/><feGaussianBlur in="shadowOffsetOuter1" result="shadowBlurOuter1" stdDeviation="2"/><feComposite in="shadowBlurOuter1" in2="SourceAlpha" operator="out" result="shadowBlurOuter1"/><feColorMatrix in="shadowBlurOuter1" values="0 0 0 0 0 0 0 0 0 0 0 0 0 0 0 0 0 0 0.5 0"/></filter><path id="f" d="M27.08 68.14A8 8 0 0022.1 78.3l15 43.76a8 8 0 002.9 3.9l10.55 7.59 13.12-10.28-12.26-8.8L37.24 73.1a8 8 0 00-10.16-4.97z"/><path id="d" d="M85.55 139l-7-5.02-13.1 10.27 11.12 8a7.96 7.96 0 009.04.22l3.34-5.09c-.89-2.46-1.99-5.27-3.4-8.38z"/><path id="l" d="M115.78 55.94c2.42 7.43-9.31 21.86-5.24 32.57 5.43 14.27 19 10.63 14.74 9.05-4.26-1.59-8.43-6.24-1.53-21.53 7.42-16.43.42-24.3-6.25-28.61-.05 3-.65 5.88-1.72 8.52z"/><path id="h" d="M52.55 103.85c-.03 6.37 5.32 15.68 14.78 9.75l1.14-24.4a8.78 8.78 0 019.21-8.37 8.81 8.81 0 018.38 9.2l-1.67 35.5a8.79 8.79 0 01-1.15 3.92 109.01 109.01 0 018.26 18.24l-21.92 33.32a10.5 10.5 0 00-1.52 7.89l10.67 51.83a10.5 10.5 0 1020.57-4.23l-9.8-47.58 29.03-44.1c5.05-5.81 6.4-13.43-2.72-21.34C87.25 98.7 96.68 87.34 87.66 76.96c-9.18-10.56-20.55-8.53-26.6-.6 2.8 8.54.7 12.94-.83 16.33a76.47 76.47 0 00-6.49 7.88 1.73 1.73 0 00-2.37 1.63c0 .77.5 1.4 1.18 1.65z"/><path id="p" d="M79.6 130.23a6.5 6.5 0 002.5-4.8l1.66-35.5a6.5 6.5 0 00-12.99-.62l-1.52 32.53-24.05 18.82 5.62 11.93c.39-.2.77-.41 1.12-.69l27.67-21.67z"/><path id="b" d="M16.28 143.32l3.34 7.1 13.51 28.68-7.5 55.34a12.5 12.5 0 1024.77 3.36l8-59a12.5 12.5 0 00-1.08-7.01L41.08 137.3l-5.31-11.28c-.01-.48 0-.97-.01-1.45-.32-.57-.6-1.15-.82-1.77L19.93 79.05a10.31 10.31 0 0119.49-6.69l3.57 10.44c.36-1.38.72-2.74 1.04-4.02 3.41-9.78.31-21.88-8.1-24.47-8.4-2.6-21.01 1.36-26.84 15.7C1.2 89.78-.99 102.81.4 125.14 2.1 137.67 9 141.88 16.27 143.32z"/><circle id="n" cx="93.714" cy="47.03" r="21.5"/><circle id="j" cx="44.98" cy="28.499" r="22.499"/></defs><g fill="none" fill-rule="nonzero"><g transform="translate(6 -2)"><use fill="#000" filter="url(#a)" xlink:href="#b"/><use fill="#4E4E50" stroke="#1A1A1D" stroke-width="3" xlink:href="#b"/></g><g transform="translate(6 -2)"><use fill="#000" filter="url(#c)" xlink:href="#d"/><use fill="#4E4E50" stroke="#1A1A1D" stroke-width="3" xlink:href="#d"/></g><g transform="translate(6 -2)"><use fill="#000" filter="url(#e)" xlink:href="#f"/><use fill="#4E4E50" stroke="#1A1A1D" stroke-width="3" xlink:href="#f"/></g><g transform="translate(6 -2)"><use fill="#000" filter="url(#g)" xlink:href="#h"/><use fill="#6F2232" stroke="#1A1A1D" stroke-width="3" xlink:href="#h"/></g><g transform="rotate(-15.629 40.694 5.64)"><use fill="#000" filter="url(#i)" xlink:href="#j"/><use fill="#4E4E50" stroke="#1A1A1D" stroke-width="3" xlink:href="#j"/></g><g transform="translate(6 -2)"><use fill="#000" filter="url(#k)" xlink:href="#l"/><use fill="#6F2232" stroke="#1A1A1D" stroke-width="3" xlink:href="#l"/></g><g transform="translate(6 -2)"><use fill="#000" filter="url(#m)" xlink:href="#n"/><use fill="#6F2232" stroke="#1A1A1D" stroke-width="3" xlink:href="#n"/></g><g transform="translate(6 -2)"><use fill="#000" filter="url(#o)" xlink:href="#p"/><use fill="#6F2232" stroke="#1A1A1D" stroke-width="3" xlink:href="#p"/></g></g></svg>