<svg xmlns="http://www.w3.org/2000/svg" xmlns:xlink="http://www.w3.org/1999/xlink" width="261" height="159"><defs><filter id="o" width="133.4%" height="124.3%" x="-16.7%" y="-9.3%" filterUnits="objectBoundingBox"><feMorphology in="SourceAlpha" operator="dilate" radius="1.5" result="shadowSpreadOuter1"/><feOffset dy="2" in="shadowSpreadOuter1" result="shadowOffsetOuter1"/><feGaussianBlur in="shadowOffsetOuter1" result="shadowBlurOuter1" stdDeviation="2"/><feComposite in="shadowBlurOuter1" in2="SourceAlpha" operator="out" result="shadowBlurOuter1"/><feColorMatrix in="shadowBlurOuter1" values="0 0 0 0 0 0 0 0 0 0 0 0 0 0 0 0 0 0 1 0"/></filter><filter id="c" width="137.8%" height="137.8%" x="-18.9%" y="-14.4%" filterUnits="objectBoundingBox"><feMorphology in="SourceAlpha" operator="dilate" radius="1.5" result="shadowSpreadOuter1"/><feOffset dy="2" in="shadowSpreadOuter1" result="shadowOffsetOuter1"/><feGaussianBlur in="shadowOffsetOuter1" result="shadowBlurOuter1" stdDeviation="2"/><feComposite in="shadowBlurOuter1" in2="SourceAlpha" operator="out" result="shadowBlurOuter1"/><feColorMatrix in="shadowBlurOuter1" values="0 0 0 0 0 0 0 0 0 0 0 0 0 0 0 0 0 0 1 0"/></filter><filter id="e" width="129.6%" height="159.6%" x="-16.7%" y="-22.8%" filterUnits="objectBoundingBox"><feMorphology in="SourceAlpha" operator="dilate" radius="1.5" result="shadowSpreadOuter1"/><feOffset dy="2" in="shadowSpreadOuter1" result="shadowOffsetOuter1"/><feGaussianBlur in="shadowOffsetOuter1" result="shadowBlurOuter1" stdDeviation="2"/><feComposite in="shadowBlurOuter1" in2="SourceAlpha" operator="out" result="shadowBlurOuter1"/><feColorMatrix in="shadowBlurOuter1" values="0 0 0 0 0 0 0 0 0 0 0 0 0 0 0 0 0 0 0.5 0"/></filter><filter id="g" width="139.2%" height="172.5%" x="-21.6%" y="-27.7%" filterUnits="objectBoundingBox"><feMorphology in="SourceAlpha" operator="dilate" radius="1.5" result="shadowSpreadOuter1"/><feOffset dy="2" in="shadowSpreadOuter1" result="shadowOffsetOuter1"/><feGaussianBlur in="shadowOffsetOuter1" result="shadowBlurOuter1" stdDeviation="2"/><feComposite in="shadowBlurOuter1" in2="SourceAlpha" operator="out" result="shadowBlurOuter1"/><feColorMatrix in="shadowBlurOuter1" values="0 0 0 0 0 0 0 0 0 0 0 0 0 0 0 0 0 0 0.5 0"/></filter><filter id="a" width="145%" height="163.3%" x="-23.3%" y="-18.8%" filterUnits="objectBoundingBox"><feMorphology in="SourceAlpha" operator="dilate" radius="1.5" result="shadowSpreadOuter1"/><feOffset dy="2" in="shadowSpreadOuter1" result="shadowOffsetOuter1"/><feGaussianBlur in="shadowOffsetOuter1" result="shadowBlurOuter1" stdDeviation="2"/><feComposite in="shadowBlurOuter1" in2="SourceAlpha" operator="out" result="shadowBlurOuter1"/><feColorMatrix in="shadowBlurOuter1" values="0 0 0 0 0 0 0 0 0 0 0 0 0 0 0 0 0 0 1 0"/></filter><filter id="i" width="139.5%" height="139.5%" x="-19.8%" y="-15.1%" filterUnits="objectBoundingBox"><feMorphology in="SourceAlpha" operator="dilate" radius="1.5" result="shadowSpreadOuter1"/><feOffset dy="2" in="shadowSpreadOuter1" result="shadowOffsetOuter1"/><feGaussianBlur in="shadowOffsetOuter1" result="shadowBlurOuter1" stdDeviation="2"/><feComposite in="shadowBlurOuter1" in2="SourceAlpha" operator="out" result="shadowBlurOuter1"/><feColorMatrix in="shadowBlurOuter1" values="0 0 0 0 0 0 0 0 0 0 0 0 0 0 0 0 0 0 0.5 0"/></filter><filter id="k" width="117.8%" height="122.2%" x="-8.9%" y="-8.8%" filterUnits="objectBoundingBox"><feMorphology in="SourceAlpha" operator="dilate" radius="1.5" result="shadowSpreadOuter1"/><feOffset dy="2" in="shadowSpreadOuter1" result="shadowOffsetOuter1"/><feGaussianBlur in="shadowOffsetOuter1" result="shadowBlurOuter1" stdDeviation="2"/><feComposite in="shadowBlurOuter1" in2="SourceAlpha" operator="out" result="shadowBlurOuter1"/><feColorMatrix in="shadowBlurOuter1" values="0 0 0 0 0 0 0 0 0 0 0 0 0 0 0 0 0 0 1 0"/></filter><filter id="m" width="110.3%" height="114.2%" x="-5.2%" y="-5.4%" filterUnits="objectBoundingBox"><feMorphology in="SourceAlpha" operator="dilate" radius="1.5" result="shadowSpreadOuter1"/><feOffset dy="2" in="shadowSpreadOuter1" result="shadowOffsetOuter1"/><feGaussianBlur in="shadowOffsetOuter1" result="shadowBlurOuter1" stdDeviation="2"/><feComposite in="shadowBlurOuter1" in2="SourceAlpha" operator="out" result="shadowBlurOuter1"/><feColorMatrix in="shadowBlurOuter1" values="0 0 0 0 0 0 0 0 0 0 0 0 0 0 0 0 0 0 0.5 0"/></filter><path id="f" d="M156.77 141.5a6.5 6.5 0 10-5.7-11.7l-29.33 14.3-27.43-10.23.92 1.29a14.74 14.74 0 011.85 13.61l22.73 8.48a6.49 6.49 0 005.12-.25l31.84-15.5z"/><path id="p" d="M89.17 96.87a8 8 0 004.82 7.55l34.92 15.08a7.98 7.98 0 0010.52-4.17 8 8 0 00-4.17-10.52L105.3 91.87l.86-33.6a8 8 0 10-16-.4l-1 39z"/><path id="l" d="M12.5 131.23a12.5 12.5 0 000 25h70.67a12.5 12.5 0 0010.19-19.74l-21.21-29.84-7.33-24.68-7.3-3.95a79.49 79.49 0 01-10.47 9.82 46.31 46.31 0 00-3.66 3.6c-.55.55-1.04 1.14-1.46 1.76-1.6 2.17-2.22 4-2.1 5.71-.3 2.93.4 5.98 2.23 8.56l9.32 13.11 7.57 10.65H12.5z"/><path id="h" d="M201.06 151.44c5.96 3.75 14.42 5.2 25.8-4.42 12.8-10.83 18.42-8.1 21.11-4.43 2.7 3.66 2.47-10.4-12.74-11.7-7.7-.66-15.06 6.06-21.43 10.41a23.66 23.66 0 01-12.74 10.14z"/><path id="n" d="M141.54 116.24a10.3 10.3 0 01-13.54 5.37l-34.92-15.08a10.25 10.25 0 01-6.21-9.72l.53-20.66-1.75-5.9a10.5 10.5 0 00-5.07-6.24L23.91 33.34a10.5 10.5 0 10-10 18.47l52.85 28.6 7.54 25.4.05-.03 17.59 24.75 29 10.8c.34.04.69.06 1.02.1l28.11-13.69a8.74 8.74 0 0111.76 4.06 8.74 8.74 0 01.41 6.72 8.75 8.75 0 01-4.46 5.04l-12.34 6.01a19.6 19.6 0 008.33 1.93c10.71 0 16.7-5.83 18-12.94-1.08-2.42-1.73-5-1.96-7.61-8-3.97-9-8.92-10.76-12.13a454.4 454.4 0 00-1.47-4.68c-2.07-6.42-2.16-5.7-3.68-7.73a10.5 10.5 0 00-3.33-2.88 1.75 1.75 0 10-3.3-1c-2.47-.16-4.87 1.07-6.3 4.44a10.28 10.28 0 01.57 9.27z"/><path id="b" d="M87.59 68.84l.28-11.03a10.24 10.24 0 0110.3-10.04h.25a10.31 10.31 0 0110.04 10.57l-.3 12.1c.4-.82.82-1.62 1.23-2.46 6.79-13.92 1.3-25.94-6.24-30.47-7.54-4.53-18.61 1.25-23.62 10.32-1.94 2.9-4.06 6.15-6.35 9.56l8.5 4.6a12.7 12.7 0 015.9 6.85z"/><circle id="d" cx="134.571" cy="32.497" r="22.5"/><circle id="j" cx="193.495" cy="128.883" r="21.5"/></defs><g fill="none" fill-rule="nonzero"><g transform="translate(6 -6)"><use fill="#000" filter="url(#a)" xlink:href="#b"/><use fill="#4E4E50" stroke="#1A1A1D" stroke-width="3" xlink:href="#b"/></g><g transform="rotate(-41.867 129.728 21.654)"><use fill="#000" filter="url(#c)" xlink:href="#d"/><use fill="#4E4E50" stroke="#1A1A1D" stroke-width="3" xlink:href="#d"/></g><g transform="translate(6 -6)"><use fill="#000" filter="url(#e)" xlink:href="#f"/><use fill="#6F2232" stroke="#1A1A1D" stroke-width="3" xlink:href="#f"/></g><g transform="translate(6 -6)"><use fill="#000" filter="url(#g)" xlink:href="#h"/><use fill="#6F2232" stroke="#1A1A1D" stroke-width="3" xlink:href="#h"/></g><g transform="rotate(-75.54 192.623 122.011)"><use fill="#000" filter="url(#i)" xlink:href="#j"/><use fill="#6F2232" stroke="#1A1A1D" stroke-width="3" xlink:href="#j"/></g><g transform="translate(6 -6)"><use fill="#000" filter="url(#k)" xlink:href="#l"/><use fill="#4E4E50" stroke="#1A1A1D" stroke-width="3" xlink:href="#l"/></g><g transform="translate(6 -6)"><use fill="#000" filter="url(#m)" xlink:href="#n"/><use fill="#6F2232" stroke="#1A1A1D" stroke-width="3" xlink:href="#n"/></g><g transform="translate(6 -6)"><use fill="#000" filter="url(#o)" xlink:href="#p"/><use fill="#4E4E50" stroke="#1A1A1D" stroke-width="3" xlink:href="#p"/></g></g></svg>