<svg xmlns="http://www.w3.org/2000/svg" width="208" height="236" xmlns:xlink="http://www.w3.org/1999/xlink"><title>sex-etsy-36</title><defs><path id="b" d="M131.93 83.48c3.07 0 5.9 1.34 7.83 3.62.55-.4 1.12-.88 1.7-1.4 1.48 1.75 2.86 3.5 4.16 5.2l.84-.26-6.34-27.1c-1.1-4.72 1.84-9.47 6.56-10.57.66-.16 1.34-.24 2.02-.24 4.1 0 7.62 2.8 8.56 6.8l8.25 35.25c1.08 4.57-1.62 9.16-6.13 10.46l-3.77 1.1c3.33 6.2 5.44 11.6 6.92 15.82l-.56.86-21.36 32.46c-1.53 2.33-2.07 5.16-1.5 7.9l10.66 51.82c1.02 4.97 5.4 8.4 10.27 8.4.7 0 1.4-.08 2.13-.23 5.68-1.17 9.33-6.72 8.16-12.4l-9.8-47.58 14.58-22.15 14.45-21.96c5.06-5.82 6.4-13.44-2.7-21.35-28.58-24.77-19.15-36.14-28.17-46.52-9.17-10.56-20.55-8.53-26.6-.6 2.8 8.54.7 12.94-.83 16.33-2.56 2.8-5.07 5.75-6.48 7.88-.2-.08-.4-.12-.63-.12-.96 0-1.75.78-1.75 1.75 0 .77.5 1.4 1.17 1.65 0 2.32.7 5.03 2.05 7.26l.96-.6c1.62-.98 3.47-1.5 5.35-1.5z"/><filter id="a" width="123.9%" height="109.5%" x="-12%" y="-3.6%" filterUnits="objectBoundingBox"><feMorphology radius="1.5" operator="dilate" in="SourceAlpha" result="shadowSpreadOuter1"/><feOffset dy="2" in="shadowSpreadOuter1" result="shadowOffsetOuter1"/><feGaussianBlur stdDeviation="2" in="shadowOffsetOuter1" result="shadowBlurOuter1"/><feComposite in="shadowBlurOuter1" in2="SourceAlpha" operator="out" result="shadowBlurOuter1"/><feColorMatrix values="0 0 0 0 0 0 0 0 0 0 0 0 0 0 0 0 0 0 0.5 0" in="shadowBlurOuter1"/></filter><path id="d" d="M186.8 30.4c2.42 7.44-9.3 21.87-5.24 32.58 5.43 14.27 19 10.63 14.75 9.05-4.25-1.6-8.42-6.24-1.52-21.53 7.4-16.43.4-24.3-6.25-28.6-.05 3-.66 5.87-1.73 8.5z"/><filter id="c" width="198.3%" height="135.1%" x="-49.1%" y="-14.8%" filterUnits="objectBoundingBox"><feMorphology radius="1.5" operator="dilate" in="SourceAlpha" result="shadowSpreadOuter1"/><feOffset dy="2" in="shadowSpreadOuter1" result="shadowOffsetOuter1"/><feGaussianBlur stdDeviation="2" in="shadowOffsetOuter1" result="shadowBlurOuter1"/><feComposite in="shadowBlurOuter1" in2="SourceAlpha" operator="out" result="shadowBlurOuter1"/><feColorMatrix values="0 0 0 0 0 0 0 0 0 0 0 0 0 0 0 0 0 0 0.5 0" in="shadowBlurOuter1"/></filter><circle id="f" cx="164.737" cy="21.5" r="21.5"/><filter id="e" width="139.5%" height="139.5%" x="-19.8%" y="-15.1%" filterUnits="objectBoundingBox"><feMorphology radius="1.5" operator="dilate" in="SourceAlpha" result="shadowSpreadOuter1"/><feOffset dy="2" in="shadowSpreadOuter1" result="shadowOffsetOuter1"/><feGaussianBlur stdDeviation="2" in="shadowOffsetOuter1" result="shadowBlurOuter1"/><feComposite in="shadowBlurOuter1" in2="SourceAlpha" operator="out" result="shadowBlurOuter1"/><feColorMatrix values="0 0 0 0 0 0 0 0 0 0 0 0 0 0 0 0 0 0 0.5 0" in="shadowBlurOuter1"/></filter><path id="h" d="M11.4 130.23c.22.22.45.44.7.65l35.44 29.6-7.32 49.25c-1 6.83 3.7 13.2 10.53 14.2.63.1 1.24.14 1.85.14 6.1 0 11.43-4.46 12.35-10.66l8.35-56.2c.64-4.3-1-8.64-4.35-11.43l-33.44-27.9c11-7.45 23.9-12.96 33.64-17.44l-8.7-8.4c-1.97-1.92-3.1-4.5-3.13-7.24-.04-2.76 1-5.37 2.9-7.34 1.96-2.03 4.6-3.14 7.4-3.14 2.7 0 5.24 1.03 7.17 2.9l9.44 9.13c.87-2.7.9-5.5-.13-8.1-3.3-8.16-14.3-15.46-29.1-10.95-20.34 6.33-31.84 12.85-48.3 27.98-11.2 11.97-6.08 21.88-.6 29.23 1.9 2.58 3.54 4.58 5.32 5.73z"/><filter id="g" height="110.7%" y="-4.1%" filterUnits="objectBoundingBox"><feMorphology radius="1.5" operator="dilate" in="SourceAlpha" result="shadowSpreadOuter1"/><feOffset dy="2" in="shadowSpreadOuter1" result="shadowOffsetOuter1"/><feGaussianBlur stdDeviation="2" in="shadowOffsetOuter1" result="shadowBlurOuter1"/><feComposite in="shadowBlurOuter1" in2="SourceAlpha" operator="out" result="shadowBlurOuter1"/><feColorMatrix values="0 0 0 0 0 0 0 0 0 0 0 0 0 0 0 0 0 0 1 0" in="shadowBlurOuter1"/></filter><circle id="j" cx="102.26" cy="60.637" r="22.5"/><filter id="i" width="137.8%" height="137.8%" x="-18.9%" y="-14.4%" filterUnits="objectBoundingBox"><feMorphology radius="1.5" operator="dilate" in="SourceAlpha" result="shadowSpreadOuter1"/><feOffset dy="2" in="shadowSpreadOuter1" result="shadowOffsetOuter1"/><feGaussianBlur stdDeviation="2" in="shadowOffsetOuter1" result="shadowBlurOuter1"/><feComposite in="shadowBlurOuter1" in2="SourceAlpha" operator="out" result="shadowBlurOuter1"/><feColorMatrix values="0 0 0 0 0 0 0 0 0 0 0 0 0 0 0 0 0 0 1 0" in="shadowBlurOuter1"/></filter><path id="l" d="M61.86 79.06c-3.08 3.17-3 8.24.18 11.3l30.67 29.68c1.54 1.48 3.55 2.25 5.57 2.25 1.44 0 2.88-.4 4.16-1.18l12.08-7.35c-1.17-1.07-2.06-2.46-2.52-4.05-.65-2.26-.38-4.64.76-6.7 1.14-2.05 3-3.54 5.27-4.2l21.84-6.27c-.16-1-.5-2-1.07-2.93-2.3-3.77-7.22-4.97-11-2.67l-28.38 17.3-26.23-25.38c-3.18-3.07-8.24-3-11.3.2z"/><filter id="k" width="121.3%" height="137.2%" x="-10.6%" y="-14.2%" filterUnits="objectBoundingBox"><feMorphology radius="1.5" operator="dilate" in="SourceAlpha" result="shadowSpreadOuter1"/><feOffset dy="2" in="shadowSpreadOuter1" result="shadowOffsetOuter1"/><feGaussianBlur stdDeviation="2" in="shadowOffsetOuter1" result="shadowBlurOuter1"/><feComposite in="shadowBlurOuter1" in2="SourceAlpha" operator="out" result="shadowBlurOuter1"/><feColorMatrix values="0 0 0 0 0 0 0 0 0 0 0 0 0 0 0 0 0 0 1 0" in="shadowBlurOuter1"/></filter><path id="n" d="M118.64 101.04c-3.45 1-5.44 4.6-4.45 8.04.8 2.85 3.4 4.7 6.24 4.7.6 0 1.2-.08 1.8-.25l36.5-10.5c3.32-.96 5.32-4.35 4.53-7.73l-8.25-35.25c-.82-3.5-4.32-5.66-7.8-4.84-3.5.82-5.68 4.32-4.86 7.82l6.84 29.23-30.56 8.8z"/><filter id="m" width="134.3%" height="128.9%" x="-17.2%" y="-11.1%" filterUnits="objectBoundingBox"><feMorphology radius="1.5" operator="dilate" in="SourceAlpha" result="shadowSpreadOuter1"/><feOffset dy="2" in="shadowSpreadOuter1" result="shadowOffsetOuter1"/><feGaussianBlur stdDeviation="2" in="shadowOffsetOuter1" result="shadowBlurOuter1"/><feComposite in="shadowBlurOuter1" in2="SourceAlpha" operator="out" result="shadowBlurOuter1"/><feColorMatrix values="0 0 0 0 0 0 0 0 0 0 0 0 0 0 0 0 0 0 0.5 0" in="shadowBlurOuter1"/></filter></defs><g fill="none"><g fill-rule="nonzero"><g id="Path" transform="translate(5 4)"><use fill="#000" filter="url(#a)" xlink:href="#b"/><use fill="#6F2232" stroke="#1A1A1D" stroke-width="3" xlink:href="#b"/></g><g id="Path" transform="translate(5 4)"><use fill="#000" filter="url(#c)" xlink:href="#d"/><use fill="#6F2232" stroke="#1A1A1D" stroke-width="3" xlink:href="#d"/></g><g id="Oval" transform="translate(5 4)"><use fill="#000" filter="url(#e)" xlink:href="#f"/><use fill="#6F2232" stroke="#1A1A1D" stroke-width="3" xlink:href="#f"/></g><g id="Path" transform="translate(5 4)"><use fill="#000" filter="url(#g)" xlink:href="#h"/><use fill="#4E4E50" stroke="#1A1A1D" stroke-width="3" xlink:href="#h"/></g><g transform="translate(5 4) rotate(-23.948 102.26 60.637)"><use fill="#000" filter="url(#i)" xlink:href="#j"/><use fill="#4E4E50" stroke="#1A1A1D" stroke-width="3" xlink:href="#j"/></g><g id="Path" transform="translate(5 4)"><use fill="#000" filter="url(#k)" xlink:href="#l"/><use fill="#4E4E50" stroke="#1A1A1D" stroke-width="3" xlink:href="#l"/></g><g transform="translate(5 4)"><use fill="#000" filter="url(#m)" xlink:href="#n"/><use fill="#6F2232" stroke="#1A1A1D" stroke-width="3" xlink:href="#n"/></g></g></g></svg>