<svg xmlns="http://www.w3.org/2000/svg" width="167" height="239" xmlns:xlink="http://www.w3.org/1999/xlink"><title>sex-etsy-37</title><defs><path id="b" d="M143.18 115.74l-14.26 61.53H73.9v5h2.76l-8.22 46.23 4.92.88L81 186.44h44.8l7.64 42.94 4.92-.88-8.22-46.23h2.75l15.4-66.54c-.07 0-.14 0-.22 0h-4.9z"/><filter id="a" width="118.9%" height="113.3%" x="-9.5%" y="-4.9%" filterUnits="objectBoundingBox"><feMorphology radius=".5" operator="dilate" in="SourceAlpha" result="shadowSpreadOuter1"/><feOffset dy="2" in="shadowSpreadOuter1" result="shadowOffsetOuter1"/><feGaussianBlur stdDeviation="2" in="shadowOffsetOuter1" result="shadowBlurOuter1"/><feComposite in="shadowBlurOuter1" in2="SourceAlpha" operator="out" result="shadowBlurOuter1"/><feColorMatrix values="0 0 0 0 0 0 0 0 0 0 0 0 0 0 0 0 0 0 1 0" in="shadowBlurOuter1"/></filter><path id="d" d="M114.56 20.63c-7.6-1.4-17.36-.14-23.6 15.74-6.16 15.6-12.4 15.86-16.5 13.92-4.1-1.96 2.75 10.3 16.76 4.24 10.8-4.67 12.8-24 20.26-26.7.34-1.37.8-2.73 1.38-4.06.5-1.1 1.07-2.15 1.7-3.15z"/><filter id="c" width="143.7%" height="147.2%" x="-20.6%" y="-18%" filterUnits="objectBoundingBox"><feMorphology radius="1.5" operator="dilate" in="SourceAlpha" result="shadowSpreadOuter1"/><feOffset dy="2" in="shadowSpreadOuter1" result="shadowOffsetOuter1"/><feGaussianBlur stdDeviation="2" in="shadowOffsetOuter1" result="shadowBlurOuter1"/><feComposite in="shadowBlurOuter1" in2="SourceAlpha" operator="out" result="shadowBlurOuter1"/><feColorMatrix values="0 0 0 0 0 0 0 0 0 0 0 0 0 0 0 0 0 0 0.5 0" in="shadowBlurOuter1"/></filter><path id="f" d="M114.96 24.72c-4.83 10.84.04 23.55 10.88 28.4 10.85 4.83 23.56-.04 28.4-10.9 4.83-10.83-.04-23.55-10.88-28.38-10.85-4.84-23.56.03-28.4 10.88z"/><filter id="e" width="139.5%" height="139.5%" x="-19.8%" y="-15.1%" filterUnits="objectBoundingBox"><feMorphology radius="1.5" operator="dilate" in="SourceAlpha" result="shadowSpreadOuter1"/><feOffset dy="2" in="shadowSpreadOuter1" result="shadowOffsetOuter1"/><feGaussianBlur stdDeviation="2" in="shadowOffsetOuter1" result="shadowBlurOuter1"/><feComposite in="shadowBlurOuter1" in2="SourceAlpha" operator="out" result="shadowBlurOuter1"/><feColorMatrix values="0 0 0 0 0 0 0 0 0 0 0 0 0 0 0 0 0 0 0.5 0" in="shadowBlurOuter1"/></filter><path id="h" d="M46.6 175.28l-8.28 39c-1.43 6.75 2.88 13.4 9.63 14.82.88.2 1.75.28 2.6.28 5.8 0 10.98-4.03 12.23-9.9l9.36-44.05H48.42c-.62 0-1.22-.06-1.8-.15z"/><filter id="g" width="150.9%" height="131.8%" x="-24.9%" y="-12.4%" filterUnits="objectBoundingBox"><feMorphology radius="1.5" operator="dilate" in="SourceAlpha" result="shadowSpreadOuter1"/><feOffset dy="2" in="shadowSpreadOuter1" result="shadowOffsetOuter1"/><feGaussianBlur stdDeviation="2" in="shadowOffsetOuter1" result="shadowBlurOuter1"/><feComposite in="shadowBlurOuter1" in2="SourceAlpha" operator="out" result="shadowBlurOuter1"/><feColorMatrix values="0 0 0 0 0 0 0 0 0 0 0 0 0 0 0 0 0 0 1 0" in="shadowBlurOuter1"/></filter><path id="j" d="M74.56 149.83c-.5-.95-1.12-1.83-1.86-2.63l-27.9-29.98c-.1-.37-.23-.74-.36-1.13-3.7-8.9-5.5-19.24-6.52-29.1L15.14 73.76c-4.9-2.85-6.6-9.17-3.73-14.08 1.85-3.16 5.26-5.13 8.92-5.13 1.8 0 3.6.5 5.17 1.4l10.7 6.22c-1-9.28-7.22-17.85-15.16-17.72C12.24 44.6 1.48 52.27.4 67.7c-1.37 21.26.6 34.32 8.83 55.12 4.93 10.1 11.7 12.7 18.3 12.53l14.87 15.98c1.8-.96 3.84-1.5 6.02-1.5h26.14z"/><filter id="i" width="123.9%" height="116.3%" x="-11.4%" y="-6.1%" filterUnits="objectBoundingBox"><feMorphology radius="1.5" operator="dilate" in="SourceAlpha" result="shadowSpreadOuter1"/><feOffset dy="2" in="shadowSpreadOuter1" result="shadowOffsetOuter1"/><feGaussianBlur stdDeviation="2" in="shadowOffsetOuter1" result="shadowBlurOuter1"/><feComposite in="shadowBlurOuter1" in2="SourceAlpha" operator="out" result="shadowBlurOuter1"/><feColorMatrix values="0 0 0 0 0 0 0 0 0 0 0 0 0 0 0 0 0 0 1 0" in="shadowBlurOuter1"/></filter><ellipse id="l" cx="47.062" cy="25.504" rx="22.501" ry="22.501"/><filter id="k" width="137.8%" height="137.8%" x="-18.9%" y="-14.4%" filterUnits="objectBoundingBox"><feMorphology radius="1.5" operator="dilate" in="SourceAlpha" result="shadowSpreadOuter1"/><feOffset dy="2" in="shadowSpreadOuter1" result="shadowOffsetOuter1"/><feGaussianBlur stdDeviation="2" in="shadowOffsetOuter1" result="shadowBlurOuter1"/><feComposite in="shadowBlurOuter1" in2="SourceAlpha" operator="out" result="shadowBlurOuter1"/><feColorMatrix values="0 0 0 0 0 0 0 0 0 0 0 0 0 0 0 0 0 0 1 0" in="shadowBlurOuter1"/></filter><path id="n" d="M96.84 108.86c-.06.12-.12.24-.2.36-1.82 3.16-5.24 5.13-8.9 5.13-1.8 0-3.6-.5-5.17-1.4l-15.28-8.88c-.4.35-.78.7-1.2 1.05-6.42 5.58-7.65 11-6.04 15.76.3 1.93 1.15 3.8 2.54 5.35l23.27 25.9H48.42c-5.8 0-10.5 4.7-10.5 10.5s4.7 10.5 10.5 10.5h61c4.14 0 7.9-2.44 9.6-6.23 1.67-3.78.98-8.2-1.8-11.3l-25.88-28.8c1.56-4.16 3.7-9.2 6.86-14.85-.65-.93-1.1-1.98-1.36-3.1z"/><filter id="m" width="120.7%" height="125.1%" x="-10.4%" y="-9.9%" filterUnits="objectBoundingBox"><feMorphology radius="1.5" operator="dilate" in="SourceAlpha" result="shadowSpreadOuter1"/><feOffset dy="2" in="shadowSpreadOuter1" result="shadowOffsetOuter1"/><feGaussianBlur stdDeviation="2" in="shadowOffsetOuter1" result="shadowBlurOuter1"/><feComposite in="shadowBlurOuter1" in2="SourceAlpha" operator="out" result="shadowBlurOuter1"/><feColorMatrix values="0 0 0 0 0 0 0 0 0 0 0 0 0 0 0 0 0 0 0.5 0" in="shadowBlurOuter1"/></filter><path id="p" d="M94.26 58.6c-6.7 7.73-3.22 16-12.74 29.9l11.4 6.64c1.8 1.04 3.15 2.54 4.02 4.27l1.35-31.17c.2-4.72 4.05-8.42 8.77-8.42.13 0 .26 0 .4.02 4.84.2 8.6 4.33 8.4 9.17l-1.14 26.33c9.08 5.56 14.34-2.93 14.63-9.24.92-.06 1.64-.82 1.64-1.75 0-.96-.78-1.75-1.75-1.75-.26 0-.5.06-.72.17-1.32-2.16-4.05-5.37-6.84-8.43-1.54-3.4-3.63-7.8-.84-16.33-6.05-7.93-17.42-9.95-26.6.6z"/><filter id="o" width="135.7%" height="144.4%" x="-18.5%" y="-13.5%" filterUnits="objectBoundingBox"><feMorphology radius="1.5" operator="dilate" in="SourceAlpha" result="shadowSpreadOuter1"/><feOffset dy="2" in="shadowSpreadOuter1" result="shadowOffsetOuter1"/><feGaussianBlur stdDeviation="2" in="shadowOffsetOuter1" result="shadowBlurOuter1"/><feComposite in="shadowBlurOuter1" in2="SourceAlpha" operator="out" result="shadowBlurOuter1"/><feColorMatrix values="0 0 0 0 0 0 0 0 0 0 0 0 0 0 0 0 0 0 0.5 0" in="shadowBlurOuter1"/></filter><path id="r" d="M113.58 68.9c.15-3.6-2.63-6.63-6.22-6.78-3.6-.16-6.62 2.62-6.77 6.2l-1.68 38.34c-.07 1.77.58 3.5 1.8 4.78 1.23 1.28 2.92 2 4.7 2h42.66c3.6 0 6.5-2.9 6.5-6.5s-2.9-6.5-6.5-6.5H112.2l1.38-31.55z"/><filter id="q" width="130.5%" height="133.1%" x="-15.3%" y="-12.7%" filterUnits="objectBoundingBox"><feMorphology radius="1.5" operator="dilate" in="SourceAlpha" result="shadowSpreadOuter1"/><feOffset dy="2" in="shadowSpreadOuter1" result="shadowOffsetOuter1"/><feGaussianBlur stdDeviation="2" in="shadowOffsetOuter1" result="shadowBlurOuter1"/><feComposite in="shadowBlurOuter1" in2="SourceAlpha" operator="out" result="shadowBlurOuter1"/><feColorMatrix values="0 0 0 0 0 0 0 0 0 0 0 0 0 0 0 0 0 0 0.5 0" in="shadowBlurOuter1"/></filter><path id="t" d="M83.73 110.96c1.26.74 2.65 1.1 4 1.1 2.77 0 5.45-1.44 6.94-4 2.22-3.82.92-8.7-2.9-10.93l-67.44-39.2c-3.82-2.2-8.7-.9-10.93 2.9-2.22 3.83-.93 8.72 2.9 10.94l67.43 39.2z"/><filter id="s" width="120.4%" height="130.8%" x="-10.2%" y="-11.8%" filterUnits="objectBoundingBox"><feMorphology radius="1.5" operator="dilate" in="SourceAlpha" result="shadowSpreadOuter1"/><feOffset dy="2" in="shadowSpreadOuter1" result="shadowOffsetOuter1"/><feGaussianBlur stdDeviation="2" in="shadowOffsetOuter1" result="shadowBlurOuter1"/><feComposite in="shadowBlurOuter1" in2="SourceAlpha" operator="out" result="shadowBlurOuter1"/><feColorMatrix values="0 0 0 0 0 0 0 0 0 0 0 0 0 0 0 0 0 0 1 0" in="shadowBlurOuter1"/></filter></defs><g fill="none"><g fill-rule="nonzero"><g id="Path" transform="translate(5 2)"><use fill="#000" filter="url(#a)" xlink:href="#b"/><use fill="#4E4E50" stroke="#1A1A1D" xlink:href="#b"/></g><g id="Path" transform="translate(5 2)"><use fill="#000" filter="url(#c)" xlink:href="#d"/><use fill="#6F2232" stroke="#1A1A1D" stroke-width="3" xlink:href="#d"/></g><g id="Path" transform="translate(5 2)"><use fill="#000" filter="url(#e)" xlink:href="#f"/><use fill="#6F2232" stroke="#1A1A1D" stroke-width="3" xlink:href="#f"/></g><g id="Path" transform="translate(5 2)"><use fill="#000" filter="url(#g)" xlink:href="#h"/><use fill="#4E4E50" stroke="#1A1A1D" stroke-width="3" xlink:href="#h"/></g><g id="Path" transform="translate(5 2)"><use fill="#000" filter="url(#i)" xlink:href="#j"/><use fill="#4E4E50" stroke="#1A1A1D" stroke-width="3" xlink:href="#j"/></g><g transform="translate(5 2) rotate(-84.307 47.062 25.504)"><use fill="#000" filter="url(#k)" xlink:href="#l"/><use fill="#4E4E50" stroke="#1A1A1D" stroke-width="3" xlink:href="#l"/></g><g id="Path" transform="translate(5 2)"><use fill="#000" filter="url(#m)" xlink:href="#n"/><use fill="#6F2232" stroke="#1A1A1D" stroke-width="3" xlink:href="#n"/></g><g id="Path" transform="translate(5 2)"><use fill="#000" filter="url(#o)" xlink:href="#p"/><use fill="#6F2232" stroke="#1A1A1D" stroke-width="3" xlink:href="#p"/></g><g id="Path" transform="translate(5 2)"><use fill="#000" filter="url(#q)" xlink:href="#r"/><use fill="#6F2232" stroke="#1A1A1D" stroke-width="3" xlink:href="#r"/></g><g transform="translate(5 2)"><use fill="#000" filter="url(#s)" xlink:href="#t"/><use fill="#4E4E50" stroke="#1A1A1D" stroke-width="3" xlink:href="#t"/></g></g></g></svg>