<svg xmlns="http://www.w3.org/2000/svg" width="254" height="192" xmlns:xlink="http://www.w3.org/1999/xlink"><title>sex-etsy-46</title><defs><path id="b" d="M95.77 178.33c-2-4.8-.9-10.28 2.78-13.95l4.47-4.46-20.84 6.82c-5.4 1.76-11.22-1.2-13-6.6-.45-1.38-.6-2.82-.45-4.27.43-4.03 3.2-7.45 7.05-8.7l12.47-4.1c-1.96-.5-3.85-1-5.64-1.45-9.77-3.4-21.87-.32-24.46 8.1-2.6 8.4 1.36 21 15.7 26.84 10.15 4.05 18.52 6.58 27.27 7.92-2.34-1.38-4.24-3.5-5.33-6.15z"/><filter id="a" width="146.3%" height="141.1%" x="-18.6%" y="-14.7%" filterUnits="objectBoundingBox"><feMorphology radius="1.5" operator="dilate" in="SourceAlpha" result="shadowSpreadOuter1"/><feOffset dy="2" in="shadowSpreadOuter1" result="shadowOffsetOuter1"/><feGaussianBlur stdDeviation="2" in="shadowOffsetOuter1" result="shadowBlurOuter1"/><feComposite in="shadowBlurOuter1" in2="SourceAlpha" operator="out" result="shadowBlurOuter1"/><feColorMatrix values="0 0 0 0 0 0 0 0 0 0 0 0 0 0 0 0 0 0 1 0" in="shadowBlurOuter1"/></filter><path id="d" d="M232.97 179.5c5.36 4.34 13.23 3.52 17.58-1.84 4.35-5.36 3.53-13.23-1.83-17.58l-43.5-35.3c-.48 1.22-1.22 2.34-2.2 3.26-1.64 1.52-3.77 2.36-6 2.36-2.44 0-4.8-1.02-6.44-2.8l-10.15-10.86c-.15.1-.3.2-.44.32l-13.9 11.23c-.34 5.58-3.55 9.03-6.1 10.9l-21.47 21.44h27.3l22-17.77 45.14 36.62z"/><filter id="c" width="116.7%" height="126.5%" x="-9.3%" y="-10.5%" filterUnits="objectBoundingBox"><feMorphology radius="1.5" operator="dilate" in="SourceAlpha" result="shadowSpreadOuter1"/><feOffset dy="2" in="shadowSpreadOuter1" result="shadowOffsetOuter1"/><feGaussianBlur stdDeviation="2" in="shadowOffsetOuter1" result="shadowBlurOuter1"/><feComposite in="shadowBlurOuter1" in2="SourceAlpha" operator="out" result="shadowBlurOuter1"/><feColorMatrix values="0 0 0 0 0 0 0 0 0 0 0 0 0 0 0 0 0 0 1 0" in="shadowBlurOuter1"/></filter><circle id="f" cx="31.496" cy="157.674" r="22.5"/><filter id="e" width="137.8%" height="137.8%" x="-18.9%" y="-14.4%" filterUnits="objectBoundingBox"><feMorphology radius="1.5" operator="dilate" in="SourceAlpha" result="shadowSpreadOuter1"/><feOffset dy="2" in="shadowSpreadOuter1" result="shadowOffsetOuter1"/><feGaussianBlur stdDeviation="2" in="shadowOffsetOuter1" result="shadowBlurOuter1"/><feComposite in="shadowBlurOuter1" in2="SourceAlpha" operator="out" result="shadowBlurOuter1"/><feColorMatrix values="0 0 0 0 0 0 0 0 0 0 0 0 0 0 0 0 0 0 1 0" in="shadowBlurOuter1"/></filter><path id="h" d="M132.97 162.94l25.54-25.5c4.98-3.57 7.35-9.5 3.2-18.67-6.36-14.02-7.92-23.38-7.8-30.46l-14.8-15.85c-1.6-1.7-2.44-3.95-2.36-6.3.08-2.35 1.07-4.53 2.8-6.13 1.62-1.53 3.76-2.37 6-2.37 2.42 0 4.77 1.02 6.43 2.8l2.62 2.8c.05-.24.1-.5.18-.73-4.46-11.5-14.86-13.84-23.16-9.42-1.03 8.92-4.77 12.04-7.57 14.48-3.85 1.64-7.7 3.43-9.78 4.84-.3-.27-.7-.44-1.16-.44-.96 0-1.74.78-1.74 1.75 0 .6.3 1.13.77 1.44-2.58 6.54-.7 17.95 13.44 13.52 1.5 5.32 2.5 10.26 3.18 14.83 3.18-3.06 8.1-3.84 12.16-1.58 3.63 2 5.68 5.97 5.24 10.1-.14 1.37-.56 2.7-1.24 3.9l-18.64 33.48c-1.26 2.27-3.32 3.97-5.8 4.78l-12.6 4.13-7.7 7.68c-3 3-3.9 7.53-2.27 11.45 1.6 3.93 5.44 6.5 9.7 6.5h65c5.8 0 10.5-4.7 10.5-10.5s-4.7-10.5-10.5-10.5h-39.63z"/><filter id="g" width="119.8%" height="112.8%" x="-9.9%" y="-4.9%" filterUnits="objectBoundingBox"><feMorphology radius="1.5" operator="dilate" in="SourceAlpha" result="shadowSpreadOuter1"/><feOffset dy="2" in="shadowSpreadOuter1" result="shadowOffsetOuter1"/><feGaussianBlur stdDeviation="2" in="shadowOffsetOuter1" result="shadowBlurOuter1"/><feComposite in="shadowBlurOuter1" in2="SourceAlpha" operator="out" result="shadowBlurOuter1"/><feColorMatrix values="0 0 0 0 0 0 0 0 0 0 0 0 0 0 0 0 0 0 0.5 0" in="shadowBlurOuter1"/></filter><path id="j" d="M119.75 152.02c1.92-.63 3.53-1.95 4.5-3.7l18.64-33.48c.53-.97.85-2 .96-3.05.33-3.1-1.18-6.23-4.07-7.84-3.87-2.15-8.74-.77-10.9 3.1l-17.1 30.73-35.3 11.55c-4.2 1.37-6.5 5.9-5.12 10.1 1.37 4.2 5.9 6.48 10.1 5.1l38.27-12.53z"/><filter id="i" width="123.3%" height="127.4%" x="-11.7%" y="-10.5%" filterUnits="objectBoundingBox"><feMorphology radius="1.5" operator="dilate" in="SourceAlpha" result="shadowSpreadOuter1"/><feOffset dy="2" in="shadowSpreadOuter1" result="shadowOffsetOuter1"/><feGaussianBlur stdDeviation="2" in="shadowOffsetOuter1" result="shadowBlurOuter1"/><feComposite in="shadowBlurOuter1" in2="SourceAlpha" operator="out" result="shadowBlurOuter1"/><feColorMatrix values="0 0 0 0 0 0 0 0 0 0 0 0 0 0 0 0 0 0 1 0" in="shadowBlurOuter1"/></filter><path id="l" d="M163.5 40.16c2.26 5.77-5.3 15.73-7 25.14l9.8 10.5c-.2-3.3.9-7.94 4.33-14.6 7.8-15.16 2.32-23.34-3.75-28.1-.33 1.12-.74 2.24-1.25 3.34-.6 1.33-1.33 2.56-2.14 3.72z"/><filter id="k" width="195.1%" height="151%" x="-47.8%" y="-17.6%" filterUnits="objectBoundingBox"><feMorphology radius="1.5" operator="dilate" in="SourceAlpha" result="shadowSpreadOuter1"/><feOffset dy="2" in="shadowSpreadOuter1" result="shadowOffsetOuter1"/><feGaussianBlur stdDeviation="2" in="shadowOffsetOuter1" result="shadowBlurOuter1"/><feComposite in="shadowBlurOuter1" in2="SourceAlpha" operator="out" result="shadowBlurOuter1"/><feColorMatrix values="0 0 0 0 0 0 0 0 0 0 0 0 0 0 0 0 0 0 0.5 0" in="shadowBlurOuter1"/></filter><circle id="n" cx="144.006" cy="26.5" r="21.5"/><filter id="m" width="139.5%" height="139.5%" x="-19.8%" y="-15.1%" filterUnits="objectBoundingBox"><feMorphology radius="1.5" operator="dilate" in="SourceAlpha" result="shadowSpreadOuter1"/><feOffset dy="2" in="shadowSpreadOuter1" result="shadowOffsetOuter1"/><feGaussianBlur stdDeviation="2" in="shadowOffsetOuter1" result="shadowBlurOuter1"/><feComposite in="shadowBlurOuter1" in2="SourceAlpha" operator="out" result="shadowBlurOuter1"/><feColorMatrix values="0 0 0 0 0 0 0 0 0 0 0 0 0 0 0 0 0 0 0.5 0" in="shadowBlurOuter1"/></filter><path id="p" d="M150.3 62.02c-2.46-2.63-6.58-2.77-9.2-.32-2.63 2.45-2.77 6.56-.32 9.2l51.48 55.14c1.28 1.37 3 2.06 4.75 2.06 1.6 0 3.2-.58 4.44-1.74 2.63-2.45 2.77-6.57.32-9.2L150.3 62.03z"/><filter id="o" width="126.4%" height="124.9%" x="-13.2%" y="-9.5%" filterUnits="objectBoundingBox"><feMorphology radius="1.5" operator="dilate" in="SourceAlpha" result="shadowSpreadOuter1"/><feOffset dy="2" in="shadowSpreadOuter1" result="shadowOffsetOuter1"/><feGaussianBlur stdDeviation="2" in="shadowOffsetOuter1" result="shadowBlurOuter1"/><feComposite in="shadowBlurOuter1" in2="SourceAlpha" operator="out" result="shadowBlurOuter1"/><feColorMatrix values="0 0 0 0 0 0 0 0 0 0 0 0 0 0 0 0 0 0 0.5 0" in="shadowBlurOuter1"/></filter></defs><g fill="none"><g fill-rule="nonzero"><g id="Path" transform="translate(-5 -1)"><use fill="#000" filter="url(#a)" xlink:href="#b"/><use fill="#4E4E50" stroke="#1A1A1D" stroke-width="3" xlink:href="#b"/></g><g id="Path" transform="translate(-5 -1)"><use fill="#000" filter="url(#c)" xlink:href="#d"/><use fill="#4E4E50" stroke="#1A1A1D" stroke-width="3" xlink:href="#d"/></g><g id="Oval" transform="translate(-5 -1) rotate(-56.089 31.496 157.674)"><use fill="#000" filter="url(#e)" xlink:href="#f"/><use fill="#4E4E50" stroke="#1A1A1D" stroke-width="3" xlink:href="#f"/></g><g id="Path" transform="translate(-5 -1)"><use fill="#000" filter="url(#g)" xlink:href="#h"/><use fill="#6F2232" stroke="#1A1A1D" stroke-width="3" xlink:href="#h"/></g><g id="Path" transform="translate(-5 -1)"><use fill="#000" filter="url(#i)" xlink:href="#j"/><use fill="#4E4E50" stroke="#1A1A1D" stroke-width="3" xlink:href="#j"/></g><g id="Path" transform="translate(-5 -1)"><use fill="#000" filter="url(#k)" xlink:href="#l"/><use fill="#6F2232" stroke="#1A1A1D" stroke-width="3" xlink:href="#l"/></g><g transform="translate(-5 -1) rotate(-14.329 144.006 26.5)"><use fill="#000" filter="url(#m)" xlink:href="#n"/><use fill="#6F2232" stroke="#1A1A1D" stroke-width="3" xlink:href="#n"/></g><g transform="translate(-5 -1)"><use fill="#000" filter="url(#o)" xlink:href="#p"/><use fill="#6F2232" stroke="#1A1A1D" stroke-width="3" xlink:href="#p"/></g></g></g></svg>